**ABCDEFGHIJKLMNOPQRSTUVWXYZabcdefghijklmnopqrstuvwxyz**************************
**PARASOLID !"#$%&'()*+,-./:;<=>?@[\]^_`{|}~0123456789**************************
**PART1;
MC=AMD64;
MC_MODEL=Intel64 Family 6 Model 158 Stepping 10, GenuineIntel;
MC_ID=unknown;
OS=Windows_NT;
OS_RELEASE=unknown;
FRU=Parasolid Version 25.1, build 198,  6-19-2013;
APPL=SolidWorks 2014-2013262;
SITE=;
USER=unknown;
FORMAT=text;
GUISE=transmit;
KEY=fan_cw;
FILE=fan_cw.x_t;
DATE=Mon Jun 14 20:14:46 2021;
**PART2;
SCH=SCH_2501198_25001;
USFLD_SIZE=0;
**PART3;
**END_OF_HEADER*****************************************************************
T51 : TRANSMIT FILE created by modeller version 250119823 SCH_2501198_25001_1300
6189 0 10 255 1 27 2 3 0 0 0 0 0 1e3 1e-8 0 0 0 1 0 1 4 81 255 1 2 27 5 1 0 0 0
 0 0 70 11 CI9 list_type0 0 1 uI10 notransmit0 0 1 lCCCDCCDI12 finger_index0 0 1
 dI12 finger_block1012 0 CZ3 0 4 T1 0 0 1 20 1 6 6 11 255 4 25 0 1 7 8 1 9 0 9 0
 12 29 CCCCCCCCCCCCCDI5 owner1040 0 CCCCCCCCCA16 index_map_offset0 0 1 dA9 index
_map82 0 A17 node_id_index_map82 0 A20 schema_embedding_map82 0 A5 child12 0 A14
 lowest_node_id0 0 1 dZ7 395 10 11 0 0 0 0 1e3 1e-8 4 12 0 1 0 1 1 13 14 15 16 1
7 18 19 0 0 0 0 0 0 100 255 8 26 4 0 0 .866025403784445 -.2575190374550105 .4285
836503510535 0 .857167300702126 .515038074910032 -.499999999999989 -.44603605678
83235 .742328657701381 .00788403558795844 .00501200162715641 .001550308276392455
 1 3 ?11 9 23 0 1 7 20 1 21 4 21 4 100 20 24 9 0 0 .50000000000001 -.44603605678
83175 .742328657701371 0 .857167300702126 .515038074910032 -.866025403784433 -.2
57519037455021 .4285836503510715 .00760292924170881 .00501200162715641 -.0025994
1144292609 1 3 ?11 21 21 0 1 7 22 1 23 9 23 9 100 22 22 21 0 0 104744440165294e-
28 -.515038074910032 .857167300702126 0 .857167300702126 .515038074910032 -1 -53
9473748202621e-29 897835090400404e-29 .00528462414503234 .00501200162715641 -.00
605262096531637 1 3 ?11 23 19 0 1 7 24 1 25 21 25 21 100 24 20 23 0 0 -.49999999
9999992 -.446036056788323 .74232865770138 0 .857167300702126 .515038074910032 -.
866025403784443 .257519037455012 -.428583650351056 .00155030827639243 .005012001
62715641 -.00788403558795844 1 3 ?11 25 17 0 1 7 26 1 27 23 27 23 100 26 18 25 0
 0 -.866025403784435 -.2575190374550195 .428583650351069 0 .857167300702126 .515
038074910032 -.500000000000007 .4460360567883185 -.742328657701372 -.00259941144
292612 .00501200162715641 -.00760292924170881 1 3 ?11 27 15 0 1 7 28 1 29 25 29
 25 100 28 16 27 0 0 -1 -3596491654684135e-30 598556726933603e-29 0 .85716730070
2126 .515038074910032 -698296267768627e-29 .515038074910032 -.857167300702126 -.
00605262096531639 .00501200162715641 -.00528462414503232 1 3 ?11 29 13 0 1 7 30
 1 31 27 31 27 100 30 14 29 0 0 -.866025403784442 .2575190374550135 -.4285836503
510585 0 .857167300702126 .515038074910032 .5 .446036056788322 -.742328657701378
 -.00788403558795845 .00501200162715641 -.001550308276392405 1 3 ?11 31 11 0 1 7
 32 1 33 29 33 29 100 32 12 31 0 0 -.5 .4460360567883195 -.742328657701374 0 .85
7167300702126 .515038074910032 .866025403784437 .257519037455018 -.4285836503510
665 -.0076029292417088 .00501200162715641 .002599411442926145 1 3 ?11 33 9 0 1 7
 34 1 35 31 35 31 100 34 10 33 0 0 -3491481338843135e-30 .515038074910032 -.8571
67300702126 0 .857167300702126 .515038074910032 1 179824582734207e-29 -299278363
4668015e-30 -.0052846241450323 .00501200162715641 .00605262096531641 1 3 ?11 35
 7 0 1 7 36 1 37 33 37 33 100 36 8 35 0 0 .5 .446036056788321 -.742328657701377
 0 .857167300702126 .515038074910032 .86602540378444 -.257519037455015 .42858365
0351061 -.001550308276392375 .00501200162715641 .00788403558795845 1 3 ?11 37 5
 0 1 7 38 1 39 35 39 35 100 38 6 37 0 0 .866025403784438 .2575190374550165 -.428
5836503510635 0 .857167300702126 .515038074910032 .5 -.44603605678832 .742328657
701375 .00259941144292617 .00501200162715641 .00760292924170879 1 3 ?11 39 3 0 1
 7 40 1 41 37 0 37 100 40 4 39 0 0 1 0 0 0 .857167300702126 .515038074910032 0 -
.515038074910032 .857167300702126 .00605262096531643 .00501200162715641 .0052846
2414503228 1 3 ?11 41 1 0 1 12 42 1 0 39 0 0 12 12 169 43 44 0 0 0 0 1e3 1e-8 41
 45 7 1 0 1 1 46 47 48 0 49 50 0 0 0 0 0 0 0 100 42 2 41 0 0 1 0 0 0 1 0 0 0 1 0
 0 0 1 0 ?81 1 43 169 5 12 0 0 0 0 51 70 44 0 4 T12 0 0 3 20 1 52 52 13 255 46 2
9 0 12 0 53 0 0 54 0 54 255 47 122 0 55 56 0 0 +0 .007 0 0 1 0 .005 .003 0 0 1 3
1 255 48 106 0 50 57 0 0 -0 .007 0 0 1 0 0 0 1 .008 19 8 CCCCCCCA5 owner12 0 Z49
 7 0 12 54 0 58 V0 16 255 50 103 0 ?59 0 60 48 0 0 12 17 255 59 0 61 59 59 0 62
 50 0 0 +16 60 97 0 ?63 50 64 57 0 0 12 17 63 0 65 63 63 0 66 60 0 0 +16 64 53 0
 ?67 60 68 69 0 0 12 31 57 100 0 60 69 48 0 +0 .01 0 0 1 0 0 0 1 .005 31 69 56 0
 64 70 57 0 -0 0 0 0 1 0 0 0 1 .0015 31 70 23 0 68 71 69 0 +0 0 0 0 1 0 0 0 1 .0
08 16 68 18 0 ?72 64 73 70 0 0 12 31 71 83 0 73 0 70 0 +0 -.02 0 0 -1 0 0 0 -1 .
0015 16 73 63 0 ?74 68 0 71 0 0 12 17 74 0 75 74 74 0 76 73 0 0 +15 255 75 73 0
 74 77 0 17 76 0 78 76 76 0 74 73 0 0 -15 78 69 0 76 79 80 14 255 79 66 81 ?77 8
2 78 46 83 -0 0 77 82 58 15 80 70 0 67 79 0 17 67 0 80 67 67 0 84 64 0 0 +17 84
 0 85 84 84 0 67 64 0 0 -15 85 55 0 84 53 0 14 53 57 86 ?87 0 88 46 89 -0 0 87 0
 58 81 1 86 163 90 53 91 0 0 92 93 14 87 25 92 ?82 53 61 46 56 -0 0 82 53 58 15
 88 17 0 94 53 85 50 255 89 22 0 53 95 56 0 +0 0 0 0 1 0 0 0 1 13 58 8 0 0 0 0 0
 0 49 53 50 95 2 0 82 83 89 0 +0 .01 0 0 1 0 0 0 1 51 255 56 28 0 87 89 47 0 -0
 .01 0 0 -1 0 .008 0 0 -1 14 82 1 96 ?79 87 65 46 95 +0 0 79 87 58 51 83 79 0 79
 97 95 0 -0 -.02 0 0 1 0 .0015 0 0 1 50 97 81 0 77 0 83 0 +0 -.02 0 0 -1 0 0 0 -
1 14 77 71 98 ?55 79 75 46 97 +0 0 55 79 58 81 1 98 167 90 77 99 0 81 100 101 14
 55 115 100 ?0 77 102 46 47 +0 0 0 77 58 81 1 100 168 90 55 103 0 98 0 104 15 10
2 116 0 62 55 105 17 62 0 102 62 62 0 59 50 0 0 -15 105 117 0 66 55 0 17 66 0 10
5 66 66 0 63 60 0 0 -80 255 1 90 0 106 8001 0 0 0 0 3 5 0 0 0 FFFFTFTFFFFFFF2 81
 1 103 161 107 55 0 100 99 0 108 83 255 3 104 1 1 1 80 1 107 109 110 9000 1 1 1
 1 1 1 1 1 0 FFFFTFTFFFFFFF1 81 1 99 159 107 77 0 98 111 103 112 82 255 1 108 82
5295136 81 1 111 157 107 82 0 96 113 99 114 82 1 112 -1598095076 81 1 96 165 90
 82 111 0 92 81 115 81 1 113 155 107 87 0 92 91 111 116 82 1 114 -652672736 81 1
 92 164 90 87 113 0 86 96 117 81 1 91 153 107 53 0 86 118 113 119 82 1 116 -6507
06656 81 1 118 151 107 79 0 81 0 91 120 82 1 119 -1593704164 81 1 81 166 90 79 1
18 0 96 98 121 82 1 120 -1596128996 83 3 121 1 1 1 83 3 117 1 1 1 83 3 115 1 1 1
 79 255 14 110 SWEntUnchanged79 15 106 SDL/TYSA_COLOUR83 3 101 1 1 1 15 65 98 0
 63 82 0 17 94 0 88 94 94 0 72 68 0 0 -17 72 0 122 72 72 0 94 68 0 0 +15 122 26
 0 72 87 0 15 61 104 0 59 87 122 83 3 93 1 1 1 19 54 30 0 12 0 49 46 S0 74 4 CI1
6 index_map_offset0 0 1 dCCZ20 52 3 0 0 103 100 43 0 0 0 0 0 0 0 0 0 0 0 0 0 0 0
 0 0 80 1 5 123 124 8017 0 0 0 0 0 0 0 0 0 TTTTTTTTTTTTTF3 84 255 10 51 fan_pill
ar79 13 124 SDL/TYSA_NAME81 1 10 395 5 7 0 0 0 0 125 70 11 0 4 T7 0 0 3 20 1 126
 126 13 13 54 0 7 0 127 0 0 128 0 50 14 285 0 7 129 0 130 +.0637565678565281 .00
2 .000734730930666756 0 1 0 0 0 1 38 255 15 319 0 7 131 0 132 +133 134 135 136 1
37 29 255 16 183 0 19 138 0 .1083900075490754 .003 -.00756808380971529 19 17 16
 0 7 128 0 139 V0 16 18 186 0 ?140 0 141 142 0 0 7 18 255 19 181 0 143 0 144 16
 2e-6 7 17 143 0 145 146 147 19 148 149 150 151 +18 144 170 0 152 19 153 138 2e-
6 7 17 152 0 154 155 156 144 157 158 0 159 +18 153 147 0 160 144 161 162 ?7 29 1
38 172 0 144 162 16 .1083900075490754 433680868994202e-33 -.00756808380971531 29
 162 149 0 153 163 138 0 .003 -.001011227973029274 29 163 146 0 161 164 162 0 .0
03 -.00897552649771379 18 161 144 0 165 153 166 163 ?7 29 164 143 0 166 167 163
 0 0 -.001011227973029274 18 166 141 0 155 161 168 164 ?7 29 167 140 0 168 169 1
64 0 0 -.00897552649771379 18 168 138 0 170 166 171 167 ?7 29 169 124 0 171 172
 167 .1092409004780552 .000999999999909966 -.00704254304623063 18 171 122 0 173
 168 174 169 2e-6 7 29 172 119 0 174 175 169 .1091997351419052 .001 -.0081550747
7386287 18 174 117 0 176 171 177 172 2e-6 7 29 175 103 0 177 178 172 .1091997351
419052 .00200000000012551 -.00815507477386297 18 177 101 0 179 174 180 175 2e-6
 7 29 178 98 0 180 181 175 .1092409004780552 .002 -.00704254304623063 18 180 96
 0 182 177 183 178 2e-6 7 29 181 95 0 183 184 178 0 .001 0 18 183 93 0 185 180 1
86 181 ?7 29 184 92 0 186 187 181 0 .002 0 18 186 90 0 188 183 189 184 ?7 29 187
 89 0 189 190 184 0 .001 -.01 18 189 87 0 191 186 192 187 ?7 29 190 86 0 192 0 1
87 0 .002 -.01 18 192 84 0 193 189 0 190 ?7 17 193 0 194 195 196 192 197 198 0 1
99 +15 194 46 0 195 200 0 17 195 0 194 170 193 189 199 201 0 202 +17 196 0 194 1
93 160 161 203 204 0 197 -17 197 0 205 206 207 161 193 198 0 0 -16 198 155 0 ?19
3 208 209 210 0 0 7 17 199 0 211 179 191 192 195 201 0 207 -15 211 48 0 212 127
 0 17 179 0 211 182 199 177 207 213 0 214 +17 191 0 211 199 176 189 215 216 0 19
5 +16 201 85 0 ?195 217 218 219 0 0 7 17 207 0 205 197 214 192 179 213 0 0 -15 2
05 262 0 214 220 0 17 214 0 205 207 206 177 151 221 222 223 -16 213 110 0 ?179 2
16 224 225 0 0 7 16 216 118 0 ?191 226 213 227 0 0 7 16 224 102 0 2e-6 182 213 2
17 0 0 0 7 133 255 225 112 0 213 228 229 0 +229 -736355453718082e-31 .002 -.01 .
1091997351419052 .002 -.00815507477386297 -599999999984766e-22 .1115245663163544
 38 228 109 0 7 230 225 231 +232 233 234 235 236 38 229 113 0 7 225 237 238 +239
 233 240 241 242 133 237 125 0 176 229 243 0 +243 .1092409004780552 .00099999999
9909966 -.00704254304623063 .1091997351419052 .000999999999909958 -.008155074773
86287 0 1 141 255 238 225 238 238 229 59 255 239 114 0 7 232 244 245 +0 246 67 2
55 233 53 0 127 247 232 248 +249 0 -1 0 .000970333638989097 40 255 12 240 0 1 12
 .00212315416123212 .2776284976877785 ??58566703698942e-21 .002 -.01000001303615
006 .00199602299645712 .002 -.01023803651679392 .00607375738307408 .002 -.009625
69132541802 .0194277688102574 .002 -.0087714618096847 .0721908229108517 .002 -.0
1229195709477352 .0868461420910807 .002 -.01229439755868166 .0962550879039708 .0
02 -.0115700630517836 .1021012713946636 .002 -.01071911255018964 .10555880979262
58 .002 -.0099446145155673 .108273565683824 .002 -.00891128688031324 .1090239155
78302 .002 -.00836242932259976 .1091997351419052 .002 -.00815507477386297 41 255
 2 241 T-736355453718082e-31 .002 -.01 58566703698942e-21 .002 -.010000013036150
06 41 1 242 L.1091997351419052 .002 -.00815507477386297 14 127 49 250 ?200 0 211
 13 233 -0 0 200 0 139 50 247 52 0 200 251 233 252 +0 .003 0 1 0 0 0 0 -1 59 232
 100 0 7 233 239 253 +0 254 141 248 228 255 256 233 134 255 249 5 0 7 0 257 258
 +259 260 30 255 257 8 0 204 249 261 0 +0 .003 0 0 0 1 141 258 233 258 258 249 1
36 255 259 3 11 3 9 6 FFF1 262 263 264 135 255 260 2 0 45 255 33 262 -2655715215
0203e-31 .003 399172357217623e-33 .0239205561055352 .003 -.00359542495844378 .04
44119510929813 .003 -.00581922514430412 .0845314559335331 .003 .0073391499087106
2 .0887824820172508 .003 -.00237317888932692 .1069525319278506 .003 -.0047358749
9044668 .1150198359385776 .003 -.00936771943893734 .0689104200040154 .003 -.0149
731612221707 .01276006363829664 .003 -.00538128159017458 .00323626848635366 .003
 -.0107203584492014 -736355453718082e-31 .003 -.01 127 255 9 263 4 1 1 1 1 1 1 1
 4 128 255 9 264 0 .3395163181105705 .750511324050272 .860806358038539 .87773869
2971564 .915157342223966 .927087320456962 .985108497068529 1 16 204 145 0 ?203 2
18 265 257 0 0 7 30 261 40 0 265 257 266 0 +0 0 0 0 0 1 16 265 139 0 ?267 204 26
8 261 0 0 7 30 266 50 0 218 261 219 0 +0 .003 0 0 -1 0 16 218 91 0 ?212 201 204
 266 0 0 7 30 219 51 0 201 266 269 0 +0 .003 -.01 0 -1 0 133 269 104 0 182 219 2
70 0 +270 .1091997351419052 .00200000000012551 -.00815507477386297 .109240900478
0552 .002000000000125505 -.00704254304623063 0 1 17 182 0 211 188 179 180 223 22
4 269 147 +137 255 270 105 0 7 269 230 271 +233 272 0 ?133 230 108 0 217 270 228
 0 +228 .1092409004780552 .002 -.00704254304623063 -26557152150203e-31 .002 3991
72357217623e-33 0 .115784872481951 141 271 269 271 271 270 134 272 0 0 0 0 0 0 +
273 274 136 273 1 2 2 2 5 FFF1 275 276 277 135 274 2 0 45 4 275 .901096668313959
 .00099999999987449 .894672208775034 .000999999999874495 127 2 276 2 2 128 2 277
 0 1 16 217 97 0 ?188 224 201 230 0 0 7 17 188 0 211 212 182 186 147 217 0 278 +
17 212 0 211 279 188 183 278 218 0 280 +17 147 0 145 143 281 180 188 217 0 148 -
17 278 0 194 160 185 186 212 218 0 281 -17 160 0 194 196 278 153 281 209 0 203 +
17 185 0 194 278 267 183 282 208 0 212 +17 281 0 145 147 146 186 160 209 0 0 -15
 145 266 0 281 283 0 17 146 0 145 281 143 153 140 18 0 0 -16 209 150 0 ?160 198
 284 285 0 0 7 16 284 131 0 ?279 209 226 286 0 0 7 38 285 152 0 209 287 210 0 +2
54 247 288 289 290 38 287 134 0 7 286 285 291 +233 292 293 294 295 38 210 157 0
 198 285 296 0 +246 247 297 298 299 56 255 254 293 0 283 300 301 302 +R134 301 3
03 -.001 .001 1 1 0 0 0 0 40 6 288 0 1 6 562724104391581e-19 .3379311107858155 ?
?0 .002 0 0 .00232825211494344 -56032254511066e-18 0 .00261947615999837 -.000217
399219798235 0 .00284263948817275 -.000466705080362396 0 .00297318438065193 -.00
0778619700626883 0 .003 -.001011227973029274 41 1 289 L0 .002 0 41 1 290 L0 .003
 -.001011227973029274 14 283 265 304 ?0 305 145 13 254 +0 0 0 305 139 50 300 223
 0 7 306 254 307 +.0637565678565281 .001 .000734730930666756 0 1 0 0 0 1 67 301
 292 0 7 254 308 309 +310 0 -1 0 .0095070542923469 141 302 311 312 313 254 50 13
4 2 0 314 0 251 315 +.0637565678565281 .003 .000734730930666756 0 1 0 0 0 1 38 3
03 304 0 7 310 316 317 +308 318 319 320 321 134 310 305 0 7 311 303 322 +323 324
 133 316 303 0 148 303 325 0 +325 .1083900075490754 .003 -.00756808380971531 .10
92409004780552 .002000000000125505 -.00704254304623063 1 0 141 317 254 317 317 3
03 60 255 308 291 0 7 301 318 326 +UF301 .001 ?50 318 290 0 7 308 327 328 +.0637
565678565281 .002 .000734730930666756 0 1 0 0 0 1 40 11 319 0 1 11 .009115141486
62293 .366578203511216 ??-.04320374342474575 .002 .005482588333605 .000884535428
768295 .002 -.001143930962863364 .0455705138850005 .002 -.00379392257586621 .069
7212959914242 .002 .000817931212240259 .0954149551889012 .002 -.0040275888091572
65 .1045805281239632 .002 -.00572542383915167 .1069203399496026 .002 -.006565674
82630896 .1080210868205976 .002 -.00719832451474245 .1083464763266146 .002 -.007
50446742897569 .1089630162495398 .002 -.00881224320979072 .111320170362229 .002
 -.01394429861102334 41 1 320 L-.04320374342474575 .002 .005482588333605 41 1 32
1 L.111320170362229 .002 -.01394429861102334 124 255 327 289 0 305 318 246 329 +
330 331 141 328 303 328 328 318 14 305 263 332 ?283 220 333 13 327 +0 0 283 220
 139 56 246 288 0 220 327 334 335 +R134 334 336 -.001 .001 1 1 0 0 0 0 141 329 3
25 337 338 327 126 255 330 FF3 3 12 10 1 1 6 5 FFF2 3 339 340 341 342 343 125 25
5 331 0 1 0 1 0 1 0 1 2 DBBBDBBB????0 0 0 0 45 360 339 .1083900075490754 .003 -.
00756808380971531 .1083900075490754 .003 -.00756808380971531 .1083900075490754 .
003 -.00756808380971531 .1083900075490754 .003 -.00756808380971531 .108390007549
0754 .003 -.00756808380971531 .1083900075490754 .003 -.00756808380971531 .108390
0075490754 .003 -.00756808380971531 .1083900075490754 .003 -.00756808380971531 .
1083900075490754 .003 -.00756808380971531 .1083900075490754 .003 -.0075680838097
1531 .108501295745228 .003 -.00749934838886393 .1085076366266576 .003 -.00750961
478787015 .108512241134378 .003 -.00752139979775222 .1085180358784286 .003 -.007
5464263427456 .108519226114759 .003 -.00755966787785691 .1085182507920588 .003 -
.00758602677678629 .108516085233028 .003 -.00759914414060437 .1085084567956346 .
003 -.00762367400042482 .1085029939172718 .003 -.00763508649642721 .108495911617
2572 .003 -.00764485621026051 .1086126176400306 .002974031916369265 -.0074305921
5456635 .108625096469619 .0029739340021582 -.00745082323516354 .1086347353757694
 .002973860287562315 -.00747452918116935 .108646886425648 .00297376166753631 -.0
0752458448214052 .10864951447084 .00297373676701001 -.00755117613814558 .1086475
557191122 .002973736224289115 -.00760412494270168 .108642969987245 .002973760582
09453 -.00763044969450736 .10862715255442 .002973858995395375 -.0076794698775154
8 .108615787889424 .002973933055794625 -.0077023977725428 .1086018477544636 .002
974032174910415 -.00772165185841121 .1087671146860466 .002898833450327695 -.0073
3516946064789 .108788348565735 .002898624023957455 -.00736973902310441 .10880557
2510827 .002898466308171195 -.00741019352417782 .108827418018265 .00289825523478
013 -.00749482680101959 .108832362886504 .00289820189127379 -.00753970508968965
 .1088290569522894 .00289820061224381 -.00762907893306086 .1088208096112574 .002
89825267672017 -.00767346919833949 .1087927678145994 .002898463235259905 -.00775
625600282761 .108772600947352 .002898621743421745 -.00779532425960819 .108748870
3615784 .00289883394898231 -.00782823207460482 .1088159670150454 .00286815403152
1555 -.00730499658059966 .1088400485412098 .002867910277914065 -.007344249021499
04 .1088598116602792 .00286772669984735 -.00739005262883576 .1088849252775248 .0
02867480997959035 -.0074855780393544 .1088906738084418 .002867418891607275 -.007
53616738610907 .1088869471541956 .00286741737607117 -.00763691672516332 .1088774
763623752 .00286747796688682 -.00768694308088818 .1088453700190014 .002867723053
668155 -.00778035058497977 .1088222755730446 .002867907567103675 -.0078245649618
345 .1087953592579246 .00286815460216583 -.00786193299122179 .1089084265365654 .
0027956709694463 -.00724789039734663 .1089379645429274 .00279537205605881 -.0072
9614529742564 .1089626621201276 .002795146916887475 -.00735209407393428 .1089941
728568666 .00279484555922641 -.0074681977868024 .1090015213035922 .0027947693646
4278 -.00752954263296808 .1089970022623996 .002794767459655225 -.007651716153350
98 .1089851411647978 .002794841749251295 -.00771235044709588 .108945133477434 .0
0279514232830904 -.00782580694328774 .1089163682679512 .00279536864167681 -.0078
7977255910469 .1088833456730328 .00279567166500813 -.00792571645506027 .10895221
07906084 .00275347720402436 -.00722084773485096 .108984357630692 .00275315745809
413 -.00727342221566674 .1090114499584332 .002752916618493345 -.0073341815254703
 .1090460881040204 .002752594228740925 -.00746001481817 .1090542317366518 .00275
2512705560275 -.00752643304643472 .109049338894094 .002752510641206255 -.0076587
1313400851 .1090363098742744 .002752590100032885 -.00772434821609988 .1089924637
887992 .00275291163830959 -.00784727641594747 .1089609548608872 .002753153744730
645 -.00790586162103884 .1089250117155166 .002753477926829535 -.0079559211691720
4 .109069945182336 .002615214356256155 -.00714813092171313 .1091094141959936 .00
2614864066333825 -.00721286409815177 .109143244229763 .00261460019899686 -.00728
662126866268 .1091867902502754 .002614246941359195 -.00743849944451195 .10919723
82607324 .0026141575853852 -.00751833973642871 .1091913565785138 .00261415525695
2685 -.00767735426566551 .109175037536366 .002614242284494155 -.0077562045355317
2 .1091203816018036 .002614594560918355 -.00790444761152352 .1090811928410292 .0
02614859844127785 -.0079754947370199 .10903705031821 .00261521508826732 -.008037
14064100308 .1091333561320988 .00250375633720225 -.00710896613632512 .1091767282
80007 .00250348852909515 -.00718022616687722 .1092142067731722 .0025032868104098
35 -.00726085451933932 .1092627020197194 .00250301674262383 -.00742677212597359
 .10927446910428 .00250294843030176 -.00751391340689426 .109268049242466 .002502
946660212245 -.00768747730784265 .109249875076725 .002503013202444805 -.00777351
116692576 .1091892448284802 .00250328255287732 -.00793538907222347 .109145909835
551 .002503485397855895 -.00801301720601962 .1090973935620994 .00250375700796732
 -.0080808849066354 .1092183206663416 .00226329060103818 -.00705648911521662 .10
92673430188444 .00226319793789225 -.00713721910466704 .1093095957687462 .0022631
2817075313 -.00722657455857136 .1093650438774384 .00226303474618859 -.0074112489
2002303 .1093786967854088 .002263011118186055 -.00750809117171013 .1093715617799
142 .002263010524977885 -.00770098836347925 .109350789842241 .00226303355977225
 -.0077965573523805 .1092818379513772 .002263126786395295 -.0079766261452059 .10
92330968536794 .00226319700764687 -.00806260194986923 .1091782476900986 .0022632
90995688525 -.00813949800438554 .1092409004780552 .00213156503273958 -.007042543
04623064 .109291669900902 .00213156503273958 -.00712621614046593 .10933504534442
34 .002131565071970105 -.00721751137452534 .1093924877780626 .00213156511120063
 -.00740715464200161 .1094067012278972 .002131565130815895 -.00750656459677937 .
1093993768434332 .00213156517004642 -.00770458115031391 .109377856049979 .002131
56518966168 -.00780266940114454 .1093065475190158 .002131565228892205 -.00798754
583418392 .1092565434449832 .00213156526812273 -.00807537216207874 .109199735141
9052 .00213156526812273 -.00815507477386298 .1092409004780552 .00200000000012550
5 -.00704254304623063 .1092922392221388 .002000000000125505 -.00712715443889067
 .1093350453444234 .002000000000125505 -.00721751137452533 .1093924877780626 .00
2000000000125505 -.00740715464200161 .1094067012278972 .002000000000125505 -.007
50656459677936 .1093993768434332 .00200000000012551 -.00770458115031391 .1093778
56049979 .00200000000012551 -.00780266940114454 .1093065475190158 .0020000000001
2551 -.00798754583418391 .1092571804743456 .00200000000012551 -.0080744784035747
6 .1091997351419052 .00200000000012551 -.00815507477386297 127 6 340 4 2 2 2 2 4
 127 5 341 4 2 2 2 4 128 6 342 0 .25 .375 .5 .75 1 128 5 343 0 .25 .5 .75 1 137
 325 302 0 7 316 344 345 -327 346 0 ?141 337 347 338 329 327 141 338 348 329 337
 327 137 348 300 0 7 344 222 349 -327 350 0 ?133 344 301 0 151 325 348 0 +348 .1
091997351419052 .00200000000012551 -.00815507477386297 .1083900075490754 .003 -.
00756808380971531 1 0 133 222 299 0 214 348 351 0 +351 .1083900075490754 .003 -.
00756808380971529 .1091997351419134 .002 -.0081550747738514 0 1 141 349 344 349
 349 348 134 350 0 0 0 0 0 0 +352 353 136 352 1 2 2 2 5 FFF1 354 355 356 135 353
 2 0 45 4 354 0 .999999999926283 1 1 127 2 355 2 2 128 2 356 0 1 137 351 298 0 7
 222 357 358 +246 359 0 ?134 357 297 0 7 351 336 360 +361 362 141 358 222 358 35
8 351 134 359 0 0 0 0 0 0 +363 364 136 363 2 5 2 3 5 FFF1 365 366 367 135 364 2
 0 45 10 365 .00509502873663545 1 .00510095955003668 .861949901106268 .005102385
45732995 .428952262788024 .00510301067441702 .2390959352330905 .0051030106744170
2 0 127 3 366 3 2 3 128 3 367 0 .571428571428571 1 38 336 296 0 7 357 368 369 +1
29 14 370 371 372 141 360 334 360 360 357 136 361 3 7 3 5 6 FFF1 373 374 375 135
 362 2 0 45 21 373 .1092791761037944 .003 -.00802948647266891 .1087972464536626
 .003 -.00890106188738195 .105292850396064 .003 -.0105502122135648 .068910420004
0154 .003 -.0149731612221707 .01276006363829664 .003 -.00538128159017458 .003236
26848635366 .003 -.0107203584492014 -736355453718082e-31 .003 -.01 127 7 374 4 1
 1 1 4 0 0 128 7 375 .900388828762394 .915157342223966 .927087320456962 .9851084
97068529 1 ??67 334 287 0 7 246 129 376 +357 0 -1 0 .01114012659862886 60 129 28
6 0 7 334 14 377 +UF334 .001 ?141 376 246 378 378 334 141 378 129 376 376 334 14
1 377 336 377 377 129 133 368 295 0 223 336 347 0 +347 .1092409004780552 .002000
000000125505 -.00704254304623063 .1091997351419052 .00200000000012551 -.00815507
477386297 0 1 141 369 246 369 369 336 40 10 370 0 1 10 .00381261961458801 .37766
93369860865 ??.1108566880299958 .002 -.00310996695069323 .1083854118933812 .002
 -.00757466315534286 .1079737972484336 .002 -.00792462421735711 .106203087544702
 .002 -.00870410514993431 .0986671807173448 .002 -.0102559388254504 .06792794590
39423 .002 -.01112207110017052 .0274742220661603 .002 -.00818029628269281 .00714
484873393345 .002 -.0083707982295201 .00115017823001067 .002 -.00918297803526493
 -.02255362619393685 .002 -.00395533263634553 41 1 371 L.1108566880299958 .002 -
.00310996695069323 41 1 372 L-.02255362619393685 .002 -.00395533263634553 17 223
 0 333 151 148 177 182 224 368 0 -137 347 294 0 7 368 142 379 +327 380 0 ?133 14
2 316 0 18 347 381 0 +381 0 .003 -.001011227973029274 .1083900075490754 .003 -.0
0756808380971528 0 .1116311985241966 141 379 368 379 379 347 134 380 0 0 0 0 0 0
 +382 383 136 382 1 2 2 2 5 FFF1 384 385 386 135 383 2 0 45 4 384 1 0 1 1 127 2
 385 2 2 128 2 386 0 1 38 381 317 0 7 142 131 387 +388 134 389 390 391 133 131 3
18 0 141 381 15 0 +15 .1083900075490754 .003 -.00756808380971529 -20816996003116
4e-33 .003 -.00897552649771379 0 .113359523606193 141 387 142 387 387 381 59 388
 189 0 7 133 392 393 +1 254 40 10 389 0 1 10 .00911514148662293 .366578203511174
 ??0 .003 -.001011227973029274 .000884535428768295 .003 -.001143930962863364 .04
55705138850005 .003 -.00379392257586621 .0697212959914242 .003 .0008179312122402
59 .0954149551889012 .003 -.004027588809157265 .1045805281239632 .003 -.00572542
383915167 .1069203399496026 .003 -.00656567482630896 .1080210868205976 .003 -.00
719832451474245 .1083464763266146 .003 -.00750446742897569 .1083900075490754 .00
3 -.00756808380971528 41 1 390 L0 .003 -.001011227973029274 41 1 391 L.108390007
5490754 .003 -.00756808380971528 59 133 185 0 7 394 388 395 +1 246 56 392 231 0
 396 388 397 398 +R397 251 399 .001 .001 1 1 0 0 0 0 141 393 381 393 393 388 14
 396 203 400 ?220 401 402 13 392 +0 0 220 401 139 67 397 230 0 7 392 403 404 +40
5 0 -1 0 .0095070542923469 141 398 406 407 408 392 50 251 39 0 409 134 247 410 +
.0637565678565281 0 .000734730930666756 0 1 0 0 0 1 38 399 242 0 7 405 411 412 +
403 413 414 415 416 134 405 243 0 7 406 399 417 +418 419 133 411 241 0 420 399 4
21 0 +421 .1092409004780552 .000999999999909966 -.00704254304623063 .10839000754
90754 -4224658481594045e-47 -.00756808380971531 1 0 141 412 392 412 412 399 60 4
03 229 0 7 397 413 422 +UF397 .001 ?50 413 228 0 7 403 423 424 +.063756567856528
1 .001 .000734730930666756 0 1 0 0 0 1 40 11 414 0 1 11 .00911514148662293 .3665
78203511216 ??-.04320374342474575 .001 .005482588333605 .000884535428768295 .001
 -.001143930962863364 .0455705138850005 .001 -.00379392257586621 .06972129599142
42 .001 .000817931212240259 .0954149551889012 .001 -.004027588809157265 .1045805
281239632 .001 -.00572542383915167 .1069203399496026 .001 -.00656567482630896 .1
080210868205976 .001 -.00719832451474245 .1083464763266146 .001 -.00750446742897
569 .1089630162495398 .001 -.00881224320979072 .111320170362229 .001 -.013944298
61102334 41 1 415 L-.04320374342474575 .001 .005482588333605 41 1 416 L.11132017
0362229 .001 -.01394429861102334 124 423 227 0 401 413 425 426 +427 428 141 424
 399 424 424 413 14 401 201 429 ?396 430 431 13 423 +0 0 396 430 139 56 425 226
 0 430 423 432 433 +R432 251 434 .001 .001 1 1 0 0 0 0 141 426 421 435 436 423 1
26 427 FF3 3 12 10 1 1 6 5 FFF2 3 437 438 439 440 441 125 428 0 1 0 1 0 1 0 1 2
 BDBBBDBB????0 0 0 0 45 360 437 .1092409004780552 .000999999999909966 -.00704254
304623063 .1092922392221388 .000999999999909966 -.0071271544388907 .109335045344
4234 .000999999999909965 -.00721751137452531 .1093924877780626 .0009999999999099
64 -.00740715464200156 .1094067012278972 .000999999999909963 -.00750656459677929
 .1093993768434332 .000999999999909961 -.00770458115031381 .109377856049979 .000
99999999990996 -.00780266940114446 .1093065475190158 .000999999999909959 -.00798
754583418382 .1092571804743456 .000999999999909958 -.00807447840357459 .10919973
51419052 .000999999999909958 -.00815507477386287 .1092409004780552 .000868434967
295897 -.00704254304623063 .109291669900902 .000868434967295897 -.00712621614046
595 .1093350453444234 .000868434928065372 -.00721751137452531 .1093924877780626
 .000868434888834846 -.00740715464200156 .1094067012278972 .000868434869219583 -
.00750656459677929 .1093993768434332 .000868434829989057 -.00770458115031381 .10
9377856049979 .000868434810373794 -.00780266940114446 .1093065475190158 .0008684
34771143268 -.00798754583418382 .1092565434449832 .000868434731912744 -.00807537
216207858 .1091997351419052 .000868434731912744 -.00815507477386287 .10921832066
63416 .000736709398995058 -.00705648911521661 .109267343018893 .0007368020620849
28 -.00713721910463722 .1093095957687958 .000736871829224706 -.00722657455850997
 .1093650438774478 .000736965253839955 -.00741124891990893 .109378696785377 .000
736988881892534 -.00750809117157484 .1093715617798116 .000736989475186119 -.0077
0098836332565 .1093507898421084 .000736966440427124 -.00779655735222982 .1092818
379512494 .000736873213796082 -.00797662614509875 .1092330968535862 .00073680299
250114 -.00806260194980268 .1091782476900986 .000736709004344718 -.0081394980043
8545 .1091333561320988 .000496243662824343 -.0071089661363251 .1091767282801042
 .000496511470819313 -.00718022616681755 .1092142067732714 .000496713189505949 -
.00726085451921658 .1092627020197382 .000496983257393363 -.00742677212574545 .10
92744691042168 .000497051569815524 -.00751391340662375 .109268049242261 .0004970
53340075867 -.00768747730753556 .10924987507646 .000496986797914047 -.0077735111
6662446 .1091892448282246 .000496717447465538 -.00793538907200926 .1091459098353
644 .000496514602400232 -.00801301720588668 .1090973935620996 .00049624299205927
9 -.00808088490663532 .109069945182336 .000384785643766013 -.00714813092171311 .
1091094141960908 .000385135933576213 -.0072128640980921 .109143244229862 .000385
399800914494 -.00728662126853993 .1091867902502942 .0003857530586535645 -.007438
4994442838 .1091972382606692 .000385842414727645 -.0075183397361582 .10919135657
83086 .0003858447433309915 -.00767735426535842 .109175037536101 .000385757715860
2565 -.00775620453523041 .109120381601548 .0003854054394200655 -.007904447611309
3 .1090811928408428 .0003851401561239005 -.00797549473688697 .10903705031821 .00
03847849117548395 -.008037140641003 .1089522107906084 .0002465227959911545 -.007
22084773485094 .1089843576306434 .000246842541977434 -.00727342221569656 .109011
4499583836 .000247083381577548 -.00733418152553161 .109046088104011 .00024740577
12792525 -.00746001481828399 .1090542317366834 .000247487294409858 -.00752643304
656988 .1090493388941966 .0002474893586784695 -.00765871313416194 .1090363098744
07 .000247409899816475 -.00772434821625044 .108992463788927 .0002470883615477805
 -.00784727641605448 .1089609548609806 .0002468462551700955 -.00790586162110515
 .1089250117155166 .0002465220731859765 -.00795592116917197 .1089084265365654 .0
002043290305669975 -.00724789039734662 .108937964542887 .0002046279439879425 -.0
0729614529745034 .1089626621200854 .000204853083161848 -.00735209407398437 .1089
94172856855 .000205154440800068 -.00746819778689437 .1090015213036132 .000205230
635358282 -.00752954263307653 .1089970022624774 .0002052325403008 -.007651716153
47316 .1089851411649 .0002051582506851045 -.00771235044721533 .108945133477534 .
000204857671627687 -.00782580694337216 .1089163682680246 .0002046313582798645 -.
00787977255915681 .1088833456730328 .000204328335005172 -.00792571645506021 .108
8159670150454 .0001318459684875826 -.00730499658059965 .1088400485412018 .000132
0897220779096 -.0073442490215037 .108859811660269 .000132273300150767 -.00739005
262884395 .1088849252775156 .0001325190020694604 -.00748557803936732 .1088906738
084362 .0001325811084454538 -.0075361673861232 .1088869471541976 .00013258262401
95944 -.00763691672517749 .108877476362381 .000132522033217742 -.007686943080901
21 .1088453700190096 .0001322769464250514 -.00778035058498808 .1088222755730512
 .000132092432964371 -.00782456496183922 .1087953592579246 .0001318453978433144
 -.00786193299122174 .1087671146860466 .0001011665496795036 -.00733516946064788
 .1087883485657514 .0001013759760045472 -.00736973902309416 .1088055725108414 .0
00101533691797281 -.00741019352415533 .1088274180182608 .0001017447652440806 -.0
074948268009755 .1088323628864828 .0001017981087996772 -.00753970508963618 .1088
2905695224 .0001017993879103972 -.00762907893299829 .108820809611197 .0001017473
234655206 -.00767346919827721 .1087927678145436 .000101536764910429 -.0077562560
0278238 .1087726009473122 .000101378256701744 -.00779532425957972 .1087488703615
784 .0001011660510248964 -.00782823207460477 .1086126176400306 2596808363294755e
-20 -.00743059215456634 .1086250964695862 260659979343769e-19 -.0074508232351840
1 .1086347353757402 261397125173038e-19 -.00747452918121426 .1086468864256562 26
2383324318371e-19 -.00752458448222862 .1086495144708826 2626323285962795e-20 -.0
0755117613825243 .108647555719211 2626377541904905e-20 -.00760412494282671 .1086
42969987366 262394175506793e-19 -.0076304496946318 .1086271525545314 26141004280
57025e-20 -.00767946987760581 .1086157878895038 2606694397501545e-20 -.007702397
7725996 .1086018477544636 2596782509180255e-20 -.00772165185841118 .108501295745
228 -2910012521168425e-33 -.00749934838886393 .1085076366266576 -311272138021028
e-32 -.00750961478787001 .1085122411343776 -2905554370420605e-33 -.0075213997977
5215 .108518035878428 -20629955342469e-31 -.00754642634274581 .1085192261147584
 -1427603707862866e-33 -.00755966787785732 .108518250792058 -1201221595691506e-3
4 -.00758602677678703 .1085160852330272 551967562340533e-33 -.00759914414060522
 .108508456795634 1541317980616845e-33 -.00762367400042556 .1085029939172714 185
8578676983475e-33 -.00763508649642772 .1084959116172572 1802661400044225e-33 -.0
0764485621026049 .1083900075490754 -4224658481594045e-47 -.00756808380971531 .10
83900075490754 -4224658481594045e-47 -.00756808380971531 .1083900075490754 -4224
658481594045e-47 -.00756808380971531 .1083900075490754 -4224658481594045e-47 -.0
0756808380971531 .1083900075490754 -4224658481594045e-47 -.00756808380971531 .10
83900075490754 -4224658481594045e-47 -.00756808380971531 .1083900075490754 -4224
658481594045e-47 -.00756808380971531 .1083900075490754 -4224658481594045e-47 -.0
0756808380971531 .1083900075490754 -4224658481594045e-47 -.00756808380971531 .10
83900075490754 -4224658481594045e-47 -.00756808380971531 127 6 438 4 2 2 2 2 4 1
27 5 439 4 2 2 2 4 128 6 440 0 .25 .5 .625 .75 1 128 5 441 0 .25 .5 .75 1 137 42
1 240 0 7 411 442 443 -423 444 0 ?141 435 445 436 426 423 141 436 446 426 435 42
3 137 446 238 0 7 442 447 448 -423 449 0 ?133 442 239 0 450 421 446 0 +446 .1083
900075490754 -4224658481594045e-47 -.00756808380971531 .1091997351419052 .000999
999999909958 -.00815507477386287 1 0 133 447 237 0 159 446 451 0 +451 .109199735
1419052 .001 -.00815507477386289 .1083900075490754 433680868994202e-33 -.0075680
8380971528 0 1 141 448 442 448 448 446 134 449 0 0 0 0 0 0 +452 453 136 452 1 2
 2 2 5 FFF1 454 455 456 135 453 2 0 45 4 454 0 1 1 .999999999903711 127 2 455 2
 2 128 2 456 0 1 17 159 0 457 157 215 144 450 268 447 458 -137 451 236 0 7 447 4
59 460 +425 461 0 ?134 459 235 0 7 451 434 462 +463 464 141 460 447 460 460 451
 134 461 0 0 0 0 0 0 +465 466 136 465 2 5 2 3 5 FFF1 467 468 469 135 466 2 0 45
 10 467 .00510301067442237 1 .00510301067442237 .77979630296891 .005102474926188
67 .599622984151185 .00510111305663745 .1416232346241864 .00509502873663651 0 12
7 3 468 3 2 3 128 3 469 0 .4 1 38 434 234 0 7 459 470 471 +306 300 472 473 474 1
41 462 432 462 462 459 136 463 3 7 3 5 6 FFF1 475 476 477 135 464 2 0 45 21 475
 .1092791761037944 .003 -.00802948647266887 .1087972464536626 .003 -.00890106188
738192 .1052928503960642 .003 -.0105502122135648 .0689104200040154 .003 -.014973
1612221707 .01276006363829664 .003 -.00538128159017458 .00323626848635366 .003 -
.0107203584492014 -736355453718082e-31 .003 -.01 127 7 476 4 1 1 1 4 0 0 128 7 4
77 .900388828762394 .915157342223966 .927087320456962 .985108497068529 1 ??67 43
2 225 0 7 425 306 478 +459 0 -1 0 .01114012659862828 60 306 224 0 7 432 300 479
 +UF432 .001 ?141 478 425 480 480 432 141 480 306 478 478 432 141 479 434 479 47
9 306 133 470 233 0 481 434 445 0 +445 .1091997351419052 .000999999999909958 -.0
0815507477386287 .1092409004780552 .000999999999909966 -.00704254304623063 0 1 1
41 471 425 471 471 434 40 10 472 0 1 10 .003812619602766735 .3776693369849125 ??
.1108566880299962 .001 -.00310996695069221 .1083854118933786 .001 -.007574663155
34636 .10797379724841 .001 -.00792462421737237 .1062030875445856 .001 -.00870410
514997291 .0986671807168533 .001 -.01025593882551904 .0679279459019421 .001 -.01
112207110007802 .0274742220836498 .001 -.00818029628384111 .00714484876157239 .0
01 -.00837079822397431 .001150178192740608 .001 -.00918297803092747 -.0225536264
72125 .001 -.00395533257442385 41 1 473 L.1108566880299962 .001 -.00310996695069
221 41 1 474 L-.022553626472125 .001 -.00395533257442385 17 481 0 431 420 450 17
1 176 226 470 279 -137 445 232 0 7 470 482 483 +423 484 0 ?133 482 254 0 158 445
 485 0 +485 0 0 -.00897552649771379 .1083900075490754 0 -.00756808380971527 0 .1
137898797800062 141 483 470 483 483 445 134 484 0 0 0 0 0 0 +486 487 136 486 1 2
 2 2 5 FFF1 488 489 490 135 487 2 0 45 4 488 371769135487332e-36 1 3717691354873
32e-36 0 127 2 489 2 2 128 2 490 0 1 16 158 175 0 ?152 141 491 482 0 0 7 38 485
 255 0 7 482 492 493 +251 394 494 495 496 133 492 256 0 491 485 497 0 +497 .1083
900075490754 433680868994202e-33 -.00756808380971531 -335565273536899e-32 0 -.00
1011227973029274 0 .1081212316658642 141 493 482 493 493 485 59 394 178 0 7 498
 133 499 +0 425 40 9 494 0 1 9 .003812619602766735 .3971100903533735 ??0 0 -.008
97552649771379 .001150178192740608 433680868994202e-33 -.00918297803092747 .0071
4484876157239 433680868994202e-33 -.00837079822397431 .0274742220836498 43368086
8994202e-33 -.00818029628384111 .0679279459019421 433680868994202e-33 -.01112207
110007802 .0986671807168533 433680868994202e-33 -.01025593882551904 .10620308754
45856 433680868994202e-33 -.00870410514997291 .10797379724841 433680868994202e-3
3 -.00792462421737237 .1083900075490754 0 -.00756808380971527 41 1 495 L0 0 -.00
897552649771379 41 1 496 L.1083900075490754 0 -.00756808380971527 59 498 174 0 7
 292 394 500 +0 392 141 499 485 499 499 394 59 292 135 0 7 244 498 501 +1 392 14
1 500 497 500 500 498 38 497 257 0 7 492 150 502 +251 498 503 504 505 133 150 30
7 0 143 497 311 0 +311 .109240900478055 .002 -.00704254304622998 .10839000754907
54 .003 -.0075680838097153 0 1 141 502 492 502 502 497 40 10 503 0 1 10 .0089567
7078829139 .366578203511174 ??.1083900075490754 433680868994202e-33 -.0075680838
0971531 .1083464763266146 433680868994202e-33 -.00750446742897569 .1080210868205
976 433680868994202e-33 -.00719832451474245 .1069203399496026 433680868994202e-3
3 -.00656567482630896 .1045805281239632 433680868994202e-33 -.00572542383915167
 .0954149551889012 433680868994202e-33 -.004027588809157265 .0697212959914242 43
3680868994202e-33 .000817931212240259 .0455705138850005 433680868994202e-33 -.00
379392257586621 .01137784997964942 0 -.00266796949478532 -335565273536899e-32 0
 -.001011227973029274 41 1 504 L.1083900075490754 433680868994202e-33 -.00756808
380971531 41 1 505 L-335565273536899e-32 0 -.001011227973029274 137 311 306 0 7
 150 310 506 +254 507 0 ?141 506 150 506 506 311 134 507 0 0 0 0 0 0 +508 509 13
6 508 2 5 2 3 5 FFF1 510 511 512 135 509 2 0 45 10 510 .1553126866086575 0 .1553
126866086575 .220257835867176 .155313241232869 .400376464699001 .155314652671025
5 .858752244139869 .155320981526389 1 127 3 511 3 2 3 128 3 512 0 .4 1 59 244 12
1 0 7 239 292 513 +1 425 141 501 287 501 501 292 141 513 514 513 513 244 38 514
 130 0 7 227 286 515 +233 244 516 517 518 133 227 129 0 216 243 514 0 +514 .1091
997351419052 .001 -.00815507477386287 -736355453718082e-31 .001 -.01 0 .11140690
1583073 133 286 133 0 284 514 287 0 +287 0 .001 0 .1092409004780552 .001 -.00704
254304623063 0 .1134721166361352 141 515 227 515 515 514 40 6 516 0 1 6 .0117901
073908348 .307520461015907 ??.1091997351419052 .001 -.00815507477386287 .1087319
996895966 .001 -.00861477398801863 .106988582680962 .001 -.00948865441650618 .09
82167977425736 .001 -.0113267379790091 .0625064463460713 .001 -.0118346079681976
 -736355453718082e-31 .001 -.01 41 1 517 L.1091997351419052 .001 -.0081550747738
6287 41 1 518 L-736355453718082e-31 .001 -.01 137 243 126 0 7 237 227 519 +233 5
20 0 ?141 519 237 519 519 243 134 520 0 0 0 0 0 0 +521 522 136 521 1 2 2 2 5 FFF
1 523 524 525 135 522 2 0 45 4 523 .894672208775034 .002000000000090035 .9010966
68313958 .00200000000009004 127 2 524 2 2 128 2 525 0 1 16 491 171 0 ?155 158 52
6 492 0 0 7 17 155 0 154 156 152 166 458 491 0 267 +16 526 165 0 ?170 491 208 52
7 0 0 7 17 170 0 194 267 195 168 202 526 0 156 +16 208 160 0 ?185 526 198 296 0
 0 7 38 527 167 0 526 296 528 0 +425 247 529 530 531 38 296 162 0 208 210 527 0
 +392 247 532 533 534 133 528 245 0 173 527 406 0 +406 .1083900075490754 4336808
68994202e-33 -.00756808380971531 .109240900478055 .001 -.00704254304622998 0 1 4
0 6 529 0 1 6 561364674901126e-19 .3386146406996635 ??0 .001 -.01 0 .00067490688
6558275 -.00994435266047322 0 .0003865173042481235 -.00978456158479507 0 .000163
5512903893775 -.00953698429713996 0 2976026699384915e-20 -.009223599028975 0 251
3635314357375e-35 -.00897552649771378 41 1 530 L0 .001 -.01 41 1 531 L0 25136353
14357375e-35 -.00897552649771378 17 173 0 402 280 458 171 420 535 528 481 +137 4
06 244 0 7 528 405 536 +392 537 0 ?141 536 528 536 536 406 134 537 0 0 0 0 0 0 +
538 539 136 538 2 5 2 3 5 FFF1 540 541 542 135 539 2 0 45 10 540 .15532098152638
9 0 .1553148118837055 .1376944381551698 .1553133338879435 .57104831911532 .15531
26866086575 .760833024813382 .1553126866086575 1 127 3 541 3 2 3 128 3 542 0 .57
1428571428571 1 15 402 204 0 282 396 0 17 280 0 402 282 173 183 279 284 0 0 -17
 458 0 402 173 282 144 155 491 0 420 -17 420 0 431 450 481 144 173 535 411 0 -16
 535 215 0 2e-6 173 268 221 0 0 0 7 16 268 211 0 2e-6 450 265 535 0 0 0 7 16 221
 272 0 2e-6 151 535 149 0 0 0 7 17 151 0 333 148 223 19 214 221 344 206 +16 149
 277 0 2e-6 143 221 0 0 0 0 7 15 333 264 0 223 305 0 17 148 0 333 223 151 180 14
3 149 316 0 -17 206 0 205 214 197 19 165 141 0 140 -17 165 0 543 203 140 161 206
 141 0 196 +16 141 182 0 ?165 18 158 131 0 0 7 17 140 0 543 165 203 19 146 18 0
 0 +15 543 3 0 203 314 0 17 203 0 543 140 165 153 196 204 0 146 +14 314 1 544 ?4
09 200 543 13 134 +0 0 409 200 139 81 1 544 387 90 314 545 0 546 547 548 14 409
 27 547 ?430 314 154 13 251 -0 0 430 314 139 14 200 47 546 ?314 127 194 13 247 -
0 0 314 127 139 13 139 17 0 0 0 0 0 0 17 127 81 1 546 386 90 200 549 0 250 544 5
50 81 1 549 379 107 200 0 546 551 552 553 81 1 250 385 90 127 554 0 0 546 555 83
 3 550 1 1 1 81 1 554 365 107 127 0 250 0 556 557 83 3 555 1 1 1 81 1 556 367 10
7 283 0 304 554 558 559 82 1 557 -1755250388 81 1 304 394 90 283 556 0 332 0 560
 81 1 558 369 107 305 0 332 556 561 562 82 1 559 -720109268 81 1 332 393 90 305
 558 0 563 304 564 81 1 561 371 107 396 0 400 558 565 566 82 1 562 -718077652 81
 1 400 391 90 396 561 0 429 563 567 81 1 565 373 107 401 0 429 561 545 568 82 1
 566 -725614292 81 1 429 390 90 401 565 0 569 400 570 81 1 545 375 107 314 0 544
 565 551 571 82 1 568 -723582676 81 1 551 377 107 409 0 547 545 549 572 82 1 571
 -1759313620 81 1 547 388 90 409 551 0 544 569 573 82 1 572 -1756036820 81 1 569
 389 90 430 552 0 547 429 574 83 3 573 1 1 1 14 430 199 569 ?401 409 457 13 425
 +0 0 401 409 139 81 1 552 381 107 430 0 569 549 575 576 83 3 574 1 1 1 81 1 575
 383 107 220 0 563 552 0 577 82 1 576 -722403028 14 220 261 563 ?305 396 205 13
 246 +0 0 305 396 139 81 1 563 392 90 220 575 0 400 332 578 82 1 577 -717029076
 83 3 578 1 1 1 15 457 200 0 202 430 0 17 202 0 457 215 157 189 170 526 0 0 -17
 215 0 457 159 202 174 191 216 0 450 -17 157 0 457 202 159 168 152 158 0 0 -17 4
50 0 431 481 420 174 159 268 442 0 +15 431 202 0 450 401 0 83 3 570 1 1 1 83 3 5
67 1 1 1 83 3 564 1 1 1 83 3 560 1 1 1 82 1 553 -1755512532 15 154 28 0 156 409
 0 17 156 0 154 152 155 168 267 265 0 157 -17 267 0 194 185 170 166 156 265 0 28
2 +17 282 0 402 458 280 166 185 208 0 0 -83 3 548 1 1 1 17 279 0 211 176 212 171
 280 284 0 0 +17 176 0 211 191 279 174 481 226 237 215 +16 226 123 0 2e-6 176 28
4 216 0 0 0 7 40 6 532 0 1 6 579387701506301e-19 .341151341371986 ??0 0 -.001011
227973029274 0 573623033518076e-19 -.000673663426018935 0 .0002234108361039375 -
.0003741480833946925 0 .000478543409713525 -.0001483702100392956 0 .000791131934
586529 -2230392615085105e-20 0 .001 -675278942135855e-34 41 1 533 L0 0 -.0010112
27973029274 41 1 534 L0 .001 -675278942135855e-34 141 443 411 443 443 421 134 44
4 0 0 0 0 0 0 +579 580 136 579 1 2 2 2 5 FFF1 581 582 583 135 580 2 0 45 4 581 1
 0 0 0 127 2 582 2 2 128 2 583 0 1 141 433 451 584 585 425 141 584 394 586 433 4
25 141 585 244 433 586 425 141 586 527 585 584 425 141 422 399 422 422 403 141 4
17 397 417 417 405 136 418 3 8 3 6 6 FFF1 587 588 589 135 419 2 0 45 24 587 -265
57152150203e-31 .003 399172357217623e-33 .0239205561055352 .003 -.00359542495844
378 .0444119510929813 .003 -.00581922514430412 .0845314559335331 .003 .007339149
90871062 .0887824820172508 .003 -.00237317888932692 .1047783693354154 .003 -.004
453163302497465 .108853132214139 .003 -.00617710657437285 .1093111184781476 .003
 -.00717424582260545 127 8 588 4 1 1 1 1 4 0 0 128 8 589 0 .3395163181105705 .75
0511324050272 .860806358038539 .877738692971564 .89545639393445 ??141 410 392 59
0 591 251 141 590 485 592 410 251 141 591 425 410 592 251 141 592 497 591 590 25
1 141 407 498 593 398 392 141 408 292 398 593 392 141 593 296 408 407 392 141 40
4 392 594 594 397 141 594 403 404 404 397 141 395 15 395 395 133 141 345 316 345
 345 325 134 346 0 0 0 0 0 0 +595 596 136 595 1 2 2 2 5 FFF1 597 598 599 135 596
 2 0 45 4 597 1 0 0 0 127 2 598 2 2 128 2 599 0 1 141 335 351 600 601 246 141 60
0 133 602 335 246 141 601 239 335 602 246 141 602 210 601 600 246 141 326 303 32
6 326 308 141 322 301 322 322 310 136 323 3 8 3 6 6 FFF1 603 604 605 135 324 2 0
 45 24 603 -26557152150203e-31 .003 399172357217623e-33 .0239205561055352 .003 -
.00359542495844378 .0444119510929813 .003 -.00581922514430412 .0845314559335331
 .003 .00733914990871062 .0887824820172508 .003 -.00237317888932692 .10477836933
54154 .003 -.004453163302497465 .108853132214139 .003 -.00617710657437285 .10931
11184781476 .003 -.00717424582260545 127 8 604 4 1 1 1 1 4 0 0 128 8 605 0 .3395
163181105705 .750511324050272 .860806358038539 .877738692971564 .89545639393445
 ??141 315 254 606 607 134 141 606 381 608 315 134 141 607 246 315 608 134 141 6
08 15 607 606 134 141 312 388 609 302 254 141 313 232 302 609 254 141 609 285 31
3 312 254 141 309 254 610 610 301 141 610 308 309 309 301 141 307 434 307 307 30
0 40 6 297 0 1 6 598301141216981e-19 .3457233888483 ??0 .003 -.00897552649771379
 0 .002941435004165285 -.00932097333127371 0 .00277138351957897 -.00962747125482
062 0 .002511085605550895 -.00985609201815736 0 .00219623503096602 -.00998008104
800796 0 .002 -.01 41 1 298 L0 .003 -.00897552649771379 41 1 299 L0 .002 -.01 14
1 291 286 291 291 287 40 11 293 0 1 11 .00632002549873364 .3955741696426975 ??0
 .001 0 .00197792711138 .001 -.00029631954827355 .00989422871161637 .001 -.00145
082826268544 .0419580705998201 .001 -.00324579143398125 .0747843889246777 .001 .
002512004362182005 .0920007947554345 .001 -.002144816071372915 .1008234757287266
 .001 -.003932817925132375 .1045561202838006 .001 -.00468143975597937 .106893345
5807984 .001 -.00546212718497258 .1086198096734062 .001 -.00639731996372448 .109
2409004780552 .001 -.00704254304623065 41 1 294 L0 .001 0 41 1 295 L.10924090047
80552 .001 -.00704254304623065 141 255 287 611 248 233 141 256 270 248 612 233 1
41 612 229 256 613 233 141 613 514 612 611 233 141 611 243 613 255 233 141 253 2
28 253 253 232 141 252 285 614 615 247 141 614 527 616 252 247 141 615 210 252 6
16 247 141 616 296 615 614 247 141 245 229 245 245 239 141 231 230 231 231 228 4
0 11 234 0 1 11 .00927323865476868 .359750301445192 ??.1092409004780552 .002 -.0
0704254304623063 .108810386844727 .002 -.00655202753486283 .1071942393070982 .00
2 -.00559172717558805 .1007373977734334 .002 -.003919517316431635 .0905738788494
807 .002 -.00165869966823969 .0860628808410864 .002 .001093794755986366 .0834251
7495643 .002 .00224445645940547 .0769241852413775 .002 .00267754179673841 .06291
52064500887 .002 .000566165679952891 .01145756566282148 .002 -.00166946847940692
 -26557152150203e-31 .002 399172357217623e-33 41 1 235 L.1092409004780552 .002 -
.00704254304623063 41 1 236 L-26557152150203e-31 .002 399172357217623e-33 19 128
 55 0 7 0 17 13 S0 141 132 131 132 132 15 40 10 135 0 1 10 .00381261961458801 .3
77669336986096 ??.1083900075490754 .003 -.00756808380971529 .1083854118933812 .0
03 -.00757466315534286 .1079737972484336 .003 -.00792462421735711 .1062030875447
02 .003 -.00870410514993431 .0986671807173448 .003 -.0102559388254504 .067927945
9039423 .003 -.01112207110017052 .0274742220661603 .003 -.00818029628269281 .007
14484873393345 .003 -.0083707982295201 .00115017823001067 .003 -.009182978035264
93 -208169960031164e-33 .003 -.00897552649771379 41 1 136 L.1083900075490754 .00
3 -.00756808380971529 41 1 137 L-208169960031164e-33 .003 -.00897552649771379 14
1 130 336 130 130 14 74 20 126 3 0 0 575 304 10 0 0 0 0 0 0 0 0 0 0 0 0 0 0 0 0
 0 84 9 125 fan_blade74 20 6 1 0 0 2 0 0 0 0 0 0 0 0 0 0 0 0 0 0 0 0 0 0 0 1 0 
