**ABCDEFGHIJKLMNOPQRSTUVWXYZabcdefghijklmnopqrstuvwxyz**************************
**PARASOLID !"#$%&'()*+,-./:;<=>?@[\]^_`{|}~0123456789**************************
**PART1;
MC=unknown;
MC_MODEL=unknown;
MC_ID=unknown;
OS=unknown;
OS_RELEASE=unknown;
FRU=sdl_parasolid_customer_support;
APPL=parasolid_acceptance_tests;
SITE=unknown;
USER=unknown;
FORMAT=text;
GUISE=transmit;
KEY=Controls_Plant_9_Tensegrity__06_bar_bottom_SOLID8;
FILE=Controls_Plant_9_Tensegrity__06_bar_bottom_SOLID8.xmt_txt;
DATE=unknown;
**PART2;
SCH=SCH_3101206_31100;
USFLD_SIZE=1;
**PART3;
**END_OF_HEADER*****************************************************************
T51 : TRANSMIT FILE created by modeller version 310120623 SCH_3101206_31100_1300
6222 0 12 34 CCCCCCI4 mesh1006 0 I8 polyline1008 0 CCCCCCCDI5 owner1040 0 CCCCCC
I13 boundary_mesh1006 0 I17 boundary_polyline1008 0 CCCA16 index_map_offset0 0 1
 dA9 index_map82 0 A17 node_id_index_map82 0 A20 schema_embedding_map82 0 A5 chi
ld12 0 A14 lowest_node_id0 0 1 dA16 mesh_offset_data206 0 Z1 83 2 3 0 0 0 0 0 0
 1e3 1e-8 0 4 0 1 0 1 1 5 6 7 0 0 0 8 9 0 0 0 0 0 0 0 0 81 255 1 2 81 10 1 11 0
 0 0 12 70 11 CI9 list_type0 0 1 uI10 notransmit0 0 1 lCCCDCCDI12 finger_index0
 0 1 dI12 finger_block1012 0 CZ3 0 4 T1 0 0 7 20 1 13 13 13 255 5 31 0 1 0 14 0
 0 15 0 51 255 6 30 0 14 16 0 0 --.0805458114609392 .159319202260323 -.112105814
9048026 3538893519233135e-31 -.382259850481334 .924054872131514 .002 .9858251079
3274 .155034424078436 .064134108866262 31 255 7 25 0 17 18 0 0 +-.08054581146093
92 .155114343905028 -.101941211311356 -3538893519233135e-31 .382259850481334 -.9
24054872131514 -.98582510793274 -.155034424078436 -.064134108866262 .002 19 8 CC
CCCCCA5 owner12 0 Z8 9 0 1 15 0 19 V0 16 255 9 5 20 ?21 0 17 18 0 0 1 81 1 20 82
 22 9 0 0 23 24 25 17 255 21 0 26 21 21 0 27 9 0 0 +16 17 20 24 ?28 9 0 7 0 0 1
 31 18 7 0 9 0 7 0 +-.0805458114609392 .159319202260323 -.1121058149048026 -3538
893519233135e-31 .382259850481334 -.924054872131514 -.98582510793274 -.155034424
078436 -.064134108866262 .002 81 1 24 83 22 17 0 0 20 0 29 17 28 0 30 28 28 0 31
 17 0 0 +15 255 30 28 0 28 14 0 17 31 0 32 31 31 0 28 17 0 0 -15 32 19 0 31 33 0
 14 255 33 18 23 ?0 34 32 5 16 -0 0 0 34 19 81 1 23 74 22 33 0 0 35 20 36 14 34
 1 35 ?33 14 26 5 37 +0 0 33 14 19 50 255 16 24 0 33 37 6 0 +-.0805458114609392
 .155114343905028 -.101941211311356 -3538893519233135e-31 .382259850481334 -.924
054872131514 -.98582510793274 -.155034424078436 -.064134108866262 13 19 10 0 0 0
 0 0 0 8 14 14 14 27 38 ?34 0 39 5 6 -0 0 34 0 19 81 1 38 72 22 14 0 0 0 35 40 1
5 39 26 0 27 14 30 17 27 0 39 27 27 0 21 9 0 0 -80 255 1 22 0 41 8001 0 0 0 0 3
 5 0 0 0 FFFFTFTFFFFFFF2 81 1 35 73 22 34 0 0 38 23 42 83 255 3 40 .898039215686
275 .917647058823529 .929411764705882 83 3 42 .898039215686275 .917647058823529
 .929411764705882 79 255 15 41 SDL/TYSA_COLOUR50 37 3 0 34 0 16 0 +-.08054581146
09392 .159319202260323 -.1121058149048026 -3538893519233135e-31 .382259850481334
 -.924054872131514 -.98582510793274 -.155034424078436 -.064134108866262 15 26 4
 0 21 34 0 83 3 36 .898039215686275 .917647058823529 .929411764705882 83 3 29 .8
98039215686275 .917647058823529 .929411764705882 83 3 25 .898039215686275 .91764
7058823529 .929411764705882 19 15 32 0 1 0 8 5 S0 74 4 CI16 index_map_offset0 0
 1 dCCZ20 13 7 0 0 43 24 44 45 46 11 2 0 0 0 0 0 0 0 0 0 0 0 0 0 81 2 43 56 47 1
 0 44 0 0 48 0 81 1 44 75 49 1 43 45 0 0 50 81 1 45 78 51 1 44 46 0 0 52 81 1 46
 79 53 1 45 11 0 0 54 81 1 11 80 55 1 46 2 0 0 56 80 1 55 51 57 9000 0 0 0 0 3 5
 0 0 0 FFTFFFFFFFFFFF3 84 255 14 56 _06_bar_bottom79 13 57 AdamsPartName80 1 53
 55 58 9000 0 0 0 0 3 5 0 0 0 FFTFFFFFFFFFFF3 84 6 54 PSMAR579 12 58 AdamsRFMNam
e80 1 51 59 60 9000 0 0 0 0 3 5 0 0 0 FFTFFFFFFFFFFF1 82 255 1 52 3 79 12 60 UG2
/ADAMS_ID80 1 49 61 62 8017 0 0 0 0 0 0 0 0 0 TTTTTTTTTTTTTF3 84 15 50 04_motors
upport79 13 62 SDL/TYSA_NAME80 2 47 63 64 8004 0 0 0 0 3 5 0 0 0 FFTFFFFFFFFFFF2
 3 83 1 48 27e2 79 16 64 SDL/TYSA_DENSITY80 1 10 53 65 9000 0 0 0 0 3 5 0 0 0 FF
TFFFFFFFFFFF3 84 6 12 SOLID879 15 65 AdamsObjectName1 0 
