**ABCDEFGHIJKLMNOPQRSTUVWXYZabcdefghijklmnopqrstuvwxyz**************************
**PARASOLID !"#$%&'()*+,-./:;<=>?@[\]^_`{|}~0123456789**************************
**PART1;
MC=unknown;
MC_MODEL=unknown;
MC_ID=unknown;
OS=unknown;
OS_RELEASE=unknown;
FRU=sdl_parasolid_customer_support;
APPL=parasolid_acceptance_tests;
SITE=unknown;
USER=unknown;
FORMAT=text;
GUISE=transmit;
KEY=Controls_Plant_9_Tensegrity__06_bar_bottom_11_SOLID59;
FILE=Controls_Plant_9_Tensegrity__06_bar_bottom_11_SOLID59.xmt_txt;
DATE=unknown;
**PART2;
SCH=SCH_3101206_31100;
USFLD_SIZE=1;
**PART3;
**END_OF_HEADER*****************************************************************
T51 : TRANSMIT FILE created by modeller version 310120623 SCH_3101206_31100_1300
6222 0 12 34 CCCCCCI4 mesh1006 0 I8 polyline1008 0 CCCCCCCDI5 owner1040 0 CCCCCC
I13 boundary_mesh1006 0 I17 boundary_polyline1008 0 CCCA16 index_map_offset0 0 1
 dA9 index_map82 0 A17 node_id_index_map82 0 A20 schema_embedding_map82 0 A5 chi
ld12 0 A14 lowest_node_id0 0 1 dA16 mesh_offset_data206 0 Z1 649 2 3 0 0 0 0 0 0
 1e3 1e-8 0 4 0 1 0 1 1 5 6 7 8 0 0 9 10 11 0 0 0 0 0 0 0 81 255 1 2 612 12 1 13
 0 0 0 14 70 11 CI9 list_type0 0 1 uI10 notransmit0 0 1 lCCCDCCDI12 finger_index
0 0 1 dI12 finger_block1012 0 CZ3 0 4 T1 0 0 6 20 1 15 15 13 255 5 111 0 1 0 16
 0 0 17 0 50 255 6 105 0 18 19 0 0 +-.00400000000000267 .0430655031796512 -.1493
799110107024 -1004434098307186e-32 .846822385188561 .53187578243755 169921929560
492e-30 -.53187578243755 .846822385188562 30 255 7 110 0 10 20 0 0 +-.0040000000
0000267 .0430655031796512 -.1493799110107024 -1 573162219783527e-31 196803997405
0175e-31 29 255 8 389 0 11 21 0 -.0050000000000027 .0709962018020396 -.173168060
885489 19 8 CCCCCCCA5 owner12 0 Z9 40 0 1 17 0 22 V0 16 255 10 94 23 ?24 0 25 7
 0 0 1 18 255 11 387 0 26 0 27 8 ?1 17 255 26 0 28 29 30 11 31 32 0 33 -18 27 37
1 0 34 11 35 21 ?1 17 34 0 36 37 38 27 39 40 0 41 -18 35 32 0 42 27 43 44 ?1 29
 21 373 0 27 45 8 .00499999999999733 .0656774439776641 -.1646998370336035 29 45
 87 0 43 44 21 -.00600000000000267 .053227371801914 -.1429974016214518 18 43 78
 0 46 35 47 45 ?1 29 44 34 0 35 48 45 -.004000000000002675 .0665242663628527 -.1
64167961251166 29 48 209 0 47 49 44 -.00400000000000267 .053227371801914 -.14299
74016214518 18 47 173 0 50 43 51 48 ?1 29 49 210 0 51 52 48 -.00400000000000267
 .0430655031796512 -.1493799110107024 18 51 170 0 53 47 54 49 ?1 29 52 211 0 54
 55 49 -.00600000000000267 .0430655031796512 -.1493799110107024 18 54 172 0 56 5
1 57 52 ?1 29 55 327 0 57 58 52 -.004000000000002675 .05636239774059 -.170550470
6404165 18 57 281 0 59 54 60 55 ?1 29 58 331 0 61 62 55 .00599999999999733 .0563
6239774059 -.1705504706404165 18 61 274 0 63 64 65 58 ?1 29 62 332 0 65 66 58 .0
0599999999999733 .0665242663628527 -.164167961251166 18 65 273 0 67 61 68 62 ?1
 29 66 333 0 60 69 62 -.00600000000000268 .0718430241872282 -.1726361851030515 1
8 60 280 0 70 57 71 66 ?1 29 69 334 0 71 72 66 -.00600000000000268 .061681155564
9655 -.179018694492302 18 71 279 0 73 60 74 69 ?1 29 72 335 0 74 75 69 .00599999
999999733 .0616811555649655 -.179018694492302 18 74 278 0 76 71 64 72 ?1 29 75 3
36 0 64 77 72 .00599999999999733 .0718430241872282 -.1726361851030515 18 64 275
 0 78 74 61 75 ?1 29 77 499 0 68 79 75 -.004000000000002675 .0572092201257785 -.
170018594857979 18 68 440 0 80 65 81 77 ?1 29 79 500 0 81 82 77 -.00400000000000
2675 .0656774439776641 -.1646998370336035 18 81 448 0 83 68 84 79 ?1 29 82 501 0
 85 86 79 -.00500000000000268 .062527977950154 -.1784868187098645 18 85 443 0 30
 87 88 82 ?1 29 86 502 0 88 89 82 .00499999999999733 .062527977950154 -.17848681
87098645 18 88 445 0 90 85 91 86 ?1 29 89 503 0 91 92 86 .00499999999999733 .070
9962018020396 -.173168060885489 18 91 447 0 37 88 0 89 ?1 29 92 505 0 84 93 89 -
.00500000000000268 .0572092201257785 -.170018594857979 18 84 442 0 94 81 95 92 ?
1 29 93 506 0 95 96 92 .00499999999999733 .0572092201257785 -.170018594857979 18
 95 441 0 38 84 87 93 ?1 29 96 508 0 87 0 93 -.00500000000000269 .06567744397766
41 -.1646998370336035 18 87 449 0 97 95 85 96 ?1 17 97 0 98 33 99 87 83 100 0 29
 +15 255 98 469 0 101 102 0 17 33 0 98 101 97 11 29 103 0 104 +17 99 0 98 97 41
 81 105 106 0 107 +17 83 0 108 80 109 81 97 100 0 99 -16 100 428 110 ?97 106 111
 112 106 106 1 17 29 0 28 113 26 87 33 103 0 109 -15 28 457 0 26 114 0 17 113 0
 28 30 29 84 109 111 0 115 +16 103 411 116 ?33 117 118 119 0 0 1 17 109 0 108 83
 94 87 113 111 0 0 -15 108 473 0 94 120 0 17 94 0 108 109 80 84 121 122 0 113 +1
6 111 431 123 ?113 100 124 125 0 0 1 81 1 123 645 126 111 0 0 110 127 128 16 124
 437 127 ?129 111 130 131 0 0 1 30 125 498 0 111 0 112 0 +-.00500000000000268 .0
614433320517213 -.167359215945791 1004434098307188e-32 -.846822385188561 -.53187
578243755 30 112 497 0 106 125 132 0 +-.00600000000000268 .0656774439776641 -.16
46998370336035 -1 573162219783527e-31 1968039974050175e-31 16 106 405 133 ?99 40
 100 112 100 100 1 30 132 496 0 40 112 134 0 +.00499999999999733 .06144333205172
13 -.167359215945791 1004434098307188e-32 -.846822385188561 -.53187578243755 16
 40 419 135 ?39 122 106 132 0 0 1 30 134 495 0 118 132 136 0 +-.0060000000000026
8 .0572092201257785 -.170018594857979 -1 573162219783527e-31 1968039974050175e-3
1 16 118 412 137 ?138 103 122 134 122 122 1 30 136 494 0 32 134 139 0 +-.0050000
0000000268 .0667620898760968 -.1758274397976765 1004434098307188e-32 -.846822385
188561 -.53187578243755 16 32 408 140 ?31 141 0 136 0 0 1 30 139 493 0 141 136 1
42 0 +-.00600000000000268 .0709962018020396 -.173168060885489 -1 573162219783527
e-31 1968039974050175e-31 16 141 423 143 ?104 130 32 139 0 0 1 30 142 492 0 130
 139 131 0 +.00499999999999733 .0667620898760968 -.1758274397976765 100443409830
7188e-32 -.846822385188561 -.53187578243755 16 130 434 144 ?145 124 141 142 0 0
 1 30 131 491 0 124 142 146 0 +-.00600000000000268 .062527977950154 -.1784868187
098645 -1 573162219783527e-31 1968039974050175e-31 30 146 490 0 147 131 148 0 +-
.00500000000000268 .0572092201257785 -.170018594857979 -169921929560492e-30 .531
87578243755 -.846822385188562 16 147 418 149 ?30 150 151 146 0 0 1 30 148 489 0
 151 146 152 0 +.00499999999999733 .0572092201257785 -.170018594857979 -16992192
9560492e-30 .53187578243755 -.846822385188562 16 151 422 153 ?90 147 117 148 0 0
 1 30 152 488 0 117 148 119 0 +.00499999999999733 .0656774439776641 -.1646998370
336035 -169921929560492e-30 .53187578243755 -.846822385188562 16 117 426 154 ?37
 151 103 152 0 0 1 30 119 487 0 103 152 155 0 +-.00500000000000269 .065677443977
6641 -.1646998370336035 -169921929560492e-30 .53187578243755 -.846822385188562 3
0 155 326 0 156 119 157 0 +-.00600000000000268 .0718430241872282 -.1726361851030
515 1 -573162219783527e-31 -1968039974050175e-31 16 156 260 158 ?159 160 161 155
 0 0 1 30 157 325 0 160 155 162 0 +.00599999999999733 .0718430241872282 -.172636
1851030515 1004434098307188e-32 -.846822385188561 -.53187578243755 16 160 263 16
3 ?76 164 156 157 0 0 1 30 162 324 0 164 157 165 0 +-.00600000000000268 .0616811
555649655 -.179018694492302 -1 573162219783527e-31 1968039974050175e-31 16 164 2
66 166 ?167 168 160 162 0 0 1 30 165 323 0 168 162 169 0 +-.00600000000000268 .0
718430241872282 -.1726361851030515 -1004434098307188e-32 .846822385188561 .53187
578243755 16 168 269 170 ?171 172 164 165 0 0 1 30 169 322 0 150 165 173 0 +-.00
600000000000268 .0665242663628527 -.164167961251166 1 -573162219783527e-31 -1968
039974050175e-31 16 150 241 174 ?67 175 147 169 0 0 1 30 173 321 0 175 169 176 0
 +.00599999999999733 .0665242663628527 -.164167961251166 1004434098307188e-32 -.
846822385188561 -.53187578243755 16 175 245 177 ?63 161 150 173 0 0 1 30 176 320
 0 161 173 178 0 +-.00600000000000268 .05636239774059 -.1705504706404165 -1 5731
62219783527e-31 1968039974050175e-31 16 161 249 179 ?180 156 175 176 0 0 1 30 17
8 316 0 172 176 181 0 +.00599999999999733 .0616811555649655 -.179018694492302 16
9921929560492e-30 -.53187578243755 .846822385188562 16 172 255 182 ?183 184 168
 178 0 0 1 30 181 315 0 184 178 185 0 +.00599999999999733 .0718430241872282 -.17
26361851030515 169921929560492e-30 -.53187578243755 .846822385188562 16 184 248
 186 ?187 188 172 181 0 0 1 31 255 185 208 0 189 181 190 0 +-266887206779032e-29
 .0481464374907826 -.146188656316077 -1 573162219783527e-31 1968039974050175e-31
 -1004434098307188e-32 .846822385188561 .53187578243755 .005 16 189 158 191 ?192
 193 188 185 0 0 1 31 190 207 0 188 185 194 0 +-.00600000000000267 .048146437490
7826 -.146188656316077 -1 573162219783527e-31 1968039974050175e-31 -100443409830
7188e-32 .846822385188561 .53187578243755 .005 16 188 167 195 ?196 189 184 190 0
 0 1 31 194 206 0 197 190 198 0 +-266887206779032e-29 .0481464374907826 -.146188
656316077 -1 573162219783527e-31 1968039974050175e-31 -1004434098307188e-32 .846
822385188561 .53187578243755 .006 16 197 152 199 ?200 201 193 194 0 0 1 31 198 2
05 0 193 194 202 0 +-.00600000000000267 .0481464374907826 -.146188656316077 -1 5
73162219783527e-31 1968039974050175e-31 -1004434098307188e-32 .846822385188561 .
53187578243755 .006 16 193 164 203 ?46 197 189 198 0 0 1 31 202 8 0 204 198 205
 0 +-.00400000000000267 .0481464374907826 -.146188656316077 1 -573162219783527e-
31 -1968039974050175e-31 1004434098307188e-32 -.846822385188561 -.53187578243755
 .006 16 204 6 206 ?50 207 208 202 0 0 1 30 205 13 0 207 202 209 0 +-.0040000000
0000267 .0430655031796512 -.1493799110107024 -169921929560492e-30 .5318757824375
5 -.846822385188562 16 207 11 210 ?211 212 204 205 0 0 1 30 209 18 0 213 205 214
 0 +-.004000000000002675 .0614433320517213 -.167359215945791 -1004434098307188e-
32 .846822385188561 .53187578243755 16 213 16 215 ?216 217 218 209 212 218 1 30
 214 23 0 217 209 219 0 +-.00400000000000267 .053227371801914 -.1429974016214518
 169921929560492e-30 -.53187578243755 .846822385188562 16 217 21 220 ?221 25 213
 214 0 0 1 30 219 85 0 201 214 222 0 +-.00600000000000267 .0430655031796512 -.14
93799110107024 -169921929560492e-30 .53187578243755 -.846822385188562 16 201 68
 223 ?73 208 197 219 0 0 1 30 222 83 0 208 219 20 0 +-.00600000000000267 .053227
371801914 -.1429974016214518 169921929560492e-30 -.53187578243755 .8468223851885
62 16 208 58 224 ?225 204 201 222 0 0 1 30 20 107 0 25 222 7 0 +-.00400000000000
267 .053227371801914 -.1429974016214518 -1 573162219783527e-31 1968039974050175e
-31 16 25 91 226 ?227 10 217 20 0 0 1 81 1 226 614 126 25 0 0 23 220 228 17 227
 0 229 56 50 43 230 25 0 225 +15 229 178 0 53 231 0 17 56 0 229 53 227 54 46 193
 0 24 -17 50 0 229 227 53 47 232 204 0 221 +17 230 0 233 234 225 47 227 25 0 0 -
17 225 0 233 230 235 43 70 208 0 0 +15 233 95 0 225 236 0 17 235 0 233 225 237 6
0 159 156 0 0 -17 70 0 238 239 46 60 225 208 0 171 -15 238 57 0 240 241 242 17 2
39 0 238 240 70 71 171 168 0 0 -17 46 0 238 70 240 43 56 193 0 227 +17 171 0 243
 159 167 60 239 168 0 235 +15 243 303 0 159 16 244 17 159 0 243 76 171 64 235 15
6 0 237 +17 167 0 243 171 76 71 245 164 0 239 +17 76 0 243 167 159 74 78 160 0 2
46 +17 245 0 247 183 73 74 167 164 0 0 -15 247 99 0 73 18 0 17 183 0 247 180 245
 61 246 172 0 248 +17 73 0 247 245 24 71 240 201 0 167 +17 24 0 247 73 249 54 53
 10 0 240 +17 240 0 238 46 239 54 73 201 0 0 -17 249 0 247 24 180 51 211 207 0 2
32 -17 53 0 229 50 56 51 24 10 0 249 -17 180 0 247 249 183 57 248 161 0 211 +17
 211 0 250 216 232 57 249 207 0 0 +17 232 0 250 211 221 51 50 204 0 0 -15 250 5
 0 232 251 0 17 221 0 250 232 42 47 234 217 0 230 +17 42 0 250 221 252 35 107 21
2 0 253 +17 234 0 233 67 230 35 221 217 0 0 -17 67 0 233 237 234 65 253 150 0 25
4 +17 237 0 233 235 67 64 187 184 0 0 -17 253 0 255 107 254 35 67 150 0 234 -17
 254 0 255 253 248 65 63 175 0 187 -15 255 306 0 39 256 0 17 248 0 255 254 59 61
 180 161 0 0 -17 63 0 257 246 187 61 254 175 0 183 +17 187 0 257 63 78 65 237 18
4 0 0 +15 257 292 0 63 258 0 17 78 0 257 187 246 64 76 160 0 159 -17 246 0 257 7
8 63 74 183 172 0 245 -14 255 258 289 259 ?256 260 257 5 261 -0 0 256 260 22 81
 1 259 599 126 258 0 0 262 263 264 14 256 304 263 ?114 258 255 5 265 -0 0 114 25
8 22 14 260 191 262 ?258 266 267 5 268 -0 0 258 266 22 50 261 310 0 258 265 268
 0 +.00599999999999733 .0718430241872282 -.1726361851030515 -1 573162219783527e-
31 1968039974050175e-31 -1004434098307188e-32 .846822385188561 .53187578243755 1
3 22 41 0 0 0 0 0 0 9 16 14 16 402 269 ?18 0 243 5 270 +0 0 18 0 22 81 1 269 591
 126 16 0 0 0 271 272 14 18 100 271 ?236 16 247 5 6 -0 0 236 16 22 50 270 314 0
 16 273 265 0 +-.00600000000000268 .0667620898760968 -.1758274397976765 -1699219
29560492e-30 .53187578243755 -.846822385188562 1 -573162219783527e-31 -196803997
4050175e-31 50 273 480 0 114 274 270 0 +-.00500000000000268 .0614433320517213 -.
167359215945791 1 -573162219783527e-31 -1968039974050175e-31 1004434098307188e-3
2 -.846822385188561 -.53187578243755 50 265 313 0 256 270 261 0 +-.0060000000000
0268 .0614433320517213 -.167359215945791 -169921929560492e-30 .53187578243755 -.
846822385188562 1 -573162219783527e-31 -1968039974050175e-31 14 114 454 275 ?276
 256 28 5 273 +0 0 276 256 22 50 274 481 0 102 277 273 0 +-.00600000000000268 .0
656774439776641 -.1646998370336035 1004434098307188e-32 -.846822385188561 -.5318
7578243755 -1 573162219783527e-31 1968039974050175e-31 14 102 466 278 ?120 279 9
8 5 274 +0 0 120 279 22 50 277 482 0 279 280 274 0 +.00499999999999733 .06144333
20517213 -.167359215945791 1 -573162219783527e-31 -1968039974050175e-31 10044340
98307188e-32 -.846822385188561 -.53187578243755 14 279 462 281 ?102 276 36 5 277
 -0 0 102 276 22 50 280 483 0 276 282 277 0 +-.00600000000000268 .05720922012577
85 -.170018594857979 1004434098307188e-32 -.846822385188561 -.53187578243755 -1
 573162219783527e-31 1968039974050175e-31 14 276 458 283 ?279 114 284 5 280 -0 0
 279 114 22 50 282 485 0 120 0 280 0 +-.00600000000000268 .0614433320517213 -.16
7359215945791 -169921929560492e-30 .53187578243755 -.846822385188562 1 -57316221
9783527e-31 -1968039974050175e-31 14 120 470 285 ?0 102 108 5 282 +0 0 0 102 22
 81 1 285 605 126 120 0 0 278 23 286 80 255 1 126 0 287 8001 0 0 0 0 3 5 0 0 0 F
FFFTFTFFFFFFF2 81 1 278 604 126 102 0 0 281 285 288 81 1 23 613 126 10 0 0 285 2
26 289 83 255 3 286 1 1 1 83 3 289 1 1 1 81 1 281 603 126 279 0 0 283 278 290 83
 3 288 1 1 1 81 1 283 602 126 276 0 0 275 281 291 83 3 290 1 1 1 81 1 275 601 12
6 114 0 0 263 283 292 83 3 291 1 1 1 81 1 263 600 126 256 0 0 259 275 293 83 3 2
92 1 1 1 83 3 293 1 1 1 79 255 15 287 SDL/TYSA_COLOUR15 284 461 0 129 276 0 17 1
29 0 284 115 90 85 294 124 0 31 +17 115 0 284 121 129 84 30 147 0 0 -17 90 0 284
 129 295 88 38 151 0 145 +17 294 0 244 296 31 88 129 124 0 0 -17 31 0 244 294 10
4 85 26 32 0 0 +15 244 385 0 104 16 0 17 104 0 244 31 296 11 101 141 0 0 +17 296
 0 244 104 294 91 145 130 0 0 -17 101 0 98 41 33 91 104 141 0 296 -17 41 0 98 99
 101 27 37 117 0 105 -17 37 0 36 145 34 91 41 117 0 101 +17 105 0 255 39 107 27
 99 106 0 0 -17 39 0 255 138 105 95 34 40 0 0 +17 107 0 255 105 253 81 42 212 0
 252 -16 212 369 297 ?42 218 207 209 218 213 1 17 252 0 250 42 216 81 80 218 0 0
 +17 216 0 250 252 211 68 59 213 0 0 +17 80 0 108 94 83 68 252 218 0 121 -16 218
 366 298 ?252 213 212 209 213 212 1 81 1 298 617 126 218 0 0 215 297 299 81 1 21
5 616 126 213 0 0 220 298 300 81 1 297 618 126 212 0 0 298 210 301 83 3 299 1 1
 1 81 1 210 619 126 207 0 0 297 206 302 83 3 301 1 1 1 81 1 206 620 126 204 0 0
 210 224 303 83 3 302 1 1 1 81 1 224 621 126 208 0 0 206 223 304 83 3 303 1 1 1
 81 1 223 622 126 201 0 0 224 199 305 83 3 304 1 1 1 81 1 199 623 126 197 0 0 22
3 203 306 83 3 305 1 1 1 81 1 203 624 126 193 0 0 199 191 307 83 3 306 1 1 1 81
 1 191 625 126 189 0 0 203 195 308 83 3 307 1 1 1 81 1 195 626 126 188 0 0 191 1
86 309 83 3 308 1 1 1 81 1 186 627 126 184 0 0 195 182 310 83 3 309 1 1 1 81 1 1
82 628 126 172 0 0 186 170 311 83 3 310 1 1 1 81 1 170 629 126 168 0 0 182 166 3
12 83 3 311 1 1 1 81 1 166 630 126 164 0 0 170 163 313 83 3 312 1 1 1 81 1 163 6
31 126 160 0 0 166 158 314 83 3 313 1 1 1 81 1 158 632 126 156 0 0 163 179 315 8
3 3 314 1 1 1 81 1 179 633 126 161 0 0 158 177 316 83 3 315 1 1 1 81 1 177 634 1
26 175 0 0 179 174 317 83 3 316 1 1 1 81 1 174 635 126 150 0 0 177 149 318 83 3
 317 1 1 1 81 1 149 636 126 147 0 0 174 153 319 83 3 318 1 1 1 81 1 153 637 126
 151 0 0 149 154 320 83 3 319 1 1 1 81 1 154 638 126 117 0 0 153 116 321 83 3 32
0 1 1 1 81 1 116 639 126 103 0 0 154 137 322 83 3 321 1 1 1 81 1 137 640 126 118
 0 0 116 323 324 83 3 322 1 1 1 81 1 323 641 126 122 0 0 137 135 325 83 3 324 1
 1 1 16 122 415 323 ?94 118 40 134 118 118 1 81 1 135 642 126 40 0 0 323 133 326
 83 3 325 1 1 1 81 1 133 643 126 106 0 0 135 110 327 83 3 326 1 1 1 81 1 110 644
 126 100 0 0 133 123 328 83 3 327 1 1 1 83 3 328 1 1 1 81 1 220 615 126 217 0 0
 226 215 329 83 3 300 1 1 1 83 3 329 1 1 1 17 121 0 284 295 115 68 94 122 0 138
 -17 295 0 284 90 121 95 138 118 0 39 -17 138 0 255 59 39 68 295 118 0 216 +17 5
9 0 255 248 138 57 216 213 0 180 -15 36 465 0 145 279 0 17 145 0 36 38 37 88 296
 130 0 294 +17 38 0 36 34 145 95 90 151 0 295 -17 30 0 28 26 113 85 115 147 0 12
9 +81 1 271 592 126 18 0 0 269 330 331 14 236 96 330 ?251 18 233 5 19 -0 0 251 1
8 22 81 1 330 593 126 236 0 0 271 332 333 14 251 1 332 ?241 236 250 5 334 +0 0 2
41 236 22 50 19 103 0 236 335 6 0 +-.00400000000000267 .053227371801914 -.142997
4016214518 100443409830719e-31 -.846822385188561 -.53187578243755 -1699219295604
92e-30 .53187578243755 -.846822385188562 50 335 82 0 241 334 19 0 +-.00600000000
000267 .0481464374907826 -.146188656316077 1 -573162219783527e-31 -1968039974050
175e-31 1004434098307188e-32 -.846822385188561 -.53187578243755 14 241 55 336 ?2
31 251 238 5 335 -0 0 231 251 22 50 334 3 0 251 337 335 0 +-.00400000000000267 .
0481464374907826 -.146188656316077 1 -573162219783527e-31 -1968039974050175e-31
 1004434098307188e-32 -.846822385188561 -.53187578243755 51 255 337 198 0 231 33
8 334 0 +-266887206779032e-29 .0481464374907826 -.146188656316077 -1 57316221978
3527e-31 1968039974050175e-31 .006 -1004434098307188e-32 .846822385188561 .53187
578243755 14 231 174 339 ?266 241 340 5 337 +0 0 266 241 22 50 338 200 0 266 268
 337 0 +-266887206779032e-29 .0481464374907826 -.146188656316077 -1 573162219783
527e-31 1968039974050175e-31 -1004434098307188e-32 .846822385188561 .53187578243
755 14 266 183 341 ?260 231 342 5 338 -0 0 260 231 22 51 268 201 0 260 261 338 0
 +-266887206779032e-29 .0481464374907826 -.146188656316077 -1 573162219783527e-3
1 1968039974050175e-31 .005 -1004434098307188e-32 .846822385188561 .531875782437
55 81 1 341 597 126 266 0 0 339 262 343 15 342 185 0 192 266 344 17 192 0 342 19
2 192 0 345 189 0 0 +15 344 186 0 346 266 0 17 346 0 344 346 346 0 200 197 0 0 -
17 200 0 340 200 200 0 346 197 0 0 +15 340 177 0 200 231 229 17 345 0 267 345 34
5 0 192 189 0 0 -15 267 194 0 345 260 347 15 347 195 0 196 260 0 17 196 0 347 19
6 196 0 348 188 0 0 +17 348 0 242 348 348 0 196 188 0 0 -15 242 189 0 348 241 0
 81 1 339 596 126 231 0 0 336 341 349 81 1 262 598 126 260 0 0 341 259 350 83 3
 343 1 1 1 83 3 350 1 1 1 81 1 336 595 126 241 0 0 332 339 351 83 3 349 1 1 1 81
 1 332 594 126 251 0 0 330 336 352 83 3 351 1 1 1 83 3 352 1 1 1 83 3 333 1 1 1
 83 3 331 1 1 1 83 3 272 1 1 1 83 3 264 1 1 1 83 3 228 1 1 1 81 1 144 647 126 13
0 0 0 127 143 353 81 1 127 646 126 124 0 0 123 144 354 81 1 143 648 126 141 0 0
 144 140 355 83 3 353 1 1 1 81 1 140 649 126 32 0 0 143 0 356 83 3 355 1 1 1 83
 3 356 1 1 1 83 3 354 1 1 1 83 3 128 1 1 1 19 17 112 0 1 0 9 5 S0 74 4 CI16 inde
x_map_offset0 0 1 dCCZ20 15 6 0 0 140 357 358 359 13 2 0 0 0 0 0 0 0 0 0 0 0 0 0
 0 81 1 357 606 360 1 0 358 0 0 361 81 1 358 609 362 1 357 359 0 0 363 81 1 359
 610 364 1 358 13 0 0 365 81 1 13 611 366 1 359 2 0 0 367 80 1 366 362 368 9000
 0 0 0 0 3 5 0 0 0 FFTFFFFFFFFFFF3 84 255 17 367 _06_bar_bottom_1179 13 368 Adam
sPartName80 1 364 366 369 9000 0 0 0 0 3 5 0 0 0 FFTFFFFFFFFFFF3 84 6 365 PSMAR1
79 12 369 AdamsRFMName80 1 362 370 371 9000 0 0 0 0 3 5 0 0 0 FFTFFFFFFFFFFF1 82
 255 1 363 58 79 12 371 UG2/ADAMS_ID80 1 360 372 373 8017 0 0 0 0 0 0 0 0 0 TTTT
TTTTTTTTTF3 84 19 361 05_bar_joint_bottom79 13 373 SDL/TYSA_NAME80 1 12 364 374
 9000 0 0 0 0 3 5 0 0 0 FFTFFFFFFFFFFF3 84 7 14 SOLID5979 15 374 AdamsObjectName
1 0 
