**ABCDEFGHIJKLMNOPQRSTUVWXYZabcdefghijklmnopqrstuvwxyz**************************
**PARASOLID !"#$%&'()*+,-./:;<=>?@[\]^_`{|}~0123456789**************************
**PART1;
MC=unknown;
MC_MODEL=unknown;
MC_ID=unknown;
OS=unknown;
OS_RELEASE=unknown;
FRU=sdl_parasolid_customer_support;
APPL=parasolid_acceptance_tests;
SITE=unknown;
USER=unknown;
FORMAT=text;
GUISE=transmit;
KEY=Controls_Plant_9_Tensegrity__06_bar_bottom_8_SOLID34;
FILE=Controls_Plant_9_Tensegrity__06_bar_bottom_8_SOLID34.xmt_txt;
DATE=unknown;
**PART2;
SCH=SCH_3101206_31100;
USFLD_SIZE=1;
**PART3;
**END_OF_HEADER*****************************************************************
T51 : TRANSMIT FILE created by modeller version 310120623 SCH_3101206_31100_1300
6222 0 12 34 CCCCCCI4 mesh1006 0 I8 polyline1008 0 CCCCCCCDI5 owner1040 0 CCCCCC
I13 boundary_mesh1006 0 I17 boundary_polyline1008 0 CCCA16 index_map_offset0 0 1
 dA9 index_map82 0 A17 node_id_index_map82 0 A20 schema_embedding_map82 0 A5 chi
ld12 0 A14 lowest_node_id0 0 1 dA16 mesh_offset_data206 0 Z1 944 2 3 0 0 0 0 0 0
 1e3 1e-8 0 4 0 1 0 1 1 5 6 7 8 0 0 9 10 11 0 0 0 0 0 0 0 81 255 1 2 893 12 1 13
 0 0 0 14 70 11 CI9 list_type0 0 1 uI10 notransmit0 0 1 lCCCDCCDI12 finger_index
0 0 1 dI12 finger_block1012 0 CZ3 0 4 T1 0 0 6 20 1 15 15 13 255 5 111 0 1 0 16
 0 0 17 0 50 255 6 105 0 18 19 0 0 +.00100912603493193 .197539157170351 -.209617
208243647 -.1677762097837515 -.3768413583591135 .910956494054824 -.9858251079327
4 .0641341088662617 -.155034424078435 30 255 7 110 0 20 21 0 0 +.001009126034931
93 .197539157170351 -.209617208243647 2780238681068145e-32 .924054872131514 .382
2598504813325 29 255 8 682 0 11 22 0 .03033454908492715 .179750831385101 -.20585
69673836315 19 8 CCCCCCCA5 owner12 0 Z9 40 0 1 17 0 23 V0 16 255 10 626 24 ?25 0
 20 26 0 0 1 18 255 11 680 0 27 0 28 8 ?1 17 255 27 0 29 30 31 11 32 33 0 34 +18
 28 390 0 35 11 36 22 ?1 17 35 0 37 38 39 28 40 41 0 42 -18 36 374 0 43 28 44 45
 ?1 29 22 392 0 28 45 8 .03366746650495655 .1920732632902135 -.1937882221158175
 29 45 376 0 36 46 22 .02380921542562915 .183474055657561 -.199161164861415 29 4
6 87 0 47 48 45 -.00100418848247309 .194865170614305 -.1979212106140265 18 47 78
 0 49 44 50 46 ?1 29 48 34 0 44 51 46 .0236414392158454 .1914137081483855 -.1948
09869713028 18 44 32 0 52 36 47 48 ?1 29 51 209 0 50 53 48 -.00100418848247309 .
193017060870042 -.198685730314989 18 50 173 0 54 47 55 51 ?1 29 53 210 0 55 56 5
1 .00100912603493193 .197539157170351 -.209617208243647 18 55 170 0 57 50 58 53
 ?1 29 56 211 0 58 59 53 .00100912603493193 .1993872669146145 -.2088526885426845
 18 58 172 0 60 55 61 56 ?1 29 59 327 0 61 62 56 .02565475373325045 .19593580444
86945 -.205741347641686 18 61 281 0 63 58 64 59 ?1 29 62 331 0 65 66 59 .0256547
5373325045 .1866952557273795 -.2095639461464995 18 65 274 0 67 68 69 62 ?1 29 66
 332 0 69 70 62 .0236414392158454 .18217315942707 -.1986324682178415 18 69 273 0
 71 65 72 66 ?1 29 70 333 0 64 73 66 .0334996902951728 .1926204768039855 -.19249
5005771281 18 64 280 0 74 61 75 70 ?1 29 73 334 0 75 76 70 .03551300481257785 .1
97142573104295 -.203426483699939 18 75 279 0 77 64 78 73 ?1 29 76 335 0 78 79 73
 .03551300481257785 .186053914638717 -.208013601905715 18 78 278 0 80 75 68 76 ?
1 29 79 336 0 68 81 76 .0334996902951728 .1815318183384075 -.197082123977057 18
 68 275 0 82 78 65 79 ?1 29 81 502 0 72 83 79 .0254869775234667 .195558963090335
5 -.2048303911476315 18 72 443 0 84 69 85 81 ?1 29 83 503 0 85 86 81 .0238092154
2562915 .1917905495067445 -.195720826207083 18 85 451 0 87 72 88 83 ?1 29 86 504
 0 89 90 83 .0353452286027941 .1958416768738045 -.2028977870563655 18 89 446 0 3
9 91 92 86 ?1 29 90 505 0 92 93 86 .0353452286027941 .1866011281524895 -.2067203
85561179 18 92 448 0 94 89 95 90 ?1 29 93 506 0 95 96 90 .03366746650495655 .182
832714568898 -.1976108206206305 18 95 450 0 97 92 98 93 ?1 29 96 508 0 88 99 93
 .0254869775234667 .196483017962467 -.20444813129715 18 88 445 0 100 85 101 96 ?
1 29 99 509 0 101 102 96 .0254869775234667 .187242469241152 -.2082707298019635 1
8 101 444 0 103 88 91 99 ?1 29 102 511 0 91 104 99 .02380921542562915 .192714604
378876 -.1953385663566015 18 91 452 0 105 101 89 102 ?1 29 104 777 0 106 107 102
 .0300680335817617 .179152212162709 -.2044098967370375 18 106 730 0 30 108 109 1
04 ?1 29 107 779 0 109 110 104 .0300251441459752 .179770960117752 -.205905625524
0375 18 109 727 0 111 106 112 107 ?1 29 110 780 0 112 113 107 .0297586286428098
 .17917234089536 -.2044585548774435 18 112 734 0 114 109 0 110 ?1 29 113 781 0 9
8 115 110 .0300680335817617 .1782281572905775 -.204792156587519 18 98 733 0 116
 95 117 113 ?1 29 115 782 0 117 118 113 .03033454908492715 .1788267765129695 -.2
06239227234113 18 117 732 0 119 98 120 115 ?1 29 118 783 0 120 121 115 .03002514
41459752 .1788469052456205 -.2062878853745185 18 120 731 0 122 117 108 118 ?1 29
 121 784 0 108 0 118 .0297586286428098 .1782482860232285 -.204840814727925 18 10
8 728 0 123 120 106 121 ?1 17 123 0 124 114 125 108 122 126 0 127 -15 255 124 74
2 0 111 128 0 17 114 0 124 111 123 112 129 130 0 131 +17 125 0 124 123 111 120 1
32 133 0 134 -17 122 0 135 119 127 120 123 126 0 125 +16 126 718 136 ?122 137 13
8 139 0 0 1 17 127 0 135 122 116 108 140 138 0 129 +15 135 753 0 127 141 0 17 11
6 0 135 127 119 98 31 142 0 143 +17 140 0 144 145 129 98 127 138 0 0 -16 138 715
 146 ?127 126 147 148 0 0 1 17 129 0 144 140 131 108 114 130 0 0 -15 144 738 0 1
31 149 0 17 131 0 144 129 145 112 150 151 0 152 +16 130 706 153 ?114 154 133 155
 0 0 1 81 1 153 933 156 130 0 0 157 158 159 16 154 636 157 ?160 41 130 161 0 0 1
 16 133 710 158 ?132 130 33 162 0 0 1 30 155 765 0 130 162 161 0 +.0297586286428
098 .1782482860232285 -.204840814727925 2780238681068145e-32 .924054872131514 .3
822598504813325 30 162 766 0 133 163 155 0 +.0300251441459752 .1788469052456205
 -.2062878853745185 2780238681068145e-32 .924054872131514 .3822598504813325 31 2
55 161 658 0 154 155 26 0 +.0295772220142116 .179493262672236 -.205234334314185
 -2780238681068145e-32 -.924054872131514 -.3822598504813325 .1677762097837515 .3
768413583591135 -.910956494054824 .002 31 26 657 0 10 161 164 0 +.02957722201421
16 .1841135370328935 -.2033230350617785 -2780238681068145e-32 -.924054872131514
 -.3822598504813325 .1677762097837515 .3768413583591135 -.910956494054824 .002 3
0 164 501 0 165 26 166 0 +.02464809647454795 .1945988111706715 -.199893348826876
 .1677762097837515 .3768413583591135 -.910956494054824 16 165 434 167 ?168 169 1
70 164 0 0 1 30 166 500 0 171 164 172 0 +.02380921542562915 .1936386592510075 -.
1949563065061205 2780238681068145e-32 .924054872131514 .3822598504813325 16 171
 408 173 ?174 175 169 166 169 169 1 30 172 499 0 175 166 176 0 +.024648096474547
95 .1853582624493565 -.203715947331689 .1677762097837515 .3768413583591135 -.910
956494054824 16 175 422 177 ?178 179 171 172 0 0 1 30 176 498 0 180 172 181 0 +.
0254869775234667 .1974070728345985 -.2040658714466685 2780238681068145e-32 .9240
54872131514 .3822598504813325 16 180 415 182 ?183 184 179 176 179 179 1 30 181 4
97 0 41 176 185 0 +.03450634755387535 .193957470082009 -.1983430045860915 .16777
62097837515 .3768413583591135 -.910956494054824 16 41 411 186 ?40 187 154 181 0
 0 1 30 185 496 0 187 181 188 0 +.03366746650495655 .192997318162345 -.193405962
265336 2780238681068145e-32 .924054872131514 .3822598504813325 16 187 426 189 ?1
90 191 41 185 0 0 1 30 188 495 0 191 185 192 0 +.03450634755387535 .184716921360
694 -.202165603090905 .1677762097837515 .3768413583591135 -.910956494054824 16 1
91 437 193 ?194 170 187 188 0 0 1 30 192 494 0 170 188 195 0 +.0353452286027941
 .196765731745936 -.2025155272058845 2780238681068145e-32 .924054872131514 .3822
598504813325 16 170 440 196 ?197 165 191 192 0 0 1 30 195 493 0 198 192 199 0 +.
0254869775234667 .196483017962467 -.20444813129715 .98582510793274 -.06413410886
62617 .1550344240784345 16 198 421 200 ?39 201 202 195 0 0 1 30 199 492 0 202 19
5 203 0 +.0254869775234667 .187242469241152 -.2082707298019635 .98582510793274 -
.0641341088662617 .1550344240784345 16 202 425 204 ?94 198 205 199 0 0 1 30 203
 491 0 205 199 206 0 +.02380921542562915 .183474055657561 -.199161164861415 .985
82510793274 -.0641341088662617 .1550344240784345 16 205 429 207 ?97 202 184 203
 0 0 1 30 206 490 0 184 203 208 0 +.02380921542562915 .192714604378876 -.1953385
663566015 .98582510793274 -.0641341088662617 .1550344240784345 16 184 414 209 ?4
2 205 180 206 0 0 1 30 208 326 0 210 206 211 0 +.0334996902951728 .1926204768039
855 -.192495005771281 -2780238681068145e-32 -.924054872131514 -.3822598504813325
 16 210 260 212 ?213 214 215 208 0 0 1 30 211 325 0 214 208 216 0 +.033499690295
1728 .1815318183384075 -.197082123977057 .1677762097837515 .3768413583591135 -.9
10956494054824 16 214 263 217 ?80 218 210 211 0 0 1 30 216 324 0 218 211 219 0 +
.03551300481257785 .197142573104295 -.203426483699939 2780238681068145e-32 .9240
54872131514 .3822598504813325 16 218 266 220 ?221 222 214 216 0 0 1 30 219 323 0
 222 216 223 0 +.0334996902951728 .1926204768039855 -.192495005771281 -.16777620
97837515 -.3768413583591135 .910956494054824 16 222 269 224 ?225 226 218 219 0 0
 1 30 223 322 0 201 219 227 0 +.0236414392158454 .1932618178926485 -.19404535001
20655 -2780238681068145e-32 -.924054872131514 -.3822598504813325 16 201 241 228
 ?71 229 198 223 0 0 1 30 227 321 0 229 223 230 0 +.0236414392158454 .1821731594
2707 -.1986324682178415 .1677762097837515 .3768413583591135 -.910956494054824 16
 229 245 231 ?67 215 201 227 0 0 1 30 230 320 0 215 227 232 0 +.0256547537332504
5 .1977839141929575 -.2049768279407235 2780238681068145e-32 .924054872131514 .38
22598504813325 16 215 249 233 ?234 210 229 230 0 0 1 30 232 316 0 226 230 235 0
 +.03551300481257785 .186053914638717 -.208013601905715 -.98582510793274 .064134
1088662617 -.1550344240784345 16 226 255 236 ?237 238 222 232 0 0 1 30 235 315 0
 238 232 239 0 +.0334996902951728 .1815318183384075 -.197082123977057 -.98582510
793274 .0641341088662617 -.1550344240784345 16 238 248 240 ?241 242 226 235 0 0
 1 31 239 208 0 243 235 244 0 +2468776229419375e-21 .1915818895316705 -.20568050
86812435 2780238681068145e-32 .924054872131514 .3822598504813325 -.1677762097837
515 -.3768413583591135 .910956494054824 .005 16 243 158 245 ?246 247 242 239 0 0
 1 31 244 207 0 242 239 248 0 +2468776229419545e-21 .1971262187644595 -.20338694
95783555 2780238681068145e-32 .924054872131514 .3822598504813325 -.1677762097837
515 -.3768413583591135 .910956494054824 .005 16 242 167 249 ?250 243 238 244 0 0
 1 31 248 206 0 251 244 252 0 +2468776229419375e-21 .1915818895316705 -.20568050
86812435 2780238681068145e-32 .924054872131514 .3822598504813325 -.1677762097837
515 -.3768413583591135 .910956494054824 .006 16 251 152 253 ?254 255 247 248 0 0
 1 31 252 205 0 247 248 256 0 +2468776229419545e-21 .1971262187644595 -.20338694
95783555 2780238681068145e-32 .924054872131514 .3822598504813325 -.1677762097837
515 -.3768413583591135 .910956494054824 .006 16 247 164 257 ?49 251 243 252 0 0
 1 31 256 8 0 258 252 259 0 +246877622941949e-20 .1952781090201965 -.20415146927
9318 -2780238681068145e-32 -.924054872131514 -.3822598504813325 .167776209783751
5 .3768413583591135 -.910956494054824 .006 16 258 6 260 ?54 261 262 256 0 0 1 30
 259 13 0 261 256 263 0 +.00100912603493193 .197539157170351 -.209617208243647 .
98582510793274 -.0641341088662617 .155034424078435 16 261 11 264 ?265 266 258 25
9 0 0 1 30 263 18 0 267 259 268 0 +.02464809647454795 .19367475629854 -.20027560
8677357 -.1677762097837515 -.3768413583591135 .910956494054824 16 267 16 269 ?27
0 271 272 263 266 272 1 30 268 23 0 271 263 273 0 +-.00100418848247309 .19301706
0870042 -.198685730314989 -.98582510793274 .0641341088662616 -.1550344240784345
 16 271 21 274 ?275 276 267 268 0 0 1 30 273 85 0 255 268 277 0 +.00100912603493
193 .1993872669146145 -.2088526885426845 .98582510793274 -.0641341088662617 .155
034424078435 16 255 68 278 ?77 262 251 273 0 0 1 30 277 83 0 262 273 21 0 +-.001
00418848247309 .194865170614305 -.1979212106140265 -.98582510793274 .06413410886
62616 -.1550344240784345 16 262 58 279 ?280 258 255 277 0 0 1 30 21 107 0 276 27
7 7 0 +-.00100418848247309 .193017060870042 -.198685730314989 2780238681068145e-
32 .924054872131514 .3822598504813325 16 276 91 281 ?282 20 271 21 0 0 1 81 1 28
1 896 156 276 0 0 283 274 284 17 282 0 285 60 54 47 286 276 0 280 +16 20 94 283
 ?287 10 276 7 0 0 1 81 1 283 895 156 20 0 0 24 281 288 17 287 0 289 77 290 58 5
7 20 0 291 +15 289 99 0 77 18 0 17 77 0 289 292 287 75 291 255 0 221 +17 290 0 2
89 287 234 55 265 261 0 293 -17 57 0 285 54 60 55 287 20 0 290 -17 291 0 294 49
 295 58 77 255 0 0 -15 294 57 0 291 296 297 17 49 0 294 74 291 47 60 247 0 282 +
17 295 0 294 291 74 75 225 222 0 0 -17 74 0 294 295 49 64 280 262 0 225 -17 225
 0 298 213 221 64 295 222 0 299 +15 298 303 0 213 300 301 17 213 0 298 80 225 68
 299 210 0 302 +17 221 0 298 225 80 75 292 218 0 295 +17 299 0 303 280 302 64 21
3 210 0 0 -15 303 95 0 280 304 0 17 280 0 303 286 299 47 74 262 0 0 +17 302 0 30
3 299 71 68 241 238 0 0 -17 71 0 303 302 305 69 306 201 0 307 +17 241 0 308 67 8
2 69 302 238 0 0 +15 308 292 0 67 309 0 17 67 0 308 310 241 65 307 229 0 237 +17
 82 0 308 241 310 68 80 214 0 213 -17 310 0 308 82 67 78 237 226 0 292 -17 80 0
 298 221 213 78 82 214 0 310 +17 237 0 289 234 292 65 310 226 0 311 +17 292 0 28
9 237 77 78 221 218 0 0 -17 234 0 289 290 237 61 311 215 0 265 +17 311 0 312 307
 63 65 234 215 0 0 -15 312 306 0 178 313 0 17 307 0 312 306 311 69 67 229 0 241
 -17 63 0 312 311 183 61 270 267 0 234 -17 183 0 312 63 178 72 314 180 0 270 +17
 270 0 315 316 265 72 63 267 0 0 +15 315 5 0 293 317 0 17 316 0 315 52 270 85 84
 272 0 0 +17 265 0 315 270 293 61 290 261 0 0 +17 293 0 315 265 275 55 54 258 0
 0 -17 275 0 315 293 52 50 305 271 0 286 +17 54 0 285 282 57 50 293 258 0 275 +1
5 285 178 0 57 318 0 14 255 318 174 319 ?320 296 321 5 322 +0 0 320 296 23 81 1
 319 871 156 318 0 0 323 324 325 14 320 183 324 ?326 318 327 5 328 -0 0 326 318
 23 14 296 55 323 ?318 317 294 5 329 -0 0 318 317 23 15 321 177 0 254 318 285 51
 255 322 198 0 318 328 330 0 +2468776229419375e-21 .1915818895316705 -.205680508
6812435 2780238681068145e-32 .924054872131514 .3822598504813325 .006 -.167776209
7837515 -.3768413583591135 .910956494054824 13 23 41 0 0 0 0 0 0 9 16 14 16 695
 331 ?300 0 332 5 333 +0 0 300 0 23 81 1 331 865 156 16 0 0 0 334 335 14 300 405
 334 ?18 16 298 5 336 +0 0 18 16 23 15 332 647 0 160 16 337 50 333 656 0 16 338
 339 0 +246877622941907e-20 .181417285938224 -.209885367036538 -2780238681068145
e-32 -.924054872131514 -.3822598504813325 .1677762097837515 .3768413583591135 -.
910956494054824 50 338 759 0 149 340 333 0 +.0300680335817617 .1782281572905775
 -.204792156587519 .1677762097837515 .3768413583591135 -.910956494054824 2780238
681068145e-32 .924054872131514 .3822598504813325 51 339 654 0 341 333 342 0 -.02
95772220142116 .179493262672236 -.205234334314185 2780238681068145e-32 .92405487
2131514 .3822598504813325 .002 -.1677762097837515 -.3768413583591135 .9109564940
54824 14 341 639 343 ?149 344 345 5 339 -0 0 149 344 23 50 342 488 0 344 339 346
 0 +.02464809647454795 .195522866042803 -.1995110889763945 .98582510793274 -.064
1341088662617 .1550344240784345 -2780238681068145e-32 -.924054872131514 -.382259
8504813325 14 344 473 347 ?341 348 349 5 342 +0 0 341 348 23 50 346 486 0 350 34
2 351 0 +.0254869775234667 .1974070728345985 -.2040658714466685 .167776209783751
5 .3768413583591135 -.910956494054824 2780238681068145e-32 .924054872131514 .382
2598504813325 14 350 461 352 ?353 354 355 5 346 -0 0 353 354 23 50 351 485 0 353
 346 356 0 +.02464809647454795 .1853582624493565 -.203715947331689 -278023868106
8145e-32 -.924054872131514 -.3822598504813325 .1677762097837515 .376841358359113
5 -.910956494054824 14 353 465 357 ?348 350 358 5 351 -0 0 348 350 23 50 356 484
 0 348 351 359 0 +.02380921542562915 .1936386592510075 -.1949563065061205 .16777
62097837515 .3768413583591135 -.910956494054824 2780238681068145e-32 .9240548721
31514 .3822598504813325 14 348 469 360 ?344 353 361 5 356 +0 0 344 353 23 50 359
 483 0 354 356 336 0 +.02464809647454795 .1945988111706715 -.199893348826876 -27
80238681068145e-32 -.924054872131514 -.3822598504813325 .1677762097837515 .37684
13583591135 -.910956494054824 14 354 457 362 ?350 313 37 5 359 +0 0 350 313 23 5
0 336 314 0 300 359 363 0 +.03450634755387535 .1948815249541405 -.19796074473561
 .98582510793274 -.0641341088662617 .1550344240784345 -2780238681068145e-32 -.92
4054872131514 -.3822598504813325 50 363 313 0 313 336 364 0 +.02464809647454795
 .195522866042803 -.1995110889763945 .98582510793274 -.0641341088662617 .1550344
240784345 -2780238681068145e-32 -.924054872131514 -.3822598504813325 14 313 304
 365 ?354 309 312 5 363 -0 0 354 309 23 50 364 310 0 309 363 366 0 +.03349969029
51728 .1815318183384075 -.197082123977057 2780238681068145e-32 .924054872131514
 .3822598504813325 -.1677762097837515 -.3768413583591135 .910956494054824 14 309
 289 367 ?313 326 368 5 364 -0 0 313 326 23 51 366 201 0 326 364 328 0 +24687762
29419375e-21 .1915818895316705 -.2056805086812435 2780238681068145e-32 .92405487
2131514 .3822598504813325 .005 -.1677762097837515 -.3768413583591135 .9109564940
54824 14 326 191 369 ?309 320 370 5 366 -0 0 309 320 23 50 328 200 0 320 366 322
 0 +2468776229419375e-21 .1915818895316705 -.2056805086812435 2780238681068145e-
32 .924054872131514 .3822598504813325 -.1677762097837515 -.3768413583591135 .910
956494054824 81 1 369 873 156 326 0 0 324 367 371 15 370 194 0 372 326 373 17 37
2 0 370 372 372 0 246 243 0 0 -15 373 195 0 250 326 0 17 250 0 373 250 250 0 374
 242 0 0 +17 374 0 297 374 374 0 250 242 0 0 -15 297 189 0 374 296 0 17 246 0 32
7 246 246 0 372 243 0 0 +15 327 185 0 246 320 375 15 375 186 0 376 320 0 17 376
 0 375 376 376 0 254 251 0 0 -17 254 0 321 254 254 0 376 251 0 0 +80 255 1 156 0
 377 8001 0 0 0 0 3 5 0 0 0 FFFFTFTFFFFFFF2 81 1 324 872 156 320 0 0 319 369 378
 81 1 367 874 156 309 0 0 369 365 379 83 255 3 371 1 1 1 81 1 365 875 156 313 0
 0 367 362 380 83 3 379 1 1 1 81 1 362 876 156 354 0 0 365 352 381 83 3 380 1 1
 1 81 1 352 877 156 350 0 0 362 357 382 83 3 381 1 1 1 81 1 357 878 156 353 0 0
 352 360 383 83 3 382 1 1 1 81 1 360 879 156 348 0 0 357 347 384 83 3 383 1 1 1
 81 1 347 880 156 344 0 0 360 343 385 83 3 384 1 1 1 81 1 343 881 156 341 0 0 34
7 386 387 83 3 385 1 1 1 81 1 386 882 156 149 0 0 343 388 389 83 3 387 1 1 1 14
 149 735 386 ?128 341 144 5 338 -0 0 128 341 23 81 1 388 883 156 128 0 0 386 390
 391 83 3 389 1 1 1 14 128 739 388 ?392 149 124 5 340 -0 0 392 149 23 81 1 390 8
84 156 392 0 0 388 393 394 83 3 391 1 1 1 14 392 743 390 ?395 128 396 5 397 -0 0
 395 128 23 81 1 393 885 156 395 0 0 390 398 399 83 3 394 1 1 1 14 395 747 393 ?
141 392 29 5 400 -0 0 141 392 23 81 1 398 886 156 141 0 0 393 24 401 83 3 399 1
 1 1 14 141 751 398 ?0 395 135 5 402 +0 0 0 395 23 81 1 24 894 156 10 0 0 398 28
3 403 83 3 401 1 1 1 83 3 403 1 1 1 50 402 764 0 141 0 400 0 +2468776229419045e-
21 .1804932310660925 -.2102676268870195 -2780238681068145e-32 -.924054872131514
 -.3822598504813325 .1677762097837515 .3768413583591135 -.910956494054824 50 400
 762 0 395 402 397 0 +.0300680335817617 .1782281572905775 -.204792156587519 -.98
582510793274 .0641341088662617 -.1550344240784345 2780238681068145e-32 .92405487
2131514 .3822598504813325 50 397 761 0 392 400 340 0 +.0300251441459752 .1788469
052456205 -.2062878853745185 -.1677762097837515 -.3768413583591135 .910956494054
824 -2780238681068145e-32 -.924054872131514 -.3822598504813325 50 340 760 0 128
 397 338 0 +.0297586286428098 .1782482860232285 -.204840814727925 .9858251079327
4 -.0641341088662617 .1550344240784345 -2780238681068145e-32 -.924054872131514 -
.3822598504813325 15 29 750 0 30 395 0 17 30 0 29 143 27 106 404 147 0 145 +17 1
43 0 29 31 30 98 145 405 0 140 -17 404 0 337 406 150 11 30 147 0 0 -16 147 711 4
07 ?30 138 408 409 0 0 1 17 145 0 144 131 140 106 143 405 0 150 +16 405 702 410
 ?145 33 142 411 0 0 1 17 150 0 337 404 152 106 131 151 0 0 -15 337 678 0 152 16
 0 17 152 0 337 150 406 112 111 412 0 0 -16 151 699 413 ?131 412 0 414 0 0 1 81
 1 413 944 156 151 0 0 415 0 416 16 412 703 415 ?111 408 151 417 0 0 1 30 414 77
2 0 151 418 417 0 +.0300680335817617 .179152212162709 -.2044098967370375 -.98582
510793274 .0641341088662617 -.1550344240784345 30 418 773 0 142 419 414 0 +.0300
680335817617 .1782281572905775 -.204792156587519 -.1677762097837515 -.3768413583
591135 .910956494054824 30 417 771 0 412 414 420 0 +.0297586286428098 .179172340
89536 -.2044585548774435 .1677762097837515 .3768413583591135 -.910956494054824 3
0 420 770 0 408 417 409 0 +.0300251441459752 .179770960117752 -.2059056255240375
 .98582510793274 -.0641341088662617 .1550344240784345 16 408 707 421 ?34 147 412
 420 0 0 1 30 409 769 0 147 420 411 0 +.0300680335817617 .179152212162709 -.2044
098967370375 -.1677762097837515 -.3768413583591135 .910956494054824 30 411 768 0
 405 409 163 0 +.0300680335817617 .1782281572905775 -.204792156587519 2780238681
068145e-32 .924054872131514 .3822598504813325 30 163 767 0 33 411 162 0 +.030334
54908492715 .1788267765129695 -.206239227234113 2780238681068145e-32 .9240548721
31514 .3822598504813325 16 33 714 422 ?27 133 405 163 0 0 1 81 1 422 935 156 33
 0 0 158 410 423 81 1 158 934 156 133 0 0 153 422 424 81 1 410 936 156 405 0 0 4
22 425 426 83 3 423 1 1 1 81 1 425 937 156 142 0 0 410 427 428 83 3 426 1 1 1 16
 142 724 425 ?116 405 137 418 0 0 1 81 1 427 938 156 137 0 0 425 136 429 83 3 42
8 1 1 1 16 137 721 427 ?119 142 126 419 0 0 1 81 1 136 939 156 126 0 0 427 146 4
30 83 3 429 1 1 1 81 1 146 940 156 138 0 0 136 407 431 83 3 430 1 1 1 81 1 407 9
41 156 147 0 0 146 421 432 83 3 431 1 1 1 81 1 421 942 156 408 0 0 407 415 433 8
3 3 432 1 1 1 81 1 415 943 156 412 0 0 421 413 434 83 3 433 1 1 1 83 3 434 1 1 1
 17 119 0 135 116 122 117 134 137 0 32 +30 419 774 0 137 139 418 0 +.03002514414
59752 .1788469052456205 -.2062878853745185 .98582510793274 -.0641341088662617 .1
550344240784345 30 139 775 0 126 148 419 0 +.0297586286428098 .1782482860232285
 -.204840814727925 .1677762097837515 .3768413583591135 -.910956494054824 30 148
 776 0 138 0 139 0 +.0300680335817617 .1782281572905775 -.204792156587519 -.9858
2510793274 .0641341088662617 -.1550344240784345 17 134 0 396 132 32 120 119 137
 0 0 -17 32 0 396 134 34 117 27 33 0 31 -15 396 746 0 34 392 0 17 34 0 396 32 13
2 11 406 408 0 404 +17 31 0 29 27 143 117 116 142 0 0 -17 132 0 396 34 134 109 1
25 133 0 406 +17 406 0 337 152 404 109 34 408 0 0 -83 3 424 1 1 1 17 111 0 124 1
25 114 109 152 412 0 132 +83 3 416 1 1 1 83 3 378 1 1 1 79 255 15 377 SDL/TYSA_C
OLOUR15 368 628 0 435 309 308 17 435 0 368 435 435 0 25 10 0 0 -17 25 0 436 25 2
5 0 435 10 0 0 +15 436 643 0 25 341 0 15 37 460 0 35 354 0 15 361 472 0 437 348
 0 17 437 0 361 438 42 95 190 187 0 439 -17 438 0 361 174 437 36 97 205 0 440 -1
7 42 0 361 437 105 28 38 184 0 190 +17 190 0 301 40 439 28 437 187 0 0 +17 439 0
 301 190 441 95 194 191 0 0 -15 301 388 0 190 300 0 17 441 0 301 439 40 92 197 1
70 0 0 -17 194 0 358 103 97 92 439 191 0 441 +15 358 468 0 194 353 0 17 103 0 35
8 43 194 101 94 202 0 314 -17 97 0 358 194 43 95 438 205 0 437 +17 43 0 358 97 1
03 36 178 175 0 438 -17 178 0 312 183 440 101 43 175 0 0 +17 440 0 312 178 442 3
6 174 171 0 0 -17 442 0 312 440 306 85 52 266 0 316 -17 174 0 361 105 438 85 440
 171 0 442 +17 105 0 361 42 174 91 87 169 0 38 +17 87 0 349 84 443 85 105 169 0
 174 -16 169 431 444 ?105 171 165 166 171 171 1 17 38 0 37 168 35 91 42 184 0 44
3 -17 168 0 37 39 38 88 443 165 0 445 +17 443 0 349 87 100 91 168 165 0 0 -15 34
9 476 0 100 344 0 17 100 0 349 443 84 88 446 179 0 168 +17 84 0 349 100 87 72 31
6 272 0 446 -17 446 0 355 314 445 72 100 179 0 183 -16 179 418 447 ?100 180 175
 176 180 180 1 81 1 447 923 156 179 0 0 182 177 448 81 1 182 922 156 180 0 0 209
 447 449 81 1 177 924 156 175 0 0 447 173 450 83 3 448 1 1 1 81 1 173 925 156 17
1 0 0 177 444 451 83 3 450 1 1 1 81 1 444 926 156 169 0 0 173 167 452 83 3 451 1
 1 1 81 1 167 927 156 165 0 0 444 196 453 83 3 452 1 1 1 81 1 196 928 156 170 0
 0 167 193 454 83 3 453 1 1 1 81 1 193 929 156 191 0 0 196 189 455 83 3 454 1 1
 1 81 1 189 930 156 187 0 0 193 186 456 83 3 455 1 1 1 81 1 186 931 156 41 0 0 1
89 157 457 83 3 456 1 1 1 81 1 157 932 156 154 0 0 186 153 458 83 3 457 1 1 1 83
 3 458 1 1 1 81 1 209 921 156 184 0 0 207 182 459 83 3 449 1 1 1 81 1 207 920 15
6 205 0 0 204 209 460 83 3 459 1 1 1 81 1 204 919 156 202 0 0 200 207 461 83 3 4
60 1 1 1 81 1 200 918 156 198 0 0 228 204 462 83 3 461 1 1 1 81 1 228 917 156 20
1 0 0 231 200 463 83 3 462 1 1 1 81 1 231 916 156 229 0 0 233 228 464 83 3 463 1
 1 1 81 1 233 915 156 215 0 0 212 231 465 83 3 464 1 1 1 81 1 212 914 156 210 0
 0 217 233 466 83 3 465 1 1 1 81 1 217 913 156 214 0 0 220 212 467 83 3 466 1 1
 1 81 1 220 912 156 218 0 0 224 217 468 83 3 467 1 1 1 81 1 224 911 156 222 0 0
 236 220 469 83 3 468 1 1 1 81 1 236 910 156 226 0 0 240 224 470 83 3 469 1 1 1
 81 1 240 909 156 238 0 0 249 236 471 83 3 470 1 1 1 81 1 249 908 156 242 0 0 24
5 240 472 83 3 471 1 1 1 81 1 245 907 156 243 0 0 257 249 473 83 3 472 1 1 1 81
 1 257 906 156 247 0 0 253 245 474 83 3 473 1 1 1 81 1 253 905 156 251 0 0 278 2
57 475 83 3 474 1 1 1 81 1 278 904 156 255 0 0 279 253 476 83 3 475 1 1 1 81 1 2
79 903 156 262 0 0 260 278 477 83 3 476 1 1 1 81 1 260 902 156 258 0 0 264 279 4
78 83 3 477 1 1 1 81 1 264 901 156 261 0 0 479 260 480 83 3 478 1 1 1 81 1 479 9
00 156 266 0 0 481 264 482 83 3 480 1 1 1 16 266 372 479 ?52 272 261 263 272 267
 1 81 1 481 899 156 272 0 0 269 479 483 83 3 482 1 1 1 16 272 369 481 ?316 267 2
66 263 267 266 1 81 1 269 898 156 267 0 0 274 481 484 83 3 483 1 1 1 81 1 274 89
7 156 271 0 0 281 269 485 83 3 484 1 1 1 83 3 485 1 1 1 17 52 0 315 275 316 44 4
42 266 0 306 +17 306 0 312 442 307 44 71 201 0 305 -17 305 0 303 71 286 44 275 2
71 0 0 -17 286 0 303 305 280 50 282 276 0 0 -15 355 464 0 197 350 0 17 314 0 355
 94 446 101 183 180 0 178 -17 445 0 355 446 197 88 39 198 0 0 -17 197 0 355 445
 94 89 441 170 0 40 +17 39 0 37 35 168 89 445 198 0 197 +17 94 0 355 197 314 92
 103 202 0 194 +17 40 0 301 441 190 89 35 41 0 0 +15 345 642 0 486 341 436 17 48
6 0 345 486 486 0 160 154 0 0 -17 160 0 332 160 160 0 486 154 0 0 +81 1 334 866
 156 300 0 0 331 487 488 14 18 100 487 ?304 300 289 5 6 -0 0 304 300 23 81 1 487
 867 156 18 0 0 334 489 490 14 304 96 489 ?317 18 303 5 19 -0 0 317 18 23 81 1 4
89 868 156 304 0 0 487 491 492 14 317 1 491 ?296 304 315 5 330 +0 0 296 304 23 5
0 19 103 0 304 329 6 0 +-.00100418848247309 .193017060870042 -.198685730314989 .
1677762097837515 .3768413583591135 -.910956494054824 .98582510793274 -.064134108
8662616 .1550344240784345 50 329 82 0 296 330 19 0 +2468776229419545e-21 .197126
2187644595 -.2033869495783555 -2780238681068145e-32 -.924054872131514 -.38225985
04813325 .1677762097837515 .3768413583591135 -.910956494054824 50 330 3 0 317 32
2 329 0 +246877622941949e-20 .1952781090201965 -.204151469279318 -27802386810681
45e-32 -.924054872131514 -.3822598504813325 .1677762097837515 .3768413583591135
 -.910956494054824 81 1 491 869 156 317 0 0 489 323 493 81 1 323 870 156 296 0 0
 491 319 494 83 3 493 1 1 1 83 3 494 1 1 1 83 3 492 1 1 1 83 3 490 1 1 1 83 3 48
8 1 1 1 83 3 335 1 1 1 83 3 325 1 1 1 17 60 0 285 57 282 58 49 247 0 287 -83 3 2
88 1 1 1 83 3 284 1 1 1 83 3 159 1 1 1 19 17 112 0 1 0 9 5 S0 74 4 CI16 index_ma
p_offset0 0 1 dCCZ20 15 6 0 0 413 495 496 497 13 2 0 0 0 0 0 0 0 0 0 0 0 0 0 0 8
1 1 495 887 498 1 0 496 0 0 499 81 1 496 890 500 1 495 497 0 0 501 81 1 497 891
 502 1 496 13 0 0 503 81 1 13 892 504 1 497 2 0 0 505 80 1 504 500 506 9000 0 0
 0 0 3 5 0 0 0 FFTFFFFFFFFFFF3 84 255 16 505 _06_bar_bottom_879 13 506 AdamsPart
Name80 1 502 504 507 9000 0 0 0 0 3 5 0 0 0 FFTFFFFFFFFFFF3 84 6 503 PSMAR379 12
 507 AdamsRFMName80 1 500 508 509 9000 0 0 0 0 3 5 0 0 0 FFTFFFFFFFFFFF1 82 255
 1 501 39 79 12 509 UG2/ADAMS_ID80 1 498 510 511 8017 0 0 0 0 0 0 0 0 0 TTTTTTTT
TTTTTF3 84 15 499 01_bar_joint_up79 13 511 SDL/TYSA_NAME80 1 12 502 512 9000 0 0
 0 0 3 5 0 0 0 FFTFFFFFFFFFFF3 84 7 14 SOLID3479 15 512 AdamsObjectName1 0 
