**ABCDEFGHIJKLMNOPQRSTUVWXYZabcdefghijklmnopqrstuvwxyz**************************
**PARASOLID !"#$%&'()*+,-./:;<=>?@[\]^_`{|}~0123456789**************************
**PART1;
MC=unknown;
MC_MODEL=unknown;
MC_ID=unknown;
OS=unknown;
OS_RELEASE=unknown;
FRU=sdl_parasolid_customer_support;
APPL=parasolid_acceptance_tests;
SITE=unknown;
USER=unknown;
FORMAT=text;
GUISE=transmit;
KEY=Controls_Plant_9_Tensegrity__06_bar_bottom_11_SOLID58;
FILE=Controls_Plant_9_Tensegrity__06_bar_bottom_11_SOLID58.xmt_txt;
DATE=unknown;
**PART2;
SCH=SCH_3101206_31100;
USFLD_SIZE=1;
**PART3;
**END_OF_HEADER*****************************************************************
T51 : TRANSMIT FILE created by modeller version 310120623 SCH_3101206_31100_1300
6222 0 12 34 CCCCCCI4 mesh1006 0 I8 polyline1008 0 CCCCCCCDI5 owner1040 0 CCCCCC
I13 boundary_mesh1006 0 I17 boundary_polyline1008 0 CCCA16 index_map_offset0 0 1
 dA9 index_map82 0 A17 node_id_index_map82 0 A20 schema_embedding_map82 0 A5 chi
ld12 0 A14 lowest_node_id0 0 1 dA16 mesh_offset_data206 0 Z1 1009 2 3 0 0 0 0 0
 0 1e3 1e-8 0 4 0 1 0 1 1 5 6 7 8 0 0 9 10 11 0 0 0 0 0 0 0 81 255 1 2 976 12 1
 13 0 0 0 14 70 11 CI9 list_type0 0 1 uI10 notransmit0 0 1 lCCCDCCDI12 finger_in
dex0 0 1 dI12 finger_block1012 0 CZ3 0 4 T1 0 0 7 20 1 15 15 13 255 5 99 0 1 0 1
6 0 0 17 0 50 255 6 94 0 18 19 0 0 +-.00600000000000269 .1303493602553588 -.2657
86647473793 145931013267922e-30 -.846822385188561 -.531875782437549 1 2136828752
801515e-31 -717464103613977e-31 38 12 CCCCCCCCCCCA17 intersection_data204 0 Z7 6
37 0 20 21 0 0 +22 23 24 25 25 26 29 255 8 137 0 11 27 0 .00499999999999732 .121
0343140182846 -.2716372810806065 19 8 CCCCCCCA5 owner12 0 Z9 33 0 1 17 0 28 V0 1
6 255 10 82 29 ?30 0 31 32 0 0 1 18 255 11 135 0 33 0 34 8 ?1 17 255 33 0 35 36
 37 11 38 39 0 40 -18 34 30 0 41 11 42 27 ?1 17 41 0 43 44 45 34 46 47 0 48 +18
 42 27 0 45 34 49 50 ?1 29 27 32 0 34 50 8 .00599999999999732 .1303493602553588
 -.265786647473793 29 50 29 0 42 51 27 .00599999999999732 .120187491633096 -.272
169156863044 29 51 26 0 49 52 50 -.00600000000000269 .120187491633096 -.27216915
6863044 18 49 24 0 53 42 54 51 ?1 29 52 23 0 54 55 51 -.00600000000000269 .13034
93602553588 -.265786647473793 18 54 21 0 56 49 57 52 ?1 29 55 232 0 58 59 52 .00
499999999999732 .1263530718426602 -.280105504932492 18 58 183 0 38 60 61 55 ?1 2
9 59 233 0 61 62 55 -.00500000000000269 .1263530718426602 -.280105504932492 18 6
1 181 0 63 58 64 59 ?1 29 62 234 0 64 65 59 -.00500000000000269 .134821295694545
8 -.2747867471081165 18 64 188 0 66 61 67 62 ?1 29 65 235 0 57 68 62 .0049999999
9999732 .1295025378701702 -.266318523256231 18 57 187 0 36 54 69 65 ?1 29 68 237
 0 69 70 65 -.00500000000000269 .1210343140182846 -.2716372810806065 18 69 185 0
 71 57 60 68 ?1 29 70 238 0 60 72 68 -.00500000000000269 .1295025378701702 -.266
318523256231 18 60 182 0 73 69 58 70 ?1 29 72 377 0 67 74 70 .00499999999999732
 .1348212956945458 -.2747867471081165 18 67 318 0 75 64 76 72 ?1 29 74 381 0 76
 77 72 -.00600000000000269 .137263745427047 -.2767953384812445 18 76 327 0 78 67
 79 74 ?1 29 77 584 0 79 80 74 -.00600000000000269 .1255062494574716 -.280637380
7149295 18 79 553 0 81 76 82 77 ?1 29 80 585 0 82 83 77 .00599999999999732 .1255
062494574716 -.2806373807149295 18 82 554 0 84 79 85 80 ?1 29 83 587 0 85 86 80
 .00599999999999732 .137263745427047 -.2767953384812445 18 85 555 0 87 82 88 83
 ?1 29 86 588 0 88 0 83 -268448278524264e-29 .1329380509665306 -.283469045654492
 18 88 552 0 89 85 0 86 ?1 17 89 0 90 89 89 88 0 0 0 0 ?15 255 90 567 0 89 91 0
 14 255 91 563 92 ?93 94 95 5 22 -0 0 93 94 28 81 1 92 965 96 91 0 0 97 98 99 14
 93 757 98 ?100 91 101 5 102 -0 0 100 91 28 14 94 556 97 ?91 103 104 5 105 +0 0
 91 103 28 15 95 635 0 106 91 107 68 255 22 576 0 91 105 108 109 +110 -268366861
9706155e-30 .1313849974422592 -.278716359598087 1628331072974385e-31 -.310610704
854253 .950537211281044 -268448278524264e-29 .1329380509665306 -.283469045654492
 ?0 ?-4212118637422745e-32 .950537211281044 .3106107048542525 0 13 28 34 0 0 0 0
 0 0 9 16 14 16 453 111 ?112 0 113 5 19 -0 0 112 0 28 81 1 111 954 96 16 0 0 0 1
14 115 14 112 447 114 ?116 16 117 5 118 -0 0 116 16 28 15 113 451 0 119 16 0 50
 19 93 0 16 118 6 0 +-.00600000000000269 .120187491633096 -.272169156863044 1 91
2659859827123e-31 -148634527536227e-30 -1370723603187984e-33 .846822385188561 .5
31875782437549 50 118 92 0 112 120 19 0 +-.00600000000000269 .120187491633096 -.
272169156863044 -73650868435555e-30 .846822385188561 .531875782437549 -1 -152474
430631432e-30 1101904689488122e-31 50 120 91 0 116 121 118 0 +.00599999999999732
 .120187491633096 -.272169156863044 -1 -912659859827123e-31 148634527536227e-30
 1370723603187984e-33 -.846822385188561 -.531875782437549 14 116 438 122 ?123 11
2 124 5 120 -0 0 123 112 28 50 121 3 0 123 125 120 0 +-2681734466836185e-30 .125
2684259442274 -.2689779021684185 168187206084515e-30 -.53187578243755 .846822385
188562 1 912659859827123e-31 -148634527536227e-30 14 123 150 126 ?18 116 43 5 12
1 +0 0 18 116 28 50 125 213 0 127 128 121 0 +.00499999999999732 .129502537870170
2 -.266318523256231 1370723603187984e-33 -.846822385188561 -.531875782437549 1 9
12659859827123e-31 -148634527536227e-30 14 127 189 129 ?130 18 131 5 125 +0 0 13
0 18 28 50 128 214 0 130 132 125 0 +-.00500000000000269 .1210343140182846 -.2716
372810806065 1 912659859827123e-31 -148634527536227e-30 -1370723603187984e-33 .8
46822385188561 .531875782437549 14 130 193 133 ?134 127 135 5 128 +0 0 134 127 2
8 50 132 215 0 134 136 128 0 +.00499999999999732 .1210343140182846 -.27163728108
06065 -1370723603187984e-33 .846822385188561 .531875782437549 -1 -91265985982712
3e-31 148634527536227e-30 14 134 197 137 ?138 130 139 5 132 +0 0 138 130 28 50 1
36 216 0 138 108 132 0 +.00499999999999732 .1210343140182846 -.2716372810806065
 -1 -912659859827123e-31 148634527536227e-30 1370723603187984e-33 -.846822385188
561 -.531875782437549 14 138 201 140 ?103 134 35 5 136 +0 0 103 134 28 50 108 36
0 0 103 22 136 0 +.00599999999999732 .1255062494574716 -.2806373807149295 168187
206084515e-30 -.53187578243755 .846822385188562 1 912659859827123e-31 -148634527
536227e-30 14 103 337 141 ?94 138 142 5 108 +0 0 94 138 28 81 1 141 963 96 103 0
 0 140 97 143 15 142 340 0 144 103 0 17 144 0 142 145 146 67 37 147 0 0 +17 145
 0 142 148 144 64 149 150 0 0 +17 146 0 142 144 148 58 151 152 0 0 +17 37 0 35 3
3 75 58 144 147 0 146 -16 147 165 153 ?144 154 152 155 0 0 1 81 1 153 993 96 147
 0 0 156 157 158 16 154 169 156 ?73 159 147 160 0 0 1 16 152 161 157 ?146 147 16
1 162 0 0 1 30 255 155 223 0 147 162 163 0 +.00499999999999732 .1263530718426602
 -.280105504932492 -1370723603187984e-33 .846822385188561 .531875782437549 30 16
2 224 0 152 164 155 0 +.00499999999999732 .1263530718426602 -.280105504932492 1
 912659859827123e-31 -148634527536227e-30 30 163 222 0 165 155 166 0 +.004999999
99999732 .1295025378701702 -.266318523256231 -168187206084515e-30 .5318757824375
5 -.846822385188562 16 165 156 167 ?75 39 168 163 0 0 1 30 166 221 0 39 163 169
 0 +.00499999999999732 .1210343140182846 -.2716372810806065 -168187206084515e-30
 .53187578243755 -.846822385188562 16 39 168 170 ?38 171 165 166 0 0 1 30 169 22
0 0 171 166 172 0 +-.00500000000000269 .1210343140182846 -.2716372810806065 -168
187206084515e-30 .53187578243755 -.846822385188562 16 171 164 173 ?63 174 39 169
 0 0 1 30 172 219 0 174 169 175 0 +-.00500000000000269 .1295025378701702 -.26631
8523256231 -168187206084515e-30 .53187578243755 -.846822385188562 16 174 160 176
 ?177 178 171 172 0 0 1 30 175 7 0 178 172 179 0 +-.00600000000000269 .130349360
2553588 -.265786647473793 -1 -2136828752801515e-31 717464103613977e-31 16 178 5
 180 ?44 181 174 175 0 0 1 30 179 11 0 181 175 182 0 +-.00600000000000269 .12018
7491633096 -.272169156863044 1370723603187984e-33 -.846822385188561 -.5318757824
37549 16 181 9 183 ?53 184 178 179 0 0 1 30 182 15 0 184 179 185 0 +-.0060000000
0000269 .120187491633096 -.272169156863044 1 152474430631432e-30 -11019046894881
22e-31 16 184 13 186 ?45 47 181 182 0 0 1 30 185 19 0 47 182 187 0 +.00599999999
999732 .120187491633096 -.272169156863044 -1370723603187984e-33 .846822385188561
 .531875782437549 16 47 17 188 ?41 189 184 185 0 0 1 30 187 95 0 189 185 190 0 +
.00599999999999732 .1303493602553588 -.265786647473793 -168187206084515e-30 .531
87578243755 -.846822385188562 16 189 79 191 ?192 193 47 187 0 0 1 30 190 96 0 19
3 187 194 0 +.00599999999999732 .120187491633096 -.272169156863044 -168187206084
515e-30 .53187578243755 -.846822385188562 16 193 80 195 ?196 31 189 190 0 0 1 30
 194 97 0 31 190 32 0 +-.00600000000000269 .120187491633096 -.272169156863044 -1
68187206084515e-30 .53187578243755 -.846822385188562 16 31 81 197 ?198 10 193 19
4 0 0 1 30 32 98 0 10 194 199 0 +-.00600000000000269 .1303493602553588 -.2657866
47473793 -168187206084515e-30 .53187578243755 -.846822385188562 38 199 616 0 200
 32 201 0 +22 102 202 203 203 204 16 200 750 205 ?206 207 208 199 0 0 1 38 201 6
23 0 207 199 21 0 +22 209 210 211 211 212 51 255 102 781 0 93 23 105 213 +-.0050
0000000000269 .1230868701487326 -.286688153945202 1628331072974385e-31 -.3106107
04854253 .950537211281044 .0015 4212118637422745e-32 -.950537211281044 -.3106107
048542525 40 255 20 202 0 1 20 .0001210783316122568 .394746200992838 ??-.0050000
0000000269 .1207614361405764 -.284401009471337 -.00443171338796367 .120921623501
791 -.2845312252987275 -.004023369826157475 .1212187699739738 -.2846367314465645
 -.00369182302292351 .121675785565748 -.284732828713726 -.003515038673229935 .12
22469213835552 -.2847998407621545 -.003540592125764945 .1228429599924892 -.28482
58823548465 -.00375957387892801 .1233608819300858 -.284811357222791 -.0041150008
4646468 .123733028650296 -.284766430783195 -.00454360901932536 .1239412982719422
 -.2847026541198245 -.00500156201608601 .1239916327744364 -.2846277335102585 -.0
0545868919780509 .123889344259934 -.284546033232597 -.00588342271440053 .1236344
364115956 -.2844610131667415 -.00623299526657639 .1232304057219284 -.28437721568
438 -.00645279636967507 .1226998206846464 -.2843017427776395 -.00648934960508993
 .122100912235043 -.2842453588200275 -.00632014287408226 .1215316197660964 -.284
2216336496015 -.0059857878814953 .1210973291136412 -.2842395974107515 -.00557211
404456284 .120845778658019 -.284294059076012 -.00513683016270603 .12075882194732
14 -.2843728753602865 -.00500000000000269 .1207614361405764 -.284401009471337 41
 3 CI8 term_use0 0 1 cCZ1 203 H?-.00500000000000269 .1207614361405764 -.28440100
9471337 204 2 17 INTERSECTION_DATA17 Intersection data7 uv_type0 0 1 u6 values0
 1 1 fT80 204 4 .708259191794688 2.742732723534485 0 .00289632062635006 .6837203
14160835 2.78097921444196 .388561716994278 .002722789727741735 .656123198936286
 2.805106681191895 .709015413807986 .002530205333034065 .622051557002263 2.82044
444565117 1.059514403069732 .002296907369604595 .585910425886588 2.8207092356003
6 1.429074205702946 .002055809025032175 .553476399196495 2.801846754432685 1.803
96733304241 .00184591954969648 .530090157154808 2.76549316932871 2.1679298661783
3 .00169885413011718 .518265165993516 2.719076157510695 2.51053451172877 .001625
96562765003 .517600129064648 2.671150218859495 2.832430464744 .00162189694541577
5 .526639199876373 2.627861078856155 3.142633997833545 .001677477337402135 .5441
64123275438 2.59320538733565 3.45236365742504 .001786908399079365 .5692075394374
52 2.570233138694305 3.7713497604976 .001946900241825925 .600465519882938 2.5613
99316620065 4.106501211638015 .002152049124322125 .635535718389772 2.56810819256
0935 4.46085156094372 .00238859432303781 .670220962851334 2.589812428031615 4.83
162556462176 .002628216748542075 .698573995034901 2.623059272225365 5.2071225333
2248 .00282759674092379 .715154132123115 2.661477350254775 5.56609823601232 .002
945416843166865 .718849162539251 2.69879250257116 5.89186487497509 .002971783268
0756 .712131249955612 2.732787165423285 6.1918382139073 .002923875142219055 .708
259191794688 2.742732723534485 6.28318530717958 .002896320626350065 51 23 784 0
 214 215 102 216 +.00499999999999732 .1230868701487326 -.286688153945202 1628331
072974385e-31 -.310610704854253 .950537211281044 .0015 4212118637422745e-32 -.95
0537211281044 -.3106107048542525 50 105 577 0 94 102 22 0 +-268365329587376e-29
 .1310391887372718 -.278829360840254 1628331072974385e-31 -.310610704854253 .950
537211281044 4212118637422745e-32 -.950537211281044 -.3106107048542525 141 255 2
13 199 213 213 102 14 214 685 217 ?0 218 219 5 23 -0 0 0 218 28 51 215 787 0 218
 209 23 220 +.00999999999999732 .1401965399517914 -.2810971612578255 16283310729
74385e-31 -.310610704854253 .950537211281044 .0015 4212118637422745e-32 -.950537
211281044 -.3106107048542525 141 216 7 216 216 23 14 218 709 221 ?214 100 222 5
 215 -0 0 214 100 28 51 209 790 0 100 0 215 223 +-.0100000000000027 .14019653995
17914 -.2810971612578255 1628331072974385e-31 -.310610704854253 .950537211281044
 .0015 4212118637422745e-32 -.950537211281044 -.3106107048542525 141 220 21 220
 220 215 38 21 630 0 224 201 7 0 +22 215 225 226 226 227 16 224 702 228 ?229 20
 207 21 0 0 1 40 20 225 0 1 20 .000119864690545316 .380142744490503 ??.009999999
99999732 .1380520462077176 -.2793637338688555 .01053211678267898 .13806933591138
32 -.279102569071253 .0109812824872909 .1382382599728502 -.2787568670132915 .011
32709909252912 .1385563400127984 -.278328669990381 .01149366485429482 .138997700
839808 -.277871816478238 .01146081867137234 .1393958962828754 -.2775504635982585
 .01130657189232896 .139745764402311 -.2773455971176975 .01104010100321192 .1400
734707851138 -.2772408544887555 .01071985257196822 .14032235231323 -.27724541359
74015 .0103353675170876 .1405078873198394 -.277343003190397 .0098740133293146 .1
406083164867954 -.2775451560664085 .0093680562992807 .1405695272061794 -.2778588
74070202 .00890605861219096 .1403485569773008 -.278258230033954 .008596076246857
96 .139962219207123 -.2786795585211335 .00850036126811637 .139492149516435 -.279
0475534741985 .00860462546115621 .1390345375382354 -.2793131407816845 .008852726
6773493 .138647292846992 -.279467138834613 .00919656898059439 .1383484099687376
 -.2795195328309895 .00960806174312828 .1381439340554484 -.279477163495163 .0099
9999999999732 .1380520462077176 -.2793637338688555 41 1 226 H?.00999999999999732
 .1380520462077176 -.2793637338688555 204 80 227 4 .624544263811734 5.2627627908
1891 0 .002313789949671755 .659940776151119 5.24681666510487 .3626408036386625 .
00255666644102724 .699308660287466 5.24695794205465 .713108948221088 .0028327994
89337355 .742449898619514 5.26189765328454 1.08592027575626 .00314101762796496 .
783514676263321 5.29045043953997 1.478857143469604 .00343818249378869 .808482160
026145 5.32042929651565 1.7998613889223 .003619956596920835 .820281479369722 5.3
4980956702325 2.084260938908305 .00370601702685408 .819976203744029 5.3807428838
1337 2.37539472110091 .003703789682723265 .808783122073746 5.40817068139936 2.64
104997341022 .00362215081343175 .788132852205286 5.43421295798677 2.916108439779
695 .00347175911467787 .757337060025069 5.45870573524814 3.225682834846865 .0032
4841090932536 .717514977111736 5.47756217889745 3.57646628760653 .00296225863866
344 .673523662341662 5.48392452539921 3.958882552481725 .00265129165311405 .6329
29360994268 5.47203718414308 4.35253760158105 .00237080389498415 .60271360442162
2 5.44213775356283 4.73433687691612 .002167019676487075 .586047276664392 5.40128
86969738 5.08809255230311 .00205670823697626 .582068505166941 5.35807966656501 5
.4123785886766 .002030609703700825 .588621548685664 5.31812863349341 5.717942728
31241 .00207364348198077 .604274381276597 5.28458731538688 6.01882466911936 .002
17742951985385 .624544263811734 5.26276279081891 6.28318530717959 .0023137899496
71755 81 1 228 1003 96 224 0 0 230 231 232 17 229 0 107 229 229 0 233 224 0 0 +1
6 20 678 230 ?106 234 224 7 0 0 1 16 207 726 231 ?235 224 200 201 0 0 1 81 1 231
 1004 96 207 0 0 228 205 236 17 235 0 237 235 235 0 238 207 0 0 +15 237 621 0 23
5 91 239 17 238 0 240 238 238 0 235 207 0 0 -15 240 737 0 238 100 0 14 100 733 2
41 ?218 93 242 5 209 -0 0 218 93 28 81 1 241 967 96 100 0 0 98 221 243 15 242 73
6 0 244 100 240 17 244 0 242 244 244 0 245 246 0 0 +17 245 0 247 245 245 0 244 2
46 0 0 -16 246 730 248 ?244 208 249 250 0 0 1 81 1 248 1007 96 246 0 0 251 252 2
53 16 208 754 251 ?254 200 246 255 0 0 1 16 249 706 252 ?256 246 257 258 0 0 1 3
1 255 250 799 0 246 0 258 0 +-.0100000000000027 .13864348642752 -.27634447520142
 1628331072974385e-31 -.310610704854253 .950537211281044 4212118637422745e-32 -.
950537211281044 -.3106107048542525 .0015 31 258 797 0 249 250 259 0 +.0099999999
9999732 .13864348642752 -.27634447520142 1628331072974385e-31 -.310610704854253
 .950537211281044 4212118637422745e-32 -.950537211281044 -.3106107048542525 .001
5 31 259 795 0 257 258 255 0 +.00499999999999732 .1215338166244612 -.28193546788
87965 1628331072974385e-31 -.310610704854253 .950537211281044 4212118637422745e-
32 -.950537211281044 -.3106107048542525 .0015 16 257 682 260 ?261 249 0 259 0 0
 1 31 255 793 0 208 259 110 0 +-.00500000000000269 .1215338166244612 -.281935467
8887965 1628331072974385e-31 -.310610704854253 .950537211281044 4212118637422745
e-32 -.950537211281044 -.3106107048542525 .0015 134 255 110 583 0 1 255 262 263
 +264 265 31 262 582 0 234 110 266 0 +-2683668619706155e-30 .1313849974422592 -.
278716359598087 1628331072974385e-31 -.310610704854253 .950537211281044 42121186
37422745e-32 -.950537211281044 -.3106107048542525 .015 141 263 22 263 263 110 13
6 255 264 3 4 3 2 5 FFF1 267 268 269 135 255 265 2 0 45 255 12 267 -268448278524
264e-29 .1329380509665306 -.283469045654492 -2684799101158125e-30 .1390678805448
654 -.2817813337007265 -268466101235116e-29 .145956280743691 -.276401602975689 -
268430043750177e-29 .145643055611475 -.274057199025273 127 255 2 268 4 4 128 255
 2 269 0 1 16 234 546 270 ?271 272 20 262 0 0 1 30 266 525 0 273 262 274 0 +-.00
600000000000269 .1310391887372718 -.278829360840254 -4212118637422745e-32 .95053
7211281044 .3106107048542525 16 273 471 275 ?78 276 272 266 0 0 1 30 274 522 0 2
72 266 277 0 +.00599999999999732 .1310391887372718 -.278829360840254 -4212118637
422745e-32 .950537211281044 .3106107048542525 16 272 457 278 ?279 273 234 274 0
 0 1 30 277 517 0 276 274 280 0 +-.00600000000000269 .1255062494574716 -.2806373
807149295 1 912659859827123e-31 -148634527536227e-30 16 276 460 281 ?282 283 273
 277 0 0 1 30 280 369 0 283 277 160 0 +-.00600000000000269 .137263745427047 -.27
67953384812445 -1 -2136828752801515e-31 717464103613977e-31 16 283 307 284 ?285
 150 276 280 0 0 1 30 160 230 0 154 280 286 0 +.00499999999999732 .1295025378701
702 -.266318523256231 -1 -912659859827123e-31 148634527536227e-30 30 286 229 0 1
59 160 287 0 +-.00500000000000269 .1210343140182846 -.2716372810806065 137072360
3187984e-33 -.846822385188561 -.531875782437549 16 159 172 288 ?71 289 154 286 0
 0 1 30 287 228 0 289 286 290 0 +.00499999999999732 .1210343140182846 -.27163728
10806065 1 912659859827123e-31 -148634527536227e-30 16 289 175 291 ?40 168 159 2
87 0 0 1 30 290 227 0 168 287 292 0 +.00499999999999732 .1210343140182846 -.2716
372810806065 -1370723603187984e-33 .846822385188561 .531875782437549 16 168 178
 293 ?36 165 289 290 0 0 1 30 292 226 0 150 290 164 0 +.00499999999999732 .13482
12956945458 -.2747867471081165 -1 -912659859827123e-31 148634527536227e-30 16 15
0 153 294 ?145 161 283 292 0 0 1 30 164 225 0 161 292 162 0 +-.00500000000000269
 .1263530718426602 -.280105504932492 1370723603187984e-33 -.846822385188561 -.53
1875782437549 16 161 157 295 ?148 152 150 164 0 0 1 81 1 295 995 96 161 0 0 157
 294 296 17 148 0 142 146 145 61 66 161 0 0 +17 66 0 135 297 63 64 148 161 0 177
 -15 135 196 0 66 130 0 17 297 0 135 71 66 60 177 174 0 298 -17 63 0 135 66 71 6
1 299 171 0 151 +17 177 0 131 149 73 64 297 174 0 145 +15 131 192 0 149 127 0 17
 149 0 131 300 177 67 145 150 0 144 -17 73 0 131 177 300 60 301 154 0 297 +17 30
0 0 131 73 149 57 75 165 0 301 -17 301 0 302 303 298 57 73 154 0 0 -15 302 133 0
 298 123 0 17 303 0 302 304 301 11 36 168 0 0 -17 298 0 302 301 304 60 71 159 0
 0 -17 304 0 302 298 303 69 40 289 0 0 -17 71 0 135 63 297 69 298 159 0 299 +17
 299 0 139 40 151 69 63 171 0 304 -15 139 200 0 151 134 0 17 40 0 139 38 299 11
 304 289 0 303 +17 151 0 139 299 38 61 146 152 0 148 -17 38 0 139 151 40 58 33 3
9 0 37 +17 36 0 35 75 33 57 303 168 0 300 +15 35 204 0 37 138 0 17 75 0 35 37 36
 67 300 165 0 149 +80 255 1 96 0 305 8001 0 0 0 0 3 5 0 0 0 FFFFTFTFFFFFFF2 81 1
 157 994 96 152 0 0 153 295 306 81 1 294 996 96 150 0 0 295 284 307 83 255 3 296
 .988235294117647 .984313725490196 1 81 1 284 997 96 283 0 0 294 281 308 83 3 30
7 .988235294117647 .984313725490196 1 81 1 281 998 96 276 0 0 284 275 309 83 3 3
08 .988235294117647 .984313725490196 1 81 1 275 999 96 273 0 0 281 278 310 83 3
 309 .988235294117647 .984313725490196 1 81 1 278 1000 96 272 0 0 275 270 311 83
 3 310 .988235294117647 .984313725490196 1 81 1 270 1001 96 234 0 0 278 230 312
 83 3 311 .988235294117647 .984313725490196 1 81 1 230 1002 96 20 0 0 270 228 31
3 83 3 312 .988235294117647 .984313725490196 1 83 3 313 .988235294117647 .984313
725490196 1 83 3 306 .988235294117647 .984313725490196 1 79 255 15 305 SDL/TYSA_
COLOUR81 1 293 989 96 168 0 0 167 291 314 81 1 167 988 96 165 0 0 170 293 315 81
 1 291 990 96 289 0 0 293 288 316 83 3 314 .988235294117647 .984313725490196 1 8
1 1 288 991 96 159 0 0 291 156 317 83 3 316 .988235294117647 .984313725490196 1
 81 1 156 992 96 154 0 0 288 153 318 83 3 317 .988235294117647 .984313725490196
 1 83 3 318 .988235294117647 .984313725490196 1 81 1 170 987 96 39 0 0 173 167 3
19 83 3 315 .988235294117647 .984313725490196 1 81 1 173 986 96 171 0 0 176 170
 320 83 3 319 .988235294117647 .984313725490196 1 81 1 176 985 96 174 0 0 180 17
3 321 83 3 320 .988235294117647 .984313725490196 1 81 1 180 984 96 178 0 0 183 1
76 322 83 3 321 .988235294117647 .984313725490196 1 81 1 183 983 96 181 0 0 186
 180 323 83 3 322 .988235294117647 .984313725490196 1 81 1 186 982 96 184 0 0 18
8 183 324 83 3 323 .988235294117647 .984313725490196 1 81 1 188 981 96 47 0 0 19
1 186 325 83 3 324 .988235294117647 .984313725490196 1 81 1 191 980 96 189 0 0 1
95 188 326 83 3 325 .988235294117647 .984313725490196 1 81 1 195 979 96 193 0 0
 197 191 327 83 3 326 .988235294117647 .984313725490196 1 81 1 197 978 96 31 0 0
 29 195 328 83 3 327 .988235294117647 .984313725490196 1 81 1 29 977 96 10 0 0 2
17 197 329 83 3 328 .988235294117647 .984313725490196 1 81 1 217 969 96 214 0 0
 221 29 330 83 3 329 .988235294117647 .984313725490196 1 81 1 221 968 96 218 0 0
 241 217 331 83 3 330 .988235294117647 .984313725490196 1 83 3 331 .988235294117
647 .984313725490196 1 17 285 0 332 333 192 76 87 283 0 0 +15 332 89 0 192 18 0
 17 333 0 332 334 285 54 30 10 0 0 -17 192 0 332 285 334 85 48 189 0 0 +17 87 0
 335 84 78 85 285 283 0 279 -15 335 562 0 78 94 0 17 84 0 335 81 87 82 279 272 0
 282 -17 78 0 335 87 81 76 119 273 0 30 +17 279 0 124 48 196 85 84 272 0 192 +15
 124 436 0 279 116 0 17 48 0 124 46 279 34 192 189 0 334 -17 196 0 124 279 46 82
 336 193 0 0 +17 46 0 124 196 48 42 41 47 0 0 -17 336 0 117 337 282 42 196 193 0
 46 -15 117 445 0 282 112 0 17 337 0 117 198 336 49 45 184 0 0 -17 282 0 117 336
 198 82 81 276 0 196 +17 198 0 117 282 337 79 338 31 0 0 +17 81 0 335 78 84 79 2
82 276 0 119 -17 119 0 113 338 30 79 78 273 0 198 -17 338 0 113 56 119 49 198 31
 0 337 -17 30 0 113 119 56 76 333 10 0 285 +17 56 0 113 30 338 54 53 181 0 44 -1
7 53 0 43 45 44 49 56 181 0 338 +17 44 0 43 53 41 54 334 178 0 333 +15 43 4 0 44
 123 302 17 334 0 332 192 333 34 44 178 0 0 -17 45 0 43 41 53 42 337 184 0 336 +
14 18 90 339 ?127 123 332 5 6 -0 0 127 123 28 81 1 339 958 96 18 0 0 126 129 340
 81 1 126 957 96 123 0 0 122 339 341 81 1 129 959 96 127 0 0 339 133 342 83 3 34
0 .988235294117647 .984313725490196 1 81 1 133 960 96 130 0 0 129 137 343 83 3 3
42 .988235294117647 .984313725490196 1 81 1 137 961 96 134 0 0 133 140 344 83 3
 343 .988235294117647 .984313725490196 1 81 1 140 962 96 138 0 0 137 141 345 83
 3 344 .988235294117647 .984313725490196 1 83 3 345 .988235294117647 .9843137254
90196 1 81 1 122 956 96 116 0 0 114 126 346 83 3 341 .988235294117647 .984313725
490196 1 81 1 114 955 96 112 0 0 111 122 347 83 3 346 .988235294117647 .98431372
5490196 1 83 3 347 .988235294117647 .984313725490196 1 17 271 0 348 271 271 0 34
9 234 0 0 +15 348 561 0 271 94 335 17 349 0 350 349 349 0 271 234 0 0 -15 350 56
6 0 349 91 90 81 1 260 1009 96 257 0 0 252 0 351 17 261 0 219 261 261 0 352 257
 0 0 +15 219 688 0 261 214 353 17 352 0 104 352 352 0 261 257 0 0 -15 104 670 0
 352 94 354 15 354 661 0 355 94 247 17 355 0 354 355 355 0 256 249 0 0 -15 247 6
52 0 245 94 356 15 356 643 0 357 94 348 17 357 0 356 357 357 0 254 208 0 0 -17 2
54 0 101 254 254 0 357 208 0 0 +15 101 760 0 254 93 358 15 358 761 0 359 93 0 17
 359 0 358 359 359 0 206 200 0 0 -17 206 0 239 206 206 0 359 200 0 0 +15 239 614
 0 206 91 350 17 256 0 222 256 256 0 355 249 0 0 +15 222 712 0 256 218 360 15 36
0 713 0 233 218 0 17 233 0 360 233 233 0 229 224 0 0 -15 353 689 0 361 214 0 17
 361 0 353 361 361 0 106 20 0 0 -17 106 0 95 106 106 0 361 20 0 0 +81 1 252 1008
 96 249 0 0 248 260 362 83 3 351 .988235294117647 .984313725490196 1 83 3 362 .9
88235294117647 .984313725490196 1 81 1 251 1006 96 208 0 0 205 248 363 81 1 205
 1005 96 200 0 0 231 251 364 83 3 363 .988235294117647 .984313725490196 1 83 3 3
64 .988235294117647 .984313725490196 1 83 3 253 .988235294117647 .98431372549019
6 1 81 1 98 966 96 93 0 0 92 241 365 83 3 243 .988235294117647 .984313725490196
 1 83 3 365 .988235294117647 .984313725490196 1 83 3 236 .988235294117647 .98431
3725490196 1 15 107 628 0 229 91 237 83 3 232 .988235294117647 .984313725490196
 1 141 223 201 223 223 209 40 20 210 0 1 20 .0001210566386741244 .39934586044800
25 ??-.0100000000000027 .1380520462077176 -.2793637338688555 -.00951927987462882
 .1381776972530476 -.2794935390379345 -.00907462211486602 .1384368647720202 -.27
9512874966862 -.00874854703067506 .1387794931022042 -.2794230587042885 -.0085580
4623928599 .139158096822248 -.2792497157519185 -.00850036055382786 .139548723111
296 -.2790088215814525 -.00858150078873563 .139929309874178 -.278709216998131 -.
00881290491327055 .1402673852590716 -.278361861983476 -.00919905273966329 .14051
50279780692 -.277988687249458 -.00971889704711915 .1406139225248852 -.2776308051
98874 -.01030593200951904 .14051806617008 -.277353414356507 -.01074816676746682
 .1403043816096606 -.277241572019601 -.0111339165975319 .1399761117195224 -.2772
612375122385 -.01136568455443074 .13964058556371 -.2773984380571875 -.0114803769
364898 .1393118161483386 -.27761113262275 -.01148906153654432 .1389628455640812
 -.277903926857362 -.01135608180095482 .1386006155995922 -.278277362131643 -.011
0423414941577 .1382771982817964 -.27869628494238 -.0105571247065932 .13807446202
5676 -.2790868812984695 -.0100000000000027 .1380520462077176 -.2793637338688555
 41 1 211 H?-.0100000000000027 .1380520462077176 -.2793637338688555 204 80 212 4
 .624544263811734 1.020422516360676 0 .002313789949671755 .600364452883493 .9923
72190704551 .3262362593063455 .00215137674648987 .585406228951863 .9524624607698
3 .664821413394165 .00205249702078646 .58219632771646 .909410713086284 .98686545
1959495 .002031446693399135 .589376486439089 .869798422936864 1.29169174595264 .
002078617251597145 .605597320826744 .836763328080477 1.592722514195185 .00218626
341762963 .630291959100752 .812783364644816 1.90195533140083 .002352834400070155
 .663012083568677 .800354619159696 2.228502191335445 .002577998433429275 .702552
823649053 .801669602780451 2.57830968746768 .00285579442492317 .745815469179188
 .817746061031478 2.953076067892885 .003165256926360165 .786337255121887 .847206
397154381 3.34698847067262 .00345870125402949 .810049514756335 .877185513242774
 3.663780780099625 .00363138426898369 .821465429775891 .912083298167911 3.998688
20559219 .003714655628411865 .81787494166856 .942538203342935 4.285978773405105
 .00368845942078379 .804153551877097 .969380619313743 4.55045896110204 .00358840
4621422025 .780804078056311 .995187131641285 4.8332292816876 .003418486805324405
 .747310942461884 1.01871270287952 5.15402283217438 .00317603518570494 .70572212
5364588 1.034908862535964 5.51491236274682 .002878290346487415 .661859133227067
 1.036723410238236 5.902651148164 .002569986026846825 .624544263811734 1.0204225
16360676 0 .002313789949671755 83 3 158 .988235294117647 .984313725490196 1 81 1
 97 964 96 94 0 0 141 92 366 83 3 143 .988235294117647 .984313725490196 1 83 3 3
66 .988235294117647 .984313725490196 1 83 3 115 .988235294117647 .98431372549019
6 1 141 109 199 367 368 22 141 367 7 369 109 22 141 368 201 109 369 22 141 369 2
1 368 367 22 83 3 99 .988235294117647 .984313725490196 1 19 17 100 0 1 0 9 5 S0
 40 20 24 0 1 20 .000109689959490311 .367725318652249 ??.00499999999999732 .1207
614361405764 -.284401009471337 .00545105867874229 .1208060874150666 -.2843141423
123665 .00586519970658995 .1210019735921108 -.28425281145138 .00618507806367813
 .121314407361205 -.284224516487726 .00640385758289343 .1217263030235266 -.28422
56144258675 .00649875441682793 .122227453279538 -.284254910544824 .0064313003396
1704 .122782428287012 -.2843117503024685 .00617581911951185 .123316542432927 -.2
84392490685806 .00575279063379281 .1237330040946384 -.2844884597260915 .00523594
244064909 .1239586196768144 -.2845868189774575 .00471670435557496 .1239787085202
488 -.2846750894242455 .004259717613719755 .123824619369329 -.2847457153191135 .
003895069256658665 .1235356839572164 -.2847956072533755 .0036389706569115 .12314
05821896034 -.284822476696551 .00351038931666469 .1226626130436596 -.28482244015
7499 .00353395385713562 .1221327437810074 -.284790002156568 .00373154006979066 .
121601572284738 -.284720416677434 .00410401155424821 .121143835241321 -.28461504
8423286 .00460837495637658 .1208448028371792 -.2844886353445225 .004999999999997
32 .1207614361405764 -.284401009471337 41 1 25 H?.00499999999999732 .12076143614
05764 -.284401009471337 204 80 26 4 .708259191794688 3.540452583645105 0 .002896
320626350065 .717902122216031 3.57452447300489 .3054326047611135 .00296502192954
7805 .717545271259008 3.61010423319997 .614805690304927 .002962474851592055 .707
697194964546 3.64302140011188 .91089388522253 .002892324994198605 .6894801595854
83 3.67309104012199 1.210819694503576 .00276334216113946 .66327588540938 3.69903
0872279225 1.530040867545795 .002579832475667355 .630378424985084 3.717011364613
515 1.874617690412715 .002353422992698225 .59424553340044 3.721294856206995 2.24
070332869249 .00211077468254746 .56040439849791 3.707007822279405 2.615844311576
58 .001890195088336355 .534552502767321 3.6742326368782 2.983641739105115 .00172
6622344833415 .519980988962316 3.62935341868817 3.33159761077214 .00163647819068
6105 .516832938462806 3.581124601452105 3.65772682234155 .00161720738931148 .523
731008901754 3.5363390494973 3.969652315342485 .001659529681266455 .539362618201
577 3.499372354093385 4.278536199263275 .001756712114209295 .562742719398811 3.4
7342716087788 4.59462462829107 .001905209179257945 .592711069718573 3.4611145999
52 4.92556412613571 .00210062577135518 .627192110736561 3.46415412170729 5.27542
230879372 .00233175691149173 .662449973021668 3.48254569772948 5.6430229861552 .
002574091383640825 .692851962787598 3.513579640734865 6.01904098676716 .00278713
438482268 .708259191794688 3.540452583645105 578241158658935e-30 .00289632062635
0065 74 4 CI16 index_map_offset0 0 1 dCCZ20 15 7 0 0 370 260 371 372 373 13 2 0
 0 0 0 0 0 0 0 0 0 0 0 0 81 2 370 843 374 1 0 371 0 0 375 0 81 1 371 970 376 1 3
70 372 0 0 377 81 1 372 973 378 1 371 373 0 0 379 81 1 373 974 380 1 372 13 0 0
 381 81 1 13 975 382 1 373 2 0 0 383 80 1 382 378 384 9000 0 0 0 0 3 5 0 0 0 FFT
FFFFFFFFFFF3 84 255 17 383 _06_bar_bottom_1179 13 384 AdamsPartName80 1 380 382
 385 9000 0 0 0 0 3 5 0 0 0 FFTFFFFFFFFFFF3 84 6 381 PSMAR479 12 385 AdamsRFMNam
e80 1 378 386 387 9000 0 0 0 0 3 5 0 0 0 FFTFFFFFFFFFFF1 82 255 1 379 58 79 12 3
87 UG2/ADAMS_ID80 1 376 388 389 8017 0 0 0 0 0 0 0 0 0 TTTTTTTTTTTTTF3 84 13 377
 02_foot_stand79 13 389 SDL/TYSA_NAME80 2 374 390 391 8004 0 0 0 0 3 5 0 0 0 FFT
FFFFFFFFFFF2 3 83 1 375 23e2 79 16 391 SDL/TYSA_DENSITY80 1 12 380 392 9000 0 0
 0 0 3 5 0 0 0 FFTFFFFFFFFFFF3 84 7 14 SOLID5879 15 392 AdamsObjectName1 0 
