**ABCDEFGHIJKLMNOPQRSTUVWXYZabcdefghijklmnopqrstuvwxyz**************************
**PARASOLID !"#$%&'()*+,-./:;<=>?@[\]^_`{|}~0123456789**************************
**PART1;
MC=AMD64;
MC_MODEL=Intel64 Family 6 Model 158 Stepping 10, GenuineIntel;
MC_ID=unknown;
OS=Windows_NT;
OS_RELEASE=unknown;
FRU=Parasolid Version 25.1, build 198,  6-19-2013;
APPL=SolidWorks 2014-2013262;
SITE=;
USER=unknown;
FORMAT=text;
GUISE=transmit;
KEY=fan_cw;
FILE=fan_cw.x_t;
DATE=Wed Jun 09 18:00:22 2021;
**PART2;
SCH=SCH_2501198_25001;
USFLD_SIZE=0;
**PART3;
**END_OF_HEADER*****************************************************************
T51 : TRANSMIT FILE created by modeller version 250119823 SCH_2501198_25001_1300
6189 0 10 255 1 9 2 3 0 0 0 0 0 1e3 1e-8 0 0 0 1 0 1 4 81 255 1 2 9 5 1 0 0 0 0
 0 70 11 CI9 list_type0 0 1 uI10 notransmit0 0 1 lCCCDCCDI12 finger_index0 0 1 d
I12 finger_block1012 0 CZ3 0 4 T1 0 0 1 20 1 6 6 11 255 4 7 0 1 7 8 1 9 0 9 0 12
 29 CCCCCCCCCCCCCDI5 owner1040 0 CCCCCCCCCA16 index_map_offset0 0 1 dA9 index_ma
p82 0 A17 node_id_index_map82 0 A20 schema_embedding_map82 0 A5 child12 0 A14 lo
west_node_id0 0 1 dZ7 233 10 11 0 0 0 0 1e3 1e-8 4 12 0 1 0 1 1 13 14 15 16 17 1
8 19 0 0 0 0 0 0 100 255 8 8 4 0 0 -.499999999999992 -.446036056788323 .74232865
770138 0 .857167300702126 .515038074910032 -.866025403784443 .257519037455012 -.
428583650351056 .00155030827639243 .00501200162715641 -.00788403558795844 1 3 ?1
1 9 5 0 1 7 20 1 21 4 21 4 100 20 6 9 0 0 -.5 .4460360567883195 -.74232865770137
4 0 .857167300702126 .515038074910032 .866025403784437 .257519037455018 -.428583
6503510665 -.0076029292417088 .00501200162715641 .002599411442926145 1 3 ?11 21
 3 0 1 7 22 1 23 9 0 9 100 22 4 21 0 0 1 0 0 0 .857167300702126 .515038074910032
 0 -.515038074910032 .857167300702126 .00605262096531643 .00501200162715641 .005
28462414503228 1 3 ?11 23 1 0 1 12 24 1 0 21 0 0 12 12 169 25 26 0 0 0 0 1e3 1e-
8 23 27 7 1 0 1 1 28 29 30 0 31 32 0 0 0 0 0 0 0 100 24 2 23 0 0 1 0 0 0 1 0 0 0
 1 0 0 0 1 0 ?81 1 25 169 5 12 0 0 0 0 33 70 26 0 4 T12 0 0 3 20 1 34 34 13 255
 28 29 0 12 0 35 0 0 36 0 54 255 29 122 0 37 38 0 0 +0 .007 0 0 1 0 .005 .003 0
 0 1 31 255 30 106 0 32 39 0 0 -0 .007 0 0 1 0 0 0 1 .008 19 8 CCCCCCCA5 owner12
 0 Z31 7 0 12 36 0 40 V0 16 255 32 103 0 ?41 0 42 30 0 0 12 17 255 41 0 43 41 41
 0 44 32 0 0 +16 42 97 0 ?45 32 46 39 0 0 12 17 45 0 47 45 45 0 48 42 0 0 +16 46
 53 0 ?49 42 50 51 0 0 12 31 39 100 0 42 51 30 0 +0 .01 0 0 1 0 0 0 1 .005 31 51
 56 0 46 52 39 0 -0 0 0 0 1 0 0 0 1 .0015 31 52 23 0 50 53 51 0 +0 0 0 0 1 0 0 0
 1 .008 16 50 18 0 ?54 46 55 52 0 0 12 31 53 83 0 55 0 52 0 +0 -.02 0 0 -1 0 0 0
 -1 .0015 16 55 63 0 ?56 50 0 53 0 0 12 17 56 0 57 56 56 0 58 55 0 0 +15 255 57
 73 0 56 59 0 17 58 0 60 58 58 0 56 55 0 0 -15 60 69 0 58 61 62 14 255 61 66 63
 ?59 64 60 28 65 -0 0 59 64 40 15 62 70 0 49 61 0 17 49 0 62 49 49 0 66 46 0 0 +
17 66 0 67 66 66 0 49 46 0 0 -15 67 55 0 66 35 0 14 35 57 68 ?69 0 70 28 71 -0 0
 69 0 40 81 1 68 163 72 35 73 0 0 74 75 14 69 25 74 ?64 35 43 28 38 -0 0 64 35 4
0 15 70 17 0 76 35 67 50 255 71 22 0 35 77 38 0 +0 0 0 0 1 0 0 0 1 13 40 8 0 0 0
 0 0 0 31 35 50 77 2 0 64 65 71 0 +0 .01 0 0 1 0 0 0 1 51 255 38 28 0 69 71 29 0
 -0 .01 0 0 -1 0 .008 0 0 -1 14 64 1 78 ?61 69 47 28 77 +0 0 61 69 40 51 65 79 0
 61 79 77 0 -0 -.02 0 0 1 0 .0015 0 0 1 50 79 81 0 59 0 65 0 +0 -.02 0 0 -1 0 0
 0 -1 14 59 71 80 ?37 61 57 28 79 +0 0 37 61 40 81 1 80 167 72 59 81 0 63 82 83
 14 37 115 82 ?0 59 84 28 29 +0 0 0 59 40 81 1 82 168 72 37 85 0 80 0 86 15 84 1
16 0 44 37 87 17 44 0 84 44 44 0 41 32 0 0 -15 87 117 0 48 37 0 17 48 0 87 48 48
 0 45 42 0 0 -80 255 1 72 0 88 8001 0 0 0 0 3 5 0 0 0 FFFFTFTFFFFFFF2 81 1 85 16
1 89 37 0 82 81 0 90 83 255 3 86 1 1 1 80 1 89 91 92 9000 1 1 1 1 1 1 1 1 0 FFFF
TFTFFFFFFF1 81 1 81 159 89 59 0 80 93 85 94 82 255 1 90 825295136 81 1 93 157 89
 64 0 78 95 81 96 82 1 94 -1598095076 81 1 78 165 72 64 93 0 74 63 97 81 1 95 15
5 89 69 0 74 73 93 98 82 1 96 -652672736 81 1 74 164 72 69 95 0 68 78 99 81 1 73
 153 89 35 0 68 100 95 101 82 1 98 -650706656 81 1 100 151 89 61 0 63 0 73 102 8
2 1 101 -1593704164 81 1 63 166 72 61 100 0 78 80 103 82 1 102 -1596128996 83 3
 103 1 1 1 83 3 99 1 1 1 83 3 97 1 1 1 79 255 14 92 SWEntUnchanged79 15 88 SDL/T
YSA_COLOUR83 3 83 1 1 1 15 47 98 0 45 64 0 17 76 0 70 76 76 0 54 50 0 0 -17 54 0
 104 54 54 0 76 50 0 0 +15 104 26 0 54 69 0 15 43 104 0 41 69 104 83 3 75 1 1 1
 19 36 30 0 12 0 31 28 S0 74 4 CI16 index_map_offset0 0 1 dCCZ20 34 3 0 0 85 82
 25 0 0 0 0 0 0 0 0 0 0 0 0 0 0 0 0 0 80 1 5 105 106 8017 0 0 0 0 0 0 0 0 0 TTTT
TTTTTTTTTF3 84 255 10 33 fan_pillar79 13 106 SDL/TYSA_NAME81 1 10 233 5 7 0 0 0
 0 107 70 11 0 4 T7 0 0 3 20 1 108 108 13 13 54 0 7 0 109 0 0 110 0 50 14 191 0
 7 111 0 112 +.0820674040306675 .001 -183308613853276e-19 0 1 0 0 0 1 38 255 15
 194 0 7 113 0 114 +111 14 115 116 117 29 255 16 157 0 19 118 0 0 0 -.0010326164
64710284 19 17 16 0 7 110 0 119 V0 16 18 168 0 ?120 0 121 113 0 0 7 18 255 19 15
5 0 120 0 122 16 ?7 17 120 0 123 124 124 19 125 18 0 126 +18 122 152 0 127 19 12
8 118 ?7 17 127 0 129 126 130 122 131 121 0 124 +18 128 98 0 131 122 132 133 ?7
 29 118 154 0 122 133 16 0 0 -.00897338511350305 29 133 100 0 128 134 118 0 .001
 -.01 29 134 97 0 132 135 133 0 .001 0 18 132 95 0 136 128 137 134 ?7 29 135 88
 0 137 138 134 0 .002 -.001032616464710284 18 137 86 0 139 132 140 135 ?7 29 138
 85 0 140 0 135 0 .002 -.00897338511350305 18 140 83 0 141 137 0 138 ?7 17 141 0
 142 143 144 140 130 145 0 146 -15 142 123 0 147 148 0 17 143 0 142 147 141 137
 146 149 0 0 -17 144 0 142 141 147 128 150 151 0 0 -17 130 0 129 127 152 128 141
 145 0 144 +16 145 106 0 ?130 151 153 154 0 0 7 17 146 0 155 156 156 140 143 149
 0 152 +15 155 3 0 156 157 0 17 156 0 155 146 146 137 152 158 0 143 +16 149 89 0
 ?146 153 158 159 0 0 7 17 152 0 129 130 139 140 156 158 0 0 -15 129 46 0 130 10
9 0 17 139 0 129 152 136 137 147 153 0 156 +16 158 84 0 ?156 149 160 161 0 0 7 1
6 160 153 0 ?126 158 0 162 0 0 7 30 255 161 8 0 158 163 162 0 +0 .002 0 0 0 1 13
4 255 163 5 0 7 0 161 164 +165 166 30 162 40 0 160 161 159 0 +0 0 0 0 0 1 38 159
 91 0 149 162 167 0 +168 169 170 171 172 38 167 103 0 153 159 154 0 +173 174 175
 176 177 59 255 168 92 0 7 178 179 180 +1 173 50 169 2 0 157 0 181 182 +.0820674
040306675 .002 -183308613853276e-19 0 1 0 0 0 1 40 255 22 170 0 1 22 .0088509182
0335505 .365463499046246 ??0 .002 -.001032616464710284 .01176111537798856 .002 .
00200940279535329 .0251831660692306 .002 .00549630526878676 .0390694046147904 .0
02 .00896407666666383 .0460363897170363 .002 .01028936251054676 .050087413142843
8 .002 .01023526895312296 .0538243959801587 .002 .0085492590052796 .062030785948
5979 .002 .00484346752917313 .081596465299999 .002 -.000901410784710465 .0827021
770650821 .002 -.001560792604637815 .0831496439527821 .002 -.00202890481604106 .
0832124645268725 .002 -.00216877884852096 .0832228622180614 .002 -.0022772031921
5539 .0831847484539615 .002 -.002419310727372845 .0829629097410566 .002 -.002761
389396493 .0819838235995666 .002 -.003577373927331675 .0773180481066488 .002 -.0
0565112520999236 .057395227593677 .002 -.00963376040853334 .03703782169745475 .0
02 -.01000584407292702 .00796722048570192 .002 -.00805419365571629 .001991092660
566755 .002 -.0092337448903448 -965652842925852e-33 .002 -.00897338511350305 41
 255 1 171 L0 .002 -.001032616464710284 41 1 172 L-965652842925852e-33 .002 -.00
897338511350305 14 157 1 183 ?184 109 155 13 169 +0 0 184 109 119 50 181 39 0 18
4 169 174 185 +.0820674040306675 0 -183308613853276e-19 0 1 0 0 0 1 141 255 182
 173 186 186 169 56 255 173 136 0 148 179 187 188 +R169 178 189 -.001 .001 1 1 0
 0 0 0 141 186 159 182 182 169 14 148 122 190 ?191 184 142 13 173 +0 0 191 184 1
19 59 179 114 0 7 168 173 192 +0 173 60 255 187 135 0 7 173 193 194 +UF178 .001
 ?141 188 168 195 196 173 67 255 178 53 0 7 174 168 197 +163 0 -1 0 .01125751750
320352 38 189 137 0 7 198 199 200 +187 193 201 202 203 38 198 113 0 151 154 189
 0 +179 178 204 205 206 38 199 160 0 207 189 208 0 +209 174 210 211 212 141 200
 173 200 200 189 50 193 134 0 7 187 213 214 +.0820674040306675 .001 -18330861385
3276e-19 0 1 0 0 0 1 40 22 201 .0253010033223174 1.00000111059181 22 .0088509182
0334275 .3654634990462505 ??-.00166509419000902 .001 -.00146134754485897 .011761
11537798856 .001 .00200940279535329 .0251831660692306 .001 .00549630526878676 .0
390694046147904 .001 .00896407666666383 .0460363897170363 .001 .0102893625105467
6 .0500874131428438 .001 .01023526895312296 .0538243959801587 .001 .008549259005
2796 .0620307859485979 .001 .00484346752917313 .081596465299999 .001 -.000901410
784710465 .0827021770650821 .001 -.001560792604637815 .0831496439527821 .001 -.0
0202890481604106 .0832124645268725 .001 -.00216877884852096 .0832228622180614 .0
01 -.00227720319215539 .0831847484539615 .001 -.002419310727372845 .082962909741
0566 .001 -.002761389396493 .0819838235995666 .001 -.003577373927331675 .0773180
481066488 .001 -.00565112520999236 .057395227593677 .001 -.00963376040853334 .03
703782169745475 .001 -.01000584407292702 .00796722048570192 .001 -.0080541936557
1629 .001991092660566755 .001 -.0092337448903448 -.001755491213502525 .001 -.008
56567960098359 41 1 202 L-.00166509419000902 .001 -.00146134754485897 41 1 203 L
-.001755491213502525 .001 -.00856567960098359 59 213 171 0 7 193 209 215 +0 209
 141 214 189 214 214 193 56 209 193 0 191 213 111 216 +R178 181 15 .001 .001 1 1
 0 0 0 0 141 215 113 215 215 213 38 113 170 0 18 208 15 0 +181 213 217 218 219 3
8 208 165 0 121 199 113 0 +209 174 220 221 222 40 22 217 0 1 22 .008850918203342
75 .365463499046246 ??-3433829084517405e-34 0 -.00897338511350305 .0019910926605
66755 0 -.0092337448903448 .00796722048570192 0 -.00805419365571629 .03703782169
745475 0 -.01000584407292702 .057395227593677 0 -.00963376040853334 .07731804810
66488 0 -.00565112520999236 .0819838235995666 0 -.003577373927331675 .0829629097
410566 0 -.002761389396493 .0831847484539615 0 -.002419310727372845 .08322286221
80614 0 -.00227720319215539 .0832124645268725 0 -.00216877884852096 .08314964395
27821 0 -.00202890481604106 .0827021770650821 0 -.001560792604637815 .0815964652
99999 0 -.000901410784710465 .0620307859485979 0 .00484346752917313 .05382439598
01587 0 .0085492590052796 .0500874131428438 0 .01023526895312296 .04603638971703
63 0 .01028936251054676 .0390694046147904 0 .00896407666666383 .0251831660692306
 0 .00549630526878676 .01176111537798856 0 .00200940279535329 -156192875473693e-
32 0 -.001032616464710284 41 1 218 L-3433829084517405e-34 0 -.00897338511350305
 41 1 219 L-156192875473693e-32 0 -.001032616464710284 16 121 163 0 ?127 18 207
 208 0 0 7 50 174 52 0 109 181 178 223 +0 .002 0 1 0 0 0 0 -1 40 6 220 0 1 6 561
128217596851e-19 .3387273327256565 ??-21029711019931e-30 .001 -.01 0 .0006754091
04405537 -.00994441343198098 0 .000387470989527047 -.00978487090810663 0 .000164
5448592906475 -.00953757020279586 0 302444256791011e-19 -.00922395933951805 0 48
548870959332e-33 -.00897338511350304 41 1 221 L-21029711019931e-30 .001 -.01 41
 1 222 L0 48548870959332e-33 -.00897338511350304 14 109 47 224 ?157 0 129 13 174
 -0 0 157 0 119 141 223 167 225 226 174 141 225 208 227 223 174 141 226 154 223
 227 174 38 154 108 0 145 167 198 0 +173 174 228 229 230 141 227 199 226 225 174
 40 6 228 0 1 6 601402762424193e-19 .346474032284076 ??-3433829084517405e-34 .00
2 -.00897338511350305 0 .001941237165346355 -.00932012054675404 0 .0017705263427
59345 -.0096277578134383 0 .001509388475372455 -.00985682488167472 0 .0011941860
7274389 -.00998045809152092 0 .001 -.01 41 1 229 L-3433829084517405e-34 .002 -.0
0897338511350305 41 1 230 L0 .001 -.01 81 1 224 228 72 109 231 0 0 183 232 13 11
9 17 0 0 0 0 0 0 17 109 81 1 231 222 89 109 0 224 233 234 235 81 1 183 229 72 15
7 236 0 224 237 238 83 3 232 1 1 1 81 1 236 218 89 157 0 183 0 233 239 81 1 237
 230 72 184 234 0 183 190 240 83 3 238 1 1 1 14 184 27 237 ?148 157 123 13 181 -
0 0 148 157 119 81 1 234 224 89 184 0 237 231 241 242 81 1 190 231 72 148 233 0
 237 243 244 83 3 240 1 1 1 81 1 233 220 89 148 0 190 236 231 245 81 1 243 232 7
2 191 241 0 190 0 246 83 3 244 1 1 1 14 191 179 243 ?0 148 247 13 209 +0 0 0 148
 119 81 1 241 226 89 191 0 243 234 0 248 83 3 246 1 1 1 82 1 248 -1279983331 15
 247 180 0 249 191 0 17 249 0 247 125 150 19 136 207 0 0 -17 125 0 247 131 249 1
22 120 18 0 0 -17 150 0 247 249 131 132 144 151 0 0 +17 136 0 129 139 126 132 24
9 207 0 147 +16 207 158 0 ?136 121 151 199 0 0 7 16 151 111 0 ?150 207 145 198 0
 0 7 17 126 0 129 136 127 19 124 160 0 249 +17 147 0 142 144 143 132 139 153 0 1
50 -16 153 101 0 ?139 145 149 167 0 0 7 17 124 0 123 120 120 122 126 160 0 125 -
15 123 28 0 124 184 0 17 131 0 247 150 125 128 127 121 0 130 -82 1 245 140509212
5 82 1 242 -7208675 82 1 239 -10485477 82 1 235 -6684387 60 111 192 0 7 209 14 2
50 +UF178 .001 ?141 216 199 251 252 209 141 251 213 252 216 209 141 252 208 216
 251 209 141 250 15 250 250 111 40 6 210 0 1 6 610160762008691e-19 .348595370497
644 ??0 0 -.001032616464710284 0 593222900968522e-19 -.000682248243365768 0 .000
2318992565558085 -.0003714021806109115 0 .000495398031519161 -.00014110486851910
2 0 .000811564847054209 -1849866895780695e-20 0 .001 -160415914647647e-33 41 1 2
11 L0 0 -.001032616464710284 41 1 212 L0 .001 -160415914647647e-33 40 22 204 0 1
 22 .00879464789428335 .36546349904625 ??584445513884017e-22 .001 -.010000013573
29764 .001981533050267205 .001 -.0102336991962263 .00820649868742061 .001 -.0090
2514470606963 .03694252483496135 .001 -.01100129297066056 .057505932799765 .001
 -.0106276136961694 .0776369454787288 .001 -.00659891446192576 .0825329014096565
 .001 -.00441314516305765 .0837269635286888 .001 -.003406541944038745 .084108361
150838 .001 -.002802637723772155 .0842190297849075 .001 -.002364668492496995 .08
41766470900345 .001 -.001903539362594965 .0840078682371673 .001 -.00151562996014
861 .0833202873776591 .001 -.000774701234957393 .0820294301914251 .001 -35243647
284596e-31 .0623631007832287 .001 .00578663604576193 .0543096909527941 .001 .009
42360950109623 .0503077680973138 .001 .0112106887058656 .0459189684852292 .001 .
0112824447097231 .03884572523293775 .001 .0099387394463646 .0249327352055819 .00
1 .00646443975455419 .0115097641687954 .001 .002977298745152195 0 .001 0 41 2 20
5 T-21029711019931e-30 .001 -.01 584445513884017e-22 .001 -.01000001357329764 41
 1 206 L0 .001 0 141 197 173 253 254 178 141 253 111 255 197 178 141 254 187 197
 256 178 141 256 198 254 255 178 141 255 209 256 253 178 141 195 179 257 188 173
 141 196 167 188 257 173 141 257 154 196 195 173 141 194 189 194 194 187 141 192
 198 192 192 179 141 185 209 258 258 181 141 258 113 185 185 181 141 180 159 180
 180 168 40 6 175 0 1 6 56044171088071e-18 .3390462449331335 ??0 .001 0 0 .00132
3195885832802 -554183703203869e-19 0 .00160987874317977 -.0002142733442831015 0
 .00183268174785167 -.000460803191310295 0 .0019683872942545 -.00077502874389144
 0 .002 -.001032616464710284 41 1 176 L0 .001 0 41 1 177 L0 .002 -.0010326164647
10284 141 164 178 164 164 163 136 255 165 3 8 3 6 6 FFF1 259 260 261 135 255 166
 2 0 45 255 24 259 0 .002 0 .0676436785350448 .002 .0174170011147556 .0348785103
9876645 .002 .0108042353504475 .1006893834567802 .002 -.003174127142395415 .0384
601071889203 .002 -.017077886707495 .0170611353370468 .002 -.00517264970079286 .
00300664757819269 .002 -.01069828135988596 -21029711019931e-30 .002 -.01 127 255
 6 260 4 1 1 1 1 4 128 255 6 261 0 .430746062070477 .499702343999993 .7439409375
59569 .952434494565702 1 19 110 55 0 7 0 17 13 S0 141 114 209 114 114 15 40 22 1
15 .0253010033223174 1.00000111059181 22 .00885091820334275 .3654634990462505 ??
-.00166509419000902 .001 -.00146134754485897 .01176111537798856 .001 .0020094027
9535329 .0251831660692306 .001 .00549630526878676 .0390694046147904 .001 .008964
07666666383 .0460363897170363 .001 .01028936251054676 .0500874131428438 .001 .01
023526895312296 .0538243959801587 .001 .0085492590052796 .0620307859485979 .001
 .00484346752917313 .081596465299999 .001 -.000901410784710465 .0827021770650821
 .001 -.001560792604637815 .0831496439527821 .001 -.00202890481604106 .083212464
5268725 .001 -.00216877884852096 .0832228622180614 .001 -.00227720319215539 .083
1847484539615 .001 -.002419310727372845 .0829629097410566 .001 -.002761389396493
 .0819838235995666 .001 -.003577373927331675 .0773180481066488 .001 -.0056511252
0999236 .057395227593677 .001 -.00963376040853334 .03703782169745475 .001 -.0100
0584407292702 .00796722048570192 .001 -.00805419365571629 .001991092660566755 .0
01 -.0092337448903448 -.001755491213502525 .001 -.00856567960098359 41 1 116 L-.
00166509419000902 .001 -.00146134754485897 41 1 117 L-.001755491213502525 .001 -
.00856567960098359 141 112 15 112 112 14 74 20 108 3 0 0 241 243 10 0 0 0 0 0 0
 0 0 0 0 0 0 0 0 0 0 0 84 9 107 fan_blade74 20 6 1 0 0 2 0 0 0 0 0 0 0 0 0 0 0 0
 0 0 0 0 0 0 0 1 0 
