**ABCDEFGHIJKLMNOPQRSTUVWXYZabcdefghijklmnopqrstuvwxyz**************************
**PARASOLID !"#$%&'()*+,-./:;<=>?@[\]^_`{|}~0123456789**************************
**PART1;
MC=unknown;
MC_MODEL=unknown;
MC_ID=unknown;
OS=unknown;
OS_RELEASE=unknown;
FRU=sdl_parasolid_customer_support;
APPL=parasolid_acceptance_tests;
SITE=unknown;
USER=unknown;
FORMAT=text;
GUISE=transmit;
KEY=Controls_Plant_1_Tensegrity__06_bar_bottom_4_SOLID22;
FILE=Controls_Plant_1_Tensegrity__06_bar_bottom_4_SOLID22.xmt_txt;
DATE=unknown;
**PART2;
SCH=SCH_3101206_31100;
USFLD_SIZE=1;
**PART3;
**END_OF_HEADER*****************************************************************
T51 : TRANSMIT FILE created by modeller version 310120623 SCH_3101206_31100_1300
6222 0 12 34 CCCCCCI4 mesh1006 0 I8 polyline1008 0 CCCCCCCDI5 owner1040 0 CCCCCC
I13 boundary_mesh1006 0 I17 boundary_polyline1008 0 CCCA16 index_map_offset0 0 1
 dA9 index_map82 0 A17 node_id_index_map82 0 A20 schema_embedding_map82 0 A5 chi
ld12 0 A14 lowest_node_id0 0 1 dA16 mesh_offset_data206 0 Z1 636 2 3 0 0 0 0 0 0
 1e3 1e-8 0 4 0 1 0 1 1 5 6 7 8 0 0 9 10 11 0 0 0 0 0 0 0 81 255 1 2 610 12 1 13
 0 0 0 14 70 11 CI9 list_type0 0 1 uI10 notransmit0 0 1 lCCCDCCDI12 finger_index
0 0 1 dI12 finger_block1012 0 CZ3 0 4 T1 0 0 6 20 1 15 15 13 255 5 99 0 1 0 16 0
 0 17 0 50 255 6 94 0 18 19 0 0 +.0829139048342392 .264462356657968 -.0621174344
825138 742337968831459e-31 -.382259850481334 .924054872131514 .98582510793274 .1
550344240784365 .0641341088662624 30 255 7 98 0 10 20 0 0 +.0829139048342392 .26
4462356657968 -.0621174344825138 .98582510793274 .1550344240784365 .064134108866
2624 29 255 8 270 0 11 21 0 .0791594925139681 .266699692367947 -.056592607150347
9 19 8 CCCCCCCA5 owner12 0 Z9 33 0 1 17 0 22 V0 16 255 10 82 23 ?24 0 25 7 0 0 1
 18 255 11 268 0 26 0 27 8 ?1 17 255 26 0 28 29 30 11 31 32 0 33 +18 27 148 0 34
 11 35 21 ?1 17 34 0 36 37 38 27 39 40 0 41 +18 35 144 0 42 27 43 44 ?1 29 21 15
0 0 27 44 8 .0820330797328745 .267046884111488 -.0548257018363723 29 44 146 0 35
 45 21 .0820330797328745 .26762027388721 -.0562117841445696 29 45 139 0 43 46 44
 .0821169678377663 .2671647956401825 -.0564002048237491 18 43 137 0 47 35 48 45
 ?1 29 46 75 0 49 50 45 .0822219678443344 .2737269560225945 -.0582848867900564 1
8 49 66 0 51 52 53 46 ?1 29 50 76 0 53 54 46 .0822219678443344 .269904357517781
 -.0490443380687413 18 53 67 0 55 49 56 50 ?1 29 54 77 0 56 57 50 .0838997299421
719 .260794792577233 -.0528127516523324 18 56 68 0 58 53 59 54 ?1 29 57 78 0 59
 60 54 .0838997299421719 .2646173910820465 -.0620533003736476 18 59 69 0 61 56 6
2 57 ?1 29 60 32 0 48 63 57 .0812361427364016 .273571921598516 -.058349020898922
7 18 48 30 0 64 43 65 60 ?1 29 63 29 0 65 66 60 .0812361427364016 .2697493230937
025 -.0491084721776076 18 65 27 0 67 48 68 63 ?1 29 66 26 0 68 69 63 .0829139048
342392 .2606397581531545 -.0528768857611987 18 68 24 0 70 65 52 66 ?1 29 69 23 0
 52 71 66 .0829139048342392 .264462356657968 -.0621174344825138 18 52 21 0 72 68
 49 69 ?1 29 71 236 0 62 73 69 .0821169678377663 .2665914058644605 -.05501412251
55518 18 62 189 0 74 59 75 71 ?1 29 73 421 0 75 76 71 .0790756044090762 .2671551
706149745 -.0564041864711683 18 75 349 0 30 62 77 73 ?1 29 76 424 0 77 78 73 .07
90756044090762 .2665817808392525 -.0550181041629711 18 77 341 0 79 75 80 76 ?1 2
9 78 427 0 80 0 76 .0791594925139681 .2661263025922255 -.0552065248421506 18 80
 342 0 29 77 0 78 ?1 17 29 0 28 79 26 80 33 81 0 82 +15 255 28 359 0 26 83 0 17
 79 0 28 30 29 77 82 84 0 38 -17 33 0 85 47 86 11 29 81 0 87 -16 81 328 88 ?29 3
2 89 90 0 0 1 17 82 0 91 74 39 80 79 84 0 86 +15 91 292 0 82 16 0 17 74 0 91 92
 82 62 86 93 0 94 +17 39 0 91 82 92 77 34 40 0 0 -16 84 300 95 ?82 96 32 97 0 0
 1 17 86 0 85 33 98 80 74 93 0 0 -15 85 209 0 86 99 0 17 98 0 85 86 47 62 100 10
1 0 0 +16 93 266 102 ?74 103 101 104 0 0 1 81 1 102 626 105 93 0 0 106 107 108 1
6 103 269 106 ?47 109 93 110 0 0 1 16 101 170 107 ?98 93 111 112 0 0 1 30 104 22
7 0 93 112 110 0 +.0742303669743044 .265351130471833 -.0555271953864819 .9858251
0793274 .1550344240784365 .0641341088662624 30 112 228 0 101 113 104 0 +.0821169
678377663 .2671647956401825 -.0564002048237491 742337968831459e-31 -.38225985048
1334 .924054872131514 30 110 226 0 103 104 114 0 +.0742303669743044 .26592452024
7555 -.0569132776946792 .98582510793274 .1550344240784365 .0641341088662624 30 1
14 225 0 109 110 115 0 +.0741464788694125 .2663799984945825 -.0567248570154997 .
98582510793274 .1550344240784365 .0641341088662624 16 109 277 116 ?42 40 103 114
 0 0 1 30 115 224 0 40 114 117 0 +.0741464788694125 .2658066087188605 -.05533877
47073024 .98582510793274 .1550344240784365 .0641341088662624 16 40 285 118 ?34 1
19 109 115 0 0 1 30 117 7 0 120 115 121 0 +.0829139048342392 .264462356657968 -.
0621174344825138 .1677762097837535 -.910956494054823 -.3768413583591135 16 120 5
 122 ?123 124 125 117 0 0 1 30 121 11 0 124 117 126 0 +.0829139048342392 .264462
356657968 -.0621174344825138 742337968831459e-31 -.382259850481334 .924054872131
514 16 124 9 127 ?70 128 120 121 0 0 1 30 126 15 0 128 121 129 0 +.0829139048342
392 .2606397581531545 -.0528768857611987 -.1677762097837535 .910956494054823 .37
68413583591135 16 128 13 130 ?67 131 124 126 0 0 1 30 129 19 0 131 126 132 0 +.0
812361427364016 .273571921598516 -.0583490208989227 -742337968831459e-31 .382259
850481334 -.924054872131514 16 131 17 133 ?64 134 128 129 0 0 1 30 132 74 0 119
 129 135 0 +.0838997299421719 .2646173910820465 -.0620533003736476 .167776209783
7535 -.910956494054823 -.3768413583591135 16 119 62 136 ?137 138 40 132 0 0 1 30
 135 73 0 138 132 139 0 +.0838997299421719 .2646173910820465 -.0620533003736476
 742337968831459e-31 -.382259850481334 .924054872131514 16 138 58 140 ?58 141 11
9 135 0 0 1 30 139 72 0 141 135 142 0 +.0838997299421719 .260794792577233 -.0528
127516523324 -.1677762097837535 .910956494054823 .3768413583591135 16 141 54 143
 ?55 125 138 139 0 0 1 30 142 71 0 125 139 144 0 +.0822219678443344 .27372695602
25945 -.0582848867900564 -742337968831459e-31 .382259850481334 -.924054872131514
 16 125 50 145 ?51 120 141 142 0 0 1 30 144 95 0 134 142 146 0 +.081236142736401
6 .273571921598516 -.0583490208989227 .98582510793274 .1550344240784365 .0641341
088662624 16 134 79 147 ?148 149 131 144 0 0 1 30 146 96 0 149 144 20 0 +.081236
1427364016 .2697493230937025 -.0491084721776076 .98582510793274 .155034424078436
5 .0641341088662624 16 149 80 150 ?151 25 134 146 0 0 1 30 20 97 0 25 146 7 0 +.
0829139048342392 .2606397581531545 -.0528768857611987 .98582510793274 .155034424
0784365 .0641341088662624 16 25 81 152 ?153 10 149 20 0 0 1 81 1 152 612 105 25
 0 0 23 150 154 17 153 0 155 55 156 56 157 25 0 158 +15 155 85 0 55 159 0 17 55
 0 155 160 153 53 158 141 0 151 +17 156 0 155 153 160 68 67 128 0 0 -17 157 0 16
1 72 58 68 153 25 0 156 -17 158 0 162 61 163 56 55 141 0 0 -15 162 49 0 164 165
 0 17 61 0 162 164 158 59 58 138 0 24 -17 163 0 162 158 164 53 51 125 0 0 -17 16
4 0 162 163 61 49 137 119 0 0 -17 51 0 166 167 151 49 163 125 0 148 +15 166 83 0
 51 168 0 17 167 0 166 169 51 48 148 134 0 170 -17 151 0 166 51 169 53 160 149 0
 163 +17 148 0 171 137 170 49 167 134 0 164 +15 171 89 0 137 18 0 17 137 0 171 1
72 148 59 164 119 0 0 +17 170 0 171 148 172 48 123 120 0 0 -17 172 0 171 170 137
 52 24 10 0 0 -17 123 0 173 70 64 52 170 120 0 172 +15 173 4 0 123 174 175 17 70
 0 173 67 123 68 72 124 0 157 +17 64 0 173 123 67 48 169 131 0 167 +17 67 0 173
 64 70 65 156 128 0 160 +17 169 0 166 151 167 65 64 131 0 0 -17 160 0 155 156 55
 65 151 149 0 169 -17 72 0 161 24 157 52 70 124 0 123 -15 161 87 0 58 176 0 17 2
4 0 161 58 72 59 172 10 0 137 +17 58 0 161 157 24 56 61 138 0 153 +14 255 176 88
 177 ?159 18 161 5 19 -0 0 159 18 22 81 1 177 597 105 176 0 0 178 179 180 14 159
 86 179 ?168 176 155 5 181 -0 0 168 176 22 14 18 90 178 ?176 174 171 5 6 -0 0 17
6 174 22 50 19 93 0 176 181 6 0 +.0829139048342392 .264462356657968 -.0621174344
825138 -.1677762097837535 .910956494054823 .3768413583591135 -742337968831459e-3
1 .382259850481334 -.924054872131514 13 22 34 0 0 0 0 0 0 9 16 14 16 294 182 ?18
3 0 91 5 184 -0 0 183 0 22 81 1 182 592 105 16 0 0 0 185 186 14 183 289 185 ?99
 16 187 5 188 -0 0 99 16 22 50 184 218 0 16 188 189 0 +.0742303669743044 .265351
130471833 -.0555271953864819 -742337968831459e-31 .382259850481334 -.92405487213
1514 -.98582510793274 -.1550344240784365 -.0641341088662624 50 188 219 0 183 190
 184 0 +.0741464788694125 .2663799984945825 -.0567248570154997 .1677762097837535
 -.910956494054823 -.3768413583591135 742337968831459e-31 -.382259850481334 .924
054872131514 50 189 3 0 174 184 191 0 +.0829139048342392 .264462356657968 -.0621
174344825138 .98582510793274 .1550344240784365 .0641341088662624 -74233796883145
9e-31 .382259850481334 -.924054872131514 14 174 155 192 ?18 99 173 5 189 -0 0 18
 99 22 50 191 70 0 165 189 193 0 +.0838997299421719 .2646173910820465 -.06205330
03736476 .98582510793274 .1550344240784365 .0641341088662624 -742337968831459e-3
1 .382259850481334 -.924054872131514 14 165 48 194 ?195 168 162 5 191 +0 0 195 1
68 22 50 193 91 0 168 191 181 0 +.0812361427364016 .273571921598516 -.0583490208
989227 .1677762097837535 -.910956494054823 -.3768413583591135 742337968831459e-3
1 -.382259850481334 .924054872131514 14 168 84 196 ?165 159 166 5 193 -0 0 165 1
59 22 50 181 92 0 159 193 19 0 +.0829139048342392 .2606397581531545 -.0528768857
611987 -742337968831459e-31 .382259850481334 -.924054872131514 -.98582510793274
 -.1550344240784365 -.0641341088662624 81 1 196 599 105 168 0 0 179 194 197 80 2
55 1 105 0 198 8001 0 0 0 0 3 5 0 0 0 FFFFTFTFFFFFFF2 81 1 179 598 105 159 0 0 1
77 196 199 81 1 194 600 105 165 0 0 196 200 201 83 255 3 197 .647058823529412 .6
19607843137255 .588235294117647 81 1 200 601 105 195 0 0 194 202 203 83 3 201 .6
47058823529412 .619607843137255 .588235294117647 14 195 202 200 ?83 165 204 5 19
0 -0 0 83 165 22 81 1 202 602 105 83 0 0 200 205 206 83 3 203 .647058823529412 .
619607843137255 .588235294117647 14 83 356 202 ?207 195 28 5 208 -0 0 207 195 22
 81 1 205 603 105 207 0 0 202 23 209 83 3 206 .647058823529412 .619607843137255
 .588235294117647 14 207 517 205 ?0 83 210 5 211 -0 0 0 83 22 81 1 23 611 105 10
 0 0 205 152 212 83 3 209 .647058823529412 .619607843137255 .588235294117647 83
 3 212 .647058823529412 .619607843137255 .588235294117647 15 210 520 0 213 207 2
14 51 255 211 535 0 207 0 208 0 +.0788239400944006 .268234910468196 -.0551458832
79531 .1677762097837535 -.910956494054823 -.3768413583591135 6e-4 74233796883145
9e-31 -.382259850481334 .924054872131514 51 208 400 0 83 211 215 0 -.07882394009
44006 .268234910468196 -.055145883279531 .1677762097837535 -.910956494054823 -.3
768413583591135 75e-5 742337968831459e-31 -.382259850481334 .924054872131514 50
 215 221 0 99 208 190 0 +.0742303669743044 .265924520247555 -.0569132776946792 -
.1677762097837535 .910956494054823 .3768413583591135 -742337968831459e-31 .38225
9850481334 -.924054872131514 14 99 274 216 ?174 183 217 5 215 -0 0 174 183 22 50
 190 220 0 195 215 188 0 +.0742303669743044 .265924520247555 -.0569132776946792
 742337968831459e-31 -.382259850481334 .924054872131514 .98582510793274 .1550344
240784365 .0641341088662624 81 1 216 594 105 99 0 0 185 192 218 15 217 499 0 219
 99 85 17 219 0 217 219 219 0 213 220 0 0 -17 213 0 210 213 213 0 219 220 0 0 +1
6 220 514 221 ?213 89 0 222 0 0 1 81 1 221 636 105 220 0 0 223 0 224 16 89 510 2
23 ?225 81 220 226 0 0 1 31 255 222 539 0 220 0 226 0 +.0791594925139681 .266412
9974800865 -.0558995659962493 .1677762097837535 -.910956494054823 -.376841358359
1135 742337968831459e-31 -.382259850481334 .924054872131514 6e-4 31 226 538 0 89
 222 90 0 +.0790756044090762 .2668684757271135 -.0557111453170697 .1677762097837
535 -.910956494054823 -.3768413583591135 742337968831459e-31 -.382259850481334 .
924054872131514 6e-4 31 90 415 0 81 226 97 0 -.0791594925139681 .266412997480086
5 -.0558995659962493 .1677762097837535 -.910956494054823 -.3768413583591135 7423
37968831459e-31 -.382259850481334 .924054872131514 75e-5 30 97 410 0 84 90 227 0
 +.0788239400944006 .267948215580335 -.0544528421254324 .1677762097837535 -.9109
56494054823 -.3768413583591135 30 227 409 0 32 97 228 0 +.0788239400944006 .2685
21605356057 -.0558389244336297 .1677762097837535 -.910956494054823 -.37684135835
91135 16 32 302 229 ?26 84 81 227 0 0 1 31 228 406 0 96 227 230 0 -.079075604409
0762 .2668684757271135 -.0557111453170697 .1677762097837535 -.910956494054823 -.
3768413583591135 742337968831459e-31 -.382259850481334 .924054872131514 75e-5 16
 96 299 231 ?38 232 84 228 0 0 1 30 230 231 0 232 228 233 0 +.0821169678377663 .
2665914058644605 -.0550141225155518 -.1677762097837535 .910956494054823 .3768413
583591135 16 232 158 234 ?92 235 96 230 0 0 1 30 233 230 0 235 230 113 0 +.08203
30797328745 .26762027388721 -.0562117841445696 -742337968831459e-31 .38225985048
1334 -.924054872131514 16 235 162 236 ?37 111 232 233 0 0 1 30 113 229 0 111 233
 112 0 +.0821169678377663 .2671647956401825 -.0564002048237491 .1677762097837535
 -.910956494054823 -.3768413583591135 16 111 166 237 ?238 101 235 113 0 0 1 81 1
 237 628 105 111 0 0 107 236 239 17 238 0 204 87 42 43 240 111 0 0 +15 204 205 0
 87 195 0 17 87 0 204 31 238 11 47 103 0 0 -17 42 0 204 238 31 35 241 109 0 240
 +17 240 0 175 41 100 35 238 111 0 37 -15 175 153 0 94 174 0 17 41 0 175 94 240
 27 37 235 0 92 -17 100 0 175 240 94 43 98 101 0 238 -17 37 0 36 241 34 35 41 23
5 0 0 +15 36 201 0 241 183 0 17 241 0 36 38 37 75 42 109 0 0 -17 38 0 36 34 241
 77 30 96 0 39 +17 30 0 28 26 79 75 38 96 0 31 -17 31 0 204 42 87 75 26 32 0 241
 -17 94 0 175 100 41 62 92 232 0 98 -17 92 0 91 39 74 27 94 232 0 0 +17 47 0 85
 98 33 43 87 103 0 100 +81 1 107 627 105 101 0 0 102 237 242 81 1 236 629 105 23
5 0 0 237 234 243 83 3 239 .647058823529412 .619607843137255 .588235294117647 81
 1 234 630 105 232 0 0 236 231 244 83 3 243 .647058823529412 .619607843137255 .5
88235294117647 81 1 231 631 105 96 0 0 234 95 245 83 3 244 .647058823529412 .619
607843137255 .588235294117647 81 1 95 632 105 84 0 0 231 229 246 83 3 245 .64705
8823529412 .619607843137255 .588235294117647 81 1 229 633 105 32 0 0 95 88 247 8
3 3 246 .647058823529412 .619607843137255 .588235294117647 81 1 88 634 105 81 0
 0 229 223 248 83 3 247 .647058823529412 .619607843137255 .588235294117647 81 1
 223 635 105 89 0 0 88 221 249 83 3 248 .647058823529412 .619607843137255 .58823
5294117647 83 3 249 .647058823529412 .619607843137255 .588235294117647 83 3 242
 .647058823529412 .619607843137255 .588235294117647 17 225 0 187 225 225 0 250 8
9 0 0 +15 187 505 0 225 183 36 17 250 0 214 250 250 0 225 89 0 0 -15 214 521 0 2
50 207 0 83 3 224 .647058823529412 .619607843137255 .588235294117647 81 1 185 59
3 105 183 0 0 182 216 251 81 1 192 595 105 174 0 0 216 178 252 83 3 218 .6470588
23529412 .619607843137255 .588235294117647 81 1 178 596 105 18 0 0 192 177 253 8
3 3 252 .647058823529412 .619607843137255 .588235294117647 83 3 253 .64705882352
9412 .619607843137255 .588235294117647 83 3 251 .647058823529412 .61960784313725
5 .588235294117647 83 3 199 .647058823529412 .619607843137255 .588235294117647 7
9 255 15 198 SDL/TYSA_COLOUR83 3 186 .647058823529412 .619607843137255 .58823529
4117647 83 3 180 .647058823529412 .619607843137255 .588235294117647 81 1 150 613
 105 149 0 0 152 147 254 83 3 154 .647058823529412 .619607843137255 .58823529411
7647 81 1 147 614 105 134 0 0 150 133 255 83 3 254 .647058823529412 .61960784313
7255 .588235294117647 81 1 133 615 105 131 0 0 147 130 256 83 3 255 .64705882352
9412 .619607843137255 .588235294117647 81 1 130 616 105 128 0 0 133 127 257 83 3
 256 .647058823529412 .619607843137255 .588235294117647 81 1 127 617 105 124 0 0
 130 122 258 83 3 257 .647058823529412 .619607843137255 .588235294117647 81 1 12
2 618 105 120 0 0 127 145 259 83 3 258 .647058823529412 .619607843137255 .588235
294117647 81 1 145 619 105 125 0 0 122 143 260 83 3 259 .647058823529412 .619607
843137255 .588235294117647 81 1 143 620 105 141 0 0 145 140 261 83 3 260 .647058
823529412 .619607843137255 .588235294117647 81 1 140 621 105 138 0 0 143 136 262
 83 3 261 .647058823529412 .619607843137255 .588235294117647 81 1 136 622 105 11
9 0 0 140 118 263 83 3 262 .647058823529412 .619607843137255 .588235294117647 81
 1 118 623 105 40 0 0 136 116 264 83 3 263 .647058823529412 .619607843137255 .58
8235294117647 81 1 116 624 105 109 0 0 118 106 265 83 3 264 .647058823529412 .61
9607843137255 .588235294117647 81 1 106 625 105 103 0 0 116 102 266 83 3 265 .64
7058823529412 .619607843137255 .588235294117647 83 3 266 .647058823529412 .61960
7843137255 .588235294117647 83 3 108 .647058823529412 .619607843137255 .58823529
4117647 19 17 100 0 1 0 9 5 S0 74 4 CI16 index_map_offset0 0 1 dCCZ20 15 6 0 0 2
21 267 268 269 13 2 0 0 0 0 0 0 0 0 0 0 0 0 0 0 81 1 267 604 270 1 0 268 0 0 271
 81 1 268 607 272 1 267 269 0 0 273 81 1 269 608 274 1 268 13 0 0 275 81 1 13 60
9 276 1 269 2 0 0 277 80 1 276 272 278 9000 0 0 0 0 3 5 0 0 0 FFTFFFFFFFFFFF3 84
 255 16 277 _06_bar_bottom_479 13 278 AdamsPartName80 1 274 276 279 9000 0 0 0 0
 3 5 0 0 0 FFTFFFFFFFFFFF3 84 6 275 PSMAR179 12 279 AdamsRFMName80 1 272 280 281
 9000 0 0 0 0 3 5 0 0 0 FFTFFFFFFFFFFF1 82 255 1 273 17 79 12 281 UG2/ADAMS_ID80
 1 270 282 283 8017 0 0 0 0 0 0 0 0 0 TTTTTTTTTTTTTF3 84 7 271 10_hook79 13 283
 SDL/TYSA_NAME80 1 12 274 284 9000 0 0 0 0 3 5 0 0 0 FFTFFFFFFFFFFF3 84 7 14 SOL
ID2279 15 284 AdamsObjectName1 0 
