**ABCDEFGHIJKLMNOPQRSTUVWXYZabcdefghijklmnopqrstuvwxyz**************************
**PARASOLID !"#$%&'()*+,-./:;<=>?@[\]^_`{|}~0123456789**************************
**PART1;
MC=unknown;
MC_MODEL=unknown;
MC_ID=unknown;
OS=unknown;
OS_RELEASE=unknown;
FRU=sdl_parasolid_customer_support;
APPL=parasolid_acceptance_tests;
SITE=unknown;
USER=unknown;
FORMAT=text;
GUISE=transmit;
KEY=Controls_Plant_1_Tensegrity__06_bar_bottom_3_SOLID21;
FILE=Controls_Plant_1_Tensegrity__06_bar_bottom_3_SOLID21.xmt_txt;
DATE=unknown;
**PART2;
SCH=SCH_3101206_31100;
USFLD_SIZE=1;
**PART3;
**END_OF_HEADER*****************************************************************
T51 : TRANSMIT FILE created by modeller version 310120623 SCH_3101206_31100_1300
6222 0 12 34 CCCCCCI4 mesh1006 0 I8 polyline1008 0 CCCCCCCDI5 owner1040 0 CCCCCC
I13 boundary_mesh1006 0 I17 boundary_polyline1008 0 CCCA16 index_map_offset0 0 1
 dA9 index_map82 0 A17 node_id_index_map82 0 A20 schema_embedding_map82 0 A5 chi
ld12 0 A14 lowest_node_id0 0 1 dA16 mesh_offset_data206 0 Z1 879 2 3 0 0 0 0 0 0
 1e3 1e-8 0 4 0 1 0 1 1 5 6 7 8 0 0 9 10 11 0 0 0 0 0 0 0 81 255 1 2 837 12 1 13
 0 0 0 14 70 11 CI9 list_type0 0 1 uI10 notransmit0 0 1 lCCCDCCDI12 finger_index
0 0 1 dI12 finger_block1012 0 CZ3 0 4 T1 0 0 6 20 1 15 15 13 255 5 99 0 1 0 16 0
 0 17 0 50 255 6 94 0 18 19 0 0 +.084256114512509 .0458712981856415 -.1525434338
990245 213552689527108e-30 -.382259850481334 .924054872131514 .98582510793274 -.
155034424078436 -.0641341088662627 30 255 7 98 0 10 20 0 0 +.084256114512509 .04
58712981856415 -.1525434338990245 .98582510793274 -.155034424078436 -.0641341088
662627 29 255 8 276 0 11 21 0 .084927219351644 .0460747855075288 -.1427195746164
042 19 8 CCCCCCCA5 owner12 0 Z9 33 0 1 17 0 22 V0 16 255 10 82 23 ?24 0 25 7 0 0
 1 18 255 11 274 0 26 0 27 8 ?1 17 255 26 0 28 29 30 11 31 32 0 33 +18 27 271 0
 34 11 35 21 ?1 17 34 0 36 37 33 27 38 39 0 40 +18 35 265 0 41 27 42 43 ?1 29 21
 273 0 27 43 8 .0852627717712115 .0478966984956384 -.141965891899686 29 43 267 0
 35 44 21 .084927219351644 .0456925256570474 -.1417955197442726 29 44 146 0 42 4
5 43 .084927219351644 .0495151241618608 -.151036068465588 18 42 144 0 46 35 47 4
4 ?1 29 45 75 0 48 49 44 .0869197017182793 .0548258287021113 -.1488391544242994
 18 48 66 0 50 51 52 45 ?1 29 49 76 0 52 53 45 .0869197017182793 .05100323019729
8 -.1395986057029842 18 52 67 0 54 48 55 49 ?1 29 53 77 0 55 56 49 .085241939620
4417 .0418936652567497 -.1433670192865754 18 55 68 0 57 52 58 53 ?1 29 56 78 0 5
8 59 53 .0852419396204417 .0457162637615631 -.1526075680078905 18 58 69 0 60 55
 61 56 ?1 29 59 32 0 47 62 56 .0859338766103465 .0549808631261897 -.148775020315
4332 18 47 30 0 63 42 64 59 ?1 29 62 29 0 64 65 59 .0859338766103465 .0511582646
213764 -.139534471594118 18 64 27 0 66 47 67 62 ?1 29 65 26 0 67 68 62 .08425611
4512509 .04204869968082815 -.1433028851777092 18 67 24 0 69 64 51 65 ?1 29 68 23
 0 51 70 65 .084256114512509 .0458712981856415 -.1525434338990245 18 51 21 0 71
 67 48 68 ?1 29 70 236 0 72 73 68 .0852627717712115 .0513370371499704 -.15028238
57488695 18 72 189 0 74 75 76 70 ?1 29 73 237 0 76 77 70 .060617144072893 .05521
28977519313 -.148679033027213 18 76 191 0 78 72 79 73 ?1 29 77 238 0 79 80 73 .0
602815916533255 .0533909847638217 -.1494327157439312 18 79 193 0 81 76 82 77 ?1
 29 80 240 0 61 83 77 .0852627717712115 .0509547772994891 -.149358330876738 18 6
1 186 0 84 58 85 80 ?1 29 83 241 0 85 86 80 .060617144072893 .05483063790145 -.1
477549781550814 18 85 188 0 87 61 88 83 ?1 29 86 242 0 88 89 83 .060281591653325
5 .0530087249133404 -.1485086608717998 18 88 190 0 90 85 75 86 ?1 29 89 243 0 75
 91 86 .084927219351644 .0491328643113795 -.1501120135934565 18 75 192 0 92 88 7
2 89 ?1 29 91 365 0 93 94 89 .0602815916533255 .0495683862590084 -.1401921670226
16 18 93 319 0 95 96 97 91 ?1 29 94 366 0 97 98 91 .060617144072893 .05139029924
7118 -.139438484305898 18 97 321 0 99 93 100 94 ?1 29 98 367 0 100 101 94 .08526
27717712115 .0475144386451571 -.1410418370275544 18 100 315 0 102 97 0 98 ?1 29
 101 369 0 82 103 98 .0602815916533255 .0499506461094897 -.1411162218947476 18 8
2 316 0 30 79 96 101 ?1 29 103 370 0 96 0 101 .060617144072893 .0517725590975993
 -.1403625391780294 18 96 318 0 104 82 93 103 ?1 17 104 0 105 99 40 96 106 107 0
 108 +15 255 105 337 0 109 110 0 17 99 0 105 109 104 97 108 111 0 112 +17 40 0 1
05 104 109 27 37 113 0 106 -17 106 0 114 38 115 27 104 107 0 0 -16 107 298 116 ?
104 117 39 118 0 0 1 17 108 0 119 120 112 96 99 111 0 115 -15 119 333 0 112 121
 0 17 120 0 119 95 108 82 115 117 0 31 +17 112 0 119 108 95 97 122 123 0 124 -16
 111 301 125 ?99 126 113 127 0 0 1 17 115 0 114 106 31 96 120 117 0 0 -15 114 40
7 0 38 128 129 17 31 0 114 115 38 82 26 32 0 0 -16 117 294 130 ?120 32 107 131 0
 0 1 81 1 130 868 132 117 0 0 133 116 134 16 32 290 133 ?26 113 117 135 0 0 1 30
 131 361 0 117 118 135 0 +.060617144072893 .0517725590975993 -.1403625391780294
 -.1677762097837535 -.910956494054823 -.3768413583591135 30 118 362 0 107 136 13
1 0 +.0852627717712115 .0478966984956384 -.141965891899686 -.98582510793274 .155
034424078436 .0641341088662627 30 135 360 0 32 131 137 0 +.0602815916533255 .049
9506461094897 -.1411162218947476 .98582510793274 -.1550344240784365 -.0641341088
662627 30 137 358 0 138 135 139 0 +.0852627717712115 .0475144386451571 -.1410418
370275544 -.98582510793274 .155034424078436 .0641341088662627 16 138 305 140 ?12
4 123 141 137 0 0 1 30 139 357 0 123 137 142 0 +.060617144072893 .05139029924711
8 -.139438484305898 -.1677762097837535 -.910956494054823 -.3768413583591135 16 1
23 308 143 ?122 144 138 139 0 0 1 30 142 356 0 144 139 145 0 +.0602815916533255
 .0495683862590084 -.140192167022616 .98582510793274 -.1550344240784365 -.064134
1088662627 16 144 311 146 ?147 39 123 142 0 0 1 30 145 355 0 148 142 149 0 +.084
927219351644 .0460747855075288 -.1427195746164042 213552689527108e-30 -.38225985
0481334 .924054872131514 16 148 293 150 ?29 151 126 145 0 0 1 30 149 354 0 126 1
45 127 0 +.0602815916533255 .0499506461094897 -.1411162218947476 213552689527108
e-30 -.382259850481334 .924054872131514 16 126 297 152 ?95 148 111 149 0 0 1 30
 127 353 0 111 149 153 0 +.060617144072893 .0517725590975993 -.1403625391780294
 213552689527108e-30 -.382259850481334 .924054872131514 30 153 352 0 113 127 154
 0 +.0852627717712115 .0478966984956384 -.141965891899686 213552689527108e-30 -.
382259850481334 .924054872131514 16 113 289 155 ?37 111 32 153 0 0 1 30 154 235
 0 156 153 157 0 +.084927219351644 .0491328643113795 -.1501120135934565 -.167776
2097837535 -.910956494054823 -.3768413583591135 16 156 158 158 ?159 160 161 154
 0 0 1 30 157 234 0 160 154 162 0 +.0602815916533255 .0530087249133404 -.1485086
608717998 -.98582510793274 .1550344240784365 .0641341088662627 16 160 170 163 ?9
0 164 156 157 0 0 1 30 162 233 0 164 157 165 0 +.060617144072893 .05483063790145
 -.1477549781550814 .1677762097837535 .910956494054823 .3768413583591135 16 164
 166 166 ?167 168 160 162 0 0 1 30 165 232 0 168 162 169 0 +.0852627717712115 .0
509547772994891 -.149358330876738 .98582510793274 -.155034424078436 -.0641341088
662627 16 168 162 170 ?84 171 164 165 0 0 1 30 169 230 0 151 165 172 0 +.0602815
916533255 .0533909847638217 -.1494327157439312 -.98582510793274 .155034424078436
5 .0641341088662627 16 151 177 173 ?174 175 148 169 0 0 1 30 172 229 0 175 169 1
76 0 +.060617144072893 .0552128977519313 -.148679033027213 .1677762097837535 .91
0956494054823 .3768413583591135 16 175 180 177 ?178 161 151 172 0 0 1 30 176 228
 0 161 172 179 0 +.0852627717712115 .0513370371499704 -.1502823857488695 .985825
10793274 -.155034424078436 -.0641341088662627 16 161 183 180 ?181 156 175 176 0
 0 1 30 179 227 0 182 176 183 0 +.0852627717712115 .0509547772994891 -.149358330
876738 -213552689527108e-30 .382259850481334 -.924054872131514 16 182 165 184 ?7
4 185 186 179 0 0 1 30 183 226 0 186 179 187 0 +.060617144072893 .05483063790145
 -.1477549781550814 -213552689527108e-30 .382259850481334 -.924054872131514 16 1
86 169 188 ?78 182 189 183 0 0 1 30 187 225 0 189 183 190 0 +.0602815916533255 .
0530087249133404 -.1485086608717998 -213552689527108e-30 .382259850481334 -.9240
54872131514 16 189 173 191 ?81 186 171 187 0 0 1 30 190 224 0 171 187 192 0 +.08
4927219351644 .0491328643113795 -.1501120135934565 -213552689527108e-30 .3822598
50481334 -.924054872131514 16 171 161 193 ?194 189 168 190 0 0 1 30 192 7 0 195
 190 196 0 +.084256114512509 .0458712981856415 -.1525434338990245 -.167776209783
7535 -.910956494054823 -.3768413583591135 16 195 5 197 ?198 199 200 192 200 200
 1 30 196 11 0 199 192 201 0 +.084256114512509 .0458712981856415 -.1525434338990
245 213552689527108e-30 -.382259850481334 .924054872131514 16 199 9 202 ?69 203
 195 196 0 0 1 30 201 15 0 204 196 205 0 +.084256114512509 .04204869968082815 -.
1433028851777092 .1677762097837535 .910956494054823 .3768413583591135 16 204 13
 206 ?41 207 203 201 203 203 1 30 205 19 0 207 201 208 0 +.0859338766103465 .054
9808631261897 -.1487750203154332 -213552689527108e-30 .382259850481334 -.9240548
72131514 16 207 17 209 ?63 210 204 205 0 0 1 30 208 74 0 185 205 211 0 +.0852419
396204417 .0457162637615631 -.1526075680078905 -.1677762097837535 -.910956494054
823 -.3768413583591135 16 185 62 212 ?213 214 182 208 0 0 1 30 211 73 0 214 208
 215 0 +.0852419396204417 .0457162637615631 -.1526075680078905 213552689527108e-
30 -.382259850481334 .924054872131514 16 214 58 216 ?57 217 185 211 0 0 1 30 215
 72 0 217 211 218 0 +.0852419396204417 .0418936652567497 -.1433670192865754 .167
7762097837535 .910956494054823 .3768413583591135 16 217 54 219 ?54 220 214 215 0
 0 1 30 218 71 0 220 215 221 0 +.0869197017182793 .0548258287021113 -.1488391544
242994 -213552689527108e-30 .382259850481334 -.924054872131514 16 220 50 222 ?50
 200 217 218 0 0 1 30 221 95 0 210 218 223 0 +.0859338766103465 .054980863126189
7 -.1487750203154332 .98582510793274 -.155034424078436 -.0641341088662627 16 210
 79 224 ?225 226 207 221 0 0 1 30 223 96 0 226 221 20 0 +.0859338766103465 .0511
582646213764 -.139534471594118 .98582510793274 -.155034424078436 -.0641341088662
627 16 226 80 227 ?228 25 210 223 0 0 1 30 20 97 0 25 223 7 0 +.084256114512509
 .04204869968082815 -.1433028851777092 .98582510793274 -.155034424078436 -.06413
41088662627 16 25 81 229 ?230 10 226 20 0 0 1 81 1 229 839 132 25 0 0 23 227 231
 17 230 0 232 54 233 55 234 25 0 235 +15 232 85 0 54 236 0 17 54 0 232 237 230 5
2 235 217 0 228 +17 233 0 232 230 147 67 41 204 0 0 -17 234 0 238 239 57 67 230
 25 0 233 -17 235 0 240 60 241 55 54 217 0 0 -15 240 49 0 242 243 0 17 60 0 240
 242 235 58 57 214 0 24 -17 241 0 240 235 242 52 50 220 0 0 -17 242 0 240 241 60
 48 213 185 0 0 -17 50 0 244 245 228 48 241 220 0 225 +15 244 83 0 50 246 0 17 2
45 0 244 247 50 47 225 210 0 248 -17 228 0 244 50 247 52 237 226 0 241 +17 225 0
 249 213 248 48 245 210 0 242 +15 249 89 0 213 18 0 17 213 0 249 250 225 58 242
 185 0 0 +17 248 0 249 225 181 47 198 195 0 0 -17 181 0 249 248 178 72 251 161 0
 198 +17 198 0 36 252 63 72 248 195 0 0 +15 36 272 0 41 253 0 17 252 0 36 159 19
8 61 74 182 0 0 -17 63 0 36 198 66 47 247 207 0 245 +17 66 0 36 63 37 64 102 203
 0 237 +17 247 0 244 228 245 64 63 207 0 0 -17 37 0 36 66 34 100 40 113 0 109 +1
7 102 0 232 124 237 100 66 203 0 37 -16 203 269 254 ?66 204 199 201 204 204 1 17
 237 0 232 102 54 64 228 226 0 247 -81 1 254 844 132 203 0 0 206 202 255 80 255
 1 132 0 256 8001 0 0 0 0 3 5 0 0 0 FFFFTFTFFFFFFF2 81 1 206 843 132 204 0 0 209
 254 257 81 1 202 845 132 199 0 0 254 197 258 83 255 3 255 .647058823529412 .619
607843137255 .588235294117647 81 1 197 846 132 195 0 0 202 259 260 83 3 258 .647
058823529412 .619607843137255 .588235294117647 81 1 259 847 132 200 0 0 197 222
 261 83 3 260 .647058823529412 .619607843137255 .588235294117647 16 200 145 259
 ?71 195 220 192 195 195 1 81 1 222 848 132 220 0 0 259 219 262 83 3 261 .647058
823529412 .619607843137255 .588235294117647 81 1 219 849 132 217 0 0 222 216 263
 83 3 262 .647058823529412 .619607843137255 .588235294117647 81 1 216 850 132 21
4 0 0 219 212 264 83 3 263 .647058823529412 .619607843137255 .588235294117647 81
 1 212 851 132 185 0 0 216 184 265 83 3 264 .647058823529412 .619607843137255 .5
88235294117647 81 1 184 852 132 182 0 0 212 188 266 83 3 265 .647058823529412 .6
19607843137255 .588235294117647 81 1 188 853 132 186 0 0 184 191 267 83 3 266 .6
47058823529412 .619607843137255 .588235294117647 81 1 191 854 132 189 0 0 188 19
3 268 83 3 267 .647058823529412 .619607843137255 .588235294117647 81 1 193 855 1
32 171 0 0 191 170 269 83 3 268 .647058823529412 .619607843137255 .5882352941176
47 81 1 170 856 132 168 0 0 193 166 270 83 3 269 .647058823529412 .6196078431372
55 .588235294117647 81 1 166 857 132 164 0 0 170 163 271 83 3 270 .6470588235294
12 .619607843137255 .588235294117647 81 1 163 858 132 160 0 0 166 158 272 83 3 2
71 .647058823529412 .619607843137255 .588235294117647 81 1 158 859 132 156 0 0 1
63 180 273 83 3 272 .647058823529412 .619607843137255 .588235294117647 81 1 180
 860 132 161 0 0 158 177 274 83 3 273 .647058823529412 .619607843137255 .5882352
94117647 81 1 177 861 132 175 0 0 180 173 275 83 3 274 .647058823529412 .6196078
43137255 .588235294117647 81 1 173 862 132 151 0 0 177 150 276 83 3 275 .6470588
23529412 .619607843137255 .588235294117647 81 1 150 863 132 148 0 0 173 152 277
 83 3 276 .647058823529412 .619607843137255 .588235294117647 81 1 152 864 132 12
6 0 0 150 125 278 83 3 277 .647058823529412 .619607843137255 .588235294117647 81
 1 125 865 132 111 0 0 152 155 279 83 3 278 .647058823529412 .619607843137255 .5
88235294117647 81 1 155 866 132 113 0 0 125 133 280 83 3 279 .647058823529412 .6
19607843137255 .588235294117647 81 1 133 867 132 32 0 0 155 130 281 83 3 280 .64
7058823529412 .619607843137255 .588235294117647 83 3 281 .647058823529412 .61960
7843137255 .588235294117647 17 71 0 36 69 194 51 282 200 0 239 +17 69 0 36 41 71
 67 239 199 0 234 +17 194 0 36 71 159 42 92 171 0 282 +17 282 0 249 174 250 42 7
1 200 0 0 -17 239 0 238 24 234 51 69 199 0 250 -15 238 87 0 57 283 0 17 24 0 238
 57 239 58 250 10 0 213 +17 250 0 249 282 213 51 24 10 0 0 -17 57 0 238 234 24 5
5 60 214 0 230 +14 255 283 88 284 ?236 18 238 5 19 -0 0 236 18 22 81 1 284 815 1
32 283 0 0 285 286 287 14 236 86 286 ?246 283 232 5 288 -0 0 246 283 22 14 18 90
 285 ?283 253 249 5 6 -0 0 283 253 22 50 19 93 0 283 288 6 0 +.084256114512509 .
0458712981856415 -.1525434338990245 .1677762097837535 .910956494054823 .37684135
83591135 -213552689527108e-30 .382259850481334 -.924054872131514 13 22 34 0 0 0
 0 0 0 9 16 14 16 651 289 ?253 0 290 5 291 -0 0 253 0 22 81 1 289 812 132 16 0 0
 0 292 293 14 253 155 292 ?18 16 36 5 294 -0 0 18 16 22 15 290 548 0 295 16 296
 51 255 291 498 0 16 297 298 0 -.0634068431869075 .0503964993313092 -.1409317828
629872 -213552689527108e-30 .382259850481334 -.924054872131514 .0025 -.985825107
93274 .155034424078436 .0641341088662627 50 297 608 0 299 300 291 0 +.0634068431
869075 .0530723182846785 -.147400166967908 -213552689527108e-30 .382259850481334
 -.924054872131514 -.98582510793274 .155034424078436 .0641341088662627 50 298 35
1 0 128 291 301 0 +.0852419396204417 .04227592510723105 -.144291074158707 213552
689527108e-30 -.382259850481334 .924054872131514 .98582510793274 -.1550344240784
36 -.0641341088662627 14 128 338 302 ?299 110 114 5 298 -0 0 299 110 22 50 301 3
49 0 303 298 304 0 +.0602815916533255 .0499506461094897 -.1411162218947476 -.167
7762097837535 -.910956494054823 -.3768413583591135 -.98582510793274 .15503442407
84365 .0641341088662627 14 303 326 305 ?121 306 28 5 301 +0 0 121 306 22 50 304
 348 0 121 301 307 0 +.060617144072893 .0517725590975993 -.1403625391780294 -.98
582510793274 .155034424078436 .0641341088662627 213552689527108e-30 -.3822598504
81334 .924054872131514 14 121 330 308 ?110 303 119 5 304 +0 0 110 303 22 50 307
 347 0 110 304 309 0 +.0852627717712115 .0478966984956384 -.141965891899686 .167
7762097837535 .910956494054823 .3768413583591135 -213552689527108e-30 .382259850
481334 -.924054872131514 14 110 334 310 ?128 121 105 5 307 +0 0 128 121 22 50 30
9 223 0 306 307 311 0 +.0852419396204417 .0453340039110817 -.151683513135759 213
552689527108e-30 -.382259850481334 .924054872131514 .98582510793274 -.1550344240
78436 -.0641341088662627 14 306 210 312 ?303 313 314 5 309 +0 0 303 313 22 50 31
1 221 0 315 309 316 0 +.0852627717712115 .0509547772994891 -.149358330876738 .16
77762097837535 .910956494054823 .3768413583591135 -213552689527108e-30 .38225985
0481334 -.924054872131514 14 315 198 317 ?318 243 319 5 311 +0 0 318 243 22 50 3
16 220 0 318 311 320 0 +.060617144072893 .05483063790145 -.1477549781550814 -.98
582510793274 .155034424078436 .0641341088662627 213552689527108e-30 -.3822598504
81334 .924054872131514 14 318 202 321 ?313 315 322 5 316 +0 0 313 315 22 50 320
 219 0 313 316 294 0 +.0602815916533255 .0530087249133404 -.1485086608717998 -.1
677762097837535 -.910956494054823 -.3768413583591135 -.98582510793274 .155034424
0784365 .0641341088662627 14 313 206 323 ?306 318 324 5 320 +0 0 306 318 22 50 2
94 3 0 253 320 325 0 +.084256114512509 .0458712981856415 -.1525434338990245 .985
82510793274 -.155034424078436 -.0641341088662627 -213552689527108e-30 .382259850
481334 -.924054872131514 50 325 70 0 243 294 326 0 +.0852419396204417 .045716263
7615631 -.1526075680078905 .98582510793274 -.155034424078436 -.0641341088662627
 -213552689527108e-30 .382259850481334 -.924054872131514 14 243 48 327 ?315 246
 240 5 325 +0 0 315 246 22 50 326 91 0 246 325 288 0 +.0859338766103465 .0549808
631261897 -.1487750203154332 -.1677762097837535 -.910956494054823 -.376841358359
1135 213552689527108e-30 -.382259850481334 .924054872131514 14 246 84 328 ?243 2
36 244 5 326 -0 0 243 236 22 50 288 92 0 236 326 19 0 +.084256114512509 .0420486
9968082815 -.1433028851777092 -213552689527108e-30 .382259850481334 -.9240548721
31514 -.98582510793274 .155034424078436 .0641341088662627 81 1 328 817 132 246 0
 0 286 327 329 81 1 286 816 132 236 0 0 284 328 330 81 1 327 818 132 243 0 0 328
 317 331 83 3 329 .647058823529412 .619607843137255 .588235294117647 81 1 317 81
9 132 315 0 0 327 321 332 83 3 331 .647058823529412 .619607843137255 .5882352941
17647 81 1 321 820 132 318 0 0 317 323 333 83 3 332 .647058823529412 .6196078431
37255 .588235294117647 81 1 323 821 132 313 0 0 321 312 334 83 3 333 .6470588235
29412 .619607843137255 .588235294117647 81 1 312 822 132 306 0 0 323 305 335 83
 3 334 .647058823529412 .619607843137255 .588235294117647 81 1 305 823 132 303 0
 0 312 308 336 83 3 335 .647058823529412 .619607843137255 .588235294117647 81 1
 308 824 132 121 0 0 305 310 337 83 3 336 .647058823529412 .619607843137255 .588
235294117647 81 1 310 825 132 110 0 0 308 302 338 83 3 337 .647058823529412 .619
607843137255 .588235294117647 81 1 302 826 132 128 0 0 310 339 340 83 3 338 .647
058823529412 .619607843137255 .588235294117647 81 1 339 827 132 299 0 0 302 341
 342 83 3 340 .647058823529412 .619607843137255 .588235294117647 14 299 591 339
 ?343 128 344 5 297 +0 0 343 128 22 81 1 341 828 132 343 0 0 339 345 346 83 3 34
2 .647058823529412 .619607843137255 .588235294117647 14 343 599 341 ?347 299 348
 5 300 +0 0 347 299 22 81 1 345 829 132 347 0 0 341 349 350 83 3 346 .6470588235
29412 .619607843137255 .588235294117647 14 347 692 345 ?351 343 352 5 353 +0 0 3
51 343 22 81 1 349 830 132 351 0 0 345 23 354 83 3 350 .647058823529412 .6196078
43137255 .588235294117647 14 351 700 349 ?0 347 355 5 356 +0 0 0 347 22 81 1 23
 838 132 10 0 0 349 229 357 83 3 354 .647058823529412 .619607843137255 .58823529
4117647 83 3 357 .647058823529412 .619607843137255 .588235294117647 15 355 703 0
 358 351 359 51 356 710 0 351 0 353 0 +.0634068431869075 .0507787591817905 -.141
855837735119 213552689527108e-30 -.382259850481334 .924054872131514 5e-4 .985825
10793274 -.155034424078436 -.0641341088662627 50 353 709 0 347 356 300 0 +.06340
68431869075 .0507787591817905 -.141855837735119 213552689527108e-30 -.3822598504
81334 .924054872131514 .98582510793274 -.155034424078436 -.0641341088662627 51 3
00 609 0 343 353 297 0 +.0634068431869075 .0530723182846785 -.147400166967908 -2
13552689527108e-30 .382259850481334 -.924054872131514 5e-4 -.98582510793274 .155
034424078436 .0641341088662627 17 358 0 355 358 358 0 360 361 0 0 +15 359 704 0
 362 351 0 17 362 0 359 362 362 0 363 364 0 0 -17 363 0 129 363 363 0 362 364 0
 0 +16 364 674 365 ?363 361 0 366 0 0 1 81 1 365 879 132 364 0 0 367 0 368 16 36
1 665 367 ?358 369 364 370 0 0 1 31 255 366 715 0 364 370 371 0 +.06340684318690
75 .0503964993313092 -.1409317828629872 213552689527108e-30 -.382259850481334 .9
24054872131514 .98582510793274 -.155034424078436 -.0641341088662627 5e-4 31 370
 716 0 361 0 366 0 +.0634068431869075 .0507787591817905 -.141855837735119 213552
689527108e-30 -.382259850481334 .924054872131514 .98582510793274 -.1550344240784
36 -.0641341088662627 5e-4 31 371 714 0 369 366 372 0 +.0634068431869075 .050778
7591817905 -.141855837735119 213552689527108e-30 -.382259850481334 .924054872131
514 .98582510793274 -.155034424078436 -.0641341088662627 .0025 16 369 662 373 ?3
74 375 361 371 0 0 1 31 372 615 0 376 371 377 0 +.0634068431869075 .053072318284
6785 -.147400166967908 -213552689527108e-30 .382259850481334 -.924054872131514 -
.98582510793274 .155034424078436 .0641341088662627 5e-4 16 376 564 378 ?379 141
 375 372 0 0 1 31 377 614 0 375 372 380 0 +.0634068431869075 .0534545781351599 -
.1483242218400394 -213552689527108e-30 .382259850481334 -.924054872131514 -.9858
2510793274 .155034424078436 .0641341088662627 5e-4 16 375 573 381 ?382 376 369 3
77 0 0 1 31 380 613 0 141 377 136 0 +.0634068431869075 .0530723182846785 -.14740
0166967908 -213552689527108e-30 .382259850481334 -.924054872131514 -.98582510793
274 .155034424078436 .0641341088662627 .0025 16 141 561 383 ?384 138 376 380 0 0
 1 30 136 363 0 39 380 118 0 +.084927219351644 .0460747855075288 -.1427195746164
042 .1677762097837535 .910956494054823 .3768413583591135 16 39 286 385 ?34 107 1
44 136 0 0 1 81 1 385 870 132 39 0 0 116 146 386 81 1 116 869 132 107 0 0 130 38
5 387 81 1 146 871 132 144 0 0 385 143 388 83 3 386 .647058823529412 .6196078431
37255 .588235294117647 81 1 143 872 132 123 0 0 146 140 389 83 3 388 .6470588235
29412 .619607843137255 .588235294117647 81 1 140 873 132 138 0 0 143 383 390 83
 3 389 .647058823529412 .619607843137255 .588235294117647 81 1 383 874 132 141 0
 0 140 378 391 83 3 390 .647058823529412 .619607843137255 .588235294117647 81 1
 378 875 132 376 0 0 383 381 392 83 3 391 .647058823529412 .619607843137255 .588
235294117647 81 1 381 876 132 375 0 0 378 373 393 83 3 392 .647058823529412 .619
607843137255 .588235294117647 81 1 373 877 132 369 0 0 381 367 394 83 3 393 .647
058823529412 .619607843137255 .588235294117647 81 1 367 878 132 361 0 0 373 365
 395 83 3 394 .647058823529412 .619607843137255 .588235294117647 83 3 395 .64705
8823529412 .619607843137255 .588235294117647 83 3 387 .647058823529412 .61960784
3137255 .588235294117647 17 384 0 396 384 384 0 295 141 0 0 +15 396 594 0 384 29
9 0 17 295 0 290 295 295 0 384 141 0 0 -17 382 0 397 382 382 0 398 375 0 0 +15 3
97 598 0 382 306 0 17 398 0 399 398 398 0 382 375 0 0 -15 399 603 0 398 343 0 17
 379 0 348 379 379 0 400 376 0 0 +15 348 602 0 379 343 399 17 400 0 344 400 400
 0 379 376 0 0 -15 344 593 0 400 299 396 17 374 0 401 374 374 0 402 369 0 0 +15
 401 695 0 374 347 0 17 402 0 296 402 402 0 374 369 0 0 -15 296 649 0 402 16 0 8
3 3 368 .647058823529412 .619607843137255 .588235294117647 15 129 699 0 363 128
 0 17 360 0 352 360 360 0 358 361 0 0 -15 352 694 0 360 347 401 83 3 330 .647058
823529412 .619607843137255 .588235294117647 15 324 209 0 46 313 0 17 46 0 324 92
 81 42 174 151 0 194 -17 92 0 324 90 46 75 194 171 0 403 -17 81 0 324 46 90 79 4
04 189 0 405 +17 174 0 249 178 282 79 46 151 0 0 +17 178 0 249 181 174 76 405 17
5 0 251 +17 405 0 322 404 78 79 178 175 0 174 -17 251 0 319 87 74 76 181 161 0 0
 -15 319 201 0 251 315 0 17 87 0 319 84 251 85 78 186 0 167 -17 74 0 319 251 84
 72 252 182 0 181 +17 84 0 319 74 87 61 406 168 0 407 +17 406 0 314 408 407 85 8
4 168 0 0 -17 407 0 314 406 403 61 159 156 0 252 -15 314 212 0 407 306 397 17 40
3 0 314 407 408 75 90 160 0 159 -17 159 0 36 194 252 75 407 156 0 0 +17 408 0 31
4 403 406 88 167 164 0 0 -17 90 0 324 81 92 88 403 160 0 404 +17 404 0 322 167 4
05 88 81 189 0 408 -15 322 205 0 405 318 0 17 167 0 322 78 404 85 408 164 0 406
 +17 78 0 322 405 167 76 87 186 0 178 +15 28 329 0 409 303 0 17 409 0 28 30 29 9
3 147 144 0 0 -17 30 0 28 26 409 82 95 126 0 120 -17 29 0 28 409 26 35 33 148 0
 147 +17 147 0 232 233 122 35 409 144 0 0 +17 122 0 232 147 124 93 112 123 0 409
 +17 124 0 232 122 102 97 109 138 0 0 +17 109 0 105 40 99 100 124 138 0 0 -17 33
 0 36 34 41 11 29 148 0 38 -17 41 0 36 33 69 35 233 204 0 29 +17 38 0 114 31 106
 11 34 39 0 0 -17 95 0 119 112 120 93 30 126 0 122 +81 1 292 813 132 253 0 0 289
 285 410 81 1 285 814 132 18 0 0 292 284 411 83 3 410 .647058823529412 .61960784
3137255 .588235294117647 83 3 411 .647058823529412 .619607843137255 .58823529411
7647 83 3 293 .647058823529412 .619607843137255 .588235294117647 83 3 287 .64705
8823529412 .619607843137255 .588235294117647 81 1 209 842 132 207 0 0 224 206 41
2 83 3 257 .647058823529412 .619607843137255 .588235294117647 81 1 224 841 132 2
10 0 0 227 209 413 83 3 412 .647058823529412 .619607843137255 .588235294117647 8
1 1 227 840 132 226 0 0 229 224 414 83 3 413 .647058823529412 .619607843137255 .
588235294117647 83 3 414 .647058823529412 .619607843137255 .588235294117647 79 2
55 15 256 SDL/TYSA_COLOUR83 3 231 .647058823529412 .619607843137255 .58823529411
7647 83 3 134 .647058823529412 .619607843137255 .588235294117647 19 17 100 0 1 0
 9 5 S0 74 4 CI16 index_map_offset0 0 1 dCCZ20 15 6 0 0 365 415 416 417 13 2 0 0
 0 0 0 0 0 0 0 0 0 0 0 0 81 1 415 831 418 1 0 416 0 0 419 81 1 416 834 420 1 415
 417 0 0 421 81 1 417 835 422 1 416 13 0 0 423 81 1 13 836 424 1 417 2 0 0 425 8
0 1 424 420 426 9000 0 0 0 0 3 5 0 0 0 FFTFFFFFFFFFFF3 84 255 16 425 _06_bar_bot
tom_379 13 426 AdamsPartName80 1 422 424 427 9000 0 0 0 0 3 5 0 0 0 FFTFFFFFFFFF
FF3 84 6 423 PSMAR379 12 427 AdamsRFMName80 1 420 428 429 9000 0 0 0 0 3 5 0 0 0
 FFTFFFFFFFFFFF1 82 255 1 421 14 79 12 429 UG2/ADAMS_ID80 1 418 430 431 8017 0 0
 0 0 0 0 0 0 0 TTTTTTTTTTTTTF3 84 10 419 09_bearing79 13 431 SDL/TYSA_NAME80 1 1
2 422 432 9000 0 0 0 0 3 5 0 0 0 FFTFFFFFFFFFFF3 84 7 14 SOLID2179 15 432 AdamsO
bjectName1 0 
