**ABCDEFGHIJKLMNOPQRSTUVWXYZabcdefghijklmnopqrstuvwxyz**************************
**PARASOLID !"#$%&'()*+,-./:;<=>?@[\]^_`{|}~0123456789**************************
**PART1;
MC=unknown;
MC_MODEL=unknown;
MC_ID=unknown;
OS=unknown;
OS_RELEASE=unknown;
FRU=sdl_parasolid_customer_support;
APPL=parasolid_acceptance_tests;
SITE=unknown;
USER=unknown;
FORMAT=text;
GUISE=transmit;
KEY=Controls_Plant_1_Tensegrity__06_bar_bottom_7_SOLID42;
FILE=Controls_Plant_1_Tensegrity__06_bar_bottom_7_SOLID42.xmt_txt;
DATE=unknown;
**PART2;
SCH=SCH_3101206_31100;
USFLD_SIZE=1;
**PART3;
**END_OF_HEADER*****************************************************************
T51 : TRANSMIT FILE created by modeller version 310120623 SCH_3101206_31100_1300
6222 0 12 34 CCCCCCI4 mesh1006 0 I8 polyline1008 0 CCCCCCCDI5 owner1040 0 CCCCCC
I13 boundary_mesh1006 0 I17 boundary_polyline1008 0 CCCA16 index_map_offset0 0 1
 dA9 index_map82 0 A17 node_id_index_map82 0 A20 schema_embedding_map82 0 A5 chi
ld12 0 A14 lowest_node_id0 0 1 dA16 mesh_offset_data206 0 Z1 367 2 3 0 0 0 0 0 0
 1e3 1e-8 0 4 0 1 0 1 1 5 6 7 8 0 0 9 10 11 0 0 0 0 0 0 0 81 255 1 2 347 12 1 13
 0 0 0 14 70 11 CI9 list_type0 0 1 uI10 notransmit0 0 1 lCCCDCCDI12 finger_index
0 0 1 dI12 finger_block1012 0 CZ3 0 4 T1 0 0 7 20 1 15 15 13 255 5 134 0 1 0 16
 0 0 17 0 50 255 6 129 0 18 19 0 0 +-.0238042778731704 .1899424397624815 -.19648
53459080455 .1677762097837535 -.3768413583591135 .910956494054824 .9858251079327
4 .0641341088662624 -.1550344240784365 30 255 7 133 0 10 20 0 0 +-.1026702865077
896 .1848117110531805 -.184082591981771 -575586988365149e-31 -.924054872131514 -
.382259850481333 29 255 8 208 0 11 21 0 .00487189190591312 .183262379128658 -.18
0337318415632 19 8 CCCCCCCA5 owner12 0 Z9 46 0 1 17 0 22 V0 16 255 10 112 23 ?24
 0 25 7 0 0 1 18 255 11 206 0 26 0 27 8 ?1 17 255 26 0 28 29 30 11 31 32 0 33 -1
8 27 203 0 34 11 35 21 ?1 17 34 0 36 37 38 27 39 40 0 41 +18 35 191 0 38 27 42 4
3 ?1 29 21 205 0 27 43 8 .00309099268790699 .182205155511485 -.177781641607955 2
9 43 193 0 35 44 21 .00309099268790699 .180357045767222 -.1785461613089175 29 44
 105 0 45 46 43 -.0238042778731704 .1880943300182185 -.1972498656090085 18 45 95
 0 47 48 49 44 ?1 29 46 106 0 49 50 44 -.00848312739363908 .1856613563378835 -.1
913685229039075 18 49 96 0 51 45 52 46 ?1 29 50 107 0 52 53 46 -.010594675309721
64 .1805371465501525 -.1789815274760215 18 52 97 0 54 49 55 50 ?1 29 53 108 0 55
 56 50 -.1026702865077896 .1829636013089175 -.1848471116827335 18 55 98 0 57 52
 58 53 ?1 29 56 43 0 42 59 53 -.0238042778731704 .1899424397624815 -.19648534590
80455 18 42 41 0 60 35 61 56 ?1 29 59 40 0 61 62 56 -.00848312739363908 .1875094
660821465 -.190604003202945 18 61 38 0 31 42 63 59 ?1 29 62 37 0 63 64 59 -.0105
9467530972164 .1823852562944155 -.178217007775059 18 63 35 0 65 61 48 62 ?1 29 6
4 34 0 48 66 62 -.1026702865077896 .1848117110531805 -.184082591981771 18 48 32
 0 67 63 45 64 ?1 29 66 275 0 58 0 64 .00487189190591312 .181414269384395 -.1811
01838116595 18 58 243 0 68 55 0 66 ?1 17 68 0 69 70 71 58 51 72 0 29 -15 255 69
 67 0 68 73 74 17 70 0 69 75 68 35 76 77 0 0 +17 71 0 69 68 78 49 79 80 0 0 +17
 51 0 28 30 29 49 68 72 0 81 +16 72 195 82 ?51 83 84 85 83 83 1 17 29 0 28 51 26
 58 33 86 0 76 +15 28 119 0 26 87 0 17 33 0 88 89 76 11 29 86 0 90 -16 86 235 91
 ?29 40 92 93 0 0 1 17 76 0 88 33 39 58 70 77 0 0 -15 88 253 0 39 94 0 17 39 0 8
8 76 89 35 34 40 0 70 -16 77 237 95 ?70 92 0 96 0 0 1 81 1 95 367 97 77 0 0 98 0
 99 16 92 228 98 ?89 86 77 100 0 0 1 31 255 96 273 0 77 100 93 0 +.0059598238718
1493 .180398690143842 -.178646830236256 -575586988365149e-31 -.924054872131514 -
.382259850481333 -.1677762097837535 .3768413583591135 -.910956494054824 .0028708
9896178848 31 100 274 0 92 0 96 0 +.00595982387181493 .182246799888105 -.1778823
105352935 -575586988365149e-31 -.924054872131514 -.382259850481333 -.16777620978
37535 .3768413583591135 -.910956494054824 .00287089896178848 30 93 272 0 86 96 1
01 0 +.00487189190591312 .1823383242565265 -.1807195782661135 -575586988365149e-
31 -.924054872131514 -.382259850481333 30 101 271 0 40 93 102 0 -.00309099268790
699 .1812811006393535 -.178163901458436 -575586988365149e-31 -.924054872131514 -
.382259850481333 16 40 231 103 ?34 104 86 101 0 0 1 30 102 8 0 105 101 106 0 +-.
0238042778731704 .1899424397624815 -.1964853459080455 -.98582510793274 -.0641341
088662624 .1550344240784365 16 105 6 107 ?108 109 110 102 0 0 1 134 255 106 13 0
 109 102 111 112 +113 114 16 109 11 115 ?65 32 105 106 0 0 1 31 111 19 0 116 106
 117 0 +-.00354548912792929 .1845864789066715 -.183538127628321 575586988365149e
-31 .924054872131514 .382259850481333 .1677762097837535 -.3768413583591135 .9109
56494054824 .0091022372693234 141 255 112 19 112 112 106 136 255 113 3 4 3 2 5 F
FF1 118 119 120 135 255 114 2 0 45 255 12 118 -.1026702865077896 .18481171105318
05 -.184082591981771 -.03613834579630775 .1880668239964375 -.1919513309319055 -.
01825849874530855 .1868722827169265 -.189063709624293 -.01059467530972164 .18238
52562944155 -.178217007775059 127 255 2 119 4 4 128 255 2 120 0 1 67 255 19 128
 0 121 122 6 0 +106 -575586988365149e-31 -.924054872131514 -.382259850481333 .09
05109966668712 14 255 121 122 123 ?87 18 124 5 19 -0 0 87 18 22 51 255 122 127 0
 87 125 19 0 --.00354548912792929 .1845864789066715 -.183538127628321 -575586988
365149e-31 -.924054872131514 -.382259850481333 .0091022372693234 -.1677762097837
535 .3768413583591135 -.910956494054824 14 87 120 126 ?127 121 28 5 122 -16 16 1
27 121 22 67 125 126 0 127 128 122 0 +117 -575586988365149e-31 -.924054872131514
 -.382259850481333 .0097735617338323 14 127 118 129 ?130 87 131 5 125 +0 0 130 8
7 22 51 128 125 0 130 132 125 0 --.00354548912792929 .1845864789066715 -.1835381
27628321 -575586988365149e-31 -.924054872131514 -.382259850481333 .008 -.1677762
097837535 .3768413583591135 -.910956494054824 134 117 24 0 133 111 134 135 +136
 137 16 133 22 138 ?139 140 116 117 0 0 1 31 134 29 0 140 117 141 0 +-.003545489
12792929 .1845864789066715 -.183538127628321 575586988365149e-31 .92405487213151
4 .382259850481333 .1677762097837535 -.3768413583591135 .910956494054824 .008 14
1 135 125 135 135 117 136 136 3 4 3 2 5 FFF1 142 143 144 135 137 2 0 45 12 142 -
.0238042778731704 .1899424397624815 -.1964853459080455 -.02040436270804385 .1872
092562007845 -.189878291613864 -.01421483444447652 .186364701405785 -.1878367092
39679 -.00848312739363906 .1875094660821465 -.190604003202945 127 2 143 4 4 128
 2 144 0 1 16 140 27 145 ?146 147 133 134 0 0 1 30 141 104 0 104 134 148 0 +-.02
38042778731704 .1880943300182185 -.1972498656090085 -.98582510793274 -.064134108
8662624 .1550344240784365 16 104 90 149 ?150 84 40 141 0 0 1 134 148 103 0 84 14
1 85 0 +151 152 16 84 84 153 ?54 72 104 148 0 0 1 31 85 102 0 83 148 154 0 +-.00
354548912792929 .1827383691624085 -.1843026473292835 575586988365149e-31 .924054
872131514 .382259850481333 .1677762097837535 -.3768413583591135 .910956494054824
 .0091022372693234 136 151 3 4 3 2 5 FFF1 155 156 157 135 152 2 0 45 12 155 -.10
26702865077896 .1829636013089175 -.1848471116827335 -.03613834579630775 .1862187
142521745 -.192715850632868 -.01825849874530855 .1850241729726635 -.189828229325
256 -.01059467530972164 .1805371465501525 -.1789815274760215 127 2 156 4 4 128 2
 157 0 1 16 83 79 158 ?38 80 72 85 72 72 1 134 154 101 0 80 85 159 0 +160 161 16
 80 74 162 ?71 110 83 154 0 0 1 31 159 100 0 110 154 163 0 +-.00354548912792929
 .1827383691624085 -.1843026473292835 575586988365149e-31 .924054872131514 .3822
59850481333 .1677762097837535 -.3768413583591135 .910956494054824 .008 136 160 3
 4 3 2 5 FFF1 164 165 166 135 161 2 0 45 12 164 -.0238042778731704 .188094330018
2185 -.1972498656090085 -.02040436270804385 .1853611464565215 -.190642811314827
 -.01421483444447652 .184516591661522 -.188601228940642 -.00848312739363906 .185
6613563378835 -.1913685229039075 127 2 165 4 4 128 2 166 0 1 16 110 69 167 ?168
 105 80 159 0 0 1 30 163 130 0 147 159 169 0 +-.0238042778731704 .18994243976248
15 -.1964853459080455 -575586988365149e-31 -.924054872131514 -.382259850481333 1
6 147 109 170 ?47 171 140 163 0 0 1 30 169 131 0 171 163 20 0 +-.008483127393639
08 .1875094660821465 -.190604003202945 -575586988365149e-31 -.924054872131514 -.
382259850481333 16 171 110 172 ?81 25 147 169 0 0 1 30 20 132 0 25 169 7 0 +-.01
059467530972164 .1823852562944155 -.178217007775059 -575586988365149e-31 -.92405
4872131514 -.382259850481333 16 25 111 173 ?174 10 171 20 0 0 1 81 1 173 349 97
 25 0 0 23 172 175 17 174 0 36 38 37 52 176 25 0 75 +15 36 216 0 38 16 0 17 38 0
 36 34 174 35 75 83 0 39 +17 37 0 36 174 34 63 41 116 0 0 -17 176 0 124 67 54 63
 174 25 0 37 -17 75 0 69 57 70 52 38 83 0 0 -17 57 0 69 78 75 55 54 84 0 24 -17
 78 0 69 71 57 45 150 104 0 79 -17 54 0 124 176 24 52 57 84 0 174 +17 24 0 124 5
4 67 55 177 10 0 150 +15 124 121 0 54 121 0 17 67 0 124 24 176 48 65 109 0 108 -
17 177 0 178 179 150 48 24 10 0 0 -17 150 0 178 177 47 55 78 104 0 0 +15 178 123
 0 150 18 0 17 47 0 178 150 179 45 60 147 0 78 +17 179 0 178 47 177 42 108 105 0
 180 -17 60 0 131 139 79 42 47 147 0 179 -15 131 117 0 79 127 0 17 139 0 131 81
 60 61 180 133 0 0 +17 79 0 131 60 81 45 71 80 0 0 -17 81 0 131 79 139 49 30 171
 0 71 +17 30 0 28 26 51 61 81 171 0 139 -17 180 0 181 108 31 42 139 133 0 0 -15
 181 210 0 41 182 183 17 108 0 181 65 180 48 179 105 0 177 +17 31 0 181 180 90 6
1 26 32 0 30 +17 90 0 181 31 41 11 89 92 0 0 -16 32 207 184 ?31 116 109 111 116
 116 1 81 1 184 355 97 32 0 0 185 115 186 16 116 17 185 ?41 133 32 111 32 32 1 8
1 1 185 354 97 116 0 0 138 184 187 17 41 0 181 90 65 27 37 116 0 89 +17 65 0 181
 41 108 63 67 109 0 176 +17 89 0 88 39 33 27 90 92 0 0 +80 255 1 97 0 188 8001 0
 0 0 0 3 5 0 0 0 FFFFTFTFFFFFFF2 81 1 138 353 97 133 0 0 145 185 189 83 255 3 18
7 .898039215686275 .917647058823529 .929411764705882 81 1 145 352 97 140 0 0 170
 138 190 83 3 189 .898039215686275 .917647058823529 .929411764705882 81 1 170 35
1 97 147 0 0 172 145 191 83 3 190 .898039215686275 .917647058823529 .92941176470
5882 81 1 172 350 97 171 0 0 173 170 192 83 3 191 .898039215686275 .917647058823
529 .929411764705882 83 3 192 .898039215686275 .917647058823529 .929411764705882
 79 255 15 188 SDL/TYSA_COLOUR81 1 115 356 97 109 0 0 184 107 193 83 3 186 .8980
39215686275 .917647058823529 .929411764705882 81 1 107 357 97 105 0 0 115 167 19
4 83 3 193 .898039215686275 .917647058823529 .929411764705882 81 1 167 358 97 11
0 0 0 107 162 195 83 3 194 .898039215686275 .917647058823529 .929411764705882 81
 1 162 359 97 80 0 0 167 158 196 83 3 195 .898039215686275 .917647058823529 .929
411764705882 81 1 158 360 97 83 0 0 162 82 197 83 3 196 .898039215686275 .917647
058823529 .929411764705882 81 1 82 361 97 72 0 0 158 153 198 83 3 197 .898039215
686275 .917647058823529 .929411764705882 81 1 153 362 97 84 0 0 82 149 199 83 3
 198 .898039215686275 .917647058823529 .929411764705882 81 1 149 363 97 104 0 0
 153 103 200 83 3 199 .898039215686275 .917647058823529 .929411764705882 81 1 10
3 364 97 40 0 0 149 91 201 83 3 200 .898039215686275 .917647058823529 .929411764
705882 81 1 91 365 97 86 0 0 103 98 202 83 3 201 .898039215686275 .9176470588235
29 .929411764705882 81 1 98 366 97 92 0 0 91 95 203 83 3 202 .898039215686275 .9
17647058823529 .929411764705882 83 3 203 .898039215686275 .917647058823529 .9294
11764705882 14 182 1 204 ?73 130 181 5 205 +0 0 73 130 22 15 183 5 0 206 182 0 1
7 206 0 183 206 206 0 146 140 0 0 -17 146 0 207 146 146 0 206 140 0 0 +15 207 11
3 0 146 130 208 14 130 114 209 ?182 127 207 5 128 +0 0 182 127 22 15 208 115 0 2
10 130 0 17 210 0 208 210 210 0 168 110 0 0 -17 168 0 74 168 168 0 210 110 0 0 +
15 74 68 0 168 73 0 14 73 66 211 ?94 182 69 5 132 -0 0 94 182 22 81 1 211 339 97
 73 0 0 204 212 213 14 94 250 212 ?0 73 88 5 214 +0 0 0 73 22 50 132 99 0 73 205
 128 0 +-.0238042778731704 .1880943300182185 -.1972498656090085 575586988365149e
-31 .924054872131514 .382259850481333 .1677762097837535 -.3768413583591135 .9109
56494054824 13 22 47 0 0 0 0 0 0 9 16 14 16 217 215 ?18 0 36 5 122 -87 87 18 0 2
2 81 1 215 332 97 16 0 0 0 216 217 14 18 124 216 ?121 16 178 5 6 -0 0 121 16 22
 81 1 216 333 97 18 0 0 215 123 218 81 1 123 334 97 121 0 0 216 126 219 83 3 218
 .898039215686275 .917647058823529 .929411764705882 81 1 126 335 97 87 0 0 123 1
29 220 83 3 219 .898039215686275 .917647058823529 .929411764705882 81 1 129 336
 97 127 0 0 126 209 221 83 3 220 .898039215686275 .917647058823529 .929411764705
882 81 1 209 337 97 130 0 0 129 204 222 83 3 221 .898039215686275 .9176470588235
29 .929411764705882 81 1 204 338 97 182 0 0 209 211 223 83 3 222 .89803921568627
5 .917647058823529 .929411764705882 83 3 223 .898039215686275 .917647058823529 .
929411764705882 83 3 217 .898039215686275 .917647058823529 .929411764705882 50 2
05 3 0 182 214 132 0 +-.0238042778731704 .1899424397624815 -.1964853459080455 57
5586988365149e-31 .924054872131514 .382259850481333 .1677762097837535 -.37684135
83591135 .910956494054824 51 214 266 0 94 0 205 0 +.00595982387181493 .182246799
888105 -.1778823105352935 -575586988365149e-31 -.924054872131514 -.3822598504813
33 .00287089896178848 -.1677762097837535 .3768413583591135 -.910956494054824 81
 1 212 340 97 94 0 0 211 23 224 81 1 23 348 97 10 0 0 212 173 225 83 3 224 .8980
39215686275 .917647058823529 .929411764705882 83 3 225 .898039215686275 .9176470
58823529 .929411764705882 83 3 213 .898039215686275 .917647058823529 .9294117647
05882 83 3 175 .898039215686275 .917647058823529 .929411764705882 83 3 99 .89803
9215686275 .917647058823529 .929411764705882 19 17 135 0 1 0 9 5 S0 74 4 CI16 in
dex_map_offset0 0 1 dCCZ20 15 7 0 0 226 95 227 228 229 13 2 0 0 0 0 0 0 0 0 0 0
 0 0 0 81 2 226 294 230 1 0 227 0 0 231 0 81 1 227 341 232 1 226 228 0 0 233 81
 1 228 344 234 1 227 229 0 0 235 81 1 229 345 236 1 228 13 0 0 237 81 1 13 346 2
38 1 229 2 0 0 239 80 1 238 234 240 9000 0 0 0 0 3 5 0 0 0 FFTFFFFFFFFFFF3 84 25
5 16 239 _06_bar_bottom_779 13 240 AdamsPartName80 1 236 238 241 9000 0 0 0 0 3
 5 0 0 0 FFTFFFFFFFFFFF3 84 6 237 PSMAR279 12 241 AdamsRFMName80 1 234 242 243 9
000 0 0 0 0 3 5 0 0 0 FFTFFFFFFFFFFF1 82 255 1 235 36 79 12 243 UG2/ADAMS_ID80 1
 232 244 245 8017 0 0 0 0 0 0 0 0 0 TTTTTTTTTTTTTF3 84 15 233 04_motorsupport79
 13 245 SDL/TYSA_NAME80 2 230 246 247 8004 0 0 0 0 3 5 0 0 0 FFTFFFFFFFFFFF2 3 8
3 1 231 27e2 79 16 247 SDL/TYSA_DENSITY80 1 12 236 248 9000 0 0 0 0 3 5 0 0 0 FF
TFFFFFFFFFFF3 84 7 14 SOLID4279 15 248 AdamsObjectName1 0 
