**ABCDEFGHIJKLMNOPQRSTUVWXYZabcdefghijklmnopqrstuvwxyz**************************
**PARASOLID !"#$%&'()*+,-./:;<=>?@[\]^_`{|}~0123456789**************************
**PART1;
MC=unknown;
MC_MODEL=unknown;
MC_ID=unknown;
OS=unknown;
OS_RELEASE=unknown;
FRU=sdl_parasolid_customer_support;
APPL=parasolid_acceptance_tests;
SITE=unknown;
USER=unknown;
FORMAT=text;
GUISE=transmit;
KEY=Controls_Plant_1_Tensegrity__06_bar_bottom_4_SOLID16;
FILE=Controls_Plant_1_Tensegrity__06_bar_bottom_4_SOLID16.xmt_txt;
DATE=unknown;
**PART2;
SCH=SCH_3101206_31100;
USFLD_SIZE=1;
**PART3;
**END_OF_HEADER*****************************************************************
T51 : TRANSMIT FILE created by modeller version 310120623 SCH_3101206_31100_1300
6222 0 12 34 CCCCCCI4 mesh1006 0 I8 polyline1008 0 CCCCCCCDI5 owner1040 0 CCCCCC
I13 boundary_mesh1006 0 I17 boundary_polyline1008 0 CCCA16 index_map_offset0 0 1
 dA9 index_map82 0 A17 node_id_index_map82 0 A20 schema_embedding_map82 0 A5 chi
ld12 0 A14 lowest_node_id0 0 1 dA16 mesh_offset_data206 0 Z1 295 2 3 0 0 0 0 0 0
 1e3 1e-8 0 4 0 1 0 1 1 5 6 7 8 0 0 9 10 11 0 0 0 0 0 0 0 81 255 1 2 281 12 1 13
 0 0 0 14 70 11 CI9 list_type0 0 1 uI10 notransmit0 0 1 lCCCDCCDI12 finger_index
0 0 1 dI12 finger_block1012 0 CZ3 0 4 T1 0 0 7 20 1 15 15 13 255 5 99 0 1 0 16 0
 0 17 0 50 255 6 94 0 16 18 0 0 +.0788664436486591 .2919460859036905 -.050748059
6228743 .98582510793274 .1550344240784365 .0641341088662624 -746741572942205e-31
 .382259850481334 -.924054872131514 30 255 7 98 0 10 19 0 0 +.0788664436486591 .
2881234873988775 -.04150751090155915 .1677762097837535 -.910956494054823 -.37684
13583591135 29 255 8 75 0 20 21 0 .100677350920547 .1735217416765635 -.099737436
2095591 19 8 CCCCCCCA5 owner12 0 Z9 33 0 1 17 0 22 V0 16 255 10 82 23 ?24 0 25 7
 0 0 1 18 255 11 30 0 26 0 27 28 ?1 17 255 26 0 29 30 31 11 32 33 0 34 +18 27 27
 0 31 11 35 36 ?1 29 28 32 0 11 36 37 .0788664436486591 .2919460859036905 -.0507
480596228743 29 36 29 0 27 38 28 .0887246947279865 .293496430144475 -.0501067185
342117 29 37 78 0 39 28 40 .100677350920547 .1696991431717505 -.0904968874882439
 18 39 69 0 41 42 0 37 ?1 29 40 77 0 42 37 21 .1105356019998744 .171249487412534
5 -.0898555463995813 18 42 68 0 43 44 39 40 ?1 29 21 76 0 44 40 8 .1105356019998
744 .175072085917348 -.0990960951208964 18 44 67 0 45 20 42 21 ?1 17 45 0 46 47
 48 44 49 50 0 51 +18 20 66 0 52 53 44 8 ?1 17 52 0 54 34 51 20 55 56 0 57 +18 5
3 21 0 58 35 20 59 ?1 17 58 0 60 24 61 53 62 63 0 30 -18 35 24 0 62 27 53 38 ?1
 29 59 23 0 53 0 38 .0788664436486591 .2881234873988775 -.04150751090155915 29 3
8 26 0 35 59 36 .0887246947279865 .2896738316396615 -.0408661698128965 17 62 0 2
9 31 30 35 58 63 0 61 +15 255 29 4 0 30 64 0 17 31 0 29 26 62 27 65 66 0 47 +17
 30 0 29 62 26 53 67 68 0 69 +16 63 9 70 ?62 66 68 71 0 0 1 17 61 0 60 58 43 35
 48 25 0 65 -15 60 87 0 43 72 0 17 43 0 60 61 24 42 41 73 0 48 +17 48 0 46 45 65
 42 61 25 0 49 +16 25 81 74 ?48 10 75 19 0 0 1 17 65 0 46 48 47 35 31 66 0 0 -15
 46 85 0 45 76 0 17 47 0 46 65 45 27 51 75 0 32 -16 66 13 77 ?31 33 63 78 0 0 1
 81 1 77 287 79 66 0 0 80 70 81 16 33 17 80 ?26 82 66 83 0 0 1 30 78 15 0 66 71
 83 0 +.0887246947279865 .293496430144475 -.0501067185342117 -746741572942205e-3
1 .382259850481334 -.924054872131514 30 71 11 0 63 84 78 0 +.0887246947279865 .2
896738316396615 -.0408661698128965 .98582510793274 .1550344240784365 .0641341088
662624 30 83 19 0 33 78 85 0 +.0887246947279865 .293496430144475 -.0501067185342
117 -.98582510793274 -.1550344240784365 -.0641341088662624 30 85 74 0 86 83 87 0
 +.100677350920547 .1735217416765635 -.0997374362095591 746741572942205e-31 -.38
2259850481334 .924054872131514 16 86 62 88 ?89 73 90 85 0 0 1 30 87 73 0 73 85 9
1 0 +.1105356019998744 .1712494874125345 -.0898555463995813 .98582510793274 .155
0344240784365 .0641341088662624 16 73 58 92 ?43 50 86 87 0 0 1 30 91 72 0 50 87
 93 0 +.1105356019998744 .175072085917348 -.0990960951208964 -746741572942205e-3
1 .382259850481334 -.924054872131514 16 50 54 94 ?45 56 73 91 0 0 1 30 93 71 0 5
6 91 95 0 +.1105356019998744 .175072085917348 -.0990960951208964 -.9858251079327
4 -.1550344240784365 -.0641341088662624 16 56 50 96 ?52 68 50 93 0 0 1 30 95 95
 0 82 93 97 0 +.0788664436486591 .2919460859036905 -.0507480596228743 .167776209
7837535 -.910956494054823 -.3768413583591135 16 82 79 98 ?57 75 33 95 0 0 1 30 9
7 96 0 75 95 19 0 +.0887246947279865 .293496430144475 -.0501067185342117 .167776
2097837535 -.910956494054823 -.3768413583591135 16 75 80 99 ?51 25 82 97 0 0 1 3
0 19 97 0 25 97 7 0 +.0887246947279865 .2896738316396615 -.0408661698128965 .167
7762097837535 -.910956494054823 -.3768413583591135 81 1 99 284 79 75 0 0 74 98 1
00 17 51 0 54 52 32 44 47 75 0 55 +15 54 83 0 52 101 0 17 32 0 54 51 34 27 26 33
 0 0 -17 55 0 102 49 103 44 52 56 0 0 -15 102 49 0 103 104 0 17 49 0 102 41 55 4
2 45 50 0 0 -17 103 0 102 55 41 20 89 86 0 0 -17 41 0 102 103 49 39 43 73 0 24 -
17 89 0 105 69 57 39 103 86 0 0 +15 105 89 0 89 16 0 17 69 0 105 67 89 53 24 10
 0 0 -17 57 0 105 89 67 20 34 82 0 103 +17 67 0 105 57 69 11 30 68 0 0 -17 34 0
 54 32 52 11 57 82 0 67 -16 68 5 106 ?30 63 56 84 0 0 1 81 1 106 289 79 68 0 0 7
0 96 107 30 84 7 0 68 108 71 0 +.0788664436486591 .2919460859036905 -.0507480596
228743 746741572942205e-31 -.382259850481334 .924054872131514 31 255 108 209 0 1
09 110 84 0 +.0837955691883228 .290809958771676 -.0458071147178854 .167776209783
7535 -.910956494054823 -.3768413583591135 746741572942205e-31 -.382259850481334
 .924054872131514 .004 16 109 187 111 ?112 90 0 108 0 0 1 31 110 210 0 90 0 108
 0 +.1056064764602108 .172385614544549 -.0947964913045702 .1677762097837535 -.91
0956494054823 -.3768413583591135 746741572942205e-31 -.382259850481334 .92405487
2131514 .004 16 90 190 113 ?114 86 109 110 0 0 1 81 1 113 294 79 90 0 0 88 111 1
15 17 114 0 116 114 114 0 117 90 0 0 +15 116 196 0 114 118 119 17 117 0 120 117
 117 0 114 90 0 0 -15 120 173 0 117 104 102 14 255 104 48 121 ?118 64 120 5 122
 +0 0 118 64 22 81 1 121 273 79 104 0 0 123 124 125 14 118 193 124 ?0 104 116 5
 126 +0 0 0 104 22 14 64 1 123 ?104 101 127 5 128 -0 0 104 101 22 50 122 70 0 10
4 128 129 0 +.1056064764602108 .172385614544549 -.0947964913045702 .167776209783
7535 -.910956494054823 -.3768413583591135 746741572942205e-31 -.382259850481334
 .924054872131514 13 22 34 0 0 0 0 0 0 9 16 14 16 90 130 ?72 0 105 5 6 -0 0 72 0
 22 81 1 130 268 79 16 0 0 0 131 132 14 72 88 131 ?76 16 60 5 18 -0 0 76 16 22 8
1 1 131 269 79 72 0 0 130 133 134 14 76 86 133 ?101 72 46 5 135 -0 0 101 72 22 5
0 18 93 0 72 135 6 0 +.0887246947279865 .2896738316396615 -.0408661698128965 -74
6741572942205e-31 .382259850481334 -.924054872131514 -.98582510793274 -.15503442
40784365 -.0641341088662624 50 135 92 0 76 129 18 0 +.0887246947279865 .29349643
0144475 -.0501067185342117 -.98582510793274 -.1550344240784365 -.064134108866262
4 746741572942205e-31 -.382259850481334 .924054872131514 50 129 91 0 101 122 135
 0 +.0887246947279865 .293496430144475 -.0501067185342117 746741572942205e-31 -.
382259850481334 .924054872131514 .98582510793274 .1550344240784365 .064134108866
2624 14 101 84 136 ?64 76 54 5 129 -0 0 64 76 22 81 1 136 271 79 101 0 0 133 123
 137 80 255 1 79 0 138 8001 0 0 0 0 3 5 0 0 0 FFFFTFTFFFFFFF2 81 1 133 270 79 76
 0 0 131 136 139 81 1 123 272 79 64 0 0 136 121 140 83 255 3 137 1 1 1 83 3 140
 1 1 1 83 3 139 1 1 1 79 255 15 138 SDL/TYSA_COLOUR83 3 134 1 1 1 83 3 132 1 1 1
 50 128 3 0 64 126 122 0 +.0837955691883228 .290809958771676 -.0458071147178854
 .1677762097837535 -.910956494054823 -.3768413583591135 746741572942205e-31 -.38
2259850481334 .924054872131514 51 255 126 206 0 118 0 128 0 -.1056064764602108 .
172385614544549 -.0947964913045702 -.1677762097837535 .910956494054823 .37684135
83591135 .004 -746741572942205e-31 .382259850481334 -.924054872131514 15 127 181
 0 112 64 29 17 112 0 127 112 112 0 141 109 0 0 +17 141 0 119 141 141 0 112 109
 0 0 -15 119 197 0 141 118 0 81 1 124 274 79 118 0 0 121 23 142 81 1 23 282 79 1
0 0 0 124 74 143 83 3 142 1 1 1 81 1 74 283 79 25 0 0 23 99 144 83 3 143 1 1 1 8
3 3 144 1 1 1 83 3 125 1 1 1 81 1 88 293 79 86 0 0 92 113 145 81 1 111 295 79 10
9 0 0 113 0 146 83 3 115 1 1 1 83 3 146 1 1 1 81 1 92 292 79 73 0 0 94 88 147 83
 3 145 1 1 1 81 1 94 291 79 50 0 0 96 92 148 83 3 147 1 1 1 81 1 96 290 79 56 0
 0 106 94 149 83 3 148 1 1 1 83 3 149 1 1 1 81 1 70 288 79 63 0 0 77 106 150 83
 3 107 1 1 1 83 3 150 1 1 1 17 24 0 60 43 58 39 69 10 0 89 +81 1 98 285 79 82 0
 0 99 80 151 83 3 100 1 1 1 81 1 80 286 79 33 0 0 98 77 152 83 3 151 1 1 1 83 3
 152 1 1 1 83 3 81 1 1 1 19 17 100 0 1 0 9 5 S0 74 4 CI16 index_map_offset0 0 1
 dCCZ20 15 7 0 0 153 111 154 155 156 13 2 0 0 0 0 0 0 0 0 0 0 0 0 0 81 2 153 144
 157 1 0 154 0 0 158 0 81 1 154 275 159 1 153 155 0 0 160 81 1 155 278 161 1 154
 156 0 0 162 81 1 156 279 163 1 155 13 0 0 164 81 1 13 280 165 1 156 2 0 0 166 8
0 1 165 161 167 9000 0 0 0 0 3 5 0 0 0 FFTFFFFFFFFFFF3 84 255 16 166 _06_bar_bot
tom_479 13 167 AdamsPartName80 1 163 165 168 9000 0 0 0 0 3 5 0 0 0 FFTFFFFFFFFF
FF3 84 5 164 PSMAR79 12 168 AdamsRFMName80 1 161 169 170 9000 0 0 0 0 3 5 0 0 0
 FFTFFFFFFFFFFF1 82 255 1 162 17 79 12 170 UG2/ADAMS_ID80 1 159 171 172 8017 0 0
 0 0 0 0 0 0 0 TTTTTTTTTTTTTF3 84 13 160 06_bar_bottom79 13 172 SDL/TYSA_NAME80
 2 157 173 174 8004 0 0 0 0 3 5 0 0 0 FFTFFFFFFFFFFF2 3 83 1 158 2e3 79 16 174 S
DL/TYSA_DENSITY80 1 12 163 175 9000 0 0 0 0 3 5 0 0 0 FFTFFFFFFFFFFF3 84 7 14 SO
LID1679 15 175 AdamsObjectName1 0 
