**ABCDEFGHIJKLMNOPQRSTUVWXYZabcdefghijklmnopqrstuvwxyz**************************
**PARASOLID !"#$%&'()*+,-./:;<=>?@[\]^_`{|}~0123456789**************************
**PART1;
MC=unknown;
MC_MODEL=unknown;
MC_ID=unknown;
OS=unknown;
OS_RELEASE=unknown;
FRU=sdl_parasolid_customer_support;
APPL=parasolid_acceptance_tests;
SITE=unknown;
USER=unknown;
FORMAT=text;
GUISE=transmit;
KEY=Controls_Plant_1_Tensegrity__06_bar_bottom_SOLID3;
FILE=Controls_Plant_1_Tensegrity__06_bar_bottom_SOLID3.xmt_txt;
DATE=unknown;
**PART2;
SCH=SCH_3101206_31100;
USFLD_SIZE=1;
**PART3;
**END_OF_HEADER*****************************************************************
T51 : TRANSMIT FILE created by modeller version 310120623 SCH_3101206_31100_1300
6222 0 12 34 CCCCCCI4 mesh1006 0 I8 polyline1008 0 CCCCCCCDI5 owner1040 0 CCCCCC
I13 boundary_mesh1006 0 I17 boundary_polyline1008 0 CCCA16 index_map_offset0 0 1
 dA9 index_map82 0 A17 node_id_index_map82 0 A20 schema_embedding_map82 0 A5 chi
ld12 0 A14 lowest_node_id0 0 1 dA16 mesh_offset_data206 0 Z1 1009 2 3 0 0 0 0 0
 0 1e3 1e-8 0 4 0 1 0 1 1 5 6 7 8 0 0 9 10 11 0 0 0 0 0 0 0 81 255 1 2 976 12 1
 13 0 0 0 14 70 11 CI9 list_type0 0 1 uI10 notransmit0 0 1 lCCCDCCDI12 finger_in
dex0 0 1 dI12 finger_block1012 0 CZ3 0 4 T1 0 0 7 20 1 15 15 13 255 5 99 0 1 0 1
6 0 0 17 0 50 255 6 94 0 18 19 0 0 +-.0795588007961224 .0207444949182027 -.16401
9990519112 -.98582510793274 -.155034424078436 -.0641341088662618 513233717815766
e-30 -.382259850481334 .924054872131514 38 12 CCCCCCCCCCCA17 intersection_data20
4 0 Z7 637 0 20 21 0 0 +22 23 24 25 25 26 29 255 8 137 0 11 27 0 -.0904028769833
825 .01483425789804522 -.154560862123194 19 8 CCCCCCCA5 owner12 0 Z9 33 0 1 17 0
 28 V0 16 255 10 82 29 ?30 0 31 32 0 0 1 18 255 11 135 0 33 0 34 8 ?1 17 255 33
 0 35 36 37 11 38 39 0 40 -18 34 30 0 41 11 42 27 ?1 17 41 0 43 44 45 34 46 47 0
 48 +18 42 27 0 45 34 49 50 ?1 29 27 32 0 34 50 8 -.0795588007961224 .0161573767
124267 -.1529313320535335 29 50 29 0 42 51 27 -.0913887020913152 .01429696362348
546 -.153700941359929 29 51 26 0 49 52 50 -.0913887020913152 .01888408182926145
 -.164789599825507 18 49 24 0 53 42 54 51 ?1 29 52 23 0 54 55 51 -.0795588007961
224 .0207444949182027 -.164019990519112 18 54 21 0 56 49 57 52 ?1 29 55 232 0 58
 59 52 -.088725114885545 .005724692957497 -.158329275706785 18 58 183 0 38 60 61
 55 ?1 29 59 233 0 61 62 55 -.088725114885545 .00954729146231034 -.1675698244281
005 18 61 181 0 63 58 64 59 ?1 29 62 234 0 64 65 59 -.0788668638062176 .01109763
57030947 -.1669284833394375 18 64 188 0 66 61 67 62 ?1 29 65 235 0 57 68 62 -.08
05446259040551 .0163846021388296 -.1539195210345315 18 57 187 0 36 54 69 65 ?1 2
9 68 237 0 69 70 65 -.0904028769833825 .01865685640285855 -.163801410844509 18 6
9 185 0 71 57 60 68 ?1 29 70 238 0 60 72 68 -.0805446259040551 .0202072006436429
5 -.1631600697558465 18 60 182 0 73 69 58 70 ?1 29 72 377 0 67 74 70 -.078866863
8062176 .00727503719828136 -.1576879346181225 18 67 318 0 75 64 76 72 ?1 29 74 3
81 0 76 77 72 -.0773777100689336 .00890206049549 -.1689189281777805 18 76 327 0
 78 67 79 74 ?1 29 77 584 0 79 80 74 -.0897109399934777 .00977451688871323 -.168
558013409098 18 79 553 0 81 76 82 77 ?1 29 80 585 0 82 83 77 -.0897109399934777
 .00518739868293723 -.15746935494352 18 82 554 0 84 79 85 80 ?1 29 83 587 0 85 8
6 80 -.0773777100689336 .00431494228971399 -.157830269712202 18 85 555 0 87 82 8
8 83 ?1 29 86 588 0 88 0 83 -.083925979416728 .00243793468115369 -.1650998646793
335 18 88 552 0 89 85 0 86 ?1 17 89 0 90 89 89 88 0 0 0 0 ?15 255 90 567 0 89 91
 0 14 255 91 563 92 ?93 94 95 5 22 -0 0 93 94 28 81 1 92 965 96 91 0 0 97 98 99
 14 93 757 98 ?100 91 101 5 102 -0 0 100 91 28 14 94 556 97 ?91 103 104 5 105 +0
 0 91 103 28 15 95 635 0 106 91 107 68 255 22 576 0 91 105 108 109 +110 -.083544
3250312057 .00704472958921361 -.16319414156065 .0763308771044597 .92135898161198
4 .381144623736701 -.083925979416728 .00243793468115369 -.1650998646793335 ?0 ?.
99708254282204 -.0705339188824476 -.0291782296690602 0 13 28 34 0 0 0 0 0 0 9 16
 14 16 453 111 ?112 0 113 5 19 -0 0 112 0 28 81 1 111 954 96 16 0 0 0 114 115 14
 112 447 114 ?116 16 117 5 118 -0 0 116 16 28 15 113 451 0 119 16 0 50 19 93 0 1
6 118 6 0 +-.0913887020913152 .01888408182926145 -.164789599825507 3707225546542
415e-31 -.382259850481334 .924054872131514 .98582510793274 .155034424078436 .064
1341088662619 50 118 92 0 112 120 19 0 +-.0913887020913152 .01888408182926145 -.
164789599825507 .98582510793274 .155034424078436 .0641341088662619 -441978136235
0035e-31 .382259850481334 -.924054872131514 50 120 91 0 116 121 118 0 +-.0913887
020913152 .01429696362348546 -.153700941359929 -3707225546542415e-31 .3822598504
81334 -.924054872131514 -.98582510793274 -.155034424078436 -.0641341088662619 14
 116 438 122 ?123 112 124 5 120 -0 0 123 112 28 50 121 3 0 123 125 120 0 +-.0854
737514437188 .0175207292708441 -.1588604659395205 -.167776209783753 .91095649405
4823 .376841358359114 3707225546542415e-31 -.382259850481334 .924054872131514 14
 123 150 126 ?18 116 43 5 121 +0 0 18 116 28 50 125 213 0 127 128 121 0 +-.08054
46259040551 .0163846021388296 -.1539195210345315 -.98582510793274 -.155034424078
436 -.0641341088662619 3707225546542415e-31 -.382259850481334 .924054872131514 1
4 127 189 129 ?130 18 131 5 125 +0 0 130 18 28 50 128 214 0 130 132 125 0 +-.090
4028769833825 .01865685640285855 -.163801410844509 3707225546542415e-31 -.382259
850481334 .924054872131514 .98582510793274 .155034424078436 .0641341088662619 14
 130 193 133 ?134 127 135 5 128 +0 0 134 127 28 50 132 215 0 134 136 128 0 +-.09
04028769833825 .01483425789804522 -.154560862123194 .98582510793274 .15503442407
8436 .0641341088662619 -3707225546542415e-31 .382259850481334 -.924054872131514
 14 134 197 137 ?138 130 139 5 132 +0 0 138 130 28 50 136 216 0 138 108 132 0 +-
.0904028769833825 .01483425789804522 -.154560862123194 -3707225546542415e-31 .38
2259850481334 -.924054872131514 -.98582510793274 -.155034424078436 -.06413410886
62619 14 138 201 140 ?103 134 35 5 136 +0 0 103 134 28 50 108 360 0 103 22 136 0
 +-.0897109399934777 .00518739868293723 -.15746935494352 -.167776209783753 .9109
56494054823 .376841358359114 3707225546542415e-31 -.382259850481334 .92405487213
1514 14 103 337 141 ?94 138 142 5 108 +0 0 94 138 28 81 1 141 963 96 103 0 0 140
 97 143 15 142 340 0 144 103 0 17 144 0 142 145 146 67 37 147 0 0 +17 145 0 142
 148 144 64 149 150 0 0 +17 146 0 142 144 148 58 151 152 0 0 +17 37 0 35 33 75 5
8 144 147 0 146 -16 147 165 153 ?144 154 152 155 0 0 1 81 1 153 993 96 147 0 0 1
56 157 158 16 154 169 156 ?73 159 147 160 0 0 1 16 152 161 157 ?146 147 161 162
 0 0 1 30 255 155 223 0 147 162 163 0 +-.088725114885545 .005724692957497 -.1583
29275706785 .98582510793274 .155034424078436 .0641341088662619 30 162 224 0 152
 164 155 0 +-.088725114885545 .005724692957497 -.158329275706785 370722554654241
5e-31 -.382259850481334 .924054872131514 30 163 222 0 165 155 166 0 +-.080544625
9040551 .0163846021388296 -.1539195210345315 .167776209783753 -.910956494054823
 -.376841358359114 16 165 156 167 ?75 39 168 163 0 0 1 30 166 221 0 39 163 169 0
 +-.0904028769833825 .01483425789804522 -.154560862123194 .167776209783753 -.910
956494054823 -.376841358359114 16 39 168 170 ?38 171 165 166 0 0 1 30 169 220 0
 171 166 172 0 +-.0904028769833825 .01865685640285855 -.163801410844509 .1677762
09783753 -.910956494054823 -.376841358359114 16 171 164 173 ?63 174 39 169 0 0 1
 30 172 219 0 174 169 175 0 +-.0805446259040551 .02020720064364295 -.16316006975
58465 .167776209783753 -.910956494054823 -.376841358359114 16 174 160 176 ?177 1
78 171 172 0 0 1 30 175 7 0 178 172 179 0 +-.0795588007961224 .0207444949182027
 -.164019990519112 -513233717815766e-30 .382259850481334 -.924054872131514 16 17
8 5 180 ?44 181 174 175 0 0 1 30 179 11 0 181 175 182 0 +-.0913887020913152 .018
88408182926145 -.164789599825507 -.98582510793274 -.155034424078436 -.0641341088
662619 16 181 9 183 ?53 184 178 179 0 0 1 30 182 15 0 184 179 185 0 +-.091388702
0913152 .01888408182926145 -.164789599825507 4419781362350035e-31 -.382259850481
334 .924054872131514 16 184 13 186 ?45 47 181 182 0 0 1 30 185 19 0 47 182 187 0
 +-.0913887020913152 .01429696362348546 -.153700941359929 .98582510793274 .15503
4424078436 .0641341088662619 16 47 17 188 ?41 189 184 185 0 0 1 30 187 95 0 189
 185 190 0 +-.0795588007961224 .0161573767124267 -.1529313320535335 .16777620978
3753 -.910956494054823 -.376841358359114 16 189 79 191 ?192 193 47 187 0 0 1 30
 190 96 0 193 187 194 0 +-.0913887020913152 .01429696362348546 -.153700941359929
 .167776209783753 -.910956494054823 -.376841358359114 16 193 80 195 ?196 31 189
 190 0 0 1 30 194 97 0 31 190 32 0 +-.0913887020913152 .01888408182926145 -.1647
89599825507 .167776209783753 -.910956494054823 -.376841358359114 16 31 81 197 ?1
98 10 193 194 0 0 1 30 32 98 0 10 194 199 0 +-.0795588007961224 .020744494918202
7 -.164019990519112 .167776209783753 -.910956494054823 -.376841358359114 38 199
 616 0 200 32 201 0 +22 102 202 203 203 204 16 200 750 205 ?206 207 208 199 0 0
 1 38 201 623 0 207 199 21 0 +22 209 210 211 211 212 51 255 102 781 0 93 23 105
 213 +-.0942595469015526 .00508023360453846 -.169417741603045 .0763308771044597
 .921358981611984 .381144623736701 .0015 -.99708254282204 .0705339188824476 .029
1782296690602 40 255 20 202 0 1 20 .0001210783316122568 .394746200992838 ??-.095
5340920220006 .00785458550557781 -.1682700572231905 -.0954358463931251 .00746958
116343402 -.1678143322197555 -.0952015975120651 .00711843772446646 -.16751768801
43125 -.0948160241548227 .00674821421198448 -.167312045227895 -.094313879335342
 .00642167480085963 -.1672558132390945 -.0937730616101067 .00619866836432726 -.1
673757193864045 -.0932889209454792 .00611183389053208 -.167648619939973 -.092927
8633814385 .00615460797915051 -.168015563680051 -.092711031565035 .0062993382408
7585 -.1684195262756835 -.0926358805817583 .00652058869088038 -.1688235908437995
 -.0926991700460242 .00680122335782398 -.1692021958665575 -.092902219127564 .007
12621950577751 -.1695273935866655 -.0932435332417634 .00747411522192685 -.169761
7800871535 -.0937049726684979 .00780999903174322 -.169860698680557 -.09423684361
61083 .00808366873256871 -.1697870453667155 -.0947538319156065 .0082403368333661
4 -.16953912215057 -.0951620071335802 .00825059158053497 -.1691730454370455 -.09
54152720657042 .00813481203130648 -.1687732683514015 -.0955257531389313 .0079318
3667396892 -.1683861760229075 -.0955340920220006 .00785458550557781 -.1682700572
231905 41 3 CI8 term_use0 0 1 cCZ1 203 H?-.0955340920220006 .00785458550557781 -
.1682700572231905 204 2 17 INTERSECTION_DATA17 Intersection data7 uv_type0 0 1 u
6 values0 1 1 fT80 204 4 .708259191794688 2.742732723534485 0 .00289632062635006
 .683720314160835 2.78097921444196 .388561716994278 .002722789727741735 .6561231
98936286 2.805106681191895 .709015413807986 .002530205333034065 .622051557002263
 2.82044444565117 1.059514403069732 .002296907369604595 .585910425886588 2.82070
923560036 1.429074205702946 .002055809025032175 .553476399196495 2.8018467544326
85 1.80396733304241 .00184591954969648 .530090157154808 2.76549316932871 2.16792
986617833 .00169885413011718 .518265165993516 2.719076157510695 2.51053451172877
 .00162596562765003 .517600129064648 2.671150218859495 2.832430464744 .001621896
945415775 .526639199876373 2.627861078856155 3.142633997833545 .0016774773374021
35 .544164123275438 2.59320538733565 3.45236365742504 .001786908399079365 .56920
7539437452 2.570233138694305 3.7713497604976 .001946900241825925 .60046551988293
8 2.561399316620065 4.106501211638015 .002152049124322125 .635535718389772 2.568
108192560935 4.46085156094372 .00238859432303781 .670220962851334 2.589812428031
615 4.83162556462176 .002628216748542075 .698573995034901 2.623059272225365 5.20
712253332248 .00282759674092379 .715154132123115 2.661477350254775 5.56609823601
232 .002945416843166865 .718849162539251 2.69879250257116 5.89186487497509 .0029
717832680756 .712131249955612 2.732787165423285 6.1918382139073 .002923875142219
055 .708259191794688 2.742732723534485 6.28318530717958 .002896320626350065 51 2
3 784 0 214 215 102 216 +-.0942595469015526 .001257635099725124 -.16017719288173
 .0763308771044597 .921358981611984 .381144623736701 .0015 -.99708254282204 .070
5339188824476 .0291782296690602 50 105 577 0 94 102 22 0 +-.0839070670878099 .00
707039007136724 -.163183526420395 .0763308771044597 .921358981611984 .3811446237
36701 -.99708254282204 .0705339188824476 .0291782296690602 141 255 213 199 213 2
13 102 14 214 685 217 ?0 218 219 5 23 -0 0 0 218 28 51 215 787 0 218 209 23 220
 +-.0763120611307559 -.001923274692565605 -.1560821266551155 .0763308771044597 .
921358981611984 .381144623736701 .0015 -.99708254282204 .0705339188824476 .02917
82296690602 141 216 7 216 216 23 14 218 709 221 ?214 100 222 5 215 -0 0 214 100
 28 51 209 790 0 100 0 215 223 +-.0763120611307559 .00572192231706107 -.17456322
4097746 .0763308771044597 .921358981611984 .381144623736701 .0015 -.997082542822
04 .0705339188824476 .0291782296690602 141 220 21 220 220 215 38 21 630 0 224 20
1 7 0 +22 215 225 226 226 227 16 224 702 228 ?229 20 207 21 0 0 1 40 20 225 0 1
 20 .000119864690545316 .380142744490503 ??-.077631071328695 .000314357337451679
 -.1551564707108385 -.0775152618773026 .0003278459496940095 -.154575041021126 -.
0772270187582961 .0003916662209959445 -.154062558866376 -.0767694128176999 .0005
12747061662242 -.1536382323884655 -.0761869344398902 .000683271073007058 -.15338
7435328859 -.0756961396968103 .000829568604852901 -.1533624611737275 -.075294530
1262146 .000939878221700195 -.153483752500445 -.0749516725448788 .00101542128509
5876 -.153740873388137 -.0747234351204288 .00104603429014963 -.1540747781353705
 -.0745892951768472 .00104414158196828 -.15449164576179 -.0745737680439758 .0010
1241048930408 -.155004043590956 -.0747295332649392 .000951642334236591 -.1555767
21980372 -.0750863796325231 .000865297576391769 -.1561124085897305 -.07560443389
5857 .000760494247079775 -.1564912221005755 -.0761794737795152 .0006489019474249
61 -.156640966708494 -.0767038557219655 .000543908788013412 -.156571566583506 -.
0771205583383033 .00045436028109482 -.1563401188375145 -.0774167706393717 .00038
37592472079685 -.155997223223689 -.077589521507302 .0003348671420999385 -.155572
1366995095 -.077631071328695 .000314357337451679 -.1551564707108385 41 1 226 H?-
.077631071328695 .000314357337451679 -.1551564707108385 204 80 227 4 .6245442638
11734 5.26276279081891 0 .002313789949671755 .659940776151119 5.24681666510487 .
3626408036386625 .00255666644102724 .699308660287466 5.24695794205465 .713108948
221088 .002832799489337355 .742449898619514 5.26189765328454 1.08592027575626 .0
0314101762796496 .783514676263321 5.29045043953997 1.478857143469604 .0034381824
9378869 .808482160026145 5.32042929651565 1.7998613889223 .003619956596920835 .8
20281479369722 5.34980956702325 2.084260938908305 .00370601702685408 .8199762037
44029 5.38074288381337 2.37539472110091 .003703789682723265 .808783122073746 5.4
0817068139936 2.64104997341022 .00362215081343175 .788132852205286 5.43421295798
677 2.916108439779695 .00347175911467787 .757337060025069 5.45870573524814 3.225
682834846865 .00324841090932536 .717514977111736 5.47756217889745 3.576466287606
53 .00296225863866344 .673523662341662 5.48392452539921 3.958882552481725 .00265
129165311405 .632929360994268 5.47203718414308 4.35253760158105 .002370803894984
15 .602713604421622 5.44213775356283 4.73433687691612 .002167019676487075 .58604
7276664392 5.4012886969738 5.08809255230311 .00205670823697626 .582068505166941
 5.35807966656501 5.4123785886766 .002030609703700825 .588621548685664 5.3181286
3349341 5.71794272831241 .00207364348198077 .604274381276597 5.28458731538688 6.
01882466911936 .00217742951985385 .624544263811734 5.26276279081891 6.2831853071
7959 .002313789949671755 81 1 228 1003 96 224 0 0 230 231 232 17 229 0 107 229 2
29 0 233 224 0 0 +16 20 678 230 ?106 234 224 7 0 0 1 16 207 726 231 ?235 224 200
 201 0 0 1 81 1 231 1004 96 207 0 0 228 205 236 17 235 0 237 235 235 0 238 207 0
 0 +15 237 621 0 235 91 239 17 238 0 240 238 238 0 235 207 0 0 -15 240 737 0 238
 100 0 14 100 733 241 ?218 93 242 5 209 -0 0 218 93 28 81 1 241 967 96 100 0 0 9
8 221 243 15 242 736 0 244 100 240 17 244 0 242 244 244 0 245 246 0 0 +17 245 0
 247 245 245 0 244 246 0 0 -16 246 730 248 ?244 208 249 250 0 0 1 81 1 248 1007
 96 246 0 0 251 252 253 16 208 754 251 ?254 200 246 255 0 0 1 16 249 706 252 ?25
6 246 257 258 0 0 1 31 255 250 799 0 246 0 258 0 +-.0759304067452336 .0103287172
25121 -.1726575009790625 .0763308771044597 .921358981611984 .381144623736701 -.9
9708254282204 .0705339188824476 .0291782296690602 .0015 31 258 797 0 249 250 259
 0 +-.0759304067452336 .002683520215494315 -.154176403536432 .0763308771044597 .
921358981611984 .381144623736701 -.99708254282204 .0705339188824476 .02917822966
90602 .0015 31 259 795 0 257 258 255 0 +-.0938778925160303 .00586443000778504 -.
1582714697630465 .0763308771044597 .921358981611984 .381144623736701 -.997082542
82204 .0705339188824476 .0291782296690602 .0015 16 257 682 260 ?261 249 0 259 0
 0 1 31 255 793 0 208 259 110 0 +-.0938778925160303 .00968702851259838 -.1675120
184843615 .0763308771044597 .921358981611984 .381144623736701 -.99708254282204 .
0705339188824476 .0291782296690602 .0015 134 255 110 583 0 1 255 262 263 +264 26
5 31 262 582 0 234 110 266 0 +-.0835443250312057 .00704472958921361 -.1631941415
6065 .0763308771044597 .921358981611984 .381144623736701 -.99708254282204 .07053
39188824476 .0291782296690602 .015 141 263 22 263 263 110 136 255 264 3 4 3 2 5
 FFF1 267 268 269 135 255 265 2 0 45 255 12 267 -.083925979416728 .0024379346811
5369 -.1650998646793335 -.0776165360104297 .00171379974180757 -.1653994223376405
 -.0691948211829307 .00387424701608852 -.1645056959184135 -.0685880868888751 .00
59867208059769 -.163631815005686 127 255 2 268 4 4 128 255 2 269 0 1 16 234 546
 270 ?271 272 20 262 0 0 1 30 266 525 0 273 262 274 0 +-.0839070670878099 .00936
394917425524 -.168727855653184 .99708254282204 -.0705339188824476 -.029178229669
0602 16 273 471 275 ?78 276 272 266 0 0 1 30 274 522 0 272 266 277 0 +-.08390706
70878099 .00477683096847923 -.1576391971876055 .99708254282204 -.070533918882447
6 -.0291782296690602 16 272 457 278 ?279 273 234 274 0 0 1 30 277 517 0 276 274
 280 0 +-.0897109399934777 .00977451688871323 -.168558013409098 3707225546542415
e-31 -.382259850481334 .924054872131514 16 276 460 281 ?282 283 273 277 0 0 1 30
 280 369 0 283 277 160 0 +-.0773777100689336 .00890206049549 -.1689189281777805
 -513233717815766e-30 .382259850481334 -.924054872131514 16 283 307 284 ?285 150
 276 280 0 0 1 30 160 230 0 154 280 286 0 +-.0805446259040551 .0163846021388296
 -.1539195210345315 -3707225546542415e-31 .382259850481334 -.924054872131514 30
 286 229 0 159 160 287 0 +-.0904028769833825 .01865685640285855 -.16380141084450
9 -.98582510793274 -.155034424078436 -.0641341088662619 16 159 172 288 ?71 289 1
54 286 0 0 1 30 287 228 0 289 286 290 0 +-.0904028769833825 .01483425789804522 -
.154560862123194 3707225546542415e-31 -.382259850481334 .924054872131514 16 289
 175 291 ?40 168 159 287 0 0 1 30 290 227 0 168 287 292 0 +-.0904028769833825 .0
1483425789804522 -.154560862123194 .98582510793274 .155034424078436 .06413410886
62619 16 168 178 293 ?36 165 289 290 0 0 1 30 292 226 0 150 290 164 0 +-.0788668
638062176 .00727503719828136 -.1576879346181225 -3707225546542415e-31 .382259850
481334 -.924054872131514 16 150 153 294 ?145 161 283 292 0 0 1 30 164 225 0 161
 292 162 0 +-.088725114885545 .00954729146231034 -.1675698244281005 -.9858251079
3274 -.155034424078436 -.0641341088662619 16 161 157 295 ?148 152 150 164 0 0 1
 81 1 295 995 96 161 0 0 157 294 296 17 148 0 142 146 145 61 66 161 0 0 +17 66 0
 135 297 63 64 148 161 0 177 -15 135 196 0 66 130 0 17 297 0 135 71 66 60 177 17
4 0 298 -17 63 0 135 66 71 61 299 171 0 151 +17 177 0 131 149 73 64 297 174 0 14
5 +15 131 192 0 149 127 0 17 149 0 131 300 177 67 145 150 0 144 -17 73 0 131 177
 300 60 301 154 0 297 +17 300 0 131 73 149 57 75 165 0 301 -17 301 0 302 303 298
 57 73 154 0 0 -15 302 133 0 298 123 0 17 303 0 302 304 301 11 36 168 0 0 -17 29
8 0 302 301 304 60 71 159 0 0 -17 304 0 302 298 303 69 40 289 0 0 -17 71 0 135 6
3 297 69 298 159 0 299 +17 299 0 139 40 151 69 63 171 0 304 -15 139 200 0 151 13
4 0 17 40 0 139 38 299 11 304 289 0 303 +17 151 0 139 299 38 61 146 152 0 148 -1
7 38 0 139 151 40 58 33 39 0 37 +17 36 0 35 75 33 57 303 168 0 300 +15 35 204 0
 37 138 0 17 75 0 35 37 36 67 300 165 0 149 +80 255 1 96 0 305 8001 0 0 0 0 3 5
 0 0 0 FFFFTFTFFFFFFF2 81 1 157 994 96 152 0 0 153 295 306 81 1 294 996 96 150 0
 0 295 284 307 83 255 3 296 .988235294117647 .984313725490196 1 81 1 284 997 96
 283 0 0 294 281 308 83 3 307 .988235294117647 .984313725490196 1 81 1 281 998 9
6 276 0 0 284 275 309 83 3 308 .988235294117647 .984313725490196 1 81 1 275 999
 96 273 0 0 281 278 310 83 3 309 .988235294117647 .984313725490196 1 81 1 278 10
00 96 272 0 0 275 270 311 83 3 310 .988235294117647 .984313725490196 1 81 1 270
 1001 96 234 0 0 278 230 312 83 3 311 .988235294117647 .984313725490196 1 81 1 2
30 1002 96 20 0 0 270 228 313 83 3 312 .988235294117647 .984313725490196 1 83 3
 313 .988235294117647 .984313725490196 1 83 3 306 .988235294117647 .984313725490
196 1 79 255 15 305 SDL/TYSA_COLOUR81 1 293 989 96 168 0 0 167 291 314 81 1 167
 988 96 165 0 0 170 293 315 81 1 291 990 96 289 0 0 293 288 316 83 3 314 .988235
294117647 .984313725490196 1 81 1 288 991 96 159 0 0 291 156 317 83 3 316 .98823
5294117647 .984313725490196 1 81 1 156 992 96 154 0 0 288 153 318 83 3 317 .9882
35294117647 .984313725490196 1 83 3 318 .988235294117647 .984313725490196 1 81 1
 170 987 96 39 0 0 173 167 319 83 3 315 .988235294117647 .984313725490196 1 81 1
 173 986 96 171 0 0 176 170 320 83 3 319 .988235294117647 .984313725490196 1 81
 1 176 985 96 174 0 0 180 173 321 83 3 320 .988235294117647 .984313725490196 1 8
1 1 180 984 96 178 0 0 183 176 322 83 3 321 .988235294117647 .984313725490196 1
 81 1 183 983 96 181 0 0 186 180 323 83 3 322 .988235294117647 .984313725490196
 1 81 1 186 982 96 184 0 0 188 183 324 83 3 323 .988235294117647 .98431372549019
6 1 81 1 188 981 96 47 0 0 191 186 325 83 3 324 .988235294117647 .98431372549019
6 1 81 1 191 980 96 189 0 0 195 188 326 83 3 325 .988235294117647 .9843137254901
96 1 81 1 195 979 96 193 0 0 197 191 327 83 3 326 .988235294117647 .984313725490
196 1 81 1 197 978 96 31 0 0 29 195 328 83 3 327 .988235294117647 .9843137254901
96 1 81 1 29 977 96 10 0 0 217 197 329 83 3 328 .988235294117647 .98431372549019
6 1 81 1 217 969 96 214 0 0 221 29 330 83 3 329 .988235294117647 .98431372549019
6 1 81 1 221 968 96 218 0 0 241 217 331 83 3 330 .988235294117647 .9843137254901
96 1 83 3 331 .988235294117647 .984313725490196 1 17 285 0 332 333 192 76 87 283
 0 0 +15 332 89 0 192 18 0 17 333 0 332 334 285 54 30 10 0 0 -17 192 0 332 285 3
34 85 48 189 0 0 +17 87 0 335 84 78 85 285 283 0 279 -15 335 562 0 78 94 0 17 84
 0 335 81 87 82 279 272 0 282 -17 78 0 335 87 81 76 119 273 0 30 +17 279 0 124 4
8 196 85 84 272 0 192 +15 124 436 0 279 116 0 17 48 0 124 46 279 34 192 189 0 33
4 -17 196 0 124 279 46 82 336 193 0 0 +17 46 0 124 196 48 42 41 47 0 0 -17 336 0
 117 337 282 42 196 193 0 46 -15 117 445 0 282 112 0 17 337 0 117 198 336 49 45
 184 0 0 -17 282 0 117 336 198 82 81 276 0 196 +17 198 0 117 282 337 79 338 31 0
 0 +17 81 0 335 78 84 79 282 276 0 119 -17 119 0 113 338 30 79 78 273 0 198 -17
 338 0 113 56 119 49 198 31 0 337 -17 30 0 113 119 56 76 333 10 0 285 +17 56 0 1
13 30 338 54 53 181 0 44 -17 53 0 43 45 44 49 56 181 0 338 +17 44 0 43 53 41 54
 334 178 0 333 +15 43 4 0 44 123 302 17 334 0 332 192 333 34 44 178 0 0 -17 45 0
 43 41 53 42 337 184 0 336 +14 18 90 339 ?127 123 332 5 6 -0 0 127 123 28 81 1 3
39 958 96 18 0 0 126 129 340 81 1 126 957 96 123 0 0 122 339 341 81 1 129 959 96
 127 0 0 339 133 342 83 3 340 .988235294117647 .984313725490196 1 81 1 133 960 9
6 130 0 0 129 137 343 83 3 342 .988235294117647 .984313725490196 1 81 1 137 961
 96 134 0 0 133 140 344 83 3 343 .988235294117647 .984313725490196 1 81 1 140 96
2 96 138 0 0 137 141 345 83 3 344 .988235294117647 .984313725490196 1 83 3 345 .
988235294117647 .984313725490196 1 81 1 122 956 96 116 0 0 114 126 346 83 3 341
 .988235294117647 .984313725490196 1 81 1 114 955 96 112 0 0 111 122 347 83 3 34
6 .988235294117647 .984313725490196 1 83 3 347 .988235294117647 .984313725490196
 1 17 271 0 348 271 271 0 349 234 0 0 +15 348 561 0 271 94 335 17 349 0 350 349
 349 0 271 234 0 0 -15 350 566 0 349 91 90 81 1 260 1009 96 257 0 0 252 0 351 17
 261 0 219 261 261 0 352 257 0 0 +15 219 688 0 261 214 353 17 352 0 104 352 352
 0 261 257 0 0 -15 104 670 0 352 94 354 15 354 661 0 355 94 247 17 355 0 354 355
 355 0 256 249 0 0 -15 247 652 0 245 94 356 15 356 643 0 357 94 348 17 357 0 356
 357 357 0 254 208 0 0 -17 254 0 101 254 254 0 357 208 0 0 +15 101 760 0 254 93
 358 15 358 761 0 359 93 0 17 359 0 358 359 359 0 206 200 0 0 -17 206 0 239 206
 206 0 359 200 0 0 +15 239 614 0 206 91 350 17 256 0 222 256 256 0 355 249 0 0 +
15 222 712 0 256 218 360 15 360 713 0 233 218 0 17 233 0 360 233 233 0 229 224 0
 0 -15 353 689 0 361 214 0 17 361 0 353 361 361 0 106 20 0 0 -17 106 0 95 106 10
6 0 361 20 0 0 +81 1 252 1008 96 249 0 0 248 260 362 83 3 351 .988235294117647 .
984313725490196 1 83 3 362 .988235294117647 .984313725490196 1 81 1 251 1006 96
 208 0 0 205 248 363 81 1 205 1005 96 200 0 0 231 251 364 83 3 363 .988235294117
647 .984313725490196 1 83 3 364 .988235294117647 .984313725490196 1 83 3 253 .98
8235294117647 .984313725490196 1 81 1 98 966 96 93 0 0 92 241 365 83 3 243 .9882
35294117647 .984313725490196 1 83 3 365 .988235294117647 .984313725490196 1 83 3
 236 .988235294117647 .984313725490196 1 15 107 628 0 229 91 237 83 3 232 .98823
5294117647 .984313725490196 1 141 223 201 223 223 209 40 20 210 0 1 20 .00012105
66386741244 .3993458604480025 ??-.077631071328695 .00795955434707836 -.173637568
153469 -.0775645821725931 .00762057303988044 -.173257567796176 -.077332488513288
9 .00734254221468763 -.1728913798691375 -.0769815479843501 .00717356259021244 -.
1726084086235 -.0765654353211816 .00711502157414352 -.172426468225359 -.07611239
10260199 .00716068417858118 -.172345151987472 -.0756461811702862 .00731309210622
086 -.1723699132911195 -.0752010010877615 .00757872915513833 -.172510447960488 -
.0748295159086946 .00795750883053058 -.172771639770186 -.0746013279817358 .00842
687940551542 -.1731400408163885 -.0745838691314902 .00892199632735236 -.17357050
4043069 -.0747385725556619 .009262024164502 -.1739084231181985 -.075049429275293
4 .00950864338739586 -.174223855904266 -.0754119201140977 .00959860412083959 -.1
7443745748393 -.0757970256870096 .0095769622468148 -.174570528803931 -.076231417
1359678 .00945353819645032 -.1746309848014885 -.0767088868115969 .00921178759514
149 -.1745870824444935 -.0771678795308333 .00884838894986543 -.174397886326101 -
.0775045282607363 .00840100099026815 -.1740578650324555 -.077631071328695 .00795
955434707836 -.173637568153469 41 1 211 H?-.077631071328695 .00795955434707836 -
.173637568153469 204 80 212 4 .624544263811734 1.020422516360676 0 .002313789949
671755 .600364452883493 .992372190704551 .3262362593063455 .00215137674648987 .5
85406228951863 .95246246076983 .664821413394165 .00205249702078646 .582196327716
46 .909410713086284 .986865451959495 .002031446693399135 .589376486439089 .86979
8422936864 1.29169174595264 .002078617251597145 .605597320826744 .83676332808047
7 1.592722514195185 .00218626341762963 .630291959100752 .812783364644816 1.90195
533140083 .002352834400070155 .663012083568677 .800354619159696 2.22850219133544
5 .002577998433429275 .702552823649053 .801669602780451 2.57830968746768 .002855
79442492317 .745815469179188 .817746061031478 2.953076067892885 .003165256926360
165 .786337255121887 .847206397154381 3.34698847067262 .00345870125402949 .81004
9514756335 .877185513242774 3.663780780099625 .00363138426898369 .82146542977589
1 .912083298167911 3.99868820559219 .003714655628411865 .81787494166856 .9425382
03342935 4.285978773405105 .00368845942078379 .804153551877097 .969380619313743
 4.55045896110204 .003588404621422025 .780804078056311 .995187131641285 4.833229
2816876 .003418486805324405 .747310942461884 1.01871270287952 5.15402283217438 .
00317603518570494 .705722125364588 1.034908862535964 5.51491236274682 .002878290
346487415 .661859133227067 1.036723410238236 5.902651148164 .002569986026846825
 .624544263811734 1.020422516360676 0 .002313789949671755 83 3 158 .988235294117
647 .984313725490196 1 81 1 97 964 96 94 0 0 141 92 366 83 3 143 .98823529411764
7 .984313725490196 1 83 3 366 .988235294117647 .984313725490196 1 83 3 115 .9882
35294117647 .984313725490196 1 141 109 199 367 368 22 141 367 7 369 109 22 141 3
68 201 109 369 22 141 369 21 368 367 22 83 3 99 .988235294117647 .98431372549019
6 1 19 17 100 0 1 0 9 5 S0 40 20 24 0 1 20 .000109689959490311 .367725318652249
 ??-.0955340920220006 .00403198700076447 -.1590295085018755 -.0954596259670614 .
003917967153612625 -.158588546085779 -.09525517206503 .00374283400919462 -.15821
28166039925 -.0949556500899042 .00353435709446864 -.1579528904783045 -.094575455
5939958 .00330429543886393 -.157811301283671 -.0941235639883106 .003065984052733
225 -.1578071890180265 -.0936324641860017 .00284720154355582 -.157970692129166 -
.093169777214057 .00268725472050119 -.15831333679056 -.0928216288974868 .0026199
09362478725 -.1587989918373995 -.0926507465122689 .00265379894912208 -.159344298
8099805 -.0926659255664091 .002769814718064725 -.1598582184146565 -.092835309841
0715 .00293862531431644 -.1602829304533115 -.0931213736996966 .00313747453432918
 -.1605952888344595 -.0934967405223779 .00335198896911545 -.160783695767024 -.09
39383962730033 .00357000425326303 -.160832656983171 -.0944156248013642 .00377585
978237332 -.160721998138839 -.0948798566755799 .00394737319222712 -.160437221865
267 -.0952625527676282 .00405664990334408 -.15998893292031 -.0954905524730137 .0
0407742023671197 -.159434525295713 -.0955340920220006 .00403198700076447 -.15902
95085018755 41 1 25 H?-.0955340920220006 .00403198700076447 -.1590295085018755 2
04 80 26 4 .708259191794688 3.540452583645105 0 .002896320626350065 .71790212221
6031 3.57452447300489 .3054326047611135 .002965021929547805 .717545271259008 3.6
1010423319997 .614805690304927 .002962474851592055 .707697194964546 3.6430214001
1188 .91089388522253 .002892324994198605 .689480159585483 3.67309104012199 1.210
819694503576 .00276334216113946 .66327588540938 3.699030872279225 1.530040867545
795 .002579832475667355 .630378424985084 3.717011364613515 1.874617690412715 .00
2353422992698225 .59424553340044 3.721294856206995 2.24070332869249 .00211077468
254746 .56040439849791 3.707007822279405 2.61584431157658 .001890195088336355 .5
34552502767321 3.6742326368782 2.983641739105115 .001726622344833415 .5199809889
62316 3.62935341868817 3.33159761077214 .001636478190686105 .516832938462806 3.5
81124601452105 3.65772682234155 .00161720738931148 .523731008901754 3.5363390494
973 3.969652315342485 .001659529681266455 .539362618201577 3.499372354093385 4.2
78536199263275 .001756712114209295 .562742719398811 3.47342716087788 4.594624628
29107 .001905209179257945 .592711069718573 3.461114599952 4.92556412613571 .0021
0062577135518 .627192110736561 3.46415412170729 5.27542230879372 .00233175691149
173 .662449973021668 3.48254569772948 5.6430229861552 .002574091383640825 .69285
1962787598 3.513579640734865 6.01904098676716 .00278713438482268 .70825919179468
8 3.540452583645105 578241158658935e-30 .002896320626350065 74 4 CI16 index_map_
offset0 0 1 dCCZ20 15 7 0 0 370 260 371 372 373 13 2 0 0 0 0 0 0 0 0 0 0 0 0 0 8
1 2 370 843 374 1 0 371 0 0 375 0 81 1 371 970 376 1 370 372 0 0 377 81 1 372 97
3 378 1 371 373 0 0 379 81 1 373 974 380 1 372 13 0 0 381 81 1 13 975 382 1 373
 2 0 0 383 80 1 382 378 384 9000 0 0 0 0 3 5 0 0 0 FFTFFFFFFFFFFF3 84 255 14 383
 _06_bar_bottom79 13 384 AdamsPartName80 1 380 382 385 9000 0 0 0 0 3 5 0 0 0 FF
TFFFFFFFFFFF3 84 6 381 PSMAR179 12 385 AdamsRFMName80 1 378 386 387 9000 0 0 0 0
 3 5 0 0 0 FFTFFFFFFFFFFF1 82 255 1 379 3 79 12 387 UG2/ADAMS_ID80 1 376 388 389
 8017 0 0 0 0 0 0 0 0 0 TTTTTTTTTTTTTF3 84 13 377 02_foot_stand79 13 389 SDL/TYS
A_NAME80 2 374 390 391 8004 0 0 0 0 3 5 0 0 0 FFTFFFFFFFFFFF2 3 83 1 375 23e2 79
 16 391 SDL/TYSA_DENSITY80 1 12 380 392 9000 0 0 0 0 3 5 0 0 0 FFTFFFFFFFFFFF3 8
4 6 14 SOLID379 15 392 AdamsObjectName1 0 
