**ABCDEFGHIJKLMNOPQRSTUVWXYZabcdefghijklmnopqrstuvwxyz**************************
**PARASOLID !"#$%&'()*+,-./:;<=>?@[\]^_`{|}~0123456789**************************
**PART1;
MC=unknown;
MC_MODEL=unknown;
MC_ID=unknown;
OS=unknown;
OS_RELEASE=unknown;
FRU=sdl_parasolid_customer_support;
APPL=parasolid_acceptance_tests;
SITE=unknown;
USER=unknown;
FORMAT=text;
GUISE=transmit;
KEY=Controls_Plant_9_Tensegrity__06_bar_bottom_SOLID9;
FILE=Controls_Plant_9_Tensegrity__06_bar_bottom_SOLID9.xmt_txt;
DATE=unknown;
**PART2;
SCH=SCH_3101206_31100;
USFLD_SIZE=1;
**PART3;
**END_OF_HEADER*****************************************************************
T51 : TRANSMIT FILE created by modeller version 310120623 SCH_3101206_31100_1300
6222 0 12 34 CCCCCCI4 mesh1006 0 I8 polyline1008 0 CCCCCCCDI5 owner1040 0 CCCCCC
I13 boundary_mesh1006 0 I17 boundary_polyline1008 0 CCCA16 index_map_offset0 0 1
 dA9 index_map82 0 A17 node_id_index_map82 0 A20 schema_embedding_map82 0 A5 chi
ld12 0 A14 lowest_node_id0 0 1 dA16 mesh_offset_data206 0 Z1 367 2 3 0 0 0 0 0 0
 1e3 1e-8 0 4 0 1 0 1 1 5 6 7 8 0 0 9 10 11 0 0 0 0 0 0 0 81 255 1 2 347 12 1 13
 0 0 0 14 70 11 CI9 list_type0 0 1 uI10 notransmit0 0 1 lCCCDCCDI12 finger_index
0 0 1 dI12 finger_block1012 0 CZ3 0 4 T1 0 0 7 20 1 15 15 13 255 5 134 0 1 0 16
 0 0 17 0 50 255 6 129 0 18 19 0 0 +-.1006777710781054 .1268461609768524 -.11147
07226478322 .98582510793274 .155034424078436 .064134108866262 -.167776209783753
 .910956494054823 .376841358359114 30 255 7 133 0 10 20 0 0 +-.0872556742954053
 .0539696414524665 -.1416180313165614 -3538893519233135e-31 .382259850481334 -.9
24054872131514 29 255 8 208 0 11 21 0 -.0832025886193354 .153344515375285 -.1005
089742757024 19 8 CCCCCCCA5 owner12 0 Z9 46 0 1 17 0 22 V0 16 255 10 112 23 ?24
 0 25 7 0 0 1 18 255 11 206 0 26 0 27 8 ?1 17 255 26 0 28 29 30 11 31 32 0 33 -1
8 27 203 0 34 11 35 21 ?1 17 34 0 36 37 38 27 39 40 0 41 +18 35 191 0 38 27 42 4
3 ?1 29 21 205 0 27 43 8 -.0804368688717819 .151698866776111 -.1011897405444998
 29 43 193 0 35 44 21 -.0804368688717819 .152463386477074 -.103037850288763 29 4
4 105 0 45 46 43 -.1006777710781054 .127610680677815 -.1133188323920952 18 45 95
 0 47 48 49 44 ?1 29 46 106 0 49 50 44 -.0943130595415121 .141768264425086 -.107
4621717005876 18 49 96 0 51 45 52 46 ?1 29 50 107 0 52 53 46 -.0809080163980102
 .1398170782854908 -.1082693316912736 18 52 97 0 54 49 55 50 ?1 29 53 108 0 55 5
6 50 -.0872556742954053 .0547341611534292 -.1434661410608244 18 55 98 0 57 52 58
 53 ?1 29 56 43 0 42 59 53 -.1006777710781054 .1268461609768524 -.11147072264783
22 18 42 41 0 60 35 61 56 ?1 29 59 40 0 61 62 56 -.0943130595415121 .14100374472
41234 -.1056140619563246 18 61 38 0 31 42 63 59 ?1 29 62 37 0 63 64 59 -.0809080
163980102 .1390525585845282 -.1064212219470104 18 63 35 0 65 61 48 62 ?1 29 64 3
4 0 48 66 62 -.0872556742954053 .0539696414524665 -.1416180313165614 18 48 32 0
 67 63 45 64 ?1 29 66 275 0 58 0 64 -.0832025886193354 .1541090350762475 -.10235
70840199654 18 58 243 0 68 55 0 66 ?1 17 68 0 69 70 71 58 51 72 0 29 -15 255 69
 67 0 68 73 74 17 70 0 69 75 68 35 76 77 0 0 +17 71 0 69 68 78 49 79 80 0 0 +17
 51 0 28 30 29 49 68 72 0 81 +16 72 195 82 ?51 83 84 85 83 83 1 17 29 0 28 51 26
 58 33 86 0 76 +15 28 119 0 26 87 0 17 33 0 88 89 76 11 29 86 0 90 -16 86 235 91
 ?29 40 92 93 0 0 1 17 76 0 88 33 39 58 70 77 0 0 -15 88 253 0 39 94 0 17 39 0 8
8 76 89 35 34 40 0 70 -16 77 237 95 ?70 92 0 96 0 0 1 81 1 95 367 97 77 0 0 98 0
 99 16 92 228 98 ?89 86 77 100 0 0 1 31 255 96 273 0 77 100 93 0 +-.080545811457
7415 .155114343909887 -.101941211309346 -3538893519233135e-31 .382259850481334 -
.924054872131514 -.98582510793274 -.155034424078436 -.064134108866262 .002870898
96178848 31 100 274 0 92 0 96 0 +-.0805458114577415 .154349824208924 -.100093101
565083 -3538893519233135e-31 .382259850481334 -.924054872131514 -.98582510793274
 -.155034424078436 -.064134108866262 .00287089896178848 30 93 272 0 86 96 101 0
 +-.0832025886193354 .1537267752257665 -.101433029147834 -3538893519233135e-31 .
382259850481334 -.924054872131514 30 101 271 0 40 93 102 0 --.0804368688717819 .
1520811266265925 -.1021137954166312 -3538893519233135e-31 .382259850481334 -.924
054872131514 16 40 231 103 ?34 104 86 101 0 0 1 30 102 8 0 105 101 106 0 +-.1006
777710781054 .1268461609768524 -.1114707226478322 .167776209783753 -.91095649405
4823 -.376841358359114 16 105 6 107 ?108 109 110 102 0 0 1 134 255 106 13 0 109
 102 111 112 +113 114 16 109 11 115 ?65 32 105 106 0 0 1 31 111 19 0 116 106 117
 0 +-.0866664621502499 .1455663934203754 -.1037266010911434 3538893519233135e-31
 -.382259850481334 .924054872131514 .98582510793274 .155034424078436 .0641341088
66262 .0091022372693234 141 255 112 19 112 112 106 136 255 113 3 4 3 2 5 FFF1 11
8 119 120 135 255 114 2 0 45 255 12 118 -.0872556742954053 .0539696414524665 -.1
416180313165614 -.0957711198467974 .1154488054192762 -.1161855416079574 -.092646
1741377279 .1319707651997184 -.1093507939476132 -.0809080163980102 .139052558584
528 -.1064212219470104 127 255 2 119 4 4 128 255 2 120 0 1 67 255 19 128 0 121 1
22 6 0 +106 -3538893519233135e-31 .382259850481334 -.924054872131514 .0905109966
668712 14 255 121 122 123 ?87 18 124 5 19 -0 0 87 18 22 51 255 122 127 0 87 125
 19 0 --.0866664621502499 .1455663934203754 -.1037266010911434 -3538893519233135
e-31 .382259850481334 -.924054872131514 .0091022372693234 -.98582510793274 -.155
034424078436 -.064134108866262 14 87 120 126 ?127 121 28 5 122 -16 16 127 121 22
 67 125 126 0 127 128 122 0 +117 -3538893519233135e-31 .382259850481334 -.924054
872131514 .0097735617338323 14 127 118 129 ?130 87 131 5 125 +0 0 130 87 22 51 1
28 125 0 130 132 125 0 --.0866664621502499 .1455663934203754 -.1037266010911434
 -3538893519233135e-31 .382259850481334 -.924054872131514 .008 -.98582510793274
 -.155034424078436 -.064134108866262 134 117 24 0 133 111 134 135 +136 137 16 13
3 22 138 ?139 140 116 117 0 0 1 31 134 29 0 140 117 141 0 +-.0866664621502499 .1
455663934203754 -.1037266010911434 3538893519233135e-31 -.382259850481334 .92405
4872131514 .98582510793274 .155034424078436 .064134108866262 .008 141 135 125 13
5 135 117 136 136 3 4 3 2 5 FFF1 142 143 144 135 137 2 0 45 12 142 -.10067777107
81054 .1268461609768524 -.1114707226478322 -.0935277040274973 .1299878691500214
 -.1101710715851618 -.091318330498114 .1357073328981664 -.1078050634365806 -.094
3130595415121 .1410037447241234 -.1056140619563246 127 2 143 4 4 128 2 144 0 1 1
6 140 27 145 ?146 147 133 134 0 0 1 30 141 104 0 104 134 148 0 +-.10067777107810
54 .127610680677815 -.1133188323920952 .167776209783753 -.910956494054823 -.3768
41358359114 16 104 90 149 ?150 84 40 141 0 0 1 134 148 103 0 84 141 85 0 +151 15
2 16 84 84 153 ?54 72 104 148 0 0 1 31 85 102 0 83 148 154 0 +-.0866664621502499
 .1463309131213382 -.1055747108354064 3538893519233135e-31 -.382259850481334 .92
4054872131514 .98582510793274 .155034424078436 .064134108866262 .009102237269323
4 136 151 3 4 3 2 5 FFF1 155 156 157 135 152 2 0 45 12 155 -.0872556742954053 .0
547341611534292 -.1434661410608244 -.0957711198467974 .116213325120239 -.1180336
513522204 -.0926461741377279 .132735284900681 -.1111989036918762 -.0809080163980
102 .1398170782854908 -.1082693316912736 127 2 156 4 4 128 2 157 0 1 16 83 79 15
8 ?38 80 72 85 72 72 1 134 154 101 0 80 85 159 0 +160 161 16 80 74 162 ?71 110 8
3 154 0 0 1 31 159 100 0 110 154 163 0 +-.0866664621502499 .1463309131213382 -.1
055747108354064 3538893519233135e-31 -.382259850481334 .924054872131514 .9858251
0793274 .155034424078436 .064134108866262 .008 136 160 3 4 3 2 5 FFF1 164 165 16
6 135 161 2 0 45 12 164 -.1006777710781054 .127610680677815 -.1133188323920952 -
.0935277040274973 .130752388850984 -.1120191813294248 -.091318330498114 .1364718
525991292 -.1096531731808436 -.0943130595415121 .141768264425086 -.1074621717005
876 127 2 165 4 4 128 2 166 0 1 16 110 69 167 ?168 105 80 159 0 0 1 30 163 130 0
 147 159 169 0 +-.1006777710781054 .1268461609768524 -.1114707226478322 -3538893
519233135e-31 .382259850481334 -.924054872131514 16 147 109 170 ?47 171 140 163
 0 0 1 30 169 131 0 171 163 20 0 +-.0943130595415121 .1410037447241234 -.1056140
619563246 -3538893519233135e-31 .382259850481334 -.924054872131514 16 171 110 17
2 ?81 25 147 169 0 0 1 30 20 132 0 25 169 7 0 +-.0809080163980102 .1390525585845
282 -.1064212219470104 -3538893519233135e-31 .382259850481334 -.924054872131514
 16 25 111 173 ?174 10 171 20 0 0 1 81 1 173 349 97 25 0 0 23 172 175 17 174 0 3
6 38 37 52 176 25 0 75 +15 36 216 0 38 16 0 17 38 0 36 34 174 35 75 83 0 39 +17
 37 0 36 174 34 63 41 116 0 0 -17 176 0 124 67 54 63 174 25 0 37 -17 75 0 69 57
 70 52 38 83 0 0 -17 57 0 69 78 75 55 54 84 0 24 -17 78 0 69 71 57 45 150 104 0
 79 -17 54 0 124 176 24 52 57 84 0 174 +17 24 0 124 54 67 55 177 10 0 150 +15 12
4 121 0 54 121 0 17 67 0 124 24 176 48 65 109 0 108 -17 177 0 178 179 150 48 24
 10 0 0 -17 150 0 178 177 47 55 78 104 0 0 +15 178 123 0 150 18 0 17 47 0 178 15
0 179 45 60 147 0 78 +17 179 0 178 47 177 42 108 105 0 180 -17 60 0 131 139 79 4
2 47 147 0 179 -15 131 117 0 79 127 0 17 139 0 131 81 60 61 180 133 0 0 +17 79 0
 131 60 81 45 71 80 0 0 -17 81 0 131 79 139 49 30 171 0 71 +17 30 0 28 26 51 61
 81 171 0 139 -17 180 0 181 108 31 42 139 133 0 0 -15 181 210 0 41 182 183 17 10
8 0 181 65 180 48 179 105 0 177 +17 31 0 181 180 90 61 26 32 0 30 +17 90 0 181 3
1 41 11 89 92 0 0 -16 32 207 184 ?31 116 109 111 116 116 1 81 1 184 355 97 32 0
 0 185 115 186 16 116 17 185 ?41 133 32 111 32 32 1 81 1 185 354 97 116 0 0 138
 184 187 17 41 0 181 90 65 27 37 116 0 89 +17 65 0 181 41 108 63 67 109 0 176 +1
7 89 0 88 39 33 27 90 92 0 0 +80 255 1 97 0 188 8001 0 0 0 0 3 5 0 0 0 FFFFTFTFF
FFFFF2 81 1 138 353 97 133 0 0 145 185 189 83 255 3 187 .898039215686275 .917647
058823529 .929411764705882 81 1 145 352 97 140 0 0 170 138 190 83 3 189 .8980392
15686275 .917647058823529 .929411764705882 81 1 170 351 97 147 0 0 172 145 191 8
3 3 190 .898039215686275 .917647058823529 .929411764705882 81 1 172 350 97 171 0
 0 173 170 192 83 3 191 .898039215686275 .917647058823529 .929411764705882 83 3
 192 .898039215686275 .917647058823529 .929411764705882 79 255 15 188 SDL/TYSA_C
OLOUR81 1 115 356 97 109 0 0 184 107 193 83 3 186 .898039215686275 .917647058823
529 .929411764705882 81 1 107 357 97 105 0 0 115 167 194 83 3 193 .8980392156862
75 .917647058823529 .929411764705882 81 1 167 358 97 110 0 0 107 162 195 83 3 19
4 .898039215686275 .917647058823529 .929411764705882 81 1 162 359 97 80 0 0 167
 158 196 83 3 195 .898039215686275 .917647058823529 .929411764705882 81 1 158 36
0 97 83 0 0 162 82 197 83 3 196 .898039215686275 .917647058823529 .9294117647058
82 81 1 82 361 97 72 0 0 158 153 198 83 3 197 .898039215686275 .917647058823529
 .929411764705882 81 1 153 362 97 84 0 0 82 149 199 83 3 198 .898039215686275 .9
17647058823529 .929411764705882 81 1 149 363 97 104 0 0 153 103 200 83 3 199 .89
8039215686275 .917647058823529 .929411764705882 81 1 103 364 97 40 0 0 149 91 20
1 83 3 200 .898039215686275 .917647058823529 .929411764705882 81 1 91 365 97 86
 0 0 103 98 202 83 3 201 .898039215686275 .917647058823529 .929411764705882 81 1
 98 366 97 92 0 0 91 95 203 83 3 202 .898039215686275 .917647058823529 .92941176
4705882 83 3 203 .898039215686275 .917647058823529 .929411764705882 14 182 1 204
 ?73 130 181 5 205 +0 0 73 130 22 15 183 5 0 206 182 0 17 206 0 183 206 206 0 14
6 140 0 0 -17 146 0 207 146 146 0 206 140 0 0 +15 207 113 0 146 130 208 14 130 1
14 209 ?182 127 207 5 128 +0 0 182 127 22 15 208 115 0 210 130 0 17 210 0 208 21
0 210 0 168 110 0 0 -17 168 0 74 168 168 0 210 110 0 0 +15 74 68 0 168 73 0 14 7
3 66 211 ?94 182 69 5 132 -0 0 94 182 22 81 1 211 339 97 73 0 0 204 212 213 14 9
4 250 212 ?0 73 88 5 214 +0 0 0 73 22 50 132 99 0 73 205 128 0 +-.10067777107810
54 .127610680677815 -.1133188323920952 3538893519233135e-31 -.382259850481334 .9
24054872131514 .98582510793274 .155034424078436 .064134108866262 13 22 47 0 0 0
 0 0 0 9 16 14 16 217 215 ?18 0 36 5 122 -87 87 18 0 22 81 1 215 332 97 16 0 0 0
 216 217 14 18 124 216 ?121 16 178 5 6 -0 0 121 16 22 81 1 216 333 97 18 0 0 215
 123 218 81 1 123 334 97 121 0 0 216 126 219 83 3 218 .898039215686275 .91764705
8823529 .929411764705882 81 1 126 335 97 87 0 0 123 129 220 83 3 219 .8980392156
86275 .917647058823529 .929411764705882 81 1 129 336 97 127 0 0 126 209 221 83 3
 220 .898039215686275 .917647058823529 .929411764705882 81 1 209 337 97 130 0 0
 129 204 222 83 3 221 .898039215686275 .917647058823529 .929411764705882 81 1 20
4 338 97 182 0 0 209 211 223 83 3 222 .898039215686275 .917647058823529 .9294117
64705882 83 3 223 .898039215686275 .917647058823529 .929411764705882 83 3 217 .8
98039215686275 .917647058823529 .929411764705882 50 205 3 0 182 214 132 0 +-.100
6777710781054 .1268461609768524 -.1114707226478322 3538893519233135e-31 -.382259
850481334 .924054872131514 .98582510793274 .155034424078436 .064134108866262 51
 214 266 0 94 0 205 0 +-.0805458114577415 .154349824208924 -.100093101565083 -35
38893519233135e-31 .382259850481334 -.924054872131514 .00287089896178848 -.98582
510793274 -.155034424078436 -.064134108866262 81 1 212 340 97 94 0 0 211 23 224
 81 1 23 348 97 10 0 0 212 173 225 83 3 224 .898039215686275 .917647058823529 .9
29411764705882 83 3 225 .898039215686275 .917647058823529 .929411764705882 83 3
 213 .898039215686275 .917647058823529 .929411764705882 83 3 175 .89803921568627
5 .917647058823529 .929411764705882 83 3 99 .898039215686275 .917647058823529 .9
29411764705882 19 17 135 0 1 0 9 5 S0 74 4 CI16 index_map_offset0 0 1 dCCZ20 15
 7 0 0 226 95 227 228 229 13 2 0 0 0 0 0 0 0 0 0 0 0 0 0 81 2 226 294 230 1 0 22
7 0 0 231 0 81 1 227 341 232 1 226 228 0 0 233 81 1 228 344 234 1 227 229 0 0 23
5 81 1 229 345 236 1 228 13 0 0 237 81 1 13 346 238 1 229 2 0 0 239 80 1 238 234
 240 9000 0 0 0 0 3 5 0 0 0 FFTFFFFFFFFFFF3 84 255 14 239 _06_bar_bottom79 13 24
0 AdamsPartName80 1 236 238 241 9000 0 0 0 0 3 5 0 0 0 FFTFFFFFFFFFFF3 84 6 237
 PSMAR279 12 241 AdamsRFMName80 1 234 242 243 9000 0 0 0 0 3 5 0 0 0 FFTFFFFFFFF
FFF1 82 255 1 235 3 79 12 243 UG2/ADAMS_ID80 1 232 244 245 8017 0 0 0 0 0 0 0 0
 0 TTTTTTTTTTTTTF3 84 15 233 04_motorsupport79 13 245 SDL/TYSA_NAME80 2 230 246
 247 8004 0 0 0 0 3 5 0 0 0 FFTFFFFFFFFFFF2 3 83 1 231 27e2 79 16 247 SDL/TYSA_D
ENSITY80 1 12 236 248 9000 0 0 0 0 3 5 0 0 0 FFTFFFFFFFFFFF3 84 6 14 SOLID979 15
 248 AdamsObjectName1 0 
