**ABCDEFGHIJKLMNOPQRSTUVWXYZabcdefghijklmnopqrstuvwxyz**************************
**PARASOLID !"#$%&'()*+,-./:;<=>?@[\]^_`{|}~0123456789**************************
**PART1;
MC=unknown;
MC_MODEL=unknown;
MC_ID=unknown;
OS=unknown;
OS_RELEASE=unknown;
FRU=sdl_parasolid_customer_support;
APPL=parasolid_acceptance_tests;
SITE=unknown;
USER=unknown;
FORMAT=text;
GUISE=transmit;
KEY=Controls_Plant_9_Tensegrity__06_bar_bottom_10_SOLID55;
FILE=Controls_Plant_9_Tensegrity__06_bar_bottom_10_SOLID55.xmt_txt;
DATE=unknown;
**PART2;
SCH=SCH_3101206_31100;
USFLD_SIZE=1;
**PART3;
**END_OF_HEADER*****************************************************************
T51 : TRANSMIT FILE created by modeller version 310120623 SCH_3101206_31100_1300
6222 0 12 34 CCCCCCI4 mesh1006 0 I8 polyline1008 0 CCCCCCCDI5 owner1040 0 CCCCCC
I13 boundary_mesh1006 0 I17 boundary_polyline1008 0 CCCA16 index_map_offset0 0 1
 dA9 index_map82 0 A17 node_id_index_map82 0 A20 schema_embedding_map82 0 A5 chi
ld12 0 A14 lowest_node_id0 0 1 dA16 mesh_offset_data206 0 Z1 636 2 3 0 0 0 0 0 0
 1e3 1e-8 0 4 0 1 0 1 1 5 6 7 8 0 0 9 10 11 0 0 0 0 0 0 0 81 255 1 2 610 12 1 13
 0 0 0 14 70 11 CI9 list_type0 0 1 uI10 notransmit0 0 1 lCCCDCCDI12 finger_index
0 0 1 dI12 finger_block1012 0 CZ3 0 4 T1 0 0 6 20 1 15 15 13 255 5 99 0 1 0 16 0
 0 17 0 50 255 6 94 0 18 19 0 0 +-.00500000000000258 .1795064417448185 .04041570
370924295 1 628671325624403e-31 -1213581450593904e-31 817037389235259e-32 .84682
2385188561 .53187578243755 30 255 7 98 0 10 20 0 0 +-.00500000000000258 .1795064
417448185 .04041570370924295 817037389235259e-32 .846822385188561 .5318757824375
5 29 255 8 270 0 11 21 0 -.000750000000002577 .1744395646226745 .042842482691575
95 19 8 CCCCCCCA5 owner12 0 Z9 33 0 1 17 0 22 V0 16 255 10 82 23 ?24 0 25 7 0 0
 1 18 255 11 268 0 26 0 27 8 ?1 17 255 26 0 28 29 30 11 31 32 0 33 +18 27 148 0
 34 11 35 21 ?1 17 34 0 36 37 38 27 39 40 0 41 +18 35 144 0 42 27 43 44 ?1 29 21
 150 0 27 44 8 .000749999999997423 .1767140938870215 .0448615212314829 29 44 146
 0 35 45 21 -.000750000000002577 .1767140938870215 .0448615212314829 29 45 139 0
 43 46 44 -.000750000000002577 .17698003177824 .0444381100388886 18 43 137 0 47
 35 48 45 ?1 29 46 75 0 49 50 45 -.00500000000000258 .1750345063056315 .04941580
33435661 18 49 66 0 51 52 53 46 ?1 29 50 76 0 53 54 46 .00499999999999743 .17503
45063056315 .0494158033435661 18 53 67 0 55 49 56 50 ?1 29 54 77 0 56 57 50 .004
99999999999742 .180353264130007 .0409475794916805 18 56 68 0 58 53 59 54 ?1 29 5
7 78 0 59 60 54 -.00500000000000258 .180353264130007 .0409475794916805 18 59 69
 0 61 56 62 57 ?1 29 60 32 0 48 63 57 -.00500000000000258 .174187683920443 .0488
839275611286 18 48 30 0 64 43 65 60 ?1 29 63 29 0 65 66 60 .00499999999999743 .1
74187683920443 .0488839275611286 18 65 27 0 67 48 68 63 ?1 29 66 26 0 68 69 63 .
00499999999999742 .1795064417448185 .04041570370924295 18 68 24 0 70 65 52 66 ?1
 29 69 23 0 52 71 66 -.00500000000000258 .1795064417448185 .04041570370924295 18
 52 21 0 72 68 49 69 ?1 29 71 236 0 62 73 69 .000749999999997423 .17698003177824
 .0444381100388886 18 62 189 0 74 59 75 71 ?1 29 73 421 0 75 76 71 -.00075000000
0002577 .174173626731456 .04326589388417025 18 75 349 0 30 62 77 73 ?1 29 76 424
 0 77 78 73 .000749999999997423 .174173626731456 .04326589388417025 18 77 341 0
 79 75 80 76 ?1 29 78 427 0 80 0 76 .000749999999997423 .1744395646226745 .04284
248269157595 18 80 342 0 29 77 0 78 ?1 17 29 0 28 79 26 80 33 81 0 82 +15 255 28
 359 0 26 83 0 17 79 0 28 30 29 77 82 84 0 38 -17 33 0 85 47 86 11 29 81 0 87 -1
6 81 328 88 ?29 32 89 90 0 0 1 17 82 0 91 74 39 80 79 84 0 86 +15 91 292 0 82 16
 0 17 74 0 91 92 82 62 86 93 0 94 +17 39 0 91 82 92 77 34 40 0 0 -16 84 300 95 ?
82 96 32 97 0 0 1 17 86 0 85 33 98 80 74 93 0 0 -15 85 209 0 86 99 0 17 98 0 85
 86 47 62 100 101 0 0 +16 93 266 102 ?74 103 101 104 0 0 1 81 1 102 626 105 93 0
 0 106 107 108 16 103 269 106 ?47 109 93 110 0 0 1 16 101 170 107 ?98 93 111 112
 0 0 1 30 104 227 0 93 112 110 0 +.000749999999997423 .1702054526967315 .0401831
037793882 817037389235259e-32 .846822385188561 .53187578243755 30 112 228 0 101
 113 104 0 +-.000750000000002577 .17698003177824 .0444381100388886 1 62867132562
4403e-31 -1213581450593904e-31 30 110 226 0 103 104 114 0 +-.000750000000002577
 .1702054526967315 .0401831037793882 817037389235259e-32 .846822385188561 .53187
578243755 30 114 225 0 109 110 115 0 +-.000750000000002577 .169939514805513 .040
6065149719825 817037389235259e-32 .846822385188561 .53187578243755 16 109 277 11
6 ?42 40 103 114 0 0 1 30 115 224 0 40 114 117 0 +.000749999999997423 .169939514
805513 .0406065149719825 817037389235259e-32 .846822385188561 .53187578243755 16
 40 285 118 ?34 119 109 115 0 0 1 30 117 7 0 120 115 121 0 +-.00500000000000258
 .1795064417448185 .04041570370924295 -1299842189165946e-31 .53187578243755 -.84
6822385188561 16 120 5 122 ?123 124 125 117 0 0 1 30 121 11 0 124 117 126 0 +-.0
0500000000000258 .1795064417448185 .04041570370924295 1 628671325624403e-31 -121
3581450593904e-31 16 124 9 127 ?70 128 120 121 0 0 1 30 126 15 0 128 121 129 0 +
.00499999999999742 .1795064417448185 .04041570370924295 1299842189165946e-31 -.5
3187578243755 .846822385188561 16 128 13 130 ?67 131 124 126 0 0 1 30 129 19 0 1
31 126 132 0 +-.00500000000000258 .174187683920443 .0488839275611286 -1 -6286713
25624403e-31 1213581450593904e-31 16 131 17 133 ?64 134 128 129 0 0 1 30 132 74
 0 119 129 135 0 +-.00500000000000258 .180353264130007 .0409475794916805 -129984
2189165946e-31 .53187578243755 -.846822385188561 16 119 62 136 ?137 138 40 132 0
 0 1 30 135 73 0 138 132 139 0 +-.00500000000000258 .180353264130007 .0409475794
916805 1 628671325624403e-31 -1213581450593904e-31 16 138 58 140 ?58 141 119 135
 0 0 1 30 139 72 0 141 135 142 0 +.00499999999999742 .180353264130007 .040947579
4916805 1299842189165946e-31 -.53187578243755 .846822385188561 16 141 54 143 ?55
 125 138 139 0 0 1 30 142 71 0 125 139 144 0 +-.00500000000000258 .1750345063056
315 .0494158033435661 -1 -628671325624403e-31 1213581450593904e-31 16 125 50 145
 ?51 120 141 142 0 0 1 30 144 95 0 134 142 146 0 +-.00500000000000258 .174187683
920443 .0488839275611286 817037389235259e-32 .846822385188561 .53187578243755 16
 134 79 147 ?148 149 131 144 0 0 1 30 146 96 0 149 144 20 0 +.00499999999999743
 .174187683920443 .0488839275611286 817037389235259e-32 .846822385188561 .531875
78243755 16 149 80 150 ?151 25 134 146 0 0 1 30 20 97 0 25 146 7 0 +.00499999999
999742 .1795064417448185 .04041570370924295 817037389235259e-32 .846822385188561
 .53187578243755 16 25 81 152 ?153 10 149 20 0 0 1 81 1 152 612 105 25 0 0 23 15
0 154 17 153 0 155 55 156 56 157 25 0 158 +15 155 85 0 55 159 0 17 55 0 155 160
 153 53 158 141 0 151 +17 156 0 155 153 160 68 67 128 0 0 -17 157 0 161 72 58 68
 153 25 0 156 -17 158 0 162 61 163 56 55 141 0 0 -15 162 49 0 164 165 0 17 61 0
 162 164 158 59 58 138 0 24 -17 163 0 162 158 164 53 51 125 0 0 -17 164 0 162 16
3 61 49 137 119 0 0 -17 51 0 166 167 151 49 163 125 0 148 +15 166 83 0 51 168 0
 17 167 0 166 169 51 48 148 134 0 170 -17 151 0 166 51 169 53 160 149 0 163 +17
 148 0 171 137 170 49 167 134 0 164 +15 171 89 0 137 18 0 17 137 0 171 172 148 5
9 164 119 0 0 +17 170 0 171 148 172 48 123 120 0 0 -17 172 0 171 170 137 52 24 1
0 0 0 -17 123 0 173 70 64 52 170 120 0 172 +15 173 4 0 123 174 175 17 70 0 173 6
7 123 68 72 124 0 157 +17 64 0 173 123 67 48 169 131 0 167 +17 67 0 173 64 70 65
 156 128 0 160 +17 169 0 166 151 167 65 64 131 0 0 -17 160 0 155 156 55 65 151 1
49 0 169 -17 72 0 161 24 157 52 70 124 0 123 -15 161 87 0 58 176 0 17 24 0 161 5
8 72 59 172 10 0 137 +17 58 0 161 157 24 56 61 138 0 153 +14 255 176 88 177 ?159
 18 161 5 19 -0 0 159 18 22 81 1 177 597 105 176 0 0 178 179 180 14 159 86 179 ?
168 176 155 5 181 -0 0 168 176 22 14 18 90 178 ?176 174 171 5 6 -0 0 176 174 22
 50 19 93 0 176 181 6 0 +-.00500000000000258 .1795064417448185 .0404157037092429
5 1299842189165946e-31 -.53187578243755 .846822385188561 -1 -628671325624403e-31
 1213581450593904e-31 13 22 34 0 0 0 0 0 0 9 16 14 16 294 182 ?183 0 91 5 184 -0
 0 183 0 22 81 1 182 592 105 16 0 0 0 185 186 14 183 289 185 ?99 16 187 5 188 -0
 0 99 16 22 50 184 218 0 16 188 189 0 +.000749999999997423 .1702054526967315 .04
01831037793882 -1 -628671325624403e-31 1213581450593904e-31 -817037389235259e-32
 -.846822385188561 -.53187578243755 50 188 219 0 183 190 184 0 +-.00075000000000
2577 .169939514805513 .0406065149719825 -1299842189165946e-31 .53187578243755 -.
846822385188561 1 628671325624403e-31 -1213581450593904e-31 50 189 3 0 174 184 1
91 0 +-.00500000000000258 .1795064417448185 .04041570370924295 817037389235259e-
32 .846822385188561 .53187578243755 -1 -628671325624403e-31 1213581450593904e-31
 14 174 155 192 ?18 99 173 5 189 -0 0 18 99 22 50 191 70 0 165 189 193 0 +-.0050
0000000000258 .180353264130007 .0409475794916805 817037389235259e-32 .8468223851
88561 .53187578243755 -1 -628671325624403e-31 1213581450593904e-31 14 165 48 194
 ?195 168 162 5 191 +0 0 195 168 22 50 193 91 0 168 191 181 0 +-.005000000000002
58 .174187683920443 .0488839275611286 -1299842189165946e-31 .53187578243755 -.84
6822385188561 1 628671325624403e-31 -1213581450593904e-31 14 168 84 196 ?165 159
 166 5 193 -0 0 165 159 22 50 181 92 0 159 193 19 0 +.00499999999999742 .1795064
417448185 .04041570370924295 -1 -628671325624403e-31 1213581450593904e-31 -81703
7389235259e-32 -.846822385188561 -.53187578243755 81 1 196 599 105 168 0 0 179 1
94 197 80 255 1 105 0 198 8001 0 0 0 0 3 5 0 0 0 FFFFTFTFFFFFFF2 81 1 179 598 10
5 159 0 0 177 196 199 81 1 194 600 105 165 0 0 196 200 201 83 255 3 197 .6470588
23529412 .619607843137255 .588235294117647 81 1 200 601 105 195 0 0 194 202 203
 83 3 201 .647058823529412 .619607843137255 .588235294117647 14 195 202 200 ?83
 165 204 5 190 -0 0 83 165 22 81 1 202 602 105 83 0 0 200 205 206 83 3 203 .6470
58823529412 .619607843137255 .588235294117647 14 83 356 202 ?207 195 28 5 208 -0
 0 207 195 22 81 1 205 603 105 207 0 0 202 23 209 83 3 206 .647058823529412 .619
607843137255 .588235294117647 14 207 517 205 ?0 83 210 5 211 -0 0 0 83 22 81 1 2
3 611 105 10 0 0 205 152 212 83 3 209 .647058823529412 .619607843137255 .5882352
94117647 83 3 212 .647058823529412 .619607843137255 .588235294117647 15 210 520
 0 213 207 214 51 255 211 535 0 207 0 208 0 +-2576931723563545e-30 .173375813057
7995 .0445361274619531 -1299842189165946e-31 .53187578243755 -.846822385188561 6
e-4 1 628671325624403e-31 -1213581450593904e-31 51 208 400 0 83 211 215 0 --2576
931723563545e-30 .1733758130577995 .0445361274619531 -1299842189165946e-31 .5318
7578243755 -.846822385188561 75e-5 1 628671325624403e-31 -1213581450593904e-31 5
0 215 221 0 99 208 190 0 +-.000750000000002577 .1702054526967315 .04018310377938
82 1299842189165946e-31 -.53187578243755 .846822385188561 -1 -628671325624403e-3
1 1213581450593904e-31 14 99 274 216 ?174 183 217 5 215 -0 0 174 183 22 50 190 2
20 0 195 215 188 0 +-.000750000000002577 .1702054526967315 .0401831037793882 1 6
28671325624403e-31 -1213581450593904e-31 817037389235259e-32 .846822385188561 .5
3187578243755 81 1 216 594 105 99 0 0 185 192 218 15 217 499 0 219 99 85 17 219
 0 217 219 219 0 213 220 0 0 -17 213 0 210 213 213 0 219 220 0 0 +16 220 514 221
 ?213 89 0 222 0 0 1 81 1 221 636 105 220 0 0 223 0 224 16 89 510 223 ?225 81 22
0 226 0 0 1 31 255 222 539 0 220 0 226 0 +-2576931723563545e-30 .174439564622674
5 .04284248269157595 -1299842189165946e-31 .53187578243755 -.846822385188561 1 6
28671325624403e-31 -1213581450593904e-31 6e-4 31 226 538 0 89 222 90 0 +-2576931
723563545e-30 .174173626731456 .04326589388417025 -1299842189165946e-31 .5318757
8243755 -.846822385188561 1 628671325624403e-31 -1213581450593904e-31 6e-4 31 90
 415 0 81 226 97 0 --2576931723563545e-30 .1744395646226745 .04284248269157595 -
1299842189165946e-31 .53187578243755 -.846822385188561 1 628671325624403e-31 -12
13581450593904e-31 75e-5 30 97 410 0 84 90 227 0 +.000749999999997423 .173375813
0577995 .0445361274619531 -1299842189165946e-31 .53187578243755 -.84682238518856
1 30 227 409 0 32 97 228 0 +-.000750000000002577 .1733758130577995 .044536127461
9531 -1299842189165946e-31 .53187578243755 -.846822385188561 16 32 302 229 ?26 8
4 81 227 0 0 1 31 228 406 0 96 227 230 0 --2576931723563545e-30 .174173626731456
 .04326589388417025 -1299842189165946e-31 .53187578243755 -.846822385188561 1 62
8671325624403e-31 -1213581450593904e-31 75e-5 16 96 299 231 ?38 232 84 228 0 0 1
 30 230 231 0 232 228 233 0 +.000749999999997423 .17698003177824 .04443811003888
86 1299842189165946e-31 -.53187578243755 .846822385188561 16 232 158 234 ?92 235
 96 230 0 0 1 30 233 230 0 235 230 113 0 +-.000750000000002577 .1767140938870215
 .0448615212314829 -1 -628671325624403e-31 1213581450593904e-31 16 235 162 236 ?
37 111 232 233 0 0 1 30 113 229 0 111 233 112 0 +-.000750000000002577 .176980031
77824 .0444381100388886 -1299842189165946e-31 .53187578243755 -.846822385188561
 16 111 166 237 ?238 101 235 113 0 0 1 81 1 237 628 105 111 0 0 107 236 239 17 2
38 0 204 87 42 43 240 111 0 0 +15 204 205 0 87 195 0 17 87 0 204 31 238 11 47 10
3 0 0 -17 42 0 204 238 31 35 241 109 0 240 +17 240 0 175 41 100 35 238 111 0 37
 -15 175 153 0 94 174 0 17 41 0 175 94 240 27 37 235 0 92 -17 100 0 175 240 94 4
3 98 101 0 238 -17 37 0 36 241 34 35 41 235 0 0 +15 36 201 0 241 183 0 17 241 0
 36 38 37 75 42 109 0 0 -17 38 0 36 34 241 77 30 96 0 39 +17 30 0 28 26 79 75 38
 96 0 31 -17 31 0 204 42 87 75 26 32 0 241 -17 94 0 175 100 41 62 92 232 0 98 -1
7 92 0 91 39 74 27 94 232 0 0 +17 47 0 85 98 33 43 87 103 0 100 +81 1 107 627 10
5 101 0 0 102 237 242 81 1 236 629 105 235 0 0 237 234 243 83 3 239 .64705882352
9412 .619607843137255 .588235294117647 81 1 234 630 105 232 0 0 236 231 244 83 3
 243 .647058823529412 .619607843137255 .588235294117647 81 1 231 631 105 96 0 0
 234 95 245 83 3 244 .647058823529412 .619607843137255 .588235294117647 81 1 95
 632 105 84 0 0 231 229 246 83 3 245 .647058823529412 .619607843137255 .58823529
4117647 81 1 229 633 105 32 0 0 95 88 247 83 3 246 .647058823529412 .61960784313
7255 .588235294117647 81 1 88 634 105 81 0 0 229 223 248 83 3 247 .6470588235294
12 .619607843137255 .588235294117647 81 1 223 635 105 89 0 0 88 221 249 83 3 248
 .647058823529412 .619607843137255 .588235294117647 83 3 249 .647058823529412 .6
19607843137255 .588235294117647 83 3 242 .647058823529412 .619607843137255 .5882
35294117647 17 225 0 187 225 225 0 250 89 0 0 +15 187 505 0 225 183 36 17 250 0
 214 250 250 0 225 89 0 0 -15 214 521 0 250 207 0 83 3 224 .647058823529412 .619
607843137255 .588235294117647 81 1 185 593 105 183 0 0 182 216 251 81 1 192 595
 105 174 0 0 216 178 252 83 3 218 .647058823529412 .619607843137255 .58823529411
7647 81 1 178 596 105 18 0 0 192 177 253 83 3 252 .647058823529412 .619607843137
255 .588235294117647 83 3 253 .647058823529412 .619607843137255 .588235294117647
 83 3 251 .647058823529412 .619607843137255 .588235294117647 83 3 199 .647058823
529412 .619607843137255 .588235294117647 79 255 15 198 SDL/TYSA_COLOUR83 3 186 .
647058823529412 .619607843137255 .588235294117647 83 3 180 .647058823529412 .619
607843137255 .588235294117647 81 1 150 613 105 149 0 0 152 147 254 83 3 154 .647
058823529412 .619607843137255 .588235294117647 81 1 147 614 105 134 0 0 150 133
 255 83 3 254 .647058823529412 .619607843137255 .588235294117647 81 1 133 615 10
5 131 0 0 147 130 256 83 3 255 .647058823529412 .619607843137255 .58823529411764
7 81 1 130 616 105 128 0 0 133 127 257 83 3 256 .647058823529412 .61960784313725
5 .588235294117647 81 1 127 617 105 124 0 0 130 122 258 83 3 257 .64705882352941
2 .619607843137255 .588235294117647 81 1 122 618 105 120 0 0 127 145 259 83 3 25
8 .647058823529412 .619607843137255 .588235294117647 81 1 145 619 105 125 0 0 12
2 143 260 83 3 259 .647058823529412 .619607843137255 .588235294117647 81 1 143 6
20 105 141 0 0 145 140 261 83 3 260 .647058823529412 .619607843137255 .588235294
117647 81 1 140 621 105 138 0 0 143 136 262 83 3 261 .647058823529412 .619607843
137255 .588235294117647 81 1 136 622 105 119 0 0 140 118 263 83 3 262 .647058823
529412 .619607843137255 .588235294117647 81 1 118 623 105 40 0 0 136 116 264 83
 3 263 .647058823529412 .619607843137255 .588235294117647 81 1 116 624 105 109 0
 0 118 106 265 83 3 264 .647058823529412 .619607843137255 .588235294117647 81 1
 106 625 105 103 0 0 116 102 266 83 3 265 .647058823529412 .619607843137255 .588
235294117647 83 3 266 .647058823529412 .619607843137255 .588235294117647 83 3 10
8 .647058823529412 .619607843137255 .588235294117647 19 17 100 0 1 0 9 5 S0 74 4
 CI16 index_map_offset0 0 1 dCCZ20 15 6 0 0 221 267 268 269 13 2 0 0 0 0 0 0 0 0
 0 0 0 0 0 0 81 1 267 604 270 1 0 268 0 0 271 81 1 268 607 272 1 267 269 0 0 273
 81 1 269 608 274 1 268 13 0 0 275 81 1 13 609 276 1 269 2 0 0 277 80 1 276 272
 278 9000 0 0 0 0 3 5 0 0 0 FFTFFFFFFFFFFF3 84 255 17 277 _06_bar_bottom_1079 13
 278 AdamsPartName80 1 274 276 279 9000 0 0 0 0 3 5 0 0 0 FFTFFFFFFFFFFF3 84 6 2
75 PSMAR179 12 279 AdamsRFMName80 1 272 280 281 9000 0 0 0 0 3 5 0 0 0 FFTFFFFFF
FFFFF1 82 255 1 273 50 79 12 281 UG2/ADAMS_ID80 1 270 282 283 8017 0 0 0 0 0 0 0
 0 0 TTTTTTTTTTTTTF3 84 7 271 10_hook79 13 283 SDL/TYSA_NAME80 1 12 274 284 9000
 0 0 0 0 3 5 0 0 0 FFTFFFFFFFFFFF3 84 7 14 SOLID5579 15 284 AdamsObjectName1 0 
