**ABCDEFGHIJKLMNOPQRSTUVWXYZabcdefghijklmnopqrstuvwxyz**************************
**PARASOLID !"#$%&'()*+,-./:;<=>?@[\]^_`{|}~0123456789**************************
**PART1;
MC=unknown;
MC_MODEL=unknown;
MC_ID=unknown;
OS=unknown;
OS_RELEASE=unknown;
FRU=sdl_parasolid_customer_support;
APPL=parasolid_acceptance_tests;
SITE=unknown;
USER=unknown;
FORMAT=text;
GUISE=transmit;
KEY=Controls_Plant_9_Tensegrity__06_bar_bottom_5_SOLID25;
FILE=Controls_Plant_9_Tensegrity__06_bar_bottom_5_SOLID25.xmt_txt;
DATE=unknown;
**PART2;
SCH=SCH_3101206_31100;
USFLD_SIZE=1;
**PART3;
**END_OF_HEADER*****************************************************************
T51 : TRANSMIT FILE created by modeller version 310120623 SCH_3101206_31100_1300
6222 0 12 34 CCCCCCI4 mesh1006 0 I8 polyline1008 0 CCCCCCCDI5 owner1040 0 CCCCCC
I13 boundary_mesh1006 0 I17 boundary_polyline1008 0 CCCA16 index_map_offset0 0 1
 dA9 index_map82 0 A17 node_id_index_map82 0 A20 schema_embedding_map82 0 A5 chi
ld12 0 A14 lowest_node_id0 0 1 dA16 mesh_offset_data206 0 Z1 1009 2 3 0 0 0 0 0
 0 1e3 1e-8 0 4 0 1 0 1 1 5 6 7 8 0 0 9 10 11 0 0 0 0 0 0 0 81 255 1 2 976 12 1
 13 0 0 0 14 70 11 CI9 list_type0 0 1 uI10 notransmit0 0 1 lCCCDCCDI12 finger_in
dex0 0 1 dI12 finger_block1012 0 CZ3 0 4 T1 0 0 7 20 1 15 15 13 255 5 99 0 1 0 1
6 0 0 17 0 50 255 6 94 0 18 19 0 0 +-.1419379833912006 .1247416148444626 -.02840
821237809715 -.1677762097837525 -.3768413583591135 .910956494054824 -37021740364
89055e-32 -.924054872131514 -.382259850481333 38 12 CCCCCCCCCCCA17 intersection_
data204 0 Z7 637 0 20 21 0 0 +22 23 24 25 25 26 29 255 8 137 0 11 27 0 -.1437835
216988218 .1104317563090656 -.02259254929878875 19 8 CCCCCCCA5 owner12 0 Z9 33 0
 1 17 0 28 V0 16 255 10 82 29 ?30 0 31 32 0 0 1 18 255 11 135 0 33 0 34 8 ?1 17
 255 33 0 35 36 37 11 38 39 0 40 -18 34 30 0 41 11 42 27 ?1 17 41 0 43 44 45 34
 46 47 0 48 +18 42 27 0 45 34 49 50 ?1 29 27 32 0 34 50 8 -.1419379833912006 .11
36529563788844 -.03299533058387315 29 50 29 0 42 51 27 -.1439512979086056 .10913
0860078575 -.02206385265521525 29 51 26 0 49 52 50 -.1439512979086056 .120219518
5441532 -.01747673444943925 18 49 24 0 53 42 54 51 ?1 29 52 23 0 54 55 51 -.1419
379833912006 .1247416148444626 -.02840821237809715 18 54 21 0 56 49 57 52 ?1 29
 55 232 0 58 59 52 -.1536417727781495 .1110730973977284 -.0241428935395731 18 58
 183 0 38 60 61 55 ?1 29 59 233 0 61 62 55 -.1536417727781495 .1203136461190434
 -.02032029503475975 18 61 181 0 63 58 64 59 ?1 29 62 234 0 64 65 59 -.151964010
6803115 .1240820597026346 -.029429859975308 18 64 188 0 66 61 67 62 ?1 29 65 235
 0 57 68 62 -.1421057596009842 .114200169892657 -.031702114239337 18 57 187 0 36
 54 69 65 ?1 29 68 237 0 69 70 65 -.1437835216988218 .119672305030381 -.01876995
07939754 18 69 185 0 71 57 60 68 ?1 29 70 238 0 60 72 68 -.1421057596009842 .123
440718613972 -.02787951573452365 18 60 182 0 73 69 58 70 ?1 29 72 377 0 67 74 70
 -.1519640106803115 .1148415109813194 -.03325245848012135 18 67 318 0 75 64 76 7
2 ?1 29 74 381 0 76 77 72 -.154753709794326 .125575358259724 -.0304236598911168
 18 76 327 0 78 67 79 74 ?1 29 77 584 0 79 80 74 -.153809548987933 .120860859632
816 -.0190270786902236 18 79 553 0 81 76 82 77 ?1 29 80 585 0 82 83 77 -.1538095
48987933 .1097722011672376 -.0236141968959996 18 82 554 0 84 79 85 80 ?1 29 83 5
87 0 85 86 80 -.154753709794326 .114486699794146 -.0350107780968928 18 85 555 0
 87 82 88 83 ?1 29 86 588 0 88 0 83 -.15926704210524 .1175278885651356 -.0266662
5879914595 18 88 552 0 89 85 0 86 ?1 17 89 0 90 89 89 88 0 0 0 0 ?15 255 90 567
 0 89 91 0 14 255 91 563 92 ?93 94 95 5 22 -0 0 93 94 28 81 1 92 965 96 91 0 0 9
7 98 99 14 93 757 98 ?100 91 101 5 102 -0 0 100 91 28 14 94 556 97 ?91 103 104 5
 105 +0 0 91 103 28 15 95 635 0 106 91 107 68 255 22 576 0 91 105 108 109 +110 -
.1542816293911295 .117673779713481 -.0270189283935582 .997082542822039 .02917822
96690599 -.0705339188824482 -.15926704210524 .1175278885651356 -.026666258799145
95 ?0 ?-.0763308771044601 .3811446237367005 -.921358981611985 0 13 28 34 0 0 0 0
 0 0 9 16 14 16 453 111 ?112 0 113 5 19 -0 0 112 0 28 81 1 111 954 96 16 0 0 0 1
14 115 14 112 447 114 ?116 16 117 5 118 -0 0 116 16 28 15 113 451 0 119 16 0 50
 19 93 0 16 118 6 0 +-.1439512979086056 .1202195185441532 -.01747673444943925 -6
1275517850081e-30 -.924054872131514 -.382259850481333 .1677762097837525 .3768413
583591135 -.910956494054824 50 118 92 0 112 120 19 0 +-.1439512979086056 .120219
5185441532 -.01747673444943925 .1677762097837525 .3768413583591135 -.91095649405
4824 491486291074858e-31 .924054872131514 .382259850481333 50 120 91 0 116 121 1
18 0 +-.1439512979086056 .109130860078575 -.02206385265521525 61275517850081e-30
 .924054872131514 .382259850481333 -.1677762097837525 -.3768413583591135 .910956
494054824 14 116 438 122 ?123 112 124 5 120 -0 0 123 112 28 50 121 3 0 123 125 1
20 0 +-.142944640649903 .116936237461519 -.0252360325166562 .98582510793274 -.06
41341088662621 .1550344240784355 -61275517850081e-30 -.924054872131514 -.3822598
50481333 14 123 150 126 ?18 116 43 5 121 +0 0 18 116 28 50 125 213 0 127 128 121
 0 +-.1421057596009842 .114200169892657 -.031702114239337 -.1677762097837525 -.3
768413583591135 .910956494054824 -61275517850081e-30 -.924054872131514 -.3822598
50481333 14 127 189 129 ?130 18 131 5 125 +0 0 130 18 28 50 128 214 0 130 132 12
5 0 +-.1437835216988218 .119672305030381 -.0187699507939754 -61275517850081e-30
 -.924054872131514 -.382259850481333 .1677762097837525 .3768413583591135 -.91095
6494054824 14 130 193 133 ?134 127 135 5 128 +0 0 134 127 28 50 132 215 0 134 13
6 128 0 +-.1437835216988218 .1104317563090656 -.02259254929878875 .1677762097837
525 .3768413583591135 -.910956494054824 61275517850081e-30 .924054872131514 .382
259850481333 14 134 197 137 ?138 130 139 5 132 +0 0 138 130 28 50 136 216 0 138
 108 132 0 +-.1437835216988218 .1104317563090656 -.02259254929878875 61275517850
081e-30 .924054872131514 .382259850481333 -.1677762097837525 -.3768413583591135
 .910956494054824 14 138 201 140 ?103 134 35 5 136 +0 0 103 134 28 50 108 360 0
 103 22 136 0 +-.153809548987933 .1097722011672376 -.0236141968959996 .985825107
93274 -.0641341088662621 .1550344240784355 -61275517850081e-30 -.924054872131514
 -.382259850481333 14 103 337 141 ?94 138 142 5 108 +0 0 94 138 28 81 1 141 963
 96 103 0 0 140 97 143 15 142 340 0 144 103 0 17 144 0 142 145 146 67 37 147 0 0
 +17 145 0 142 148 144 64 149 150 0 0 +17 146 0 142 144 148 58 151 152 0 0 +17 3
7 0 35 33 75 58 144 147 0 146 -16 147 165 153 ?144 154 152 155 0 0 1 81 1 153 99
3 96 147 0 0 156 157 158 16 154 169 156 ?73 159 147 160 0 0 1 16 152 161 157 ?14
6 147 161 162 0 0 1 30 255 155 223 0 147 162 163 0 +-.1536417727781495 .11107309
73977284 -.0241428935395731 .1677762097837525 .3768413583591135 -.91095649405482
4 30 162 224 0 152 164 155 0 +-.1536417727781495 .1110730973977284 -.02414289353
95731 -61275517850081e-30 -.924054872131514 -.382259850481333 30 163 222 0 165 1
55 166 0 +-.1421057596009842 .114200169892657 -.031702114239337 -.98582510793274
 .0641341088662621 -.1550344240784355 16 165 156 167 ?75 39 168 163 0 0 1 30 166
 221 0 39 163 169 0 +-.1437835216988218 .1104317563090656 -.02259254929878875 -.
98582510793274 .0641341088662621 -.1550344240784355 16 39 168 170 ?38 171 165 16
6 0 0 1 30 169 220 0 171 166 172 0 +-.1437835216988218 .119672305030381 -.018769
9507939754 -.98582510793274 .0641341088662621 -.1550344240784355 16 171 164 173
 ?63 174 39 169 0 0 1 30 172 219 0 174 169 175 0 +-.1421057596009842 .1234407186
13972 -.02787951573452365 -.98582510793274 .0641341088662621 -.1550344240784355
 16 174 160 176 ?177 178 171 172 0 0 1 30 175 7 0 178 172 179 0 +-.1419379833912
006 .1247416148444626 -.02840821237809715 3702174036489055e-32 .924054872131514
 .382259850481333 16 178 5 180 ?44 181 174 175 0 0 1 30 179 11 0 181 175 182 0 +
-.1439512979086056 .1202195185441532 -.01747673444943925 -.1677762097837525 -.37
68413583591135 .910956494054824 16 181 9 183 ?53 184 178 179 0 0 1 30 182 15 0 1
84 179 185 0 +-.1439512979086056 .1202195185441532 -.01747673444943925 -49148629
1074858e-31 -.924054872131514 -.382259850481333 16 184 13 186 ?45 47 181 182 0 0
 1 30 185 19 0 47 182 187 0 +-.1439512979086056 .109130860078575 -.0220638526552
1525 .1677762097837525 .3768413583591135 -.910956494054824 16 47 17 188 ?41 189
 184 185 0 0 1 30 187 95 0 189 185 190 0 +-.1419379833912006 .1136529563788844 -
.03299533058387315 -.98582510793274 .0641341088662621 -.1550344240784355 16 189
 79 191 ?192 193 47 187 0 0 1 30 190 96 0 193 187 194 0 +-.1439512979086056 .109
130860078575 -.02206385265521525 -.98582510793274 .0641341088662621 -.1550344240
784355 16 193 80 195 ?196 31 189 190 0 0 1 30 194 97 0 31 190 32 0 +-.1439512979
086056 .1202195185441532 -.01747673444943925 -.98582510793274 .0641341088662621
 -.1550344240784355 16 31 81 197 ?198 10 193 194 0 0 1 30 32 98 0 10 194 199 0 +
-.1419379833912006 .1247416148444626 -.02840821237809715 -.98582510793274 .06413
41088662621 -.1550344240784355 38 199 616 0 200 32 201 0 +22 102 202 203 203 204
 16 200 750 205 ?206 207 208 199 0 0 1 38 201 623 0 207 199 21 0 +22 209 210 211
 211 212 51 255 102 781 0 93 23 105 213 +-.158475963898713 .1181980549641052 -.0
152061761658873 .997082542822039 .0291782296690599 -.0705339188824482 .0015 .076
3308771044601 -.3811446237367005 .921358981611985 40 255 20 202 0 1 20 .00012107
83316122568 .394746200992838 ??-.1554735968481075 .1177108475369312 -.0140284265
3758586 -.1556551566145835 .1172232748837138 -.01433644404496246 -.1558662372505
595 .1169354869681726 -.01470899621367842 -.1561297351102575 .1167765087431938 -
.01519202418443415 -.1564099802124195 .1168051001071574 -.01572361111047215 -.15
66618857025565 .1170354458022582 -.0162135883054656 -.156846444445939 .117422864
496249 -.0165772529131894 -.1569471867001675 .1178893163277336 -.016775024454893
55 -.156967866678082 .1183682598958188 -.0168115492552015 -.1569178767831865 .11
88201607973136 -.0167059358433746 -.1568032804512995 .1192183783756174 -.0164727
115374302 -.1566272762092245 .1195332379394354 -.0161227244738034 -.156395398026
354 .119725791477176 -.015673703952123 -.1561228355621475 .1197525099911244 -.01
51632874648493 -.1558417950370085 .1195829742774926 -.01465783669006036 -.155602
2540236245 .119228994103241 -.01424479207276958 -.155452841644764 .1187640027455
266 -.01399542626339158 -.1554070095723375 .11828493240595 -.01391952646797612 -
.1554466000845955 .117840473735627 -.01398382744557786 -.1554735968481075 .11771
08475369312 -.01402842653758584 41 3 CI8 term_use0 0 1 cCZ1 203 H?-.155473596848
1075 .1177108475369312 -.01402842653758584 204 2 17 INTERSECTION_DATA17 Intersec
tion data7 uv_type0 0 1 u6 values0 1 1 fT80 204 4 .708259191794688 2.74273272353
4485 0 .00289632062635006 .683720314160835 2.78097921444196 .388561716994278 .00
2722789727741735 .656123198936286 2.805106681191895 .709015413807986 .0025302053
33034065 .622051557002263 2.82044444565117 1.059514403069732 .002296907369604595
 .585910425886588 2.82070923560036 1.429074205702946 .002055809025032175 .553476
399196495 2.801846754432685 1.80396733304241 .00184591954969648 .530090157154808
 2.76549316932871 2.16792986617833 .00169885413011718 .518265165993516 2.7190761
57510695 2.51053451172877 .00162596562765003 .517600129064648 2.671150218859495
 2.832430464744 .001621896945415775 .526639199876373 2.627861078856155 3.1426339
97833545 .001677477337402135 .544164123275438 2.59320538733565 3.45236365742504
 .001786908399079365 .569207539437452 2.570233138694305 3.7713497604976 .0019469
00241825925 .600465519882938 2.561399316620065 4.106501211638015 .00215204912432
2125 .635535718389772 2.568108192560935 4.46085156094372 .00238859432303781 .670
220962851334 2.589812428031615 4.83162556462176 .002628216748542075 .69857399503
4901 2.623059272225365 5.20712253332248 .00282759674092379 .715154132123115 2.66
1477350254775 5.56609823601232 .002945416843166865 .718849162539251 2.6987925025
7116 5.89186487497509 .0029717832680756 .712131249955612 2.732787165423285 6.191
8382139073 .002923875142219055 .708259191794688 2.742732723534485 6.283185307179
58 .002896320626350065 51 23 784 0 214 215 102 216 +-.158475963898713 .108957506
2427902 -.01902877467070065 .997082542822039 .0291782296690599 -.070533918882448
2 .0015 .0763308771044601 -.3811446237367005 .921358981611985 50 105 577 0 94 10
2 22 0 +-.1542538599556475 .11753511798916 -.02668373482882605 .997082542822039
 .0291782296690599 -.0705339188824482 .0763308771044601 -.3811446237367005 .9213
58981611985 141 255 213 199 213 213 102 14 214 685 217 ?0 218 219 5 23 -0 0 0 21
8 28 51 215 787 0 218 209 23 220 +-.1598499196865935 .1111978351093932 -.0375245
35592123 .997082542822039 .0291782296690599 -.0705339188824482 .0015 .0763308771
044601 -.3811446237367005 .921358981611985 141 216 7 216 216 23 14 218 709 221 ?
214 100 222 5 215 -0 0 214 100 28 51 209 790 0 100 0 215 223 +-.1598499196865935
 .1296789325520234 -.02987933858249635 .997082542822039 .0291782296690599 -.0705
339188824482 .0015 .0763308771044601 -.3811446237367005 .921358981611985 141 220
 21 220 220 215 38 21 630 0 224 201 7 0 +22 215 225 226 226 227 16 224 702 228 ?
229 20 207 21 0 0 1 40 20 225 0 1 20 .000119864690545316 .380142744490503 ??-.15
7428383804362 .1106936304683456 -.0363056977923262 -.157193662360246 .1102461946
663392 -.0366161189619108 -.1569387875757595 .109941324680172 -.0370541694354733
5 -.156664699259019 .1097966955396692 -.03760921423820995 -.156411256069014 .109
8654377335896 -.03821112762432415 -.1562665225051245 .1100834005340566 -.0386520
9312091085 -.1562109551706495 .1103794522361502 -.0389642400506201 -.15623943622
69475 .1107567466472978 -.03917919814686915 -.1563387865092295 .1111399197742254
 -.0392676839334908 -.156499887231992 .1115464813772268 -.03924466340231385 -.15
67250776203305 .1119787333617064 -.03908265414225685 -.157000142685603 .11238672
2630323 -.0387453114722662 -.1572847014629705 .1126772258048742 -.03823896268090
825 -.157526350686053 .1127656351745918 -.03764175830222205 -.1576867094456745 .
112634266407086 -.03707380190259515 -.157757200004768 .1123374704086024 -.036629
10022865815 -.157751474558101 .111948922591181 -.0363388832796075 -.157685638561
3705 .1115179633657052 -.03619660396704755 -.1575683240381295 .1110716857526934
 -.03619426984775195 -.157428383804362 .1106936304683456 -.0363056977923262 41 1
 226 H?-.157428383804362 .1106936304683456 -.0363056977923262 204 80 227 4 .6245
44263811734 5.26276279081891 0 .002313789949671755 .659940776151119 5.2468166651
0487 .3626408036386625 .00255666644102724 .699308660287466 5.24695794205465 .713
108948221088 .002832799489337355 .742449898619514 5.26189765328454 1.08592027575
626 .00314101762796496 .783514676263321 5.29045043953997 1.478857143469604 .0034
3818249378869 .808482160026145 5.32042929651565 1.7998613889223 .003619956596920
835 .820281479369722 5.34980956702325 2.084260938908305 .00370601702685408 .8199
76203744029 5.38074288381337 2.37539472110091 .003703789682723265 .8087831220737
46 5.40817068139936 2.64104997341022 .00362215081343175 .788132852205286 5.43421
295798677 2.916108439779695 .00347175911467787 .757337060025069 5.45870573524814
 3.225682834846865 .00324841090932536 .717514977111736 5.47756217889745 3.576466
28760653 .00296225863866344 .673523662341662 5.48392452539921 3.958882552481725
 .00265129165311405 .632929360994268 5.47203718414308 4.35253760158105 .00237080
389498415 .602713604421622 5.44213775356283 4.73433687691612 .002167019676487075
 .586047276664392 5.4012886969738 5.08809255230311 .00205670823697626 .582068505
166941 5.35807966656501 5.4123785886766 .002030609703700825 .588621548685664 5.3
1812863349341 5.71794272831241 .00207364348198077 .604274381276597 5.28458731538
688 6.01882466911936 .00217742951985385 .624544263811734 5.26276279081891 6.2831
8530717959 .002313789949671755 81 1 228 1003 96 224 0 0 230 231 232 17 229 0 107
 229 229 0 233 224 0 0 +16 20 678 230 ?106 234 224 7 0 0 1 16 207 726 231 ?235 2
24 200 201 0 0 1 81 1 231 1004 96 207 0 0 228 205 236 17 235 0 237 235 235 0 238
 207 0 0 +15 237 621 0 235 91 239 17 238 0 240 238 238 0 235 207 0 0 -15 240 737
 0 238 100 0 14 100 733 241 ?218 93 242 5 209 -0 0 218 93 28 81 1 241 967 96 100
 0 0 98 221 243 15 242 736 0 244 100 240 17 244 0 242 244 244 0 245 246 0 0 +17
 245 0 247 245 245 0 244 246 0 0 -16 246 730 248 ?244 208 249 250 0 0 1 81 1 248
 1007 96 246 0 0 251 252 253 16 208 754 251 ?254 200 246 255 0 0 1 16 249 706 25
2 ?256 246 257 258 0 0 1 31 255 250 799 0 246 0 258 0 +-.154864506972483 .129824
8237003688 -.0302320081769086 .997082542822039 .0291782296690599 -.0705339188824
482 .0763308771044601 -.3811446237367005 .921358981611985 .0015 31 258 797 0 249
 250 259 0 +-.154864506972483 .1113437262577384 -.03787720518653525 .99708254282
2039 .0291782296690599 -.0705339188824482 .0763308771044601 -.3811446237367005 .
921358981611985 .0015 31 259 795 0 257 258 255 0 +-.153490551184603 .10910339739
11354 -.0193814442651129 .997082542822039 .0291782296690599 -.0705339188824482 .
0763308771044601 -.3811446237367005 .921358981611985 .0015 16 257 682 260 ?261 2
49 0 259 0 0 1 31 255 793 0 208 259 110 0 +-.153490551184603 .1183439461124506 -
.01555884576029955 .997082542822039 .0291782296690599 -.0705339188824482 .076330
8771044601 -.3811446237367005 .921358981611985 .0015 134 255 110 583 0 1 255 262
 263 +264 265 31 262 582 0 234 110 266 0 +-.1542816293911295 .117673779713481 -.
0270189283935582 .997082542822039 .0291782296690599 -.0705339188824482 .07633087
71044601 -.3811446237367005 .921358981611985 .015 141 263 22 263 263 110 136 255
 264 3 4 3 2 5 FFF1 267 268 269 135 255 265 2 0 45 255 12 267 -.15926704210524 .
1175278885651356 -.02666625879914595 -.160050691389698 .1199397354582476 -.03249
653071917395 -.1577126838325305 .1231590189090038 -.04027865733722665 -.15542659
25476965 .1233909490695314 -.040839313117738 127 255 2 268 4 4 128 255 2 269 0 1
 16 234 546 270 ?271 272 20 262 0 0 1 30 266 525 0 273 262 274 0 +-.154253859955
6475 .123079447221949 -.02439017572593805 -.0763308771044601 .3811446237367005 -
.921358981611985 16 273 471 275 ?78 276 272 266 0 0 1 30 274 522 0 272 266 277 0
 +-.1542538599556475 .111990788756371 -.02897729393171405 -.0763308771044601 .38
11446237367005 -.921358981611985 16 272 457 278 ?279 273 234 274 0 0 1 30 277 51
7 0 276 274 280 0 +-.153809548987933 .120860859632816 -.0190270786902236 -612755
17850081e-30 -.924054872131514 -.382259850481333 16 276 460 281 ?282 283 273 277
 0 0 1 30 280 369 0 283 277 160 0 +-.154753709794326 .125575358259724 -.03042365
98911168 3702174036489055e-32 .924054872131514 .382259850481333 16 283 307 284 ?
285 150 276 280 0 0 1 30 160 230 0 154 280 286 0 +-.1421057596009842 .1142001698
92657 -.031702114239337 61275517850081e-30 .924054872131514 .382259850481333 30
 286 229 0 159 160 287 0 +-.1437835216988218 .119672305030381 -.0187699507939754
 -.1677762097837525 -.3768413583591135 .910956494054824 16 159 172 288 ?71 289 1
54 286 0 0 1 30 287 228 0 289 286 290 0 +-.1437835216988218 .1104317563090656 -.
02259254929878875 -61275517850081e-30 -.924054872131514 -.382259850481333 16 289
 175 291 ?40 168 159 287 0 0 1 30 290 227 0 168 287 292 0 +-.1437835216988218 .1
104317563090656 -.02259254929878875 .1677762097837525 .3768413583591135 -.910956
494054824 16 168 178 293 ?36 165 289 290 0 0 1 30 292 226 0 150 290 164 0 +-.151
9640106803115 .1148415109813194 -.03325245848012135 61275517850081e-30 .92405487
2131514 .382259850481333 16 150 153 294 ?145 161 283 292 0 0 1 30 164 225 0 161
 292 162 0 +-.1536417727781495 .1203136461190434 -.02032029503475975 -.167776209
7837525 -.3768413583591135 .910956494054824 16 161 157 295 ?148 152 150 164 0 0
 1 81 1 295 995 96 161 0 0 157 294 296 17 148 0 142 146 145 61 66 161 0 0 +17 66
 0 135 297 63 64 148 161 0 177 -15 135 196 0 66 130 0 17 297 0 135 71 66 60 177
 174 0 298 -17 63 0 135 66 71 61 299 171 0 151 +17 177 0 131 149 73 64 297 174 0
 145 +15 131 192 0 149 127 0 17 149 0 131 300 177 67 145 150 0 144 -17 73 0 131
 177 300 60 301 154 0 297 +17 300 0 131 73 149 57 75 165 0 301 -17 301 0 302 303
 298 57 73 154 0 0 -15 302 133 0 298 123 0 17 303 0 302 304 301 11 36 168 0 0 -1
7 298 0 302 301 304 60 71 159 0 0 -17 304 0 302 298 303 69 40 289 0 0 -17 71 0 1
35 63 297 69 298 159 0 299 +17 299 0 139 40 151 69 63 171 0 304 -15 139 200 0 15
1 134 0 17 40 0 139 38 299 11 304 289 0 303 +17 151 0 139 299 38 61 146 152 0 14
8 -17 38 0 139 151 40 58 33 39 0 37 +17 36 0 35 75 33 57 303 168 0 300 +15 35 20
4 0 37 138 0 17 75 0 35 37 36 67 300 165 0 149 +80 255 1 96 0 305 8001 0 0 0 0 3
 5 0 0 0 FFFFTFTFFFFFFF2 81 1 157 994 96 152 0 0 153 295 306 81 1 294 996 96 150
 0 0 295 284 307 83 255 3 296 .988235294117647 .984313725490196 1 81 1 284 997 9
6 283 0 0 294 281 308 83 3 307 .988235294117647 .984313725490196 1 81 1 281 998
 96 276 0 0 284 275 309 83 3 308 .988235294117647 .984313725490196 1 81 1 275 99
9 96 273 0 0 281 278 310 83 3 309 .988235294117647 .984313725490196 1 81 1 278 1
000 96 272 0 0 275 270 311 83 3 310 .988235294117647 .984313725490196 1 81 1 270
 1001 96 234 0 0 278 230 312 83 3 311 .988235294117647 .984313725490196 1 81 1 2
30 1002 96 20 0 0 270 228 313 83 3 312 .988235294117647 .984313725490196 1 83 3
 313 .988235294117647 .984313725490196 1 83 3 306 .988235294117647 .984313725490
196 1 79 255 15 305 SDL/TYSA_COLOUR81 1 293 989 96 168 0 0 167 291 314 81 1 167
 988 96 165 0 0 170 293 315 81 1 291 990 96 289 0 0 293 288 316 83 3 314 .988235
294117647 .984313725490196 1 81 1 288 991 96 159 0 0 291 156 317 83 3 316 .98823
5294117647 .984313725490196 1 81 1 156 992 96 154 0 0 288 153 318 83 3 317 .9882
35294117647 .984313725490196 1 83 3 318 .988235294117647 .984313725490196 1 81 1
 170 987 96 39 0 0 173 167 319 83 3 315 .988235294117647 .984313725490196 1 81 1
 173 986 96 171 0 0 176 170 320 83 3 319 .988235294117647 .984313725490196 1 81
 1 176 985 96 174 0 0 180 173 321 83 3 320 .988235294117647 .984313725490196 1 8
1 1 180 984 96 178 0 0 183 176 322 83 3 321 .988235294117647 .984313725490196 1
 81 1 183 983 96 181 0 0 186 180 323 83 3 322 .988235294117647 .984313725490196
 1 81 1 186 982 96 184 0 0 188 183 324 83 3 323 .988235294117647 .98431372549019
6 1 81 1 188 981 96 47 0 0 191 186 325 83 3 324 .988235294117647 .98431372549019
6 1 81 1 191 980 96 189 0 0 195 188 326 83 3 325 .988235294117647 .9843137254901
96 1 81 1 195 979 96 193 0 0 197 191 327 83 3 326 .988235294117647 .984313725490
196 1 81 1 197 978 96 31 0 0 29 195 328 83 3 327 .988235294117647 .9843137254901
96 1 81 1 29 977 96 10 0 0 217 197 329 83 3 328 .988235294117647 .98431372549019
6 1 81 1 217 969 96 214 0 0 221 29 330 83 3 329 .988235294117647 .98431372549019
6 1 81 1 221 968 96 218 0 0 241 217 331 83 3 330 .988235294117647 .9843137254901
96 1 83 3 331 .988235294117647 .984313725490196 1 17 285 0 332 333 192 76 87 283
 0 0 +15 332 89 0 192 18 0 17 333 0 332 334 285 54 30 10 0 0 -17 192 0 332 285 3
34 85 48 189 0 0 +17 87 0 335 84 78 85 285 283 0 279 -15 335 562 0 78 94 0 17 84
 0 335 81 87 82 279 272 0 282 -17 78 0 335 87 81 76 119 273 0 30 +17 279 0 124 4
8 196 85 84 272 0 192 +15 124 436 0 279 116 0 17 48 0 124 46 279 34 192 189 0 33
4 -17 196 0 124 279 46 82 336 193 0 0 +17 46 0 124 196 48 42 41 47 0 0 -17 336 0
 117 337 282 42 196 193 0 46 -15 117 445 0 282 112 0 17 337 0 117 198 336 49 45
 184 0 0 -17 282 0 117 336 198 82 81 276 0 196 +17 198 0 117 282 337 79 338 31 0
 0 +17 81 0 335 78 84 79 282 276 0 119 -17 119 0 113 338 30 79 78 273 0 198 -17
 338 0 113 56 119 49 198 31 0 337 -17 30 0 113 119 56 76 333 10 0 285 +17 56 0 1
13 30 338 54 53 181 0 44 -17 53 0 43 45 44 49 56 181 0 338 +17 44 0 43 53 41 54
 334 178 0 333 +15 43 4 0 44 123 302 17 334 0 332 192 333 34 44 178 0 0 -17 45 0
 43 41 53 42 337 184 0 336 +14 18 90 339 ?127 123 332 5 6 -0 0 127 123 28 81 1 3
39 958 96 18 0 0 126 129 340 81 1 126 957 96 123 0 0 122 339 341 81 1 129 959 96
 127 0 0 339 133 342 83 3 340 .988235294117647 .984313725490196 1 81 1 133 960 9
6 130 0 0 129 137 343 83 3 342 .988235294117647 .984313725490196 1 81 1 137 961
 96 134 0 0 133 140 344 83 3 343 .988235294117647 .984313725490196 1 81 1 140 96
2 96 138 0 0 137 141 345 83 3 344 .988235294117647 .984313725490196 1 83 3 345 .
988235294117647 .984313725490196 1 81 1 122 956 96 116 0 0 114 126 346 83 3 341
 .988235294117647 .984313725490196 1 81 1 114 955 96 112 0 0 111 122 347 83 3 34
6 .988235294117647 .984313725490196 1 83 3 347 .988235294117647 .984313725490196
 1 17 271 0 348 271 271 0 349 234 0 0 +15 348 561 0 271 94 335 17 349 0 350 349
 349 0 271 234 0 0 -15 350 566 0 349 91 90 81 1 260 1009 96 257 0 0 252 0 351 17
 261 0 219 261 261 0 352 257 0 0 +15 219 688 0 261 214 353 17 352 0 104 352 352
 0 261 257 0 0 -15 104 670 0 352 94 354 15 354 661 0 355 94 247 17 355 0 354 355
 355 0 256 249 0 0 -15 247 652 0 245 94 356 15 356 643 0 357 94 348 17 357 0 356
 357 357 0 254 208 0 0 -17 254 0 101 254 254 0 357 208 0 0 +15 101 760 0 254 93
 358 15 358 761 0 359 93 0 17 359 0 358 359 359 0 206 200 0 0 -17 206 0 239 206
 206 0 359 200 0 0 +15 239 614 0 206 91 350 17 256 0 222 256 256 0 355 249 0 0 +
15 222 712 0 256 218 360 15 360 713 0 233 218 0 17 233 0 360 233 233 0 229 224 0
 0 -15 353 689 0 361 214 0 17 361 0 353 361 361 0 106 20 0 0 -17 106 0 95 106 10
6 0 361 20 0 0 +81 1 252 1008 96 249 0 0 248 260 362 83 3 351 .988235294117647 .
984313725490196 1 83 3 362 .988235294117647 .984313725490196 1 81 1 251 1006 96
 208 0 0 205 248 363 81 1 205 1005 96 200 0 0 231 251 364 83 3 363 .988235294117
647 .984313725490196 1 83 3 364 .988235294117647 .984313725490196 1 83 3 253 .98
8235294117647 .984313725490196 1 81 1 98 966 96 93 0 0 92 241 365 83 3 243 .9882
35294117647 .984313725490196 1 83 3 365 .988235294117647 .984313725490196 1 83 3
 236 .988235294117647 .984313725490196 1 15 107 628 0 229 91 237 83 3 232 .98823
5294117647 .984313725490196 1 141 223 201 223 223 209 40 20 210 0 1 20 .00012105
66386741244 .3993458604480025 ??-.157428383804362 .129174727910976 -.02866050078
269955 -.157596362253078 .1287559322718626 -.0289057004145882 -.1577132990494625
 .128433764190026 -.02929014250002135 -.1577612769487015 .1282666033939186 -.029
73907621854425 -.15774582355043 .128249633373897 -.03019640795633365 -.157672544
8653885 .128369509279727 -.03063709666606735 -.1575411768295315 .128622700618865
 -.03103688350063 -.157349434381961 .129006705199356 -.03135979781881735 -.15709
92643195725 .1295055308487034 -.03155546169807815 -.156806365081761 .13007312259
65988 -.03156760425650435 -.1565133986865315 .1306222489312004 -.031359337295181
35 -.156328367202087 .130971761206115 -.03104733424988925 -.1562210547972495 .13
12093871728432 -.03061262891121515 -.1562195774511155 .1312849877887774 -.030189
07190096445 -.156290443553137 .1312437594444946 -.0297893709272129 -.15642760404
88015 .1310857340811584 -.02938464961847255 -.156634212761361 .1307803360217768
 -.0289942742522559 -.156897690970126 .1303149682744694 -.0286900701165388 -.157
1811255050555 .129737914044723 -.0285644671141405 -.157428383804362 .12917472791
0976 -.02866050078269955 41 1 211 H?-.157428383804362 .129174727910976 -.0286605
0078269955 204 80 212 4 .624544263811734 1.020422516360676 0 .002313789949671755
 .600364452883493 .992372190704551 .3262362593063455 .00215137674648987 .5854062
28951863 .95246246076983 .664821413394165 .00205249702078646 .58219632771646 .90
9410713086284 .986865451959495 .002031446693399135 .589376486439089 .86979842293
6864 1.29169174595264 .002078617251597145 .605597320826744 .836763328080477 1.59
2722514195185 .00218626341762963 .630291959100752 .812783364644816 1.90195533140
083 .002352834400070155 .663012083568677 .800354619159696 2.228502191335445 .002
577998433429275 .702552823649053 .801669602780451 2.57830968746768 .002855794424
92317 .745815469179188 .817746061031478 2.953076067892885 .003165256926360165 .7
86337255121887 .847206397154381 3.34698847067262 .00345870125402949 .81004951475
6335 .877185513242774 3.663780780099625 .00363138426898369 .821465429775891 .912
083298167911 3.99868820559219 .003714655628411865 .81787494166856 .9425382033429
35 4.285978773405105 .00368845942078379 .804153551877097 .969380619313743 4.5504
5896110204 .003588404621422025 .780804078056311 .995187131641285 4.8332292816876
 .003418486805324405 .747310942461884 1.01871270287952 5.15402283217438 .0031760
3518570494 .705722125364588 1.034908862535964 5.51491236274682 .0028782903464874
15 .661859133227067 1.036723410238236 5.902651148164 .002569986026846825 .624544
263811734 1.020422516360676 0 .002313789949671755 83 3 158 .988235294117647 .984
313725490196 1 81 1 97 964 96 94 0 0 141 92 366 83 3 143 .988235294117647 .98431
3725490196 1 83 3 366 .988235294117647 .984313725490196 1 83 3 115 .988235294117
647 .984313725490196 1 141 109 199 367 368 22 141 367 7 369 109 22 141 368 201 1
09 369 22 141 369 21 368 367 22 83 3 99 .988235294117647 .984313725490196 1 19 1
7 100 0 1 0 9 5 S0 40 20 24 0 1 20 .000109689959490311 .367725318652249 ??-.1554
735968481075 .108470298815616 -.0178510250423992 -.155410395216143 .108081961228
9314 -.01809225738636955 -.155428601555985 .1077774267124202 -.01843949349805115
 -.1555218863428225 .107596336783491 -.0188385448914294 -.1556803520722045 .1075
395055939972 -.01927349609403475 -.1558989929155925 .107624555729873 -.019727343
9834944 -.1561636606339525 .107874614735567 -.02015536216305185 -.15644243957211
1 .1082875600544584 -.02048525010075085 -.1566903168038975 .108811544711175 -.02
064525144320165 -.15686744992805 .1093544622772252 -.02060558583079105 -.1569566
958227575 .109828464416568 -.0203930756790938 -.1569630559292175 .11018599643437
26 -.02006186763121605 -.1568987104067195 .1104136007975034 -.01965813850246435
 -.1567725077039845 .110506762290832 -.0192133827486813 -.1565897655256325 .1104
56751243554 -.0187561171166136 -.156357243287714 .1102525510092256 -.01832413954
757865 -.1560898969499465 .1098925132999294 -.01797069309851755 -.15581755640755
65 .1094020398590602 -.01775944180407195 -.155586435704128 .1088488252667082 -.0
1774155544415175 -.1554735968481075 .108470298815616 -.0178510250423992 41 1 25
 H?-.1554735968481075 .108470298815616 -.0178510250423992 204 80 26 4 .708259191
794688 3.540452583645105 0 .002896320626350065 .717902122216031 3.57452447300489
 .3054326047611135 .002965021929547805 .717545271259008 3.61010423319997 .614805
690304927 .002962474851592055 .707697194964546 3.64302140011188 .91089388522253
 .002892324994198605 .689480159585483 3.67309104012199 1.210819694503576 .002763
34216113946 .66327588540938 3.699030872279225 1.530040867545795 .002579832475667
355 .630378424985084 3.717011364613515 1.874617690412715 .002353422992698225 .59
424553340044 3.721294856206995 2.24070332869249 .00211077468254746 .560404398497
91 3.707007822279405 2.61584431157658 .001890195088336355 .534552502767321 3.674
2326368782 2.983641739105115 .001726622344833415 .519980988962316 3.629353418688
17 3.33159761077214 .001636478190686105 .516832938462806 3.581124601452105 3.657
72682234155 .00161720738931148 .523731008901754 3.5363390494973 3.96965231534248
5 .001659529681266455 .539362618201577 3.499372354093385 4.278536199263275 .0017
56712114209295 .562742719398811 3.47342716087788 4.59462462829107 .0019052091792
57945 .592711069718573 3.461114599952 4.92556412613571 .00210062577135518 .62719
2110736561 3.46415412170729 5.27542230879372 .00233175691149173 .662449973021668
 3.48254569772948 5.6430229861552 .002574091383640825 .692851962787598 3.5135796
40734865 6.01904098676716 .00278713438482268 .708259191794688 3.540452583645105
 578241158658935e-30 .002896320626350065 74 4 CI16 index_map_offset0 0 1 dCCZ20
 15 7 0 0 370 260 371 372 373 13 2 0 0 0 0 0 0 0 0 0 0 0 0 0 81 2 370 843 374 1
 0 371 0 0 375 0 81 1 371 970 376 1 370 372 0 0 377 81 1 372 973 378 1 371 373 0
 0 379 81 1 373 974 380 1 372 13 0 0 381 81 1 13 975 382 1 373 2 0 0 383 80 1 38
2 378 384 9000 0 0 0 0 3 5 0 0 0 FFTFFFFFFFFFFF3 84 255 16 383 _06_bar_bottom_57
9 13 384 AdamsPartName80 1 380 382 385 9000 0 0 0 0 3 5 0 0 0 FFTFFFFFFFFFFF3 84
 6 381 PSMAR479 12 385 AdamsRFMName80 1 378 386 387 9000 0 0 0 0 3 5 0 0 0 FFTFF
FFFFFFFFF1 82 255 1 379 25 79 12 387 UG2/ADAMS_ID80 1 376 388 389 8017 0 0 0 0 0
 0 0 0 0 TTTTTTTTTTTTTF3 84 13 377 02_foot_stand79 13 389 SDL/TYSA_NAME80 2 374
 390 391 8004 0 0 0 0 3 5 0 0 0 FFTFFFFFFFFFFF2 3 83 1 375 23e2 79 16 391 SDL/TY
SA_DENSITY80 1 12 380 392 9000 0 0 0 0 3 5 0 0 0 FFTFFFFFFFFFFF3 84 7 14 SOLID25
79 15 392 AdamsObjectName1 0 
