**ABCDEFGHIJKLMNOPQRSTUVWXYZabcdefghijklmnopqrstuvwxyz**************************
**PARASOLID !"#$%&'()*+,-./:;<=>?@[\]^_`{|}~0123456789**************************
**PART1;
MC=unknown;
MC_MODEL=unknown;
MC_ID=unknown;
OS=unknown;
OS_RELEASE=unknown;
FRU=sdl_parasolid_customer_support;
APPL=parasolid_acceptance_tests;
SITE=unknown;
USER=unknown;
FORMAT=text;
GUISE=transmit;
KEY=Controls_Plant_9_Tensegrity__06_bar_bottom_6_SOLID28;
FILE=Controls_Plant_9_Tensegrity__06_bar_bottom_6_SOLID28.xmt_txt;
DATE=unknown;
**PART2;
SCH=SCH_3101206_31100;
USFLD_SIZE=1;
**PART3;
**END_OF_HEADER*****************************************************************
T51 : TRANSMIT FILE created by modeller version 310120623 SCH_3101206_31100_1300
6222 0 12 34 CCCCCCI4 mesh1006 0 I8 polyline1008 0 CCCCCCCDI5 owner1040 0 CCCCCC
I13 boundary_mesh1006 0 I17 boundary_polyline1008 0 CCCA16 index_map_offset0 0 1
 dA9 index_map82 0 A17 node_id_index_map82 0 A20 schema_embedding_map82 0 A5 chi
ld12 0 A14 lowest_node_id0 0 1 dA16 mesh_offset_data206 0 Z1 1009 2 3 0 0 0 0 0
 0 1e3 1e-8 0 4 0 1 0 1 1 5 6 7 8 0 0 9 10 11 0 0 0 0 0 0 0 81 255 1 2 976 12 1
 13 0 0 0 14 70 11 CI9 list_type0 0 1 uI10 notransmit0 0 1 lCCCDCCDI12 finger_in
dex0 0 1 dI12 finger_block1012 0 CZ3 0 4 T1 0 0 7 20 1 15 15 13 255 5 99 0 1 0 1
6 0 0 17 0 50 255 6 94 0 18 19 0 0 +.141937983391889 .1136529563788844 -.0329953
3058387325 .167776209783754 -.376841358359113 .910956494054824 2473624687919045e
-32 .924054872131514 .382259850481333 38 12 CCCCCCCCCCCA17 intersection_data204
 0 Z7 637 0 20 21 0 0 +22 23 24 25 25 26 29 255 8 137 0 11 27 0 .143783521699510
2 .119672305030381 -.0187699507939755 19 8 CCCCCCCA5 owner12 0 Z9 33 0 1 17 0 28
 V0 16 255 10 82 29 ?30 0 31 32 0 0 1 18 255 11 135 0 33 0 34 8 ?1 17 255 33 0 3
5 36 37 11 38 39 0 40 -18 34 30 0 41 11 42 27 ?1 17 41 0 43 44 45 34 46 47 0 48
 +18 42 27 0 45 34 49 50 ?1 29 27 32 0 34 50 8 .141937983391889 .124741614844462
6 -.02840821237809725 29 50 29 0 42 51 27 .143951297909294 .1202195185441532 -.0
1747673444943935 29 51 26 0 49 52 50 .143951297909294 .109130860078575 -.0220638
5265521535 18 49 24 0 53 42 54 51 ?1 29 52 23 0 54 55 51 .141937983391889 .11365
29563788844 -.03299533058387325 18 54 21 0 56 49 57 52 ?1 29 55 232 0 58 59 52 .
1536417727788375 .1203136461190434 -.0203202950347599 18 58 183 0 38 60 61 55 ?1
 29 59 233 0 61 62 55 .1536417727788375 .1110730973977284 -.0241428935395732 18
 61 181 0 63 58 64 59 ?1 29 62 234 0 64 65 59 .151964010681 .1148415109813194 -.
03325245848012145 18 64 188 0 66 61 67 62 ?1 29 65 235 0 57 68 62 .1421057596016
726 .123440718613972 -.02787951573452375 18 57 187 0 36 54 69 65 ?1 29 68 237 0
 69 70 65 .1437835216995102 .1104317563090658 -.02259254929878885 18 69 185 0 71
 57 60 68 ?1 29 70 238 0 60 72 68 .1421057596016726 .114200169892657 -.031702114
2393371 18 60 182 0 73 69 58 70 ?1 29 72 377 0 67 74 70 .151964010681 .124082059
7026346 -.02942985997530815 18 67 318 0 75 64 76 72 ?1 29 74 381 0 76 77 72 .154
7537097950145 .114486699794146 -.03501077809689295 18 76 327 0 78 67 79 74 ?1 29
 77 584 0 79 80 74 .1538095489886215 .1097722011672378 -.02361419689599975 18 79
 553 0 81 76 82 77 ?1 29 80 585 0 82 83 77 .1538095489886215 .120860859632816 -.
01902707869022375 18 82 554 0 84 79 85 80 ?1 29 83 587 0 85 86 80 .1547537097950
145 .125575358259724 -.03042365989111695 18 85 555 0 87 82 88 83 ?1 29 86 588 0
 88 0 83 .159267042105928 .1175278885651356 -.0266662587991461 18 88 552 0 89 85
 0 86 ?1 17 89 0 90 89 89 88 0 0 0 0 ?15 255 90 567 0 89 91 0 14 255 91 563 92 ?
93 94 95 5 22 -0 0 93 94 28 81 1 92 965 96 91 0 0 97 98 99 14 93 757 98 ?100 91
 101 5 102 -0 0 100 91 28 14 94 556 97 ?91 103 104 5 105 +0 0 91 103 28 15 95 63
5 0 106 91 107 68 255 22 576 0 91 105 108 109 +110 .154281629391818 .11767377971
3481 -.0270189283935583 -.997082542822039 .0291782296690595 -.0705339188824469 .
159267042105928 .1175278885651356 -.0266662587991461 ?0 ?.0763308771044587 .3811
446237367005 -.921358981611985 0 13 28 34 0 0 0 0 0 0 9 16 14 16 453 111 ?112 0
 113 5 19 -0 0 112 0 28 81 1 111 954 96 16 0 0 0 114 115 14 112 447 114 ?116 16
 117 5 118 -0 0 116 16 28 15 113 451 0 119 16 0 50 19 93 0 16 118 6 0 +.14395129
7909294 .109130860078575 -.02206385265521535 489900243643811e-31 .92405487213151
4 .382259850481333 -.167776209783754 .3768413583591135 -.910956494054824 50 118
 92 0 112 120 19 0 +.143951297909294 .109130860078575 -.02206385265521535 -.1677
76209783754 .376841358359113 -.910956494054824 -368631356217858e-31 -.9240548721
31514 -.382259850481333 50 120 91 0 116 121 118 0 +.143951297909294 .12021951854
41532 -.01747673444943935 -489900243643811e-31 -.924054872131514 -.3822598504813
33 .167776209783754 -.3768413583591135 .910956494054824 14 116 438 122 ?123 112
 124 5 120 -0 0 123 112 28 50 121 3 0 123 125 120 0 +.1429446406505914 .11693623
7461519 -.0252360325166563 -.98582510793274 -.0641341088662625 .155034424078437
 489900243643811e-31 .924054872131514 .382259850481333 14 123 150 126 ?18 116 43
 5 121 +0 0 18 116 28 50 125 213 0 127 128 121 0 +.1421057596016726 .12344071861
3972 -.02787951573452375 .167776209783754 -.3768413583591135 .910956494054824 48
9900243643811e-31 .924054872131514 .382259850481333 14 127 189 129 ?130 18 131 5
 125 +0 0 130 18 28 50 128 214 0 130 132 125 0 +.1437835216995102 .1104317563090
658 -.02259254929878885 489900243643811e-31 .924054872131514 .382259850481333 -.
167776209783754 .3768413583591135 -.910956494054824 14 130 193 133 ?134 127 135
 5 128 +0 0 134 127 28 50 132 215 0 134 136 128 0 +.1437835216995102 .1196723050
30381 -.0187699507939755 -.167776209783754 .3768413583591135 -.910956494054824 -
489900243643811e-31 -.924054872131514 -.382259850481333 14 134 197 137 ?138 130
 139 5 132 +0 0 138 130 28 50 136 216 0 138 108 132 0 +.1437835216995102 .119672
305030381 -.0187699507939755 -489900243643811e-31 -.924054872131514 -.3822598504
81333 .167776209783754 -.3768413583591135 .910956494054824 14 138 201 140 ?103 1
34 35 5 136 +0 0 103 134 28 50 108 360 0 103 22 136 0 +.1538095489886215 .120860
859632816 -.01902707869022375 -.98582510793274 -.0641341088662625 .1550344240784
37 489900243643811e-31 .924054872131514 .382259850481333 14 103 337 141 ?94 138
 142 5 108 +0 0 94 138 28 81 1 141 963 96 103 0 0 140 97 143 15 142 340 0 144 10
3 0 17 144 0 142 145 146 67 37 147 0 0 +17 145 0 142 148 144 64 149 150 0 0 +17
 146 0 142 144 148 58 151 152 0 0 +17 37 0 35 33 75 58 144 147 0 146 -16 147 165
 153 ?144 154 152 155 0 0 1 81 1 153 993 96 147 0 0 156 157 158 16 154 169 156 ?
73 159 147 160 0 0 1 16 152 161 157 ?146 147 161 162 0 0 1 30 255 155 223 0 147
 162 163 0 +.1536417727788375 .1203136461190434 -.0203202950347599 -.16777620978
3754 .3768413583591135 -.910956494054824 30 162 224 0 152 164 155 0 +.1536417727
788375 .1203136461190434 -.0203202950347599 489900243643811e-31 .924054872131514
 .382259850481333 30 163 222 0 165 155 166 0 +.1421057596016726 .123440718613972
 -.02787951573452375 .98582510793274 .0641341088662625 -.155034424078437 16 165
 156 167 ?75 39 168 163 0 0 1 30 166 221 0 39 163 169 0 +.1437835216995102 .1196
72305030381 -.0187699507939755 .98582510793274 .0641341088662625 -.1550344240784
37 16 39 168 170 ?38 171 165 166 0 0 1 30 169 220 0 171 166 172 0 +.143783521699
5102 .1104317563090658 -.02259254929878885 .98582510793274 .0641341088662625 -.1
55034424078437 16 171 164 173 ?63 174 39 169 0 0 1 30 172 219 0 174 169 175 0 +.
1421057596016726 .114200169892657 -.0317021142393371 .98582510793274 .0641341088
662625 -.155034424078437 16 174 160 176 ?177 178 171 172 0 0 1 30 175 7 0 178 17
2 179 0 +.141937983391889 .1136529563788844 -.03299533058387325 -247362468791904
5e-32 -.924054872131514 -.382259850481333 16 178 5 180 ?44 181 174 175 0 0 1 30
 179 11 0 181 175 182 0 +.143951297909294 .109130860078575 -.02206385265521535 .
167776209783754 -.3768413583591135 .910956494054824 16 181 9 183 ?53 184 178 179
 0 0 1 30 182 15 0 184 179 185 0 +.143951297909294 .109130860078575 -.0220638526
5521535 368631356217858e-31 .924054872131514 .382259850481333 16 184 13 186 ?45
 47 181 182 0 0 1 30 185 19 0 47 182 187 0 +.143951297909294 .1202195185441532 -
.01747673444943935 -.167776209783754 .3768413583591135 -.910956494054824 16 47 1
7 188 ?41 189 184 185 0 0 1 30 187 95 0 189 185 190 0 +.141937983391889 .1247416
148444626 -.02840821237809725 .98582510793274 .0641341088662625 -.15503442407843
7 16 189 79 191 ?192 193 47 187 0 0 1 30 190 96 0 193 187 194 0 +.14395129790929
4 .1202195185441532 -.01747673444943935 .98582510793274 .0641341088662625 -.1550
34424078437 16 193 80 195 ?196 31 189 190 0 0 1 30 194 97 0 31 190 32 0 +.143951
297909294 .109130860078575 -.02206385265521535 .98582510793274 .0641341088662625
 -.155034424078437 16 31 81 197 ?198 10 193 194 0 0 1 30 32 98 0 10 194 199 0 +.
141937983391889 .1136529563788844 -.03299533058387325 .98582510793274 .064134108
8662625 -.155034424078437 38 199 616 0 200 32 201 0 +22 102 202 203 203 204 16 2
00 750 205 ?206 207 208 199 0 0 1 38 201 623 0 207 199 21 0 +22 209 210 211 211
 212 51 255 102 781 0 93 23 105 213 +.1584759638994015 .1089575062427902 -.01902
877467070075 -.997082542822039 .0291782296690595 -.0705339188824469 .0015 -.0763
308771044587 -.3811446237367005 .921358981611985 40 255 20 202 0 1 20 .000121078
3316122568 .394746200992838 ??.1554735968487955 .108470298815616 -.0178510250423
9935 .1556551566152715 .1090329821876422 -.01772457623907875 .155866237251248 .1
094998579876822 -.0177849417100326 .156129735110946 .1099536146404392 -.01801449
561792475 .1564099802131075 .110308922883705 -.0184109274258002 .156661885703244
5 .1104920429941762 -.01892044073868425 .1568464444466275 .1104747593763304 -.01
945152121085255 .156947186700856 .1102843431657366 -.0199210236714919 .156967866
6787705 .1099711717930872 -.02028522786394545 .156917876783875 .1095767252988542
 -.02052972854025695 .156803280451988 .1091301216782556 -.02064598697058235 .156
6272762099125 .1086600270913382 -.0206207170480519 .1563953980270425 .1082065321
890756 -.02043895162942575 .156122835562836 .1078270341425878 -.0200965774157643
5 .155841795037697 .1075899440384016 -.019619072309584 .155602254024313 .1075486
7647252 -.01907666581290235 .1554528416454525 .1077016098346486 -.01857167902457
64 .155407009573026 .1079870541440534 -.01817951743105325 .155446600085284 .1083
470478573106 -.01791103530546395 .1554735968487955 .108470298815616 -.0178510250
423993 41 3 CI8 term_use0 0 1 cCZ1 203 H?.1554735968487955 .108470298815616 -.01
78510250423993 204 2 17 INTERSECTION_DATA17 Intersection data7 uv_type0 0 1 u6 v
alues0 1 1 fT80 204 4 .708259191794688 2.742732723534485 0 .00289632062635006 .6
83720314160835 2.78097921444196 .388561716994278 .002722789727741735 .6561231989
36286 2.805106681191895 .709015413807986 .002530205333034065 .622051557002263 2.
82044444565117 1.059514403069732 .002296907369604595 .585910425886588 2.82070923
560036 1.429074205702946 .002055809025032175 .553476399196495 2.801846754432685
 1.80396733304241 .00184591954969648 .530090157154808 2.76549316932871 2.1679298
6617833 .00169885413011718 .518265165993516 2.719076157510695 2.51053451172877 .
00162596562765003 .517600129064648 2.671150218859495 2.832430464744 .00162189694
5415775 .526639199876373 2.627861078856155 3.142633997833545 .001677477337402135
 .544164123275438 2.59320538733565 3.45236365742504 .001786908399079365 .5692075
39437452 2.570233138694305 3.7713497604976 .001946900241825925 .600465519882938
 2.561399316620065 4.106501211638015 .002152049124322125 .635535718389772 2.5681
08192560935 4.46085156094372 .00238859432303781 .670220962851334 2.5898124280316
15 4.83162556462176 .002628216748542075 .698573995034901 2.623059272225365 5.207
12253332248 .00282759674092379 .715154132123115 2.661477350254775 5.566098236012
32 .002945416843166865 .718849162539251 2.69879250257116 5.89186487497509 .00297
17832680756 .712131249955612 2.732787165423285 6.1918382139073 .0029238751422190
55 .708259191794688 2.742732723534485 6.28318530717958 .002896320626350065 51 23
 784 0 214 215 102 216 +.1584759638994015 .1181980549641054 -.01520617616588745
 -.997082542822039 .0291782296690595 -.0705339188824469 .0015 -.0763308771044587
 -.3811446237367005 .921358981611985 50 105 577 0 94 102 22 0 +.1542538599563355
 .11753511798916 -.02668373482882615 -.997082542822039 .0291782296690595 -.07053
39188824469 -.0763308771044587 -.3811446237367005 .921358981611985 141 255 213 1
99 213 213 102 14 214 685 217 ?0 218 219 5 23 -0 0 0 218 28 51 215 787 0 218 209
 23 220 +.1598499196872815 .1296789325520234 -.0298793385824965 -.99708254282203
9 .0291782296690595 -.0705339188824469 .0015 -.0763308771044587 -.38114462373670
05 .921358981611985 141 216 7 216 216 23 14 218 709 221 ?214 100 222 5 215 -0 0
 214 100 28 51 209 790 0 100 0 215 223 +.1598499196872815 .1111978351093932 -.03
752453559212315 -.997082542822039 .0291782296690595 -.0705339188824469 .0015 -.0
763308771044587 -.3811446237367005 .921358981611985 141 220 21 220 220 215 38 21
 630 0 224 201 7 0 +22 215 225 226 226 227 16 224 702 228 ?229 20 207 21 0 0 1 4
0 20 225 0 1 20 .000119864690545316 .380142744490503 ??.15742838380505 .12917472
7910976 -.0286605007826997 .1571936623609345 .1297107023201294 -.028564108188711
25 .156938787576448 .1302359398494442 -.02865876263210125 .156664699259707 .1307
304177468102 -.02894942382721315 .156411256069702 .1311069917481102 -.0294239944
0695165 .1562665225058125 .1312642511978566 -.029890071457484 .1562109551713375
 .1312752379245788 -.03032014308858195 .156239436227636 .1311600648889868 -.0307
38823429294 .156338786509918 .130951383769548 -.0310721454508039 .15649988723268
 .130647374796101 -.0313430713188089 .1567250776210185 .1302269936106008 -.03153
377642442595 .157000142686291 .129699918761833 -.0315832478717368 .1572847014636
59 .129136599509047 -.03143010541395815 .157526350686741 .128652127448843 -.0310
6988866052005 .157686709446363 .1283438668964528 -.03057510824781825 .1577572000
054565 .128239762569104 -.03005069454419735 .1577514745587895 .1283097330268924
 -.02957079932753425 .1576856385620585 .128514232112534 -.0291656458001191 .1575
68324038818 .1288284382836546 -.0288487173570628 .15742838380505 .12917472791097
6 -.0286605007826997 41 1 226 H?.15742838380505 .129174727910976 -.0286605007826
997 204 80 227 4 .624544263811734 5.26276279081891 0 .002313789949671755 .659940
776151119 5.24681666510487 .3626408036386625 .00255666644102724 .699308660287466
 5.24695794205465 .713108948221088 .002832799489337355 .742449898619514 5.261897
65328454 1.08592027575626 .00314101762796496 .783514676263321 5.29045043953997 1
.478857143469604 .00343818249378869 .808482160026145 5.32042929651565 1.79986138
89223 .003619956596920835 .820281479369722 5.34980956702325 2.084260938908305 .0
0370601702685408 .819976203744029 5.38074288381337 2.37539472110091 .00370378968
2723265 .808783122073746 5.40817068139936 2.64104997341022 .00362215081343175 .7
88132852205286 5.43421295798677 2.916108439779695 .00347175911467787 .7573370600
25069 5.45870573524814 3.225682834846865 .00324841090932536 .717514977111736 5.4
7756217889745 3.57646628760653 .00296225863866344 .673523662341662 5.48392452539
921 3.958882552481725 .00265129165311405 .632929360994268 5.47203718414308 4.352
53760158105 .00237080389498415 .602713604421622 5.44213775356283 4.7343368769161
2 .002167019676487075 .586047276664392 5.4012886969738 5.08809255230311 .0020567
0823697626 .582068505166941 5.35807966656501 5.4123785886766 .002030609703700825
 .588621548685664 5.31812863349341 5.71794272831241 .00207364348198077 .60427438
1276597 5.28458731538688 6.01882466911936 .00217742951985385 .624544263811734 5.
26276279081891 6.28318530717959 .002313789949671755 81 1 228 1003 96 224 0 0 230
 231 232 17 229 0 107 229 229 0 233 224 0 0 +16 20 678 230 ?106 234 224 7 0 0 1
 16 207 726 231 ?235 224 200 201 0 0 1 81 1 231 1004 96 207 0 0 228 205 236 17 2
35 0 237 235 235 0 238 207 0 0 +15 237 621 0 235 91 239 17 238 0 240 238 238 0 2
35 207 0 0 -15 240 737 0 238 100 0 14 100 733 241 ?218 93 242 5 209 -0 0 218 93
 28 81 1 241 967 96 100 0 0 98 221 243 15 242 736 0 244 100 240 17 244 0 242 244
 244 0 245 246 0 0 +17 245 0 247 245 245 0 244 246 0 0 -16 246 730 248 ?244 208
 249 250 0 0 1 81 1 248 1007 96 246 0 0 251 252 253 16 208 754 251 ?254 200 246
 255 0 0 1 16 249 706 252 ?256 246 257 258 0 0 1 31 255 250 799 0 246 0 258 0 +.
1548645069731715 .1113437262577386 -.0378772051865354 -.997082542822039 .0291782
296690595 -.0705339188824469 -.0763308771044587 -.3811446237367005 .921358981611
985 .0015 31 258 797 0 249 250 259 0 +.1548645069731715 .1298248237003688 -.0302
3200817690875 -.997082542822039 .0291782296690595 -.0705339188824469 -.076330877
1044587 -.3811446237367005 .921358981611985 .0015 31 259 795 0 257 258 255 0 +.1
53490551185291 .1183439461124506 -.01555884576029965 -.997082542822039 .02917822
96690595 -.0705339188824469 -.0763308771044587 -.3811446237367005 .9213589816119
85 .0015 16 257 682 260 ?261 249 0 259 0 0 1 31 255 793 0 208 259 110 0 +.153490
551185291 .1091033973911354 -.019381444265113 -.997082542822039 .029178229669059
5 -.0705339188824469 -.0763308771044587 -.3811446237367005 .921358981611985 .001
5 134 255 110 583 0 1 255 262 263 +264 265 31 262 582 0 234 110 266 0 +.15428162
9391818 .117673779713481 -.0270189283935583 -.997082542822039 .0291782296690595
 -.0705339188824469 -.0763308771044587 -.3811446237367005 .921358981611985 .015
 141 263 22 263 263 110 136 255 264 3 4 3 2 5 FFF1 267 268 269 135 255 265 2 0 4
5 255 12 267 .159267042105928 .1175278885651356 -.0266662587991461 .160050691390
3865 .1199397354582476 -.03249653071917405 .157712683833219 .123159018909004 -.0
4027865733722675 .155426592548385 .1233909490695314 -.0408393131177381 127 255 2
 268 4 4 128 255 2 269 0 1 16 234 546 270 ?271 272 20 262 0 0 1 30 266 525 0 273
 262 274 0 +.1542538599563355 .111990788756371 -.02897729393171415 .076330877104
4587 .3811446237367005 -.921358981611985 16 273 471 275 ?78 276 272 266 0 0 1 30
 274 522 0 272 266 277 0 +.1542538599563355 .1230794472219492 -.0243901757259382
 .0763308771044587 .3811446237367005 -.921358981611985 16 272 457 278 ?279 273 2
34 274 0 0 1 30 277 517 0 276 274 280 0 +.1538095489886215 .1097722011672378 -.0
2361419689599975 489900243643811e-31 .924054872131514 .382259850481333 16 276 46
0 281 ?282 283 273 277 0 0 1 30 280 369 0 283 277 160 0 +.1547537097950145 .1144
86699794146 -.03501077809689295 -2473624687919045e-32 -.924054872131514 -.382259
850481333 16 283 307 284 ?285 150 276 280 0 0 1 30 160 230 0 154 280 286 0 +.142
1057596016726 .123440718613972 -.02787951573452375 -489900243643811e-31 -.924054
872131514 -.382259850481333 30 286 229 0 159 160 287 0 +.1437835216995102 .11043
17563090658 -.02259254929878885 .167776209783754 -.3768413583591135 .91095649405
4824 16 159 172 288 ?71 289 154 286 0 0 1 30 287 228 0 289 286 290 0 +.143783521
6995102 .119672305030381 -.0187699507939755 489900243643811e-31 .924054872131514
 .382259850481333 16 289 175 291 ?40 168 159 287 0 0 1 30 290 227 0 168 287 292
 0 +.1437835216995102 .119672305030381 -.0187699507939755 -.167776209783754 .376
8413583591135 -.910956494054824 16 168 178 293 ?36 165 289 290 0 0 1 30 292 226
 0 150 290 164 0 +.151964010681 .1240820597026346 -.02942985997530815 -489900243
643811e-31 -.924054872131514 -.382259850481333 16 150 153 294 ?145 161 283 292 0
 0 1 30 164 225 0 161 292 162 0 +.1536417727788375 .1110730973977284 -.024142893
5395732 .167776209783754 -.3768413583591135 .910956494054824 16 161 157 295 ?148
 152 150 164 0 0 1 81 1 295 995 96 161 0 0 157 294 296 17 148 0 142 146 145 61 6
6 161 0 0 +17 66 0 135 297 63 64 148 161 0 177 -15 135 196 0 66 130 0 17 297 0 1
35 71 66 60 177 174 0 298 -17 63 0 135 66 71 61 299 171 0 151 +17 177 0 131 149
 73 64 297 174 0 145 +15 131 192 0 149 127 0 17 149 0 131 300 177 67 145 150 0 1
44 -17 73 0 131 177 300 60 301 154 0 297 +17 300 0 131 73 149 57 75 165 0 301 -1
7 301 0 302 303 298 57 73 154 0 0 -15 302 133 0 298 123 0 17 303 0 302 304 301 1
1 36 168 0 0 -17 298 0 302 301 304 60 71 159 0 0 -17 304 0 302 298 303 69 40 289
 0 0 -17 71 0 135 63 297 69 298 159 0 299 +17 299 0 139 40 151 69 63 171 0 304 -
15 139 200 0 151 134 0 17 40 0 139 38 299 11 304 289 0 303 +17 151 0 139 299 38
 61 146 152 0 148 -17 38 0 139 151 40 58 33 39 0 37 +17 36 0 35 75 33 57 303 168
 0 300 +15 35 204 0 37 138 0 17 75 0 35 37 36 67 300 165 0 149 +80 255 1 96 0 30
5 8001 0 0 0 0 3 5 0 0 0 FFFFTFTFFFFFFF2 81 1 157 994 96 152 0 0 153 295 306 81
 1 294 996 96 150 0 0 295 284 307 83 255 3 296 .988235294117647 .984313725490196
 1 81 1 284 997 96 283 0 0 294 281 308 83 3 307 .988235294117647 .98431372549019
6 1 81 1 281 998 96 276 0 0 284 275 309 83 3 308 .988235294117647 .9843137254901
96 1 81 1 275 999 96 273 0 0 281 278 310 83 3 309 .988235294117647 .984313725490
196 1 81 1 278 1000 96 272 0 0 275 270 311 83 3 310 .988235294117647 .9843137254
90196 1 81 1 270 1001 96 234 0 0 278 230 312 83 3 311 .988235294117647 .98431372
5490196 1 81 1 230 1002 96 20 0 0 270 228 313 83 3 312 .988235294117647 .9843137
25490196 1 83 3 313 .988235294117647 .984313725490196 1 83 3 306 .98823529411764
7 .984313725490196 1 79 255 15 305 SDL/TYSA_COLOUR81 1 293 989 96 168 0 0 167 29
1 314 81 1 167 988 96 165 0 0 170 293 315 81 1 291 990 96 289 0 0 293 288 316 83
 3 314 .988235294117647 .984313725490196 1 81 1 288 991 96 159 0 0 291 156 317 8
3 3 316 .988235294117647 .984313725490196 1 81 1 156 992 96 154 0 0 288 153 318
 83 3 317 .988235294117647 .984313725490196 1 83 3 318 .988235294117647 .9843137
25490196 1 81 1 170 987 96 39 0 0 173 167 319 83 3 315 .988235294117647 .9843137
25490196 1 81 1 173 986 96 171 0 0 176 170 320 83 3 319 .988235294117647 .984313
725490196 1 81 1 176 985 96 174 0 0 180 173 321 83 3 320 .988235294117647 .98431
3725490196 1 81 1 180 984 96 178 0 0 183 176 322 83 3 321 .988235294117647 .9843
13725490196 1 81 1 183 983 96 181 0 0 186 180 323 83 3 322 .988235294117647 .984
313725490196 1 81 1 186 982 96 184 0 0 188 183 324 83 3 323 .988235294117647 .98
4313725490196 1 81 1 188 981 96 47 0 0 191 186 325 83 3 324 .988235294117647 .98
4313725490196 1 81 1 191 980 96 189 0 0 195 188 326 83 3 325 .988235294117647 .9
84313725490196 1 81 1 195 979 96 193 0 0 197 191 327 83 3 326 .988235294117647 .
984313725490196 1 81 1 197 978 96 31 0 0 29 195 328 83 3 327 .988235294117647 .9
84313725490196 1 81 1 29 977 96 10 0 0 217 197 329 83 3 328 .988235294117647 .98
4313725490196 1 81 1 217 969 96 214 0 0 221 29 330 83 3 329 .988235294117647 .98
4313725490196 1 81 1 221 968 96 218 0 0 241 217 331 83 3 330 .988235294117647 .9
84313725490196 1 83 3 331 .988235294117647 .984313725490196 1 17 285 0 332 333 1
92 76 87 283 0 0 +15 332 89 0 192 18 0 17 333 0 332 334 285 54 30 10 0 0 -17 192
 0 332 285 334 85 48 189 0 0 +17 87 0 335 84 78 85 285 283 0 279 -15 335 562 0 7
8 94 0 17 84 0 335 81 87 82 279 272 0 282 -17 78 0 335 87 81 76 119 273 0 30 +17
 279 0 124 48 196 85 84 272 0 192 +15 124 436 0 279 116 0 17 48 0 124 46 279 34
 192 189 0 334 -17 196 0 124 279 46 82 336 193 0 0 +17 46 0 124 196 48 42 41 47
 0 0 -17 336 0 117 337 282 42 196 193 0 46 -15 117 445 0 282 112 0 17 337 0 117
 198 336 49 45 184 0 0 -17 282 0 117 336 198 82 81 276 0 196 +17 198 0 117 282 3
37 79 338 31 0 0 +17 81 0 335 78 84 79 282 276 0 119 -17 119 0 113 338 30 79 78
 273 0 198 -17 338 0 113 56 119 49 198 31 0 337 -17 30 0 113 119 56 76 333 10 0
 285 +17 56 0 113 30 338 54 53 181 0 44 -17 53 0 43 45 44 49 56 181 0 338 +17 44
 0 43 53 41 54 334 178 0 333 +15 43 4 0 44 123 302 17 334 0 332 192 333 34 44 17
8 0 0 -17 45 0 43 41 53 42 337 184 0 336 +14 18 90 339 ?127 123 332 5 6 -0 0 127
 123 28 81 1 339 958 96 18 0 0 126 129 340 81 1 126 957 96 123 0 0 122 339 341 8
1 1 129 959 96 127 0 0 339 133 342 83 3 340 .988235294117647 .984313725490196 1
 81 1 133 960 96 130 0 0 129 137 343 83 3 342 .988235294117647 .984313725490196
 1 81 1 137 961 96 134 0 0 133 140 344 83 3 343 .988235294117647 .98431372549019
6 1 81 1 140 962 96 138 0 0 137 141 345 83 3 344 .988235294117647 .9843137254901
96 1 83 3 345 .988235294117647 .984313725490196 1 81 1 122 956 96 116 0 0 114 12
6 346 83 3 341 .988235294117647 .984313725490196 1 81 1 114 955 96 112 0 0 111 1
22 347 83 3 346 .988235294117647 .984313725490196 1 83 3 347 .988235294117647 .9
84313725490196 1 17 271 0 348 271 271 0 349 234 0 0 +15 348 561 0 271 94 335 17
 349 0 350 349 349 0 271 234 0 0 -15 350 566 0 349 91 90 81 1 260 1009 96 257 0
 0 252 0 351 17 261 0 219 261 261 0 352 257 0 0 +15 219 688 0 261 214 353 17 352
 0 104 352 352 0 261 257 0 0 -15 104 670 0 352 94 354 15 354 661 0 355 94 247 17
 355 0 354 355 355 0 256 249 0 0 -15 247 652 0 245 94 356 15 356 643 0 357 94 34
8 17 357 0 356 357 357 0 254 208 0 0 -17 254 0 101 254 254 0 357 208 0 0 +15 101
 760 0 254 93 358 15 358 761 0 359 93 0 17 359 0 358 359 359 0 206 200 0 0 -17 2
06 0 239 206 206 0 359 200 0 0 +15 239 614 0 206 91 350 17 256 0 222 256 256 0 3
55 249 0 0 +15 222 712 0 256 218 360 15 360 713 0 233 218 0 17 233 0 360 233 233
 0 229 224 0 0 -15 353 689 0 361 214 0 17 361 0 353 361 361 0 106 20 0 0 -17 106
 0 95 106 106 0 361 20 0 0 +81 1 252 1008 96 249 0 0 248 260 362 83 3 351 .98823
5294117647 .984313725490196 1 83 3 362 .988235294117647 .984313725490196 1 81 1
 251 1006 96 208 0 0 205 248 363 81 1 205 1005 96 200 0 0 231 251 364 83 3 363 .
988235294117647 .984313725490196 1 83 3 364 .988235294117647 .984313725490196 1
 83 3 253 .988235294117647 .984313725490196 1 81 1 98 966 96 93 0 0 92 241 365 8
3 3 243 .988235294117647 .984313725490196 1 83 3 365 .988235294117647 .984313725
490196 1 83 3 236 .988235294117647 .984313725490196 1 15 107 628 0 229 91 237 83
 3 232 .988235294117647 .984313725490196 1 141 223 201 223 223 209 40 20 210 0 1
 20 .0001210566386741244 .3993458604480025 ??.15742838380505 .1106936304683456 -
.03630569779232635 .157596362253766 .1111632583771992 -.0361833774177174 .157713
2990501505 .1116628666340424 -.036227869885626 .15776127694939 .1120983283783898
 -.03642751277829185 .157745823551118 .112433424727224 -.0367392029080153 .15767
2544866077 .1126599101104536 -.03713578977475275 .15754117683022 .11276314539080
7 -.0375976099174431 .1573494343826495 .1127194897538822 -.03809743724772145 .15
7099264320261 .1125046718425472 -.03858831874774335 .1568063650824495 .112111534
2603336 -.0389978925206529 .15651339868722 .111575755560701 -.0392384253532385 .
156328367202775 .1111079694702006 -.0392645194928479 .156221054797938 .110632687
4171376 -.03912472749890155 .1562195774518035 .1102799554135192 -.03887836165775
195 .1562904435538255 .1100267629603602 -.03856634526963485 .15642760404949 .109
8526875030382 -.03816826350873115 .1566342127620495 .109793050588789 -.037676222
5148275 .1568976909708145 .1099075093596416 -.03713215773357795 .157181125505743
5 .1102271890030732 -.03663559693784875 .15742838380505 .1106936304683456 -.0363
0569779232635 41 1 211 H?.15742838380505 .1106936304683456 -.03630569779232635 2
04 80 212 4 .624544263811734 1.020422516360676 0 .002313789949671755 .6003644528
83493 .992372190704551 .3262362593063455 .00215137674648987 .585406228951863 .95
246246076983 .664821413394165 .00205249702078646 .58219632771646 .90941071308628
4 .986865451959495 .002031446693399135 .589376486439089 .869798422936864 1.29169
174595264 .002078617251597145 .605597320826744 .836763328080477 1.59272251419518
5 .00218626341762963 .630291959100752 .812783364644816 1.90195533140083 .0023528
34400070155 .663012083568677 .800354619159696 2.228502191335445 .002577998433429
275 .702552823649053 .801669602780451 2.57830968746768 .00285579442492317 .74581
5469179188 .817746061031478 2.953076067892885 .003165256926360165 .7863372551218
87 .847206397154381 3.34698847067262 .00345870125402949 .810049514756335 .877185
513242774 3.663780780099625 .00363138426898369 .821465429775891 .912083298167911
 3.99868820559219 .003714655628411865 .81787494166856 .942538203342935 4.2859787
73405105 .00368845942078379 .804153551877097 .969380619313743 4.55045896110204 .
003588404621422025 .780804078056311 .995187131641285 4.8332292816876 .0034184868
05324405 .747310942461884 1.01871270287952 5.15402283217438 .00317603518570494 .
705722125364588 1.034908862535964 5.51491236274682 .002878290346487415 .66185913
3227067 1.036723410238236 5.902651148164 .002569986026846825 .624544263811734 1.
020422516360676 0 .002313789949671755 83 3 158 .988235294117647 .984313725490196
 1 81 1 97 964 96 94 0 0 141 92 366 83 3 143 .988235294117647 .984313725490196 1
 83 3 366 .988235294117647 .984313725490196 1 83 3 115 .988235294117647 .9843137
25490196 1 141 109 199 367 368 22 141 367 7 369 109 22 141 368 201 109 369 22 14
1 369 21 368 367 22 83 3 99 .988235294117647 .984313725490196 1 19 17 100 0 1 0
 9 5 S0 40 20 24 0 1 20 .000109689959490311 .367725318652249 ??.1554735968487955
 .1177108475369312 -.014028426537586 .155410395216831 .1181561158896696 -.013924
8156353656 .155428601556673 .1186169594422226 -.01395543277228076 .1555218863435
11 .119027039822007 -.01410993085975352 .1556803520728925 .1193745371938202 -.01
437762080975162 .155898992916281 .1196349670931902 -.0147589182001094 .156163660
634641 .1197603635615004 -.0152385063506048 .156442439572799 .1197011515480392 -
.0157637147143002 .1566903168045855 .1194433331381976 -.01624712966815165 .15686
74499287385 .119031058522194 -.01660260468180635 .1569566958234455 .118545451696
919 -.0167870622756384 .156963055929906 .118058422064102 -.0168052295949877 .156
8987104074075 .1176121162453186 -.01668028131913285 .1567725077046725 .117231979
4209624 -.0164313179902455 .1565897655263205 .116944335945844 -.0160723553259726
5 .1563572432884025 .116783685568379 -.01562236220150355 .156089896950635 .11678
88088640224 -.01511785720022905 .155817556408245 .1169867036030394 -.01462184411
786884 .1555864357048165 .1173656079288104 -.01421836200057694 .1554735968487955
 .1177108475369312 -.01402842653758598 41 1 25 H?.1554735968487955 .117710847536
9312 -.01402842653758598 204 80 26 4 .708259191794688 3.540452583645105 0 .00289
6320626350065 .717902122216031 3.57452447300489 .3054326047611135 .0029650219295
47805 .717545271259008 3.61010423319997 .614805690304927 .002962474851592055 .70
7697194964546 3.64302140011188 .91089388522253 .002892324994198605 .689480159585
483 3.67309104012199 1.210819694503576 .00276334216113946 .66327588540938 3.6990
30872279225 1.530040867545795 .002579832475667355 .630378424985084 3.71701136461
3515 1.874617690412715 .002353422992698225 .59424553340044 3.721294856206995 2.2
4070332869249 .00211077468254746 .56040439849791 3.707007822279405 2.61584431157
658 .001890195088336355 .534552502767321 3.6742326368782 2.983641739105115 .0017
26622344833415 .519980988962316 3.62935341868817 3.33159761077214 .0016364781906
86105 .516832938462806 3.581124601452105 3.65772682234155 .00161720738931148 .52
3731008901754 3.5363390494973 3.969652315342485 .001659529681266455 .53936261820
1577 3.499372354093385 4.278536199263275 .001756712114209295 .562742719398811 3.
47342716087788 4.59462462829107 .001905209179257945 .592711069718573 3.461114599
952 4.92556412613571 .00210062577135518 .627192110736561 3.46415412170729 5.2754
2230879372 .00233175691149173 .662449973021668 3.48254569772948 5.6430229861552
 .002574091383640825 .692851962787598 3.513579640734865 6.01904098676716 .002787
13438482268 .708259191794688 3.540452583645105 578241158658935e-30 .002896320626
350065 74 4 CI16 index_map_offset0 0 1 dCCZ20 15 7 0 0 370 260 371 372 373 13 2
 0 0 0 0 0 0 0 0 0 0 0 0 0 81 2 370 843 374 1 0 371 0 0 375 0 81 1 371 970 376 1
 370 372 0 0 377 81 1 372 973 378 1 371 373 0 0 379 81 1 373 974 380 1 372 13 0
 0 381 81 1 13 975 382 1 373 2 0 0 383 80 1 382 378 384 9000 0 0 0 0 3 5 0 0 0 F
FTFFFFFFFFFFF3 84 255 16 383 _06_bar_bottom_679 13 384 AdamsPartName80 1 380 382
 385 9000 0 0 0 0 3 5 0 0 0 FFTFFFFFFFFFFF3 84 6 381 PSMAR179 12 385 AdamsRFMNam
e80 1 378 386 387 9000 0 0 0 0 3 5 0 0 0 FFTFFFFFFFFFFF1 82 255 1 379 28 79 12 3
87 UG2/ADAMS_ID80 1 376 388 389 8017 0 0 0 0 0 0 0 0 0 TTTTTTTTTTTTTF3 84 13 377
 02_foot_stand79 13 389 SDL/TYSA_NAME80 2 374 390 391 8004 0 0 0 0 3 5 0 0 0 FFT
FFFFFFFFFFF2 3 83 1 375 23e2 79 16 391 SDL/TYSA_DENSITY80 1 12 380 392 9000 0 0
 0 0 3 5 0 0 0 FFTFFFFFFFFFFF3 84 7 14 SOLID2879 15 392 AdamsObjectName1 0 
