**ABCDEFGHIJKLMNOPQRSTUVWXYZabcdefghijklmnopqrstuvwxyz**************************
**PARASOLID !"#$%&'()*+,-./:;<=>?@[\]^_`{|}~0123456789**************************
**PART1;
MC=unknown;
MC_MODEL=unknown;
MC_ID=unknown;
OS=unknown;
OS_RELEASE=unknown;
FRU=sdl_parasolid_customer_support;
APPL=parasolid_acceptance_tests;
SITE=unknown;
USER=unknown;
FORMAT=text;
GUISE=transmit;
KEY=Controls_Plant_9_Tensegrity__06_bar_bottom_3_SOLID14;
FILE=Controls_Plant_9_Tensegrity__06_bar_bottom_3_SOLID14.xmt_txt;
DATE=unknown;
**PART2;
SCH=SCH_3101206_31100;
USFLD_SIZE=1;
**PART3;
**END_OF_HEADER*****************************************************************
T51 : TRANSMIT FILE created by modeller version 310120623 SCH_3101206_31100_1300
6222 0 12 34 CCCCCCI4 mesh1006 0 I8 polyline1008 0 CCCCCCCDI5 owner1040 0 CCCCCC
I13 boundary_mesh1006 0 I17 boundary_polyline1008 0 CCCA16 index_map_offset0 0 1
 dA9 index_map82 0 A17 node_id_index_map82 0 A20 schema_embedding_map82 0 A5 chi
ld12 0 A14 lowest_node_id0 0 1 dA16 mesh_offset_data206 0 Z1 1009 2 3 0 0 0 0 0
 0 1e3 1e-8 0 4 0 1 0 1 1 5 6 7 8 0 0 9 10 11 0 0 0 0 0 0 0 81 255 1 2 976 12 1
 13 0 0 0 14 70 11 CI9 list_type0 0 1 uI10 notransmit0 0 1 lCCCDCCDI12 finger_in
dex0 0 1 dI12 finger_block1012 0 CZ3 0 4 T1 0 0 7 20 1 15 15 13 255 5 99 0 1 0 1
6 0 0 17 0 50 255 6 94 0 18 19 0 0 +.0795583806385639 .01615965799681175 -.15293
0388339633 .98582510793274 -.1550344240784355 -.0641341088662626 -37289705541956
e-29 .382259850481334 -.924054872131514 38 12 CCCCCCCCCCCA17 intersection_data20
4 0 Z7 637 0 20 21 0 0 +22 23 24 25 25 26 29 255 8 137 0 11 27 0 .09040245682582
4 .01865913768724365 -.1638004671306085 19 8 CCCCCCCA5 owner12 0 Z9 33 0 1 17 0
 28 V0 16 255 10 82 29 ?30 0 31 32 0 0 1 18 255 11 135 0 33 0 34 8 ?1 17 255 33
 0 35 36 37 11 38 39 0 40 -18 34 30 0 41 11 42 27 ?1 17 41 0 43 44 45 34 46 47 0
 48 +18 42 27 0 45 34 49 50 ?1 29 27 32 0 34 50 8 .0795583806385639 .02074677620
258775 -.164019046805211 29 50 29 0 42 51 27 .0913882819337568 .0188863631136465
5 -.164788656111606 29 51 26 0 49 52 50 .0913882819337568 .01429924490787052 -.1
53699997646028 18 49 24 0 53 42 54 51 ?1 29 52 23 0 54 55 51 .0795583806385639 .
01615965799681175 -.152930388339633 18 54 21 0 56 49 57 52 ?1 29 55 232 0 58 59
 52 .0887246947279865 .00954957274669539 -.1675688807141995 18 58 183 0 38 60 61
 55 ?1 29 59 233 0 61 62 55 .0887246947279865 .00572697424188205 -.1583283319928
845 18 61 181 0 63 58 64 59 ?1 29 62 234 0 64 65 59 .0788664436486591 .007277318
48266641 -.1576869909042215 18 64 188 0 66 61 67 62 ?1 29 65 235 0 57 68 62 .080
5442057464966 .020209481928028 -.163159126041946 18 57 187 0 36 54 69 65 ?1 29 6
8 237 0 69 70 65 .090402456825824 .0148365391824303 -.154559918409293 18 69 185
 0 71 57 60 68 ?1 29 70 238 0 60 72 68 .0805442057464966 .01638688342321465 -.15
39185773206305 18 60 182 0 73 69 58 70 ?1 29 72 377 0 67 74 70 .0788664436486591
 .01109991698747974 -.166927539625537 18 67 318 0 75 64 76 72 ?1 29 74 381 0 76
 77 72 .0773772899113751 .00431722357409904 -.1578293259983015 18 76 327 0 78 67
 79 74 ?1 29 77 584 0 79 80 74 .0897105198359192 .00518967996732228 -.1574684112
29619 18 79 553 0 81 76 82 77 ?1 29 80 585 0 82 83 77 .0897105198359192 .0097767
9817309829 -.1685570696951975 18 82 554 0 84 79 85 80 ?1 29 83 587 0 85 86 80 .0
773772899113751 .00890434177987505 -.1689179844638795 18 85 555 0 87 82 88 83 ?1
 29 86 588 0 88 0 83 .0839255592591695 .002440215965538745 -.165098920965433 18
 88 552 0 89 85 0 86 ?1 17 89 0 90 89 89 88 0 0 0 0 ?15 255 90 567 0 89 91 0 14
 255 91 563 92 ?93 94 95 5 22 -0 0 93 94 28 81 1 92 965 96 91 0 0 97 98 99 14 93
 757 98 ?100 91 101 5 102 -0 0 100 91 28 14 94 556 97 ?91 103 104 5 105 +0 0 91
 103 28 15 95 635 0 106 91 107 68 255 22 576 0 91 105 108 109 +110 .083543904873
6472 .00704701087359867 -.1631931978467495 -.0763308771044597 .921358981611984 .
381144623736701 .0839255592591695 .002440215965538745 -.165098920965433 ?0 ?-.99
7082542822039 -.0705339188824478 -.0291782296690596 0 13 28 34 0 0 0 0 0 0 9 16
 14 16 453 111 ?112 0 113 5 19 -0 0 112 0 28 81 1 111 954 96 16 0 0 0 114 115 14
 112 447 114 ?116 16 117 5 118 -0 0 116 16 28 15 113 451 0 119 16 0 50 19 93 0 1
6 118 6 0 +.0913882819337568 .01429924490787052 -.153699997646028 -2303858922580
355e-31 .382259850481334 -.924054872131514 -.98582510793274 .1550344240784355 .0
641341088662625 50 118 92 0 112 120 19 0 +.0913882819337568 .01429924490787052 -
.153699997646028 -.98582510793274 .1550344240784355 .0641341088662626 3016414738
38798e-30 -.382259850481334 .924054872131514 50 120 91 0 116 121 118 0 +.0913882
819337568 .01888636311364655 -.164788656111606 2303858922580355e-31 -.3822598504
81334 .924054872131514 .98582510793274 -.1550344240784355 -.0641341088662625 14
 116 438 122 ?123 112 124 5 120 -0 0 123 112 28 50 121 3 0 123 125 120 0 +.08547
33312861603 .01752301055522915 -.1588595222256195 .167776209783753 .910956494054
823 .3768413583591135 -2303858922580355e-31 .382259850481334 -.924054872131514 1
4 123 150 126 ?18 116 43 5 121 +0 0 18 116 28 50 125 213 0 127 128 121 0 +.08054
42057464966 .020209481928028 -.163159126041946 .98582510793274 -.155034424078435
5 -.0641341088662625 -2303858922580355e-31 .382259850481334 -.924054872131514 14
 127 189 129 ?130 18 131 5 125 +0 0 130 18 28 50 128 214 0 130 132 125 0 +.09040
2456825824 .0148365391824303 -.154559918409293 -2303858922580355e-31 .3822598504
81334 -.924054872131514 -.98582510793274 .1550344240784355 .0641341088662625 14
 130 193 133 ?134 127 135 5 128 +0 0 134 127 28 50 132 215 0 134 136 128 0 +.090
402456825824 .01865913768724365 -.1638004671306085 -.98582510793274 .15503442407
84355 .0641341088662625 2303858922580355e-31 -.382259850481334 .924054872131514
 14 134 197 137 ?138 130 139 5 132 +0 0 138 130 28 50 136 216 0 138 108 132 0 +.
090402456825824 .01865913768724365 -.1638004671306085 2303858922580355e-31 -.382
259850481334 .924054872131514 .98582510793274 -.1550344240784355 -.0641341088662
625 14 138 201 140 ?103 134 35 5 136 +0 0 103 134 28 50 108 360 0 103 22 136 0 +
.0897105198359192 .00977679817309829 -.1685570696951975 .167776209783753 .910956
494054823 .3768413583591135 -2303858922580355e-31 .382259850481334 -.92405487213
1514 14 103 337 141 ?94 138 142 5 108 +0 0 94 138 28 81 1 141 963 96 103 0 0 140
 97 143 15 142 340 0 144 103 0 17 144 0 142 145 146 67 37 147 0 0 +17 145 0 142
 148 144 64 149 150 0 0 +17 146 0 142 144 148 58 151 152 0 0 +17 37 0 35 33 75 5
8 144 147 0 146 -16 147 165 153 ?144 154 152 155 0 0 1 81 1 153 993 96 147 0 0 1
56 157 158 16 154 169 156 ?73 159 147 160 0 0 1 16 152 161 157 ?146 147 161 162
 0 0 1 30 255 155 223 0 147 162 163 0 +.0887246947279865 .00954957274669539 -.16
75688807141995 -.98582510793274 .1550344240784355 .0641341088662625 30 162 224 0
 152 164 155 0 +.0887246947279865 .00954957274669539 -.1675688807141995 -2303858
922580355e-31 .382259850481334 -.924054872131514 30 163 222 0 165 155 166 0 +.08
05442057464966 .020209481928028 -.163159126041946 -.167776209783753 -.9109564940
54823 -.3768413583591135 16 165 156 167 ?75 39 168 163 0 0 1 30 166 221 0 39 163
 169 0 +.090402456825824 .01865913768724365 -.1638004671306085 -.167776209783753
 -.910956494054823 -.3768413583591135 16 39 168 170 ?38 171 165 166 0 0 1 30 169
 220 0 171 166 172 0 +.090402456825824 .0148365391824303 -.154559918409293 -.167
776209783753 -.910956494054823 -.3768413583591135 16 171 164 173 ?63 174 39 169
 0 0 1 30 172 219 0 174 169 175 0 +.0805442057464966 .01638688342321465 -.153918
5773206305 -.167776209783753 -.910956494054823 -.3768413583591135 16 174 160 176
 ?177 178 171 172 0 0 1 30 175 7 0 178 172 179 0 +.0795583806385639 .01615965799
681175 -.152930388339633 37289705541956e-29 -.382259850481334 .924054872131514 1
6 178 5 180 ?44 181 174 175 0 0 1 30 179 11 0 181 175 182 0 +.0913882819337568 .
01429924490787052 -.153699997646028 .98582510793274 -.1550344240784355 -.0641341
088662625 16 181 9 183 ?53 184 178 179 0 0 1 30 182 15 0 184 179 185 0 +.0913882
819337568 .01429924490787052 -.153699997646028 -301641473838798e-30 .38225985048
1334 -.924054872131514 16 184 13 186 ?45 47 181 182 0 0 1 30 185 19 0 47 182 187
 0 +.0913882819337568 .01888636311364655 -.164788656111606 -.98582510793274 .155
0344240784355 .0641341088662625 16 47 17 188 ?41 189 184 185 0 0 1 30 187 95 0 1
89 185 190 0 +.0795583806385639 .02074677620258775 -.164019046805211 -.167776209
783753 -.910956494054823 -.3768413583591135 16 189 79 191 ?192 193 47 187 0 0 1
 30 190 96 0 193 187 194 0 +.0913882819337568 .01888636311364655 -.1647886561116
06 -.167776209783753 -.910956494054823 -.3768413583591135 16 193 80 195 ?196 31
 189 190 0 0 1 30 194 97 0 31 190 32 0 +.0913882819337568 .01429924490787052 -.1
53699997646028 -.167776209783753 -.910956494054823 -.3768413583591135 16 31 81 1
97 ?198 10 193 194 0 0 1 30 32 98 0 10 194 199 0 +.0795583806385639 .01615965799
681175 -.152930388339633 -.167776209783753 -.910956494054823 -.3768413583591135
 38 199 616 0 200 32 201 0 +22 102 202 203 203 204 16 200 750 205 ?206 207 208 1
99 0 0 1 38 201 623 0 207 199 21 0 +22 209 210 211 211 212 51 255 102 781 0 93 2
3 105 213 +.0942591267439941 .00125991638411018 -.1601762491678295 -.07633087710
44597 .921358981611984 .381144623736701 .0015 .997082542822039 .0705339188824478
 .0291782296690596 40 255 20 202 0 1 20 .0001210783316122568 .394746200992838 ??
.0955336718644421 .004034268285149525 -.1590285647879745 .0954354262355666 .0040
8373025370289 -.159623095809783 .0952011773545065 .004044773512497435 -.16008111
53199215 .0948156039972642 .003928024062879015 -.1604882074112395 .0943134591777
835 .003736639769916775 -.160758692301741 .0937726414525482 .003494097215493775
 -.1608313728644215 .0932885007879207 .00323984687725409 -.160699571106154 .0929
2744322388 .003010890046937315 -.160409646804153 .0927106114074765 .002827940916
517055 -.1600214944590515 .0926354604241998 .002699077278383175 -.15957921163143
9 .0926987498884657 .002630229209057005 -.159112995455295 .0929017989700054 .002
630508215914165 -.1586532390246675 .0932431130842049 .00271114882900926 -.158241
5770851525 .0937045525109394 .002878990365213355 -.1579342791181195 .09423642345
85498 .003124714397430265 -.1577930714137235 .094753411758048 .00341074437761855
 -.1578578608059485 .0951615869760217 .00367662010373533 -.1581097088122665 .095
4148519081457 .00387710235261453 -.1584744463756045 .0955253329813728 .004006910
098468005 -.1588918064306905 .0955336718644421 .004034268285149525 -.15902856478
79745 41 3 CI8 term_use0 0 1 cCZ1 203 H?.0955336718644421 .004034268285149525 -.
1590285647879745 204 2 17 INTERSECTION_DATA17 Intersection data7 uv_type0 0 1 u6
 values0 1 1 fT80 204 4 .708259191794688 2.742732723534485 0 .00289632062635006
 .683720314160835 2.78097921444196 .388561716994278 .002722789727741735 .6561231
98936286 2.805106681191895 .709015413807986 .002530205333034065 .622051557002263
 2.82044444565117 1.059514403069732 .002296907369604595 .585910425886588 2.82070
923560036 1.429074205702946 .002055809025032175 .553476399196495 2.8018467544326
85 1.80396733304241 .00184591954969648 .530090157154808 2.76549316932871 2.16792
986617833 .00169885413011718 .518265165993516 2.719076157510695 2.51053451172877
 .00162596562765003 .517600129064648 2.671150218859495 2.832430464744 .001621896
945415775 .526639199876373 2.627861078856155 3.142633997833545 .0016774773374021
35 .544164123275438 2.59320538733565 3.45236365742504 .001786908399079365 .56920
7539437452 2.570233138694305 3.7713497604976 .001946900241825925 .60046551988293
8 2.561399316620065 4.106501211638015 .002152049124322125 .635535718389772 2.568
108192560935 4.46085156094372 .00238859432303781 .670220962851334 2.589812428031
615 4.83162556462176 .002628216748542075 .698573995034901 2.623059272225365 5.20
712253332248 .00282759674092379 .715154132123115 2.661477350254775 5.56609823601
232 .002945416843166865 .718849162539251 2.69879250257116 5.89186487497509 .0029
717832680756 .712131249955612 2.732787165423285 6.1918382139073 .002923875142219
055 .708259191794688 2.742732723534485 6.28318530717958 .002896320626350065 51 2
3 784 0 214 215 102 216 +.0942591267439941 .00508251488892352 -.1694167978891445
 -.0763308771044597 .921358981611984 .381144623736701 .0015 .997082542822039 .07
05339188824478 .0291782296690596 50 105 577 0 94 102 22 0 +.0839066469302514 .00
707267135575229 -.163182582706494 -.0763308771044597 .921358981611984 .381144623
736701 .997082542822039 .0705339188824478 .0291782296690596 141 255 213 199 213
 213 102 14 214 685 217 ?0 218 219 5 23 -0 0 0 218 28 51 215 787 0 218 209 23 22
0 +.0763116409731974 .00572420360144613 -.174562280383845 -.0763308771044597 .92
1358981611984 .381144623736701 .0015 .997082542822039 .0705339188824478 .0291782
296690596 141 216 7 216 216 23 14 218 709 221 ?214 100 222 5 215 -0 0 214 100 28
 51 209 790 0 100 0 215 223 +.0763116409731974 -.001920993408180555 -.1560811829
41215 -.0763308771044597 .921358981611984 .381144623736701 .0015 .99708254282203
9 .0705339188824478 .0291782296690596 141 220 21 220 220 215 38 21 630 0 224 201
 7 0 +22 215 225 226 226 227 16 224 702 228 ?229 20 207 21 0 0 1 40 20 225 0 1 2
0 .000119864690545316 .380142744490503 ??.0776306511711365 .00796183563146341 -.
173636624439568 .0775148417197441 .00838213800727874 -.1740386049610155 .0772265
986007376 .00878935430875327 -.1743562303217475 .0767689926601414 .0091748187570
4421 -.1745710108817055 .0761865142823317 .00947268557476476 -.174628045629479 .
0756957195392518 .00959387155266494 -.1745423681236265 .0752941099686561 .009586
25646812354 -.1743785944749725 .0749512523873203 .0094580772870562 -.17414324791
5925 .0747230149628703 .00924385405722176 -.173885298416792 .0745888750192887 .0
0894801494985846 -.1735915954667635 .0745733478864173 .00856356949152018 -.17325
13601259495 .0747291131073807 .00811598721915121 -.1728889743979815 .07508595947
49646 .0076764361277271 -.1725708385800025 .0756040137382985 .00733464517316702
 -.172376770660926 .0761790536219567 .00714987688658703 -.17234962348396 .076703
435564407 .00712459575685942 -.172472915030107 .0771201381807448 .00722472551755
324 -.172699985559325 .0774163504818132 .00741699869852164 -.172992548256617 .07
75891013497435 .00768270091717432 -.17332794551657 .0776306511711365 .0079618356
3146341 -.173636624439568 41 1 226 H?.0776306511711365 .00796183563146341 -.1736
36624439568 204 80 227 4 .624544263811734 5.26276279081891 0 .002313789949671755
 .659940776151119 5.24681666510487 .3626408036386625 .00255666644102724 .6993086
60287466 5.24695794205465 .713108948221088 .002832799489337355 .742449898619514
 5.26189765328454 1.08592027575626 .00314101762796496 .783514676263321 5.2904504
3953997 1.478857143469604 .00343818249378869 .808482160026145 5.32042929651565 1
.7998613889223 .003619956596920835 .820281479369722 5.34980956702325 2.084260938
908305 .00370601702685408 .819976203744029 5.38074288381337 2.37539472110091 .00
3703789682723265 .808783122073746 5.40817068139936 2.64104997341022 .00362215081
343175 .788132852205286 5.43421295798677 2.916108439779695 .00347175911467787 .7
57337060025069 5.45870573524814 3.225682834846865 .00324841090932536 .7175149771
11736 5.47756217889745 3.57646628760653 .00296225863866344 .673523662341662 5.48
392452539921 3.958882552481725 .00265129165311405 .632929360994268 5.47203718414
308 4.35253760158105 .00237080389498415 .602713604421622 5.44213775356283 4.7343
3687691612 .002167019676487075 .586047276664392 5.4012886969738 5.08809255230311
 .00205670823697626 .582068505166941 5.35807966656501 5.4123785886766 .002030609
703700825 .588621548685664 5.31812863349341 5.71794272831241 .00207364348198077
 .604274381276597 5.28458731538688 6.01882466911936 .00217742951985385 .62454426
3811734 5.26276279081891 6.28318530717959 .002313789949671755 81 1 228 1003 96 2
24 0 0 230 231 232 17 229 0 107 229 229 0 233 224 0 0 +16 20 678 230 ?106 234 22
4 7 0 0 1 16 207 726 231 ?235 224 200 201 0 0 1 81 1 231 1004 96 207 0 0 228 205
 236 17 235 0 237 235 235 0 238 207 0 0 +15 237 621 0 235 91 239 17 238 0 240 23
8 238 0 235 207 0 0 -15 240 737 0 238 100 0 14 100 733 241 ?218 93 242 5 209 -0
 0 218 93 28 81 1 241 967 96 100 0 0 98 221 243 15 242 736 0 244 100 240 17 244
 0 242 244 244 0 245 246 0 0 +17 245 0 247 245 245 0 244 246 0 0 -16 246 730 248
 ?244 208 249 250 0 0 1 81 1 248 1007 96 246 0 0 251 252 253 16 208 754 251 ?254
 200 246 255 0 0 1 16 249 706 252 ?256 246 257 258 0 0 1 31 255 250 799 0 246 0
 258 0 +.0759299865876751 .002685801499879365 -.1541754598225315 -.0763308771044
597 .921358981611984 .381144623736701 .997082542822039 .0705339188824478 .029178
2296690596 .0015 31 258 797 0 249 250 259 0 +.0759299865876751 .0103309985095060
4 -.1726565572651615 -.0763308771044597 .921358981611984 .381144623736701 .99708
2542822039 .0705339188824478 .0291782296690596 .0015 31 259 795 0 257 258 255 0
 +.0938774723584718 .00968930979698343 -.167511074770461 -.0763308771044597 .921
358981611984 .381144623736701 .997082542822039 .0705339188824478 .02917822966905
96 .0015 16 257 682 260 ?261 249 0 259 0 0 1 31 255 793 0 208 259 110 0 +.093877
4723584718 .0058667112921701 -.158270526049146 -.0763308771044597 .9213589816119
84 .381144623736701 .997082542822039 .0705339188824478 .0291782296690596 .0015 1
34 255 110 583 0 1 255 262 263 +264 265 31 262 582 0 234 110 266 0 +.08354390487
36472 .00704701087359867 -.1631931978467495 -.0763308771044597 .921358981611984
 .381144623736701 .997082542822039 .0705339188824478 .0291782296690596 .015 141
 263 22 263 263 110 136 255 264 3 4 3 2 5 FFF1 267 268 269 135 255 265 2 0 45 25
5 12 267 .0839255592591695 .002440215965538745 -.165098920965433 .07761611585287
12 .001716081026192625 -.1653984786237395 .0691944010253722 .00387652830047357 -
.1645047522045125 .0685876667313166 .00598900209036195 -.163630871291785 127 255
 2 268 4 4 128 255 2 269 0 1 16 234 546 270 ?271 272 20 262 0 0 1 30 266 525 0 2
73 262 274 0 +.0839066469302514 .00477911225286429 -.157638253473705 -.997082542
822039 -.0705339188824478 -.0291782296690596 16 273 471 275 ?78 276 272 266 0 0
 1 30 274 522 0 272 266 277 0 +.0839066469302514 .00936623045864029 -.1687269119
39283 -.997082542822039 -.0705339188824478 -.0291782296690596 16 272 457 278 ?27
9 273 234 274 0 0 1 30 277 517 0 276 274 280 0 +.0897105198359192 .0051896799673
2228 -.157468411229619 -2303858922580355e-31 .382259850481334 -.924054872131514
 16 276 460 281 ?282 283 273 277 0 0 1 30 280 369 0 283 277 160 0 +.077377289911
3751 .00431722357409904 -.1578293259983015 37289705541956e-29 -.382259850481334
 .924054872131514 16 283 307 284 ?285 150 276 280 0 0 1 30 160 230 0 154 280 286
 0 +.0805442057464966 .020209481928028 -.163159126041946 2303858922580355e-31 -.
382259850481334 .924054872131514 30 286 229 0 159 160 287 0 +.090402456825824 .0
148365391824303 -.154559918409293 .98582510793274 -.1550344240784355 -.064134108
8662625 16 159 172 288 ?71 289 154 286 0 0 1 30 287 228 0 289 286 290 0 +.090402
456825824 .01865913768724365 -.1638004671306085 -2303858922580355e-31 .382259850
481334 -.924054872131514 16 289 175 291 ?40 168 159 287 0 0 1 30 290 227 0 168 2
87 292 0 +.090402456825824 .01865913768724365 -.1638004671306085 -.9858251079327
4 .1550344240784355 .0641341088662625 16 168 178 293 ?36 165 289 290 0 0 1 30 29
2 226 0 150 290 164 0 +.0788664436486591 .01109991698747974 -.166927539625537 23
03858922580355e-31 -.382259850481334 .924054872131514 16 150 153 294 ?145 161 28
3 292 0 0 1 30 164 225 0 161 292 162 0 +.0887246947279865 .00572697424188205 -.1
583283319928845 .98582510793274 -.1550344240784355 -.0641341088662625 16 161 157
 295 ?148 152 150 164 0 0 1 81 1 295 995 96 161 0 0 157 294 296 17 148 0 142 146
 145 61 66 161 0 0 +17 66 0 135 297 63 64 148 161 0 177 -15 135 196 0 66 130 0 1
7 297 0 135 71 66 60 177 174 0 298 -17 63 0 135 66 71 61 299 171 0 151 +17 177 0
 131 149 73 64 297 174 0 145 +15 131 192 0 149 127 0 17 149 0 131 300 177 67 145
 150 0 144 -17 73 0 131 177 300 60 301 154 0 297 +17 300 0 131 73 149 57 75 165
 0 301 -17 301 0 302 303 298 57 73 154 0 0 -15 302 133 0 298 123 0 17 303 0 302
 304 301 11 36 168 0 0 -17 298 0 302 301 304 60 71 159 0 0 -17 304 0 302 298 303
 69 40 289 0 0 -17 71 0 135 63 297 69 298 159 0 299 +17 299 0 139 40 151 69 63 1
71 0 304 -15 139 200 0 151 134 0 17 40 0 139 38 299 11 304 289 0 303 +17 151 0 1
39 299 38 61 146 152 0 148 -17 38 0 139 151 40 58 33 39 0 37 +17 36 0 35 75 33 5
7 303 168 0 300 +15 35 204 0 37 138 0 17 75 0 35 37 36 67 300 165 0 149 +80 255
 1 96 0 305 8001 0 0 0 0 3 5 0 0 0 FFFFTFTFFFFFFF2 81 1 157 994 96 152 0 0 153 2
95 306 81 1 294 996 96 150 0 0 295 284 307 83 255 3 296 .988235294117647 .984313
725490196 1 81 1 284 997 96 283 0 0 294 281 308 83 3 307 .988235294117647 .98431
3725490196 1 81 1 281 998 96 276 0 0 284 275 309 83 3 308 .988235294117647 .9843
13725490196 1 81 1 275 999 96 273 0 0 281 278 310 83 3 309 .988235294117647 .984
313725490196 1 81 1 278 1000 96 272 0 0 275 270 311 83 3 310 .988235294117647 .9
84313725490196 1 81 1 270 1001 96 234 0 0 278 230 312 83 3 311 .988235294117647
 .984313725490196 1 81 1 230 1002 96 20 0 0 270 228 313 83 3 312 .98823529411764
7 .984313725490196 1 83 3 313 .988235294117647 .984313725490196 1 83 3 306 .9882
35294117647 .984313725490196 1 79 255 15 305 SDL/TYSA_COLOUR81 1 293 989 96 168
 0 0 167 291 314 81 1 167 988 96 165 0 0 170 293 315 81 1 291 990 96 289 0 0 293
 288 316 83 3 314 .988235294117647 .984313725490196 1 81 1 288 991 96 159 0 0 29
1 156 317 83 3 316 .988235294117647 .984313725490196 1 81 1 156 992 96 154 0 0 2
88 153 318 83 3 317 .988235294117647 .984313725490196 1 83 3 318 .98823529411764
7 .984313725490196 1 81 1 170 987 96 39 0 0 173 167 319 83 3 315 .98823529411764
7 .984313725490196 1 81 1 173 986 96 171 0 0 176 170 320 83 3 319 .9882352941176
47 .984313725490196 1 81 1 176 985 96 174 0 0 180 173 321 83 3 320 .988235294117
647 .984313725490196 1 81 1 180 984 96 178 0 0 183 176 322 83 3 321 .98823529411
7647 .984313725490196 1 81 1 183 983 96 181 0 0 186 180 323 83 3 322 .9882352941
17647 .984313725490196 1 81 1 186 982 96 184 0 0 188 183 324 83 3 323 .988235294
117647 .984313725490196 1 81 1 188 981 96 47 0 0 191 186 325 83 3 324 .988235294
117647 .984313725490196 1 81 1 191 980 96 189 0 0 195 188 326 83 3 325 .98823529
4117647 .984313725490196 1 81 1 195 979 96 193 0 0 197 191 327 83 3 326 .9882352
94117647 .984313725490196 1 81 1 197 978 96 31 0 0 29 195 328 83 3 327 .98823529
4117647 .984313725490196 1 81 1 29 977 96 10 0 0 217 197 329 83 3 328 .988235294
117647 .984313725490196 1 81 1 217 969 96 214 0 0 221 29 330 83 3 329 .988235294
117647 .984313725490196 1 81 1 221 968 96 218 0 0 241 217 331 83 3 330 .98823529
4117647 .984313725490196 1 83 3 331 .988235294117647 .984313725490196 1 17 285 0
 332 333 192 76 87 283 0 0 +15 332 89 0 192 18 0 17 333 0 332 334 285 54 30 10 0
 0 -17 192 0 332 285 334 85 48 189 0 0 +17 87 0 335 84 78 85 285 283 0 279 -15 3
35 562 0 78 94 0 17 84 0 335 81 87 82 279 272 0 282 -17 78 0 335 87 81 76 119 27
3 0 30 +17 279 0 124 48 196 85 84 272 0 192 +15 124 436 0 279 116 0 17 48 0 124
 46 279 34 192 189 0 334 -17 196 0 124 279 46 82 336 193 0 0 +17 46 0 124 196 48
 42 41 47 0 0 -17 336 0 117 337 282 42 196 193 0 46 -15 117 445 0 282 112 0 17 3
37 0 117 198 336 49 45 184 0 0 -17 282 0 117 336 198 82 81 276 0 196 +17 198 0 1
17 282 337 79 338 31 0 0 +17 81 0 335 78 84 79 282 276 0 119 -17 119 0 113 338 3
0 79 78 273 0 198 -17 338 0 113 56 119 49 198 31 0 337 -17 30 0 113 119 56 76 33
3 10 0 285 +17 56 0 113 30 338 54 53 181 0 44 -17 53 0 43 45 44 49 56 181 0 338
 +17 44 0 43 53 41 54 334 178 0 333 +15 43 4 0 44 123 302 17 334 0 332 192 333 3
4 44 178 0 0 -17 45 0 43 41 53 42 337 184 0 336 +14 18 90 339 ?127 123 332 5 6 -
0 0 127 123 28 81 1 339 958 96 18 0 0 126 129 340 81 1 126 957 96 123 0 0 122 33
9 341 81 1 129 959 96 127 0 0 339 133 342 83 3 340 .988235294117647 .98431372549
0196 1 81 1 133 960 96 130 0 0 129 137 343 83 3 342 .988235294117647 .9843137254
90196 1 81 1 137 961 96 134 0 0 133 140 344 83 3 343 .988235294117647 .984313725
490196 1 81 1 140 962 96 138 0 0 137 141 345 83 3 344 .988235294117647 .98431372
5490196 1 83 3 345 .988235294117647 .984313725490196 1 81 1 122 956 96 116 0 0 1
14 126 346 83 3 341 .988235294117647 .984313725490196 1 81 1 114 955 96 112 0 0
 111 122 347 83 3 346 .988235294117647 .984313725490196 1 83 3 347 .988235294117
647 .984313725490196 1 17 271 0 348 271 271 0 349 234 0 0 +15 348 561 0 271 94 3
35 17 349 0 350 349 349 0 271 234 0 0 -15 350 566 0 349 91 90 81 1 260 1009 96 2
57 0 0 252 0 351 17 261 0 219 261 261 0 352 257 0 0 +15 219 688 0 261 214 353 17
 352 0 104 352 352 0 261 257 0 0 -15 104 670 0 352 94 354 15 354 661 0 355 94 24
7 17 355 0 354 355 355 0 256 249 0 0 -15 247 652 0 245 94 356 15 356 643 0 357 9
4 348 17 357 0 356 357 357 0 254 208 0 0 -17 254 0 101 254 254 0 357 208 0 0 +15
 101 760 0 254 93 358 15 358 761 0 359 93 0 17 359 0 358 359 359 0 206 200 0 0 -
17 206 0 239 206 206 0 359 200 0 0 +15 239 614 0 206 91 350 17 256 0 222 256 256
 0 355 249 0 0 +15 222 712 0 256 218 360 15 360 713 0 233 218 0 17 233 0 360 233
 233 0 229 224 0 0 -15 353 689 0 361 214 0 17 361 0 353 361 361 0 106 20 0 0 -17
 106 0 95 106 106 0 361 20 0 0 +81 1 252 1008 96 249 0 0 248 260 362 83 3 351 .9
88235294117647 .984313725490196 1 83 3 362 .988235294117647 .984313725490196 1 8
1 1 251 1006 96 208 0 0 205 248 363 81 1 205 1005 96 200 0 0 231 251 364 83 3 36
3 .988235294117647 .984313725490196 1 83 3 364 .988235294117647 .984313725490196
 1 83 3 253 .988235294117647 .984313725490196 1 81 1 98 966 96 93 0 0 92 241 365
 83 3 243 .988235294117647 .984313725490196 1 83 3 365 .988235294117647 .9843137
25490196 1 83 3 236 .988235294117647 .984313725490196 1 15 107 628 0 229 91 237
 83 3 232 .988235294117647 .984313725490196 1 141 223 201 223 223 209 40 20 210
 0 1 20 .0001210566386741244 .3993458604480025 ??.0776306511711365 .000316638621
8367305 -.155155526996938 .0775641620150347 .00034517732113638 -.155663950187611
5 .0773320683557304 .000407096113468154 -.156119538599253 .0769811278267916 .000
487407314850015 -.15643918989407 .0765650151636231 .000574507906847025 -.1566093
15864785 .0761119708684614 .000664272354280958 -.1566346091042975 .0756457610127
277 .000754646973792903 -.1565094143491605 .075200580930203 .000843371010619414
 -.1562222888011135 .0748290957511361 .000926933065250501 -.1557698370501285 .07
46009078241774 .000998872425752044 -.1551775087662225 .0745834489739317 .0010451
89553680374 -.154523066958669 .0747381523981034 .001047120205928484 -.1540436876
68383 .0750490091177349 .000998826084094609 -.1536462124346595 .0754114999565392
 .000911595648437286 -.153431481394771 .0757966055294511 .000802269188778024 -.1
53352588605896 .0762309969784093 .000672205590576866 -.1533969945094675 .0767084
666540384 .000532120616955017 -.153598853297605 .0771674593732748 .0004085826172
114305 -.1539894836973725 .0775041081031778 .00033215245094503 -.154546196276905
 .0776306511711365 .0003166386218367305 -.155155526996938 41 1 211 H?.0776306511
711365 .0003166386218367305 -.155155526996938 204 80 212 4 .624544263811734 1.02
0422516360676 0 .002313789949671755 .600364452883493 .992372190704551 .326236259
3063455 .00215137674648987 .585406228951863 .95246246076983 .664821413394165 .00
205249702078646 .58219632771646 .909410713086284 .986865451959495 .0020314466933
99135 .589376486439089 .869798422936864 1.29169174595264 .002078617251597145 .60
5597320826744 .836763328080477 1.592722514195185 .00218626341762963 .63029195910
0752 .812783364644816 1.90195533140083 .002352834400070155 .663012083568677 .800
354619159696 2.228502191335445 .002577998433429275 .702552823649053 .80166960278
0451 2.57830968746768 .00285579442492317 .745815469179188 .817746061031478 2.953
076067892885 .003165256926360165 .786337255121887 .847206397154381 3.34698847067
262 .00345870125402949 .810049514756335 .877185513242774 3.663780780099625 .0036
3138426898369 .821465429775891 .912083298167911 3.99868820559219 .00371465562841
1865 .81787494166856 .942538203342935 4.285978773405105 .00368845942078379 .8041
53551877097 .969380619313743 4.55045896110204 .003588404621422025 .7808040780563
11 .995187131641285 4.8332292816876 .003418486805324405 .747310942461884 1.01871
270287952 5.15402283217438 .00317603518570494 .705722125364588 1.034908862535964
 5.51491236274682 .002878290346487415 .661859133227067 1.036723410238236 5.90265
1148164 .002569986026846825 .624544263811734 1.020422516360676 0 .00231378994967
1755 83 3 158 .988235294117647 .984313725490196 1 81 1 97 964 96 94 0 0 141 92 3
66 83 3 143 .988235294117647 .984313725490196 1 83 3 366 .988235294117647 .98431
3725490196 1 83 3 115 .988235294117647 .984313725490196 1 141 109 199 367 368 22
 141 367 7 369 109 22 141 368 201 109 369 22 141 369 21 368 367 22 83 3 99 .9882
35294117647 .984313725490196 1 19 17 100 0 1 0 9 5 S0 40 20 24 0 1 20 .000109689
959490311 .367725318652249 ??.0955336718644421 .00785686678996287 -.168269113509
29 .0954592058095029 .00808769018900174 -.1686617570326165 .0952547519074715 .00
82291760193502 -.1690514056198945 .0949552299323457 .00826525241052971 -.1693826
4980292 .0945750354364373 .00820245200753223 -.1696453891695935 .094123143830752
1 .00803669112050344 -.169816656667443 .0936320440284432 .00776633864038805 -.16
98554972411985 .0931693570564985 .00741107139133702 -.16972598457024 .0928212087
399283 .00702031242191394 -.1694298365505215 .0926503263547104 .0066590613824919
7 -.1690199513410485 .0926655054088506 .00637810940590531 -.1685742619811065 .09
2834889683513 .00619754463492998 -.16815441236914 .0931209535421381 .00611761300
204585 -.167792860568374 .0934963203648194 .00613633501193646 -.1675079691832535
 .0939379761154448 .00625604732828917 -.16731929797156 .0944152046438057 .006479
91841283362 -.167252188984091 .0948794365180214 .0068024903749008 -.167332573715
4595 .0952621326100697 .00719652887393236 -.1675726529503885 .0954901323154552 .
00760289496467195 -.1679503642439145 .0955336718644421 .00785686678996287 -.1682
6911350929 41 1 25 H?.0955336718644421 .00785686678996287 -.16826911350929 204 8
0 26 4 .708259191794688 3.540452583645105 0 .002896320626350065 .717902122216031
 3.57452447300489 .3054326047611135 .002965021929547805 .717545271259008 3.61010
423319997 .614805690304927 .002962474851592055 .707697194964546 3.64302140011188
 .91089388522253 .002892324994198605 .689480159585483 3.67309104012199 1.2108196
94503576 .00276334216113946 .66327588540938 3.699030872279225 1.530040867545795
 .002579832475667355 .630378424985084 3.717011364613515 1.874617690412715 .00235
3422992698225 .59424553340044 3.721294856206995 2.24070332869249 .00211077468254
746 .56040439849791 3.707007822279405 2.61584431157658 .001890195088336355 .5345
52502767321 3.6742326368782 2.983641739105115 .001726622344833415 .5199809889623
16 3.62935341868817 3.33159761077214 .001636478190686105 .516832938462806 3.5811
24601452105 3.65772682234155 .00161720738931148 .523731008901754 3.5363390494973
 3.969652315342485 .001659529681266455 .539362618201577 3.499372354093385 4.2785
36199263275 .001756712114209295 .562742719398811 3.47342716087788 4.594624628291
07 .001905209179257945 .592711069718573 3.461114599952 4.92556412613571 .0021006
2577135518 .627192110736561 3.46415412170729 5.27542230879372 .00233175691149173
 .662449973021668 3.48254569772948 5.6430229861552 .002574091383640825 .69285196
2787598 3.513579640734865 6.01904098676716 .00278713438482268 .708259191794688 3
.540452583645105 578241158658935e-30 .002896320626350065 74 4 CI16 index_map_off
set0 0 1 dCCZ20 15 7 0 0 370 260 371 372 373 13 2 0 0 0 0 0 0 0 0 0 0 0 0 0 81 2
 370 843 374 1 0 371 0 0 375 0 81 1 371 970 376 1 370 372 0 0 377 81 1 372 973 3
78 1 371 373 0 0 379 81 1 373 974 380 1 372 13 0 0 381 81 1 13 975 382 1 373 2 0
 0 383 80 1 382 378 384 9000 0 0 0 0 3 5 0 0 0 FFTFFFFFFFFFFF3 84 255 16 383 _06
_bar_bottom_379 13 384 AdamsPartName80 1 380 382 385 9000 0 0 0 0 3 5 0 0 0 FFTF
FFFFFFFFFF3 84 6 381 PSMAR479 12 385 AdamsRFMName80 1 378 386 387 9000 0 0 0 0 3
 5 0 0 0 FFTFFFFFFFFFFF1 82 255 1 379 14 79 12 387 UG2/ADAMS_ID80 1 376 388 389
 8017 0 0 0 0 0 0 0 0 0 TTTTTTTTTTTTTF3 84 13 377 02_foot_stand79 13 389 SDL/TYS
A_NAME80 2 374 390 391 8004 0 0 0 0 3 5 0 0 0 FFTFFFFFFFFFFF2 3 83 1 375 23e2 79
 16 391 SDL/TYSA_DENSITY80 1 12 380 392 9000 0 0 0 0 3 5 0 0 0 FFTFFFFFFFFFFF3 8
4 7 14 SOLID1479 15 392 AdamsObjectName1 0 
