**ABCDEFGHIJKLMNOPQRSTUVWXYZabcdefghijklmnopqrstuvwxyz**************************
**PARASOLID !"#$%&'()*+,-./:;<=>?@[\]^_`{|}~0123456789**************************
**PART1;
MC=unknown;
MC_MODEL=unknown;
MC_ID=unknown;
OS=unknown;
OS_RELEASE=unknown;
FRU=sdl_parasolid_customer_support;
APPL=parasolid_acceptance_tests;
SITE=unknown;
USER=unknown;
FORMAT=text;
GUISE=transmit;
KEY=Controls_Plant_9_Tensegrity__06_bar_bottom_2_SOLID6;
FILE=Controls_Plant_9_Tensegrity__06_bar_bottom_2_SOLID6.xmt_txt;
DATE=unknown;
**PART2;
SCH=SCH_3101206_31100;
USFLD_SIZE=1;
**PART3;
**END_OF_HEADER*****************************************************************
T51 : TRANSMIT FILE created by modeller version 310120623 SCH_3101206_31100_1300
6222 0 12 34 CCCCCCI4 mesh1006 0 I8 polyline1008 0 CCCCCCCDI5 owner1040 0 CCCCCC
I13 boundary_mesh1006 0 I17 boundary_polyline1008 0 CCCA16 index_map_offset0 0 1
 dA9 index_map82 0 A17 node_id_index_map82 0 A20 schema_embedding_map82 0 A5 chi
ld12 0 A14 lowest_node_id0 0 1 dA16 mesh_offset_data206 0 Z1 1009 2 3 0 0 0 0 0
 0 1e3 1e-8 0 4 0 1 0 1 1 5 6 7 8 0 0 9 10 11 0 0 0 0 0 0 0 81 255 1 2 976 12 1
 13 0 0 0 14 70 11 CI9 list_type0 0 1 uI10 notransmit0 0 1 lCCCDCCDI12 finger_in
dex0 0 1 dI12 finger_block1012 0 CZ3 0 4 T1 0 0 7 20 1 15 15 13 255 5 99 0 1 0 1
6 0 0 17 0 50 255 6 94 0 18 19 0 0 +-.0795588007961224 .278474346899384 -.044416
9474357858 -.98582510793274 .1550344240784365 .0641341088662625 -724996565288018
e-31 .382259850481334 -.924054872131514 38 12 CCCCCCCCCCCA17 intersection_data20
4 0 Z7 637 0 20 21 0 0 +22 23 24 25 25 26 29 255 8 137 0 11 27 0 -.0904028769833
825 .2843845839195415 -.0538760758317036 19 8 CCCCCCCA5 owner12 0 Z9 33 0 1 17 0
 28 V0 16 255 10 82 29 ?30 0 31 32 0 0 1 18 255 11 135 0 33 0 34 8 ?1 17 255 33
 0 35 36 37 11 38 39 0 40 -18 34 30 0 41 11 42 27 ?1 17 41 0 43 44 45 34 46 47 0
 48 +18 42 27 0 45 34 49 50 ?1 29 27 32 0 34 50 8 -.0795588007961224 .2830614651
0516 -.055505605901364 29 50 29 0 42 51 27 -.0913887020913153 .2849218781941015
 -.0547359965949688 29 51 26 0 49 52 50 -.0913887020913153 .2803347599883255 -.0
4364733812939065 18 49 24 0 53 42 54 51 ?1 29 52 23 0 54 55 51 -.079558800796122
4 .278474346899384 -.0444169474357858 18 54 21 0 56 49 57 52 ?1 29 55 232 0 58 5
9 52 -.088725114885545 .29349414886009 -.0501076622481124 18 58 183 0 38 60 61 5
5 ?1 29 59 233 0 61 62 55 -.088725114885545 .2896715503552765 -.0408671135267973
 18 61 181 0 63 58 64 59 ?1 29 62 234 0 64 65 59 -.0788668638062176 .28812120611
4492 -.04150845461545995 18 64 188 0 66 61 67 62 ?1 29 65 235 0 57 68 62 -.08054
46259040551 .2828342396787575 -.0545174169203662 18 57 187 0 36 54 69 65 ?1 29 6
8 237 0 69 70 65 -.0904028769833825 .2805619854147285 -.04463552711038845 18 69
 185 0 71 57 60 68 ?1 29 70 238 0 60 72 68 -.0805446259040551 .279011641173944 -
.0452768681990511 18 60 182 0 73 69 58 70 ?1 29 72 377 0 67 74 70 -.078866863806
2176 .2919438046193055 -.0507490033367751 18 67 318 0 75 64 76 72 ?1 29 74 381 0
 76 77 72 -.0773777100689336 .290316781322097 -.03951800977711735 18 76 327 0 78
 67 79 74 ?1 29 77 584 0 79 80 74 -.0897109399934778 .2894443249288735 -.0398789
2454579955 18 79 553 0 81 76 82 77 ?1 29 80 585 0 82 83 77 -.0897109399934778 .2
940314431346495 -.0509675830113777 18 82 554 0 84 79 85 80 ?1 29 83 587 0 85 86
 80 -.0773777100689336 .294903899527873 -.0506066682426955 18 85 555 0 87 82 88
 83 ?1 29 86 588 0 88 0 83 -.083925979416728 .296780907136433 -.043337073275564
 18 88 552 0 89 85 0 86 ?1 17 89 0 90 89 89 88 0 0 0 0 ?15 255 90 567 0 89 91 0
 14 255 91 563 92 ?93 94 95 5 22 -0 0 93 94 28 81 1 92 965 96 91 0 0 97 98 99 14
 93 757 98 ?100 91 101 5 102 -0 0 100 91 28 14 94 556 97 ?91 103 104 5 105 +0 0
 91 103 28 15 95 635 0 106 91 107 68 255 22 576 0 91 105 108 109 +110 -.08354432
50312057 .2921741122283735 -.0452427963942475 .0763308771044592 -.92135898161198
4 -.381144623736701 -.083925979416728 .296780907136433 -.043337073275564 ?0 ?.99
708254282204 .0705339188824474 .02917822966905945 0 13 28 34 0 0 0 0 0 0 9 16 14
 16 453 111 ?112 0 113 5 19 -0 0 112 0 28 81 1 111 954 96 16 0 0 0 114 115 14 11
2 447 114 ?116 16 117 5 118 -0 0 116 16 28 15 113 451 0 119 16 0 50 19 93 0 16 1
18 6 0 +-.0913887020913153 .2803347599883255 -.04364733812939065 -21501081969032
65e-31 .382259850481334 -.924054872131514 .98582510793274 -.155034424078436 -.06
41341088662627 50 118 92 0 112 120 19 0 +-.0913887020913153 .2803347599883255 -.
04364733812939065 .98582510793274 -.1550344240784365 -.0641341088662626 14375523
8109564e-30 -.382259850481334 .924054872131514 50 120 91 0 116 121 118 0 +-.0913
887020913153 .2849218781941015 -.0547359965949688 2150108196903265e-31 -.3822598
50481334 .924054872131514 -.98582510793274 .155034424078436 .0641341088662627 14
 116 438 122 ?123 112 124 5 120 -0 0 123 112 28 50 121 3 0 123 125 120 0 +-.0854
737514437188 .281698112546743 -.0495764720153773 -.1677762097837535 -.9109564940
54823 -.376841358359114 -2150108196903265e-31 .382259850481334 -.924054872131514
 14 123 150 126 ?18 116 43 5 121 +0 0 18 116 28 50 125 213 0 127 128 121 0 +-.08
05446259040551 .2828342396787575 -.0545174169203662 -.98582510793274 .1550344240
78436 .0641341088662627 -2150108196903265e-31 .382259850481334 -.924054872131514
 14 127 189 129 ?130 18 131 5 125 +0 0 130 18 28 50 128 214 0 130 132 125 0 +-.0
904028769833825 .2805619854147285 -.04463552711038845 -2150108196903265e-31 .382
259850481334 -.924054872131514 .98582510793274 -.155034424078436 -.0641341088662
627 14 130 193 133 ?134 127 135 5 128 +0 0 134 127 28 50 132 215 0 134 136 128 0
 +-.0904028769833825 .2843845839195415 -.0538760758317036 .98582510793274 -.1550
34424078436 -.0641341088662627 2150108196903265e-31 -.382259850481334 .924054872
131514 14 134 197 137 ?138 130 139 5 132 +0 0 138 130 28 50 136 216 0 138 108 13
2 0 +-.0904028769833825 .2843845839195415 -.0538760758317036 2150108196903265e-3
1 -.382259850481334 .924054872131514 -.98582510793274 .155034424078436 .06413410
88662627 14 138 201 140 ?103 134 35 5 136 +0 0 103 134 28 50 108 360 0 103 22 13
6 0 +-.0897109399934778 .2940314431346495 -.0509675830113777 -.1677762097837535
 -.910956494054823 -.376841358359114 -2150108196903265e-31 .382259850481334 -.92
4054872131514 14 103 337 141 ?94 138 142 5 108 +0 0 94 138 28 81 1 141 963 96 10
3 0 0 140 97 143 15 142 340 0 144 103 0 17 144 0 142 145 146 67 37 147 0 0 +17 1
45 0 142 148 144 64 149 150 0 0 +17 146 0 142 144 148 58 151 152 0 0 +17 37 0 35
 33 75 58 144 147 0 146 -16 147 165 153 ?144 154 152 155 0 0 1 81 1 153 993 96 1
47 0 0 156 157 158 16 154 169 156 ?73 159 147 160 0 0 1 16 152 161 157 ?146 147
 161 162 0 0 1 30 255 155 223 0 147 162 163 0 +-.088725114885545 .29349414886009
 -.0501076622481124 .98582510793274 -.155034424078436 -.0641341088662627 30 162
 224 0 152 164 155 0 +-.088725114885545 .29349414886009 -.0501076622481124 -2150
108196903265e-31 .382259850481334 -.924054872131514 30 163 222 0 165 155 166 0 +
-.0805446259040551 .2828342396787575 -.0545174169203662 .1677762097837535 .91095
6494054823 .376841358359114 16 165 156 167 ?75 39 168 163 0 0 1 30 166 221 0 39
 163 169 0 +-.0904028769833825 .2843845839195415 -.0538760758317036 .16777620978
37535 .910956494054823 .376841358359114 16 39 168 170 ?38 171 165 166 0 0 1 30 1
69 220 0 171 166 172 0 +-.0904028769833825 .2805619854147285 -.04463552711038845
 .1677762097837535 .910956494054823 .376841358359114 16 171 164 173 ?63 174 39 1
69 0 0 1 30 172 219 0 174 169 175 0 +-.0805446259040551 .279011641173944 -.04527
68681990511 .1677762097837535 .910956494054823 .376841358359114 16 174 160 176 ?
177 178 171 172 0 0 1 30 175 7 0 178 172 179 0 +-.0795588007961224 .278474346899
384 -.0444169474357858 724996565288018e-31 -.382259850481334 .924054872131514 16
 178 5 180 ?44 181 174 175 0 0 1 30 179 11 0 181 175 182 0 +-.0913887020913153 .
2803347599883255 -.04364733812939065 -.98582510793274 .155034424078436 .06413410
88662627 16 181 9 183 ?53 184 178 179 0 0 1 30 182 15 0 184 179 185 0 +-.0913887
020913153 .2803347599883255 -.04364733812939065 -143755238109564e-30 .3822598504
81334 -.924054872131514 16 184 13 186 ?45 47 181 182 0 0 1 30 185 19 0 47 182 18
7 0 +-.0913887020913153 .2849218781941015 -.0547359965949688 .98582510793274 -.1
55034424078436 -.0641341088662627 16 47 17 188 ?41 189 184 185 0 0 1 30 187 95 0
 189 185 190 0 +-.0795588007961224 .28306146510516 -.055505605901364 .1677762097
837535 .910956494054823 .376841358359114 16 189 79 191 ?192 193 47 187 0 0 1 30
 190 96 0 193 187 194 0 +-.0913887020913153 .2849218781941015 -.0547359965949688
 .1677762097837535 .910956494054823 .376841358359114 16 193 80 195 ?196 31 189 1
90 0 0 1 30 194 97 0 31 190 32 0 +-.0913887020913153 .2803347599883255 -.0436473
3812939065 .1677762097837535 .910956494054823 .376841358359114 16 31 81 197 ?198
 10 193 194 0 0 1 30 32 98 0 10 194 199 0 +-.0795588007961224 .278474346899384 -
.0444169474357858 .1677762097837535 .910956494054823 .376841358359114 38 199 616
 0 200 32 201 0 +22 102 202 203 203 204 16 200 750 205 ?206 207 208 199 0 0 1 38
 201 623 0 207 199 21 0 +22 209 210 211 211 212 51 255 102 781 0 93 23 105 213 +
-.0942595469015526 .2941386082130485 -.0390191963518524 .0763308771044592 -.9213
58981611984 -.381144623736701 .0015 -.99708254282204 -.0705339188824474 -.029178
22966905945 40 255 20 202 0 1 20 .0001210783316122568 .394746200992838 ??-.09553
40920220006 .291364256312009 -.04016688073170705 -.0954358463931251 .29174926065
4153 -.04062260573514225 -.0952015975120651 .2921004040931205 -.040919249940585
 -.0948160241548227 .2924706276056025 -.04112489272700265 -.094313879335342 .292
7971670167275 -.04118112471580315 -.0937730616101067 .2930201734532595 -.0410612
185684932 -.0932889209454792 .293107007927055 -.0407883180149244 -.0929278633814
385 .2930642338384365 -.04042137427484675 -.092711031565035 .292919503576711 -.0
400174116792139 -.0926358805817583 .2926982531267065 -.03961334711109825 -.09269
91700460242 .292417618459763 -.0392347420883399 -.092902219127564 .2920926223118
095 -.03890954436823205 -.0932435332417634 .29174472659566 -.03867515786774435 -
.0937049726684979 .2914088427858435 -.03857623927434055 -.0942368436161084 .2911
35173085018 -.03864989258818215 -.0947538319156065 .290978504984221 -.0388978158
0432755 -.0951620071335802 .290968250237052 -.0392638925178523 -.095415272065704
3 .2910840297862805 -.039663669603496 -.0955257531389313 .291287005143618 -.0400
5076193198995 -.0955340920220006 .291364256312009 -.04016688073170705 41 3 CI8 t
erm_use0 0 1 cCZ1 203 H?-.0955340920220006 .291364256312009 -.04016688073170705
 204 2 17 INTERSECTION_DATA17 Intersection data7 uv_type0 0 1 u6 values0 1 1 fT8
0 204 4 .708259191794688 2.742732723534485 0 .00289632062635006 .683720314160835
 2.78097921444196 .388561716994278 .002722789727741735 .656123198936286 2.805106
681191895 .709015413807986 .002530205333034065 .622051557002263 2.82044444565117
 1.059514403069732 .002296907369604595 .585910425886588 2.82070923560036 1.42907
4205702946 .002055809025032175 .553476399196495 2.801846754432685 1.803967333042
41 .00184591954969648 .530090157154808 2.76549316932871 2.16792986617833 .001698
85413011718 .518265165993516 2.719076157510695 2.51053451172877 .001625965627650
03 .517600129064648 2.671150218859495 2.832430464744 .001621896945415775 .526639
199876373 2.627861078856155 3.142633997833545 .001677477337402135 .5441641232754
38 2.59320538733565 3.45236365742504 .001786908399079365 .569207539437452 2.5702
33138694305 3.7713497604976 .001946900241825925 .600465519882938 2.5613993166200
65 4.106501211638015 .002152049124322125 .635535718389772 2.568108192560935 4.46
085156094372 .00238859432303781 .670220962851334 2.589812428031615 4.83162556462
176 .002628216748542075 .698573995034901 2.623059272225365 5.20712253332248 .002
82759674092379 .715154132123115 2.661477350254775 5.56609823601232 .002945416843
166865 .718849162539251 2.69879250257116 5.89186487497509 .0029717832680756 .712
131249955612 2.732787165423285 6.1918382139073 .002923875142219055 .708259191794
688 2.742732723534485 6.28318530717958 .002896320626350065 51 23 784 0 214 215 1
02 216 +-.0942595469015526 .297961206717862 -.0482597450731675 .0763308771044592
 -.921358981611984 -.381144623736701 .0015 -.99708254282204 -.0705339188824474 -
.02917822966905945 50 105 577 0 94 102 22 0 +-.0839070670878099 .292148451746219
5 -.0452534115345029 .0763308771044592 -.921358981611984 -.381144623736701 -.997
08254282204 -.0705339188824474 -.02917822966905945 141 255 213 199 213 213 102 1
4 214 685 217 ?0 218 219 5 23 -0 0 0 218 28 51 215 787 0 218 209 23 220 +-.07631
20611307559 .3011421165101525 -.052354811299782 .0763308771044592 -.921358981611
984 -.381144623736701 .0015 -.99708254282204 -.0705339188824474 -.02917822966905
945 141 216 7 216 216 23 14 218 709 221 ?214 100 222 5 215 -0 0 214 100 28 51 20
9 790 0 100 0 215 223 +-.0763120611307559 .293496919500526 -.03387371385715175 .
0763308771044592 -.921358981611984 -.381144623736701 .0015 -.99708254282204 -.07
05339188824474 -.02917822966905945 141 220 21 220 220 215 38 21 630 0 224 201 7
 0 +22 215 225 226 226 227 16 224 702 228 ?229 20 207 21 0 0 1 40 20 225 0 1 20
 .000119864690545316 .380142744490503 ??-.077631071328695 .298904484480135 -.053
280467244059 -.0775152618773026 .298890995867893 -.0538618969337714 -.0772270187
582961 .298827175596591 -.0543743790885217 -.0767694128176999 .2987060947559245
 -.054798705566432 -.0761869344398902 .29853557074458 -.0550495026260388 -.07569
61396968103 .298389273212734 -.0550744767811703 -.0752945301262146 .298278963595
8865 -.0549531854544528 -.0749516725448788 .298203420532491 -.0546960645667608 -
.0747234351204288 .2981728075274375 -.0543621598195272 -.0745892951768472 .29817
47002356185 -.0539452921931075 -.0745737680439759 .298206431328283 -.05343289436
39415 -.0747295332649393 .2982671994833505 -.0528602159745258 -.0750863796325231
 .298353544241195 -.0523245293651673 -.075604433895857 .298458347570507 -.051945
7158543221 -.0761794737795152 .298569939870162 -.0517959712464036 -.076703855721
9655 .2986749330295735 -.0518653713713915 -.0771205583383033 .298764481536492 -.
0520968191173833 -.0774167706393717 .298835082570379 -.0524397147312085 -.077589
521507302 .298883974675487 -.052864801255388 -.077631071328695 .298904484480135
 -.053280467244059 41 1 226 H?-.077631071328695 .298904484480135 -.0532804672440
59 204 80 227 4 .624544263811734 5.26276279081891 0 .002313789949671755 .6599407
76151119 5.24681666510487 .3626408036386625 .00255666644102724 .699308660287466
 5.24695794205465 .713108948221088 .002832799489337355 .742449898619514 5.261897
65328454 1.08592027575626 .00314101762796496 .783514676263321 5.29045043953997 1
.478857143469604 .00343818249378869 .808482160026145 5.32042929651565 1.79986138
89223 .003619956596920835 .820281479369722 5.34980956702325 2.084260938908305 .0
0370601702685408 .819976203744029 5.38074288381337 2.37539472110091 .00370378968
2723265 .808783122073746 5.40817068139936 2.64104997341022 .00362215081343175 .7
88132852205286 5.43421295798677 2.916108439779695 .00347175911467787 .7573370600
25069 5.45870573524814 3.225682834846865 .00324841090932536 .717514977111736 5.4
7756217889745 3.57646628760653 .00296225863866344 .673523662341662 5.48392452539
921 3.958882552481725 .00265129165311405 .632929360994268 5.47203718414308 4.352
53760158105 .00237080389498415 .602713604421622 5.44213775356283 4.7343368769161
2 .002167019676487075 .586047276664392 5.4012886969738 5.08809255230311 .0020567
0823697626 .582068505166941 5.35807966656501 5.4123785886766 .002030609703700825
 .588621548685664 5.31812863349341 5.71794272831241 .00207364348198077 .60427438
1276597 5.28458731538688 6.01882466911936 .00217742951985385 .624544263811734 5.
26276279081891 6.28318530717959 .002313789949671755 81 1 228 1003 96 224 0 0 230
 231 232 17 229 0 107 229 229 0 233 224 0 0 +16 20 678 230 ?106 234 224 7 0 0 1
 16 207 726 231 ?235 224 200 201 0 0 1 81 1 231 1004 96 207 0 0 228 205 236 17 2
35 0 237 235 235 0 238 207 0 0 +15 237 621 0 235 91 239 17 238 0 240 238 238 0 2
35 207 0 0 -15 240 737 0 238 100 0 14 100 733 241 ?218 93 242 5 209 -0 0 218 93
 28 81 1 241 967 96 100 0 0 98 221 243 15 242 736 0 244 100 240 17 244 0 242 244
 244 0 245 246 0 0 +17 245 0 247 245 245 0 244 246 0 0 -16 246 730 248 ?244 208
 249 250 0 0 1 81 1 248 1007 96 246 0 0 251 252 253 16 208 754 251 ?254 200 246
 255 0 0 1 16 249 706 252 ?256 246 257 258 0 0 1 31 255 250 799 0 246 0 258 0 +-
.0759304067452336 .288890124592466 -.03577943697583525 .0763308771044592 -.92135
8981611984 -.381144623736701 -.99708254282204 -.0705339188824474 -.0291782296690
5945 .0015 31 258 797 0 249 250 259 0 +-.0759304067452336 .2965353216020925 -.05
42605344184655 .0763308771044592 -.921358981611984 -.381144623736701 -.997082542
82204 -.0705339188824474 -.02917822966905945 .0015 31 259 795 0 257 258 255 0 +-
.0938778925160303 .293354411809802 -.050165468191851 .0763308771044592 -.9213589
81611984 -.381144623736701 -.99708254282204 -.0705339188824474 -.029178229669059
45 .0015 16 257 682 260 ?261 249 0 259 0 0 1 31 255 793 0 208 259 110 0 +-.09387
78925160303 .2895318133049885 -.0409249194705359 .0763308771044592 -.92135898161
1984 -.381144623736701 -.99708254282204 -.0705339188824474 -.02917822966905945 .
0015 134 255 110 583 0 1 255 262 263 +264 265 31 262 582 0 234 110 266 0 +-.0835
443250312057 .2921741122283735 -.0452427963942475 .0763308771044592 -.9213589816
11984 -.381144623736701 -.99708254282204 -.0705339188824474 -.02917822966905945
 .015 141 263 22 263 263 110 136 255 264 3 4 3 2 5 FFF1 267 268 269 135 255 265
 2 0 45 255 12 267 -.083925979416728 .296780907136433 -.043337073275564 -.077616
5360104297 .2975050420757795 -.04303751561725715 -.0691948211829307 .29534459480
14985 -.04393124203648425 -.0685880868888751 .29323212101161 -.04480512294921165
 127 255 2 268 4 4 128 255 2 269 0 1 16 234 546 270 ?271 272 20 262 0 0 1 30 266
 525 0 273 262 274 0 +-.0839070670878099 .2898548926433315 -.0397090823017138 .9
9708254282204 .0705339188824474 .02917822966905945 16 273 471 275 ?78 276 272 26
6 0 0 1 30 274 522 0 272 266 277 0 +-.0839070670878099 .2944420108491075 -.05079
7740767292 .99708254282204 .0705339188824474 .02917822966905945 16 272 457 278 ?
279 273 234 274 0 0 1 30 277 517 0 276 274 280 0 +-.0897109399934778 .2894443249
288735 -.03987892454579955 -2150108196903265e-31 .382259850481334 -.924054872131
514 16 276 460 281 ?282 283 273 277 0 0 1 30 280 369 0 283 277 160 0 +-.07737771
00689336 .290316781322097 -.03951800977711735 724996565288018e-31 -.382259850481
334 .924054872131514 16 283 307 284 ?285 150 276 280 0 0 1 30 160 230 0 154 280
 286 0 +-.0805446259040551 .2828342396787575 -.0545174169203662 2150108196903265
e-31 -.382259850481334 .924054872131514 30 286 229 0 159 160 287 0 +-.0904028769
833825 .2805619854147285 -.04463552711038845 -.98582510793274 .155034424078436 .
0641341088662627 16 159 172 288 ?71 289 154 286 0 0 1 30 287 228 0 289 286 290 0
 +-.0904028769833825 .2843845839195415 -.0538760758317036 -2150108196903265e-31
 .382259850481334 -.924054872131514 16 289 175 291 ?40 168 159 287 0 0 1 30 290
 227 0 168 287 292 0 +-.0904028769833825 .2843845839195415 -.0538760758317036 .9
8582510793274 -.155034424078436 -.0641341088662627 16 168 178 293 ?36 165 289 29
0 0 0 1 30 292 226 0 150 290 164 0 +-.0788668638062176 .2919438046193055 -.05074
90033367751 2150108196903265e-31 -.382259850481334 .924054872131514 16 150 153 2
94 ?145 161 283 292 0 0 1 30 164 225 0 161 292 162 0 +-.088725114885545 .2896715
503552765 -.0408671135267973 -.98582510793274 .155034424078436 .0641341088662627
 16 161 157 295 ?148 152 150 164 0 0 1 81 1 295 995 96 161 0 0 157 294 296 17 14
8 0 142 146 145 61 66 161 0 0 +17 66 0 135 297 63 64 148 161 0 177 -15 135 196 0
 66 130 0 17 297 0 135 71 66 60 177 174 0 298 -17 63 0 135 66 71 61 299 171 0 15
1 +17 177 0 131 149 73 64 297 174 0 145 +15 131 192 0 149 127 0 17 149 0 131 300
 177 67 145 150 0 144 -17 73 0 131 177 300 60 301 154 0 297 +17 300 0 131 73 149
 57 75 165 0 301 -17 301 0 302 303 298 57 73 154 0 0 -15 302 133 0 298 123 0 17
 303 0 302 304 301 11 36 168 0 0 -17 298 0 302 301 304 60 71 159 0 0 -17 304 0 3
02 298 303 69 40 289 0 0 -17 71 0 135 63 297 69 298 159 0 299 +17 299 0 139 40 1
51 69 63 171 0 304 -15 139 200 0 151 134 0 17 40 0 139 38 299 11 304 289 0 303 +
17 151 0 139 299 38 61 146 152 0 148 -17 38 0 139 151 40 58 33 39 0 37 +17 36 0
 35 75 33 57 303 168 0 300 +15 35 204 0 37 138 0 17 75 0 35 37 36 67 300 165 0 1
49 +80 255 1 96 0 305 8001 0 0 0 0 3 5 0 0 0 FFFFTFTFFFFFFF2 81 1 157 994 96 152
 0 0 153 295 306 81 1 294 996 96 150 0 0 295 284 307 83 255 3 296 .9882352941176
47 .984313725490196 1 81 1 284 997 96 283 0 0 294 281 308 83 3 307 .988235294117
647 .984313725490196 1 81 1 281 998 96 276 0 0 284 275 309 83 3 308 .98823529411
7647 .984313725490196 1 81 1 275 999 96 273 0 0 281 278 310 83 3 309 .9882352941
17647 .984313725490196 1 81 1 278 1000 96 272 0 0 275 270 311 83 3 310 .98823529
4117647 .984313725490196 1 81 1 270 1001 96 234 0 0 278 230 312 83 3 311 .988235
294117647 .984313725490196 1 81 1 230 1002 96 20 0 0 270 228 313 83 3 312 .98823
5294117647 .984313725490196 1 83 3 313 .988235294117647 .984313725490196 1 83 3
 306 .988235294117647 .984313725490196 1 79 255 15 305 SDL/TYSA_COLOUR81 1 293 9
89 96 168 0 0 167 291 314 81 1 167 988 96 165 0 0 170 293 315 81 1 291 990 96 28
9 0 0 293 288 316 83 3 314 .988235294117647 .984313725490196 1 81 1 288 991 96 1
59 0 0 291 156 317 83 3 316 .988235294117647 .984313725490196 1 81 1 156 992 96
 154 0 0 288 153 318 83 3 317 .988235294117647 .984313725490196 1 83 3 318 .9882
35294117647 .984313725490196 1 81 1 170 987 96 39 0 0 173 167 319 83 3 315 .9882
35294117647 .984313725490196 1 81 1 173 986 96 171 0 0 176 170 320 83 3 319 .988
235294117647 .984313725490196 1 81 1 176 985 96 174 0 0 180 173 321 83 3 320 .98
8235294117647 .984313725490196 1 81 1 180 984 96 178 0 0 183 176 322 83 3 321 .9
88235294117647 .984313725490196 1 81 1 183 983 96 181 0 0 186 180 323 83 3 322 .
988235294117647 .984313725490196 1 81 1 186 982 96 184 0 0 188 183 324 83 3 323
 .988235294117647 .984313725490196 1 81 1 188 981 96 47 0 0 191 186 325 83 3 324
 .988235294117647 .984313725490196 1 81 1 191 980 96 189 0 0 195 188 326 83 3 32
5 .988235294117647 .984313725490196 1 81 1 195 979 96 193 0 0 197 191 327 83 3 3
26 .988235294117647 .984313725490196 1 81 1 197 978 96 31 0 0 29 195 328 83 3 32
7 .988235294117647 .984313725490196 1 81 1 29 977 96 10 0 0 217 197 329 83 3 328
 .988235294117647 .984313725490196 1 81 1 217 969 96 214 0 0 221 29 330 83 3 329
 .988235294117647 .984313725490196 1 81 1 221 968 96 218 0 0 241 217 331 83 3 33
0 .988235294117647 .984313725490196 1 83 3 331 .988235294117647 .984313725490196
 1 17 285 0 332 333 192 76 87 283 0 0 +15 332 89 0 192 18 0 17 333 0 332 334 285
 54 30 10 0 0 -17 192 0 332 285 334 85 48 189 0 0 +17 87 0 335 84 78 85 285 283
 0 279 -15 335 562 0 78 94 0 17 84 0 335 81 87 82 279 272 0 282 -17 78 0 335 87
 81 76 119 273 0 30 +17 279 0 124 48 196 85 84 272 0 192 +15 124 436 0 279 116 0
 17 48 0 124 46 279 34 192 189 0 334 -17 196 0 124 279 46 82 336 193 0 0 +17 46
 0 124 196 48 42 41 47 0 0 -17 336 0 117 337 282 42 196 193 0 46 -15 117 445 0 2
82 112 0 17 337 0 117 198 336 49 45 184 0 0 -17 282 0 117 336 198 82 81 276 0 19
6 +17 198 0 117 282 337 79 338 31 0 0 +17 81 0 335 78 84 79 282 276 0 119 -17 11
9 0 113 338 30 79 78 273 0 198 -17 338 0 113 56 119 49 198 31 0 337 -17 30 0 113
 119 56 76 333 10 0 285 +17 56 0 113 30 338 54 53 181 0 44 -17 53 0 43 45 44 49
 56 181 0 338 +17 44 0 43 53 41 54 334 178 0 333 +15 43 4 0 44 123 302 17 334 0
 332 192 333 34 44 178 0 0 -17 45 0 43 41 53 42 337 184 0 336 +14 18 90 339 ?127
 123 332 5 6 -0 0 127 123 28 81 1 339 958 96 18 0 0 126 129 340 81 1 126 957 96
 123 0 0 122 339 341 81 1 129 959 96 127 0 0 339 133 342 83 3 340 .9882352941176
47 .984313725490196 1 81 1 133 960 96 130 0 0 129 137 343 83 3 342 .988235294117
647 .984313725490196 1 81 1 137 961 96 134 0 0 133 140 344 83 3 343 .98823529411
7647 .984313725490196 1 81 1 140 962 96 138 0 0 137 141 345 83 3 344 .9882352941
17647 .984313725490196 1 83 3 345 .988235294117647 .984313725490196 1 81 1 122 9
56 96 116 0 0 114 126 346 83 3 341 .988235294117647 .984313725490196 1 81 1 114
 955 96 112 0 0 111 122 347 83 3 346 .988235294117647 .984313725490196 1 83 3 34
7 .988235294117647 .984313725490196 1 17 271 0 348 271 271 0 349 234 0 0 +15 348
 561 0 271 94 335 17 349 0 350 349 349 0 271 234 0 0 -15 350 566 0 349 91 90 81
 1 260 1009 96 257 0 0 252 0 351 17 261 0 219 261 261 0 352 257 0 0 +15 219 688
 0 261 214 353 17 352 0 104 352 352 0 261 257 0 0 -15 104 670 0 352 94 354 15 35
4 661 0 355 94 247 17 355 0 354 355 355 0 256 249 0 0 -15 247 652 0 245 94 356 1
5 356 643 0 357 94 348 17 357 0 356 357 357 0 254 208 0 0 -17 254 0 101 254 254
 0 357 208 0 0 +15 101 760 0 254 93 358 15 358 761 0 359 93 0 17 359 0 358 359 3
59 0 206 200 0 0 -17 206 0 239 206 206 0 359 200 0 0 +15 239 614 0 206 91 350 17
 256 0 222 256 256 0 355 249 0 0 +15 222 712 0 256 218 360 15 360 713 0 233 218
 0 17 233 0 360 233 233 0 229 224 0 0 -15 353 689 0 361 214 0 17 361 0 353 361 3
61 0 106 20 0 0 -17 106 0 95 106 106 0 361 20 0 0 +81 1 252 1008 96 249 0 0 248
 260 362 83 3 351 .988235294117647 .984313725490196 1 83 3 362 .988235294117647
 .984313725490196 1 81 1 251 1006 96 208 0 0 205 248 363 81 1 205 1005 96 200 0
 0 231 251 364 83 3 363 .988235294117647 .984313725490196 1 83 3 364 .9882352941
17647 .984313725490196 1 83 3 253 .988235294117647 .984313725490196 1 81 1 98 96
6 96 93 0 0 92 241 365 83 3 243 .988235294117647 .984313725490196 1 83 3 365 .98
8235294117647 .984313725490196 1 83 3 236 .988235294117647 .984313725490196 1 15
 107 628 0 229 91 237 83 3 232 .988235294117647 .984313725490196 1 141 223 201 2
23 223 209 40 20 210 0 1 20 .0001210566386741244 .3993458604480025 ??-.077631071
328695 .2912592874705085 -.03479936980142875 -.0775645821725932 .291598268777706
5 -.03517937015872185 -.0773324885132889 .2918762996028995 -.0355455580857601 -.
0769815479843501 .2920452792273745 -.03582852933139785 -.0765654353211816 .29210
38202434435 -.0360104697295386 -.0761123910260199 .2920581576390055 -.0360917859
674258 -.0756461811702862 .291905749711366 -.036067024663778 -.0752010010877615
 .2916401126624485 -.03592648999440945 -.0748295159086947 .2912613329870565 -.03
56652981847118 -.0746013279817359 .2907919624120715 -.03529689713850925 -.074583
8691314902 .2902968454902345 -.0348664339118286 -.074738572555662 .2899568176530
85 -.0345285148366992 -.0750494292752934 .289710198430191 -.0342130820506316 -.0
754119201140977 .2896202376967475 -.0339994804709676 -.0757970256870097 .2896418
79570772 -.0338664091509666 -.0762314171359678 .2897653036211365 -.0338059531534
09 -.0767088868115969 .2900070542224455 -.03384985551040415 -.0771678795308333 .
2903704528677215 -.03403905162879645 -.0775045282607364 .2908178408273185 -.0343
790729224421 -.077631071328695 .2912592874705085 -.03479936980142875 41 1 211 H?
-.077631071328695 .2912592874705085 -.03479936980142875 204 80 212 4 .6245442638
11734 1.020422516360676 0 .002313789949671755 .600364452883493 .992372190704551
 .3262362593063455 .00215137674648987 .585406228951863 .95246246076983 .66482141
3394165 .00205249702078646 .58219632771646 .909410713086284 .986865451959495 .00
2031446693399135 .589376486439089 .869798422936864 1.29169174595264 .00207861725
1597145 .605597320826744 .836763328080477 1.592722514195185 .00218626341762963 .
630291959100752 .812783364644816 1.90195533140083 .002352834400070155 .663012083
568677 .800354619159696 2.228502191335445 .002577998433429275 .702552823649053 .
801669602780451 2.57830968746768 .00285579442492317 .745815469179188 .8177460610
31478 2.953076067892885 .003165256926360165 .786337255121887 .847206397154381 3.
34698847067262 .00345870125402949 .810049514756335 .877185513242774 3.6637807800
99625 .00363138426898369 .821465429775891 .912083298167911 3.99868820559219 .003
714655628411865 .81787494166856 .942538203342935 4.285978773405105 .003688459420
78379 .804153551877097 .969380619313743 4.55045896110204 .003588404621422025 .78
0804078056311 .995187131641285 4.8332292816876 .003418486805324405 .747310942461
884 1.01871270287952 5.15402283217438 .00317603518570494 .705722125364588 1.0349
08862535964 5.51491236274682 .002878290346487415 .661859133227067 1.036723410238
236 5.902651148164 .002569986026846825 .624544263811734 1.020422516360676 0 .002
313789949671755 83 3 158 .988235294117647 .984313725490196 1 81 1 97 964 96 94 0
 0 141 92 366 83 3 143 .988235294117647 .984313725490196 1 83 3 366 .98823529411
7647 .984313725490196 1 83 3 115 .988235294117647 .984313725490196 1 141 109 199
 367 368 22 141 367 7 369 109 22 141 368 201 109 369 22 141 369 21 368 367 22 83
 3 99 .988235294117647 .984313725490196 1 19 17 100 0 1 0 9 5 S0 40 20 24 0 1 20
 .000109689959490311 .367725318652249 ??-.0955340920220006 .2951868548168225 -.0
494074294530222 -.0954596259670614 .2953008746639745 -.0498483918691186 -.095255
1720650301 .2954760078083925 -.0502241213509049 -.0949556500899042 .295684484723
1185 -.0504840474765929 -.0945754555939958 .295914546378723 -.0506256366712265 -
.0941235639883106 .2961528577648535 -.0506297489368709 -.0936324641860017 .29637
1640274031 -.0504662458257315 -.093169777214057 .2965315870970855 -.050123601164
3375 -.0928216288974868 .296598932455108 -.0496379461174979 -.0926507465122689 .
296565042868465 -.0490926391449172 -.0926659255664091 .296449027099522 -.0485787
195402413 -.0928353098410715 .2962802165032705 -.048154007501586 -.0931213736996
966 .2960813672832575 -.0478416491204382 -.0934967405223779 .2958668528484715 -.
0476532421878736 -.0939383962730033 .295648837564324 -.0476042809717268 -.094415
6248013642 .2954429820352135 -.0477149398160588 -.0948798566755799 .295271468625
36 -.0479997160896304 -.0952625527676282 .295162191914243 -.0484480050345874 -.0
954905524730137 .295141421580875 -.0490024126591847 -.0955340920220006 .29518685
48168225 -.0494074294530222 41 1 25 H?-.0955340920220006 .2951868548168225 -.049
4074294530222 204 80 26 4 .708259191794688 3.540452583645105 0 .0028963206263500
65 .717902122216031 3.57452447300489 .3054326047611135 .002965021929547805 .7175
45271259008 3.61010423319997 .614805690304927 .002962474851592055 .7076971949645
46 3.64302140011188 .91089388522253 .002892324994198605 .689480159585483 3.67309
104012199 1.210819694503576 .00276334216113946 .66327588540938 3.699030872279225
 1.530040867545795 .002579832475667355 .630378424985084 3.717011364613515 1.8746
17690412715 .002353422992698225 .59424553340044 3.721294856206995 2.240703328692
49 .00211077468254746 .56040439849791 3.707007822279405 2.61584431157658 .001890
195088336355 .534552502767321 3.6742326368782 2.983641739105115 .001726622344833
415 .519980988962316 3.62935341868817 3.33159761077214 .001636478190686105 .5168
32938462806 3.581124601452105 3.65772682234155 .00161720738931148 .5237310089017
54 3.5363390494973 3.969652315342485 .001659529681266455 .539362618201577 3.4993
72354093385 4.278536199263275 .001756712114209295 .562742719398811 3.47342716087
788 4.59462462829107 .001905209179257945 .592711069718573 3.461114599952 4.92556
412613571 .00210062577135518 .627192110736561 3.46415412170729 5.27542230879372
 .00233175691149173 .662449973021668 3.48254569772948 5.6430229861552 .002574091
383640825 .692851962787598 3.513579640734865 6.01904098676716 .00278713438482268
 .708259191794688 3.540452583645105 578241158658935e-30 .002896320626350065 74 4
 CI16 index_map_offset0 0 1 dCCZ20 15 7 0 0 370 260 371 372 373 13 2 0 0 0 0 0 0
 0 0 0 0 0 0 0 81 2 370 843 374 1 0 371 0 0 375 0 81 1 371 970 376 1 370 372 0 0
 377 81 1 372 973 378 1 371 373 0 0 379 81 1 373 974 380 1 372 13 0 0 381 81 1 1
3 975 382 1 373 2 0 0 383 80 1 382 378 384 9000 0 0 0 0 3 5 0 0 0 FFTFFFFFFFFFFF
3 84 255 16 383 _06_bar_bottom_279 13 384 AdamsPartName80 1 380 382 385 9000 0 0
 0 0 3 5 0 0 0 FFTFFFFFFFFFFF3 84 6 381 PSMAR179 12 385 AdamsRFMName80 1 378 386
 387 9000 0 0 0 0 3 5 0 0 0 FFTFFFFFFFFFFF1 82 255 1 379 6 79 12 387 UG2/ADAMS_I
D80 1 376 388 389 8017 0 0 0 0 0 0 0 0 0 TTTTTTTTTTTTTF3 84 13 377 02_foot_stand
79 13 389 SDL/TYSA_NAME80 2 374 390 391 8004 0 0 0 0 3 5 0 0 0 FFTFFFFFFFFFFF2 3
 83 1 375 23e2 79 16 391 SDL/TYSA_DENSITY80 1 12 380 392 9000 0 0 0 0 3 5 0 0 0
 FFTFFFFFFFFFFF3 84 6 14 SOLID679 15 392 AdamsObjectName1 0 
