**ABCDEFGHIJKLMNOPQRSTUVWXYZabcdefghijklmnopqrstuvwxyz**************************
**PARASOLID !"#$%&'()*+,-./:;<=>?@[\]^_`{|}~0123456789**************************
**PART1;
MC=unknown;
MC_MODEL=unknown;
MC_ID=unknown;
OS=unknown;
OS_RELEASE=unknown;
FRU=sdl_parasolid_customer_support;
APPL=parasolid_acceptance_tests;
SITE=unknown;
USER=unknown;
FORMAT=text;
GUISE=transmit;
KEY=Controls_Plant_9_Tensegrity__06_bar_bottom_8_SOLID44;
FILE=Controls_Plant_9_Tensegrity__06_bar_bottom_8_SOLID44.xmt_txt;
DATE=unknown;
**PART2;
SCH=SCH_3101206_31100;
USFLD_SIZE=1;
**PART3;
**END_OF_HEADER*****************************************************************
T51 : TRANSMIT FILE created by modeller version 310120623 SCH_3101206_31100_1300
6222 0 12 34 CCCCCCI4 mesh1006 0 I8 polyline1008 0 CCCCCCCDI5 owner1040 0 CCCCCC
I13 boundary_mesh1006 0 I17 boundary_polyline1008 0 CCCA16 index_map_offset0 0 1
 dA9 index_map82 0 A17 node_id_index_map82 0 A20 schema_embedding_map82 0 A5 chi
ld12 0 A14 lowest_node_id0 0 1 dA16 mesh_offset_data206 0 Z1 636 2 3 0 0 0 0 0 0
 1e3 1e-8 0 4 0 1 0 1 1 5 6 7 8 0 0 9 10 11 0 0 0 0 0 0 0 81 255 1 2 610 12 1 13
 0 0 0 14 70 11 CI9 list_type0 0 1 uI10 notransmit0 0 1 lCCCDCCDI12 finger_index
0 0 1 dI12 finger_block1012 0 CZ3 0 4 T1 0 0 6 20 1 15 15 13 255 5 99 0 1 0 16 0
 0 17 0 50 255 6 94 0 18 19 0 0 +.1222239500091196 .185924352133891 -.1789241674
547035 -25214902265963e-30 -.924054872131514 -.382259850481333 .167776209783753
 .376841358359113 -.910956494054824 30 255 7 98 0 10 20 0 0 +.1222239500091196 .
185924352133891 -.1789241674547035 .167776209783753 .376841358359113 -.910956494
054824 29 255 8 270 0 11 21 0 .126403290642449 .18056195783514 -.177079488822712
 19 8 CCCCCCCA5 owner12 0 Z9 33 0 1 17 0 22 V0 16 255 10 82 23 ?24 0 25 7 0 0 1
 18 255 11 268 0 26 0 27 8 ?1 17 255 26 0 28 29 30 11 31 32 0 33 +18 27 148 0 34
 11 35 21 ?1 17 34 0 36 37 38 27 39 40 0 41 +18 35 144 0 42 27 43 44 ?1 29 21 15
0 0 27 44 8 .1273995318257664 .1802743325475865 -.1803082308685595 29 44 146 0 3
5 45 21 .1273995318257664 .181660414855784 -.1797348410928375 29 45 139 0 43 46
 44 .1269066192718 .181692481910217 -.1798123583048765 18 43 137 0 47 35 48 45 ?
1 29 46 75 0 49 50 45 .1322499772982306 .1856598524035875 -.178284779707974 18 4
9 66 0 51 52 53 46 ?1 29 50 76 0 53 54 46 .1322499772982306 .176419303682272 -.1
821073782127875 18 53 67 0 55 49 56 50 ?1 29 54 77 0 56 57 50 .1223917262189034
 .177060644770935 -.1836577224535715 18 56 68 0 58 53 59 54 ?1 29 57 78 0 59 60
 54 .1223917262189034 .18630119349225 -.1798351239487585 18 59 69 0 61 56 62 57
 ?1 29 60 32 0 48 63 57 .132082201088447 .185283011045228 -.177373823213919 18 4
8 30 0 64 43 65 60 ?1 29 63 29 0 65 66 60 .132082201088447 .176042462323913 -.18
11964217187325 18 65 27 0 67 48 68 63 ?1 29 66 26 0 68 69 63 .1222239500091196 .
1766838034125755 -.182746765959517 18 68 24 0 70 65 52 66 ?1 29 69 23 0 52 71 66
 .1222239500091196 .185924352133891 -.1789241674547035 18 52 21 0 72 68 49 69 ?1
 29 71 236 0 62 73 69 .1269066192718 .18030639960202 -.1803857480805985 18 62 18
9 0 74 59 75 71 ?1 29 73 421 0 75 76 71 .1268962031964152 .1805298907807065 -.17
7001971610673 18 75 349 0 30 62 77 73 ?1 29 76 424 0 77 78 73 .1268962031964152
 .1791438084725095 -.177575361386395 18 77 341 0 79 75 80 76 ?1 29 78 427 0 80 0
 76 .126403290642449 .1791758755269425 -.177652878598434 18 80 342 0 29 77 0 78
 ?1 17 29 0 28 79 26 80 33 81 0 82 +15 255 28 359 0 26 83 0 17 79 0 28 30 29 77
 82 84 0 38 -17 33 0 85 47 86 11 29 81 0 87 -16 81 328 88 ?29 32 89 90 0 0 1 17
 82 0 91 74 39 80 79 84 0 86 +15 91 292 0 82 16 0 17 74 0 91 92 82 62 86 93 0 94
 +17 39 0 91 82 92 77 34 40 0 0 -16 84 300 95 ?82 96 32 97 0 0 1 17 86 0 85 33 9
8 80 74 93 0 0 -15 85 209 0 86 99 0 17 98 0 85 86 47 62 100 101 0 0 +16 93 266 1
02 ?74 103 101 104 0 0 1 81 1 102 626 105 93 0 0 106 107 108 16 103 269 106 ?47
 109 93 110 0 0 1 16 101 170 107 ?98 93 111 112 0 0 1 30 104 227 0 93 112 110 0
 +.12556440959353 .177291668735147 -.17309809612816 .167776209783753 .3768413583
59113 -.910956494054824 30 112 228 0 101 113 104 0 +.1269066192718 .181692481910
217 -.1798123583048765 -25214902265963e-30 -.924054872131514 -.382259850481333 3
0 110 226 0 103 104 114 0 +.12556440959353 .178677751043344 -.172524706352438 .1
67776209783753 .376841358359113 -.910956494054824 30 114 225 0 109 110 115 0 +.1
260573221474964 .178645683988911 -.172447189140399 .167776209783753 .37684135835
9113 -.910956494054824 16 109 277 116 ?42 40 103 114 0 0 1 30 115 224 0 40 114 1
17 0 +.1260573221474964 .177259601680714 -.173020578916121 .167776209783753 .376
841358359113 -.910956494054824 16 40 285 118 ?34 119 109 115 0 0 1 30 117 7 0 12
0 115 121 0 +.1222239500091196 .185924352133891 -.1789241674547035 -.98582510793
274 .0641341088662622 -.155034424078436 16 120 5 122 ?123 124 125 117 0 0 1 30 1
21 11 0 124 117 126 0 +.1222239500091196 .185924352133891 -.1789241674547035 -25
214902265963e-30 -.924054872131514 -.382259850481333 16 124 9 127 ?70 128 120 12
1 0 0 1 30 126 15 0 128 121 129 0 +.1222239500091196 .1766838034125755 -.1827467
65959517 .98582510793274 -.0641341088662622 .155034424078436 16 128 13 130 ?67 1
31 124 126 0 0 1 30 129 19 0 131 126 132 0 +.132082201088447 .185283011045228 -.
177373823213919 25214902265963e-30 .924054872131514 .382259850481333 16 131 17 1
33 ?64 134 128 129 0 0 1 30 132 74 0 119 129 135 0 +.1223917262189034 .186301193
49225 -.1798351239487585 -.98582510793274 .0641341088662622 -.155034424078436 16
 119 62 136 ?137 138 40 132 0 0 1 30 135 73 0 138 132 139 0 +.1223917262189034 .
18630119349225 -.1798351239487585 -25214902265963e-30 -.924054872131514 -.382259
850481333 16 138 58 140 ?58 141 119 135 0 0 1 30 139 72 0 141 135 142 0 +.122391
7262189034 .177060644770935 -.1836577224535715 .98582510793274 -.064134108866262
2 .155034424078436 16 141 54 143 ?55 125 138 139 0 0 1 30 142 71 0 125 139 144 0
 +.1322499772982306 .1856598524035875 -.178284779707974 25214902265963e-30 .9240
54872131514 .382259850481333 16 125 50 145 ?51 120 141 142 0 0 1 30 144 95 0 134
 142 146 0 +.132082201088447 .185283011045228 -.177373823213919 .167776209783753
 .376841358359113 -.910956494054824 16 134 79 147 ?148 149 131 144 0 0 1 30 146
 96 0 149 144 20 0 +.132082201088447 .176042462323913 -.1811964217187325 .167776
209783753 .376841358359113 -.910956494054824 16 149 80 150 ?151 25 134 146 0 0 1
 30 20 97 0 25 146 7 0 +.1222239500091196 .1766838034125755 -.182746765959517 .1
67776209783753 .376841358359113 -.910956494054824 16 25 81 152 ?153 10 149 20 0
 0 1 81 1 152 612 105 25 0 0 23 150 154 17 153 0 155 55 156 56 157 25 0 158 +15
 155 85 0 55 159 0 17 55 0 155 160 153 53 158 141 0 151 +17 156 0 155 153 160 68
 67 128 0 0 -17 157 0 161 72 58 68 153 25 0 156 -17 158 0 162 61 163 56 55 141 0
 0 -15 162 49 0 164 165 0 17 61 0 162 164 158 59 58 138 0 24 -17 163 0 162 158 1
64 53 51 125 0 0 -17 164 0 162 163 61 49 137 119 0 0 -17 51 0 166 167 151 49 163
 125 0 148 +15 166 83 0 51 168 0 17 167 0 166 169 51 48 148 134 0 170 -17 151 0
 166 51 169 53 160 149 0 163 +17 148 0 171 137 170 49 167 134 0 164 +15 171 89 0
 137 18 0 17 137 0 171 172 148 59 164 119 0 0 +17 170 0 171 148 172 48 123 120 0
 0 -17 172 0 171 170 137 52 24 10 0 0 -17 123 0 173 70 64 52 170 120 0 172 +15 1
73 4 0 123 174 175 17 70 0 173 67 123 68 72 124 0 157 +17 64 0 173 123 67 48 169
 131 0 167 +17 67 0 173 64 70 65 156 128 0 160 +17 169 0 166 151 167 65 64 131 0
 0 -17 160 0 155 156 55 65 151 149 0 169 -17 72 0 161 24 157 52 70 124 0 123 -15
 161 87 0 58 176 0 17 24 0 161 58 72 59 172 10 0 137 +17 58 0 161 157 24 56 61 1
38 0 153 +14 255 176 88 177 ?159 18 161 5 19 -0 0 159 18 22 81 1 177 597 105 176
 0 0 178 179 180 14 159 86 179 ?168 176 155 5 181 -0 0 168 176 22 14 18 90 178 ?
176 174 171 5 6 -0 0 176 174 22 50 19 93 0 176 181 6 0 +.1222239500091196 .18592
4352133891 -.1789241674547035 .98582510793274 -.0641341088662622 .15503442407843
6 25214902265963e-30 .924054872131514 .382259850481333 13 22 34 0 0 0 0 0 0 9 16
 14 16 294 182 ?183 0 91 5 184 -0 0 183 0 22 81 1 182 592 105 16 0 0 0 185 186 1
4 183 289 185 ?99 16 187 5 188 -0 0 99 16 22 50 184 218 0 16 188 189 0 +.1255644
0959353 .177291668735147 -.17309809612816 25214902265963e-30 .924054872131514 .3
82259850481333 -.167776209783753 -.376841358359113 .910956494054824 50 188 219 0
 183 190 184 0 +.1260573221474964 .178645683988911 -.172447189140399 -.985825107
93274 .0641341088662622 -.155034424078436 -25214902265963e-30 -.924054872131514
 -.382259850481333 50 189 3 0 174 184 191 0 +.1222239500091196 .185924352133891
 -.1789241674547035 .167776209783753 .376841358359113 -.910956494054824 25214902
265963e-30 .924054872131514 .382259850481333 14 174 155 192 ?18 99 173 5 189 -0
 0 18 99 22 50 191 70 0 165 189 193 0 +.1223917262189034 .18630119349225 -.17983
51239487585 .167776209783753 .376841358359113 -.910956494054824 25214902265963e-
30 .924054872131514 .382259850481333 14 165 48 194 ?195 168 162 5 191 +0 0 195 1
68 22 50 193 91 0 168 191 181 0 +.132082201088447 .185283011045228 -.17737382321
3919 -.98582510793274 .0641341088662622 -.155034424078436 -25214902265963e-30 -.
924054872131514 -.382259850481333 14 168 84 196 ?165 159 166 5 193 -0 0 165 159
 22 50 181 92 0 159 193 19 0 +.1222239500091196 .1766838034125755 -.182746765959
517 25214902265963e-30 .924054872131514 .382259850481333 -.167776209783753 -.376
841358359113 .910956494054824 81 1 196 599 105 168 0 0 179 194 197 80 255 1 105
 0 198 8001 0 0 0 0 3 5 0 0 0 FFFFTFTFFFFFFF2 81 1 179 598 105 159 0 0 177 196 1
99 81 1 194 600 105 165 0 0 196 200 201 83 255 3 197 .647058823529412 .619607843
137255 .588235294117647 81 1 200 601 105 195 0 0 194 202 203 83 3 201 .647058823
529412 .619607843137255 .588235294117647 14 195 202 200 ?83 165 204 5 190 -0 0 8
3 165 22 81 1 202 602 105 83 0 0 200 205 206 83 3 203 .647058823529412 .61960784
3137255 .588235294117647 14 83 356 202 ?207 195 28 5 208 -0 0 207 195 22 81 1 20
5 603 105 207 0 0 202 23 209 83 3 206 .647058823529412 .619607843137255 .5882352
94117647 14 207 517 205 ?0 83 210 5 211 -0 0 0 83 22 81 1 23 611 105 10 0 0 205
 152 212 83 3 209 .647058823529412 .619607843137255 .588235294117647 83 3 212 .6
47058823529412 .619607843137255 .588235294117647 15 210 520 0 213 207 214 51 255
 211 535 0 207 0 208 0 +.1283749408583142 .1797406484633085 -.1770561148624165 -
.98582510793274 .0641341088662622 -.155034424078436 6e-4 -25214902265963e-30 -.9
24054872131514 -.382259850481333 51 208 400 0 83 211 215 0 -.1283749408583142 .1
797406484633085 -.1770561148624165 -.98582510793274 .0641341088662622 -.15503442
4078436 75e-5 -25214902265963e-30 -.924054872131514 -.382259850481333 50 215 221
 0 99 208 190 0 +.12556440959353 .178677751043344 -.172524706352438 .98582510793
274 -.0641341088662622 .155034424078436 25214902265963e-30 .924054872131514 .382
259850481333 14 99 274 216 ?174 183 217 5 215 -0 0 174 183 22 50 190 220 0 195 2
15 188 0 +.12556440959353 .178677751043344 -.172524706352438 -25214902265963e-30
 -.924054872131514 -.382259850481333 .167776209783753 .376841358359113 -.9109564
94054824 81 1 216 594 105 99 0 0 185 192 218 15 217 499 0 219 99 85 17 219 0 217
 219 219 0 213 220 0 0 -17 213 0 210 213 213 0 219 220 0 0 +16 220 514 221 ?213
 89 0 222 0 0 1 81 1 221 636 105 220 0 0 223 0 224 16 89 510 223 ?225 81 220 226
 0 0 1 31 255 222 539 0 220 0 226 0 +.126403290642449 .179868916681041 -.1773661
83710573 -.98582510793274 .0641341088662622 -.155034424078436 -25214902265963e-3
0 -.924054872131514 -.382259850481333 6e-4 31 226 538 0 89 222 90 0 +.1268962031
964152 .179836849626608 -.177288666498534 -.98582510793274 .0641341088662622 -.1
55034424078436 -25214902265963e-30 -.924054872131514 -.382259850481333 6e-4 31 9
0 415 0 81 226 97 0 -.126403290642449 .179868916681041 -.177366183710573 -.98582
510793274 .0641341088662622 -.155034424078436 -25214902265963e-30 -.924054872131
514 -.382259850481333 75e-5 30 97 410 0 84 90 227 0 +.1283749408583142 .17904760
730921 -.1773428097502775 -.98582510793274 .0641341088662622 -.155034424078436 3
0 227 409 0 32 97 228 0 +.1283749408583142 .1804336896174075 -.1767694199745555
 -.98582510793274 .0641341088662622 -.155034424078436 16 32 302 229 ?26 84 81 22
7 0 0 1 31 228 406 0 96 227 230 0 -.1268962031964152 .179836849626608 -.17728866
6498534 -.98582510793274 .0641341088662622 -.155034424078436 -25214902265963e-30
 -.924054872131514 -.382259850481333 75e-5 16 96 299 231 ?38 232 84 228 0 0 1 30
 230 231 0 232 228 233 0 +.1269066192718 .18030639960202 -.1803857480805985 .985
82510793274 -.0641341088662622 .155034424078436 16 232 158 234 ?92 235 96 230 0
 0 1 30 233 230 0 235 230 113 0 +.1273995318257664 .181660414855784 -.1797348410
928375 25214902265963e-30 .924054872131514 .382259850481333 16 235 162 236 ?37 1
11 232 233 0 0 1 30 113 229 0 111 233 112 0 +.1269066192718 .181692481910217 -.1
798123583048765 -.98582510793274 .0641341088662622 -.155034424078436 16 111 166
 237 ?238 101 235 113 0 0 1 81 1 237 628 105 111 0 0 107 236 239 17 238 0 204 87
 42 43 240 111 0 0 +15 204 205 0 87 195 0 17 87 0 204 31 238 11 47 103 0 0 -17 4
2 0 204 238 31 35 241 109 0 240 +17 240 0 175 41 100 35 238 111 0 37 -15 175 153
 0 94 174 0 17 41 0 175 94 240 27 37 235 0 92 -17 100 0 175 240 94 43 98 101 0 2
38 -17 37 0 36 241 34 35 41 235 0 0 +15 36 201 0 241 183 0 17 241 0 36 38 37 75
 42 109 0 0 -17 38 0 36 34 241 77 30 96 0 39 +17 30 0 28 26 79 75 38 96 0 31 -17
 31 0 204 42 87 75 26 32 0 241 -17 94 0 175 100 41 62 92 232 0 98 -17 92 0 91 39
 74 27 94 232 0 0 +17 47 0 85 98 33 43 87 103 0 100 +81 1 107 627 105 101 0 0 10
2 237 242 81 1 236 629 105 235 0 0 237 234 243 83 3 239 .647058823529412 .619607
843137255 .588235294117647 81 1 234 630 105 232 0 0 236 231 244 83 3 243 .647058
823529412 .619607843137255 .588235294117647 81 1 231 631 105 96 0 0 234 95 245 8
3 3 244 .647058823529412 .619607843137255 .588235294117647 81 1 95 632 105 84 0
 0 231 229 246 83 3 245 .647058823529412 .619607843137255 .588235294117647 81 1
 229 633 105 32 0 0 95 88 247 83 3 246 .647058823529412 .619607843137255 .588235
294117647 81 1 88 634 105 81 0 0 229 223 248 83 3 247 .647058823529412 .61960784
3137255 .588235294117647 81 1 223 635 105 89 0 0 88 221 249 83 3 248 .6470588235
29412 .619607843137255 .588235294117647 83 3 249 .647058823529412 .6196078431372
55 .588235294117647 83 3 242 .647058823529412 .619607843137255 .588235294117647
 17 225 0 187 225 225 0 250 89 0 0 +15 187 505 0 225 183 36 17 250 0 214 250 250
 0 225 89 0 0 -15 214 521 0 250 207 0 83 3 224 .647058823529412 .619607843137255
 .588235294117647 81 1 185 593 105 183 0 0 182 216 251 81 1 192 595 105 174 0 0
 216 178 252 83 3 218 .647058823529412 .619607843137255 .588235294117647 81 1 17
8 596 105 18 0 0 192 177 253 83 3 252 .647058823529412 .619607843137255 .5882352
94117647 83 3 253 .647058823529412 .619607843137255 .588235294117647 83 3 251 .6
47058823529412 .619607843137255 .588235294117647 83 3 199 .647058823529412 .6196
07843137255 .588235294117647 79 255 15 198 SDL/TYSA_COLOUR83 3 186 .647058823529
412 .619607843137255 .588235294117647 83 3 180 .647058823529412 .619607843137255
 .588235294117647 81 1 150 613 105 149 0 0 152 147 254 83 3 154 .647058823529412
 .619607843137255 .588235294117647 81 1 147 614 105 134 0 0 150 133 255 83 3 254
 .647058823529412 .619607843137255 .588235294117647 81 1 133 615 105 131 0 0 147
 130 256 83 3 255 .647058823529412 .619607843137255 .588235294117647 81 1 130 61
6 105 128 0 0 133 127 257 83 3 256 .647058823529412 .619607843137255 .5882352941
17647 81 1 127 617 105 124 0 0 130 122 258 83 3 257 .647058823529412 .6196078431
37255 .588235294117647 81 1 122 618 105 120 0 0 127 145 259 83 3 258 .6470588235
29412 .619607843137255 .588235294117647 81 1 145 619 105 125 0 0 122 143 260 83
 3 259 .647058823529412 .619607843137255 .588235294117647 81 1 143 620 105 141 0
 0 145 140 261 83 3 260 .647058823529412 .619607843137255 .588235294117647 81 1
 140 621 105 138 0 0 143 136 262 83 3 261 .647058823529412 .619607843137255 .588
235294117647 81 1 136 622 105 119 0 0 140 118 263 83 3 262 .647058823529412 .619
607843137255 .588235294117647 81 1 118 623 105 40 0 0 136 116 264 83 3 263 .6470
58823529412 .619607843137255 .588235294117647 81 1 116 624 105 109 0 0 118 106 2
65 83 3 264 .647058823529412 .619607843137255 .588235294117647 81 1 106 625 105
 103 0 0 116 102 266 83 3 265 .647058823529412 .619607843137255 .588235294117647
 83 3 266 .647058823529412 .619607843137255 .588235294117647 83 3 108 .647058823
529412 .619607843137255 .588235294117647 19 17 100 0 1 0 9 5 S0 74 4 CI16 index_
map_offset0 0 1 dCCZ20 15 6 0 0 221 267 268 269 13 2 0 0 0 0 0 0 0 0 0 0 0 0 0 0
 81 1 267 604 270 1 0 268 0 0 271 81 1 268 607 272 1 267 269 0 0 273 81 1 269 60
8 274 1 268 13 0 0 275 81 1 13 609 276 1 269 2 0 0 277 80 1 276 272 278 9000 0 0
 0 0 3 5 0 0 0 FFTFFFFFFFFFFF3 84 255 16 277 _06_bar_bottom_879 13 278 AdamsPart
Name80 1 274 276 279 9000 0 0 0 0 3 5 0 0 0 FFTFFFFFFFFFFF3 84 6 275 PSMAR279 12
 279 AdamsRFMName80 1 272 280 281 9000 0 0 0 0 3 5 0 0 0 FFTFFFFFFFFFFF1 82 255
 1 273 39 79 12 281 UG2/ADAMS_ID80 1 270 282 283 8017 0 0 0 0 0 0 0 0 0 TTTTTTTT
TTTTTF3 84 7 271 10_hook79 13 283 SDL/TYSA_NAME80 1 12 274 284 9000 0 0 0 0 3 5
 0 0 0 FFTFFFFFFFFFFF3 84 7 14 SOLID4479 15 284 AdamsObjectName1 0 
