**ABCDEFGHIJKLMNOPQRSTUVWXYZabcdefghijklmnopqrstuvwxyz**************************
**PARASOLID !"#$%&'()*+,-./:;<=>?@[\]^_`{|}~0123456789**************************
**PART1;
MC=unknown;
MC_MODEL=unknown;
MC_ID=unknown;
OS=unknown;
OS_RELEASE=unknown;
FRU=sdl_parasolid_customer_support;
APPL=parasolid_acceptance_tests;
SITE=unknown;
USER=unknown;
FORMAT=text;
GUISE=transmit;
KEY=Controls_Plant_9_Tensegrity__06_bar_bottom_12_SOLID61;
FILE=Controls_Plant_9_Tensegrity__06_bar_bottom_12_SOLID61.xmt_txt;
DATE=unknown;
**PART2;
SCH=SCH_3101206_31100;
USFLD_SIZE=1;
**PART3;
**END_OF_HEADER*****************************************************************
T51 : TRANSMIT FILE created by modeller version 310120623 SCH_3101206_31100_1300
6222 0 12 34 CCCCCCI4 mesh1006 0 I8 polyline1008 0 CCCCCCCDI5 owner1040 0 CCCCCC
I13 boundary_mesh1006 0 I17 boundary_polyline1008 0 CCCA16 index_map_offset0 0 1
 dA9 index_map82 0 A17 node_id_index_map82 0 A20 schema_embedding_map82 0 A5 chi
ld12 0 A14 lowest_node_id0 0 1 dA16 mesh_offset_data206 0 Z1 1009 2 3 0 0 0 0 0
 0 1e3 1e-8 0 4 0 1 0 1 1 5 6 7 8 0 0 9 10 11 0 0 0 0 0 0 0 81 255 1 2 976 12 1
 13 0 0 0 14 70 11 CI9 list_type0 0 1 uI10 notransmit0 0 1 lCCCDCCDI12 finger_in
dex0 0 1 dI12 finger_block1012 0 CZ3 0 4 T1 0 0 7 20 1 15 15 13 255 5 99 0 1 0 1
6 0 0 17 0 50 255 6 94 0 18 19 0 0 +.00599999999999738 .021834975637611 -.003469
67728683569 -243196831061468e-30 -.975090602921086 -.221806934280677 -1 19827583
226931e-29 2288688766189825e-31 38 12 CCCCCCCCCCCA17 intersection_data204 0 Z7 6
37 0 20 21 0 0 +22 23 24 25 25 26 29 255 8 137 0 11 27 0 -.00500000000000263 .01
110897900547904 -.00590955356392313 19 8 CCCCCCCA5 owner12 0 Z9 33 0 1 17 0 28 V
0 16 255 10 82 29 ?30 0 31 32 0 0 1 18 255 11 135 0 33 0 34 8 ?1 17 255 33 0 35
 36 37 11 38 39 0 40 -18 34 30 0 41 11 42 27 ?1 17 41 0 43 44 45 34 46 47 0 48 +
18 42 27 0 45 34 49 50 ?1 29 27 32 0 34 50 8 -.00600000000000263 .02183497563761
1 -.003469677286835685 29 50 29 0 42 51 27 -.00600000000000263 .0101338884025579
6 -.00613136049820381 29 51 26 0 49 52 50 .00599999999999738 .01013388840255796
 -.00613136049820382 18 49 24 0 53 42 54 51 ?1 29 52 23 0 54 55 51 .005999999999
99738 .021834975637611 -.00346967728683569 18 54 21 0 56 49 57 52 ?1 29 55 232 0
 58 59 52 -.00500000000000263 .00889090966267227 .00384135246528772 18 58 183 0
 38 60 61 55 ?1 29 59 233 0 61 62 55 .00499999999999738 .00889090966267227 .0038
4135246528772 18 61 181 0 63 58 64 59 ?1 29 62 234 0 64 65 59 .00499999999999738
 .01864181569188315 .00605942180809449 18 64 188 0 66 61 67 62 ?1 29 65 235 0 57
 68 62 -.00500000000000263 .0208598850346899 -.003691484221116365 18 57 187 0 36
 54 69 65 ?1 29 68 237 0 69 70 65 .00499999999999738 .01110897900547904 -.005909
55356392314 18 69 185 0 71 57 60 68 ?1 29 70 238 0 60 72 68 .00499999999999738 .
0208598850346899 -.00369148422111637 18 60 182 0 73 69 58 70 ?1 29 72 377 0 67 7
4 70 -.00500000000000263 .01864181569188315 .00605942180809449 18 67 318 0 75 64
 76 72 ?1 29 74 381 0 76 77 72 .00599999999999738 .0189514854919622 .00920650055
113843 18 76 327 0 78 67 79 74 ?1 29 77 584 0 79 80 74 .00599999999999738 .00791
581905975119 .003619545531007045 18 79 553 0 81 76 82 77 ?1 29 80 585 0 82 83 77
 -.00600000000000263 .00791581905975119 .00361954553100705 18 82 554 0 84 79 85
 80 ?1 29 83 587 0 85 86 80 -.00600000000000263 .0189514854919622 .0092065005511
3843 18 85 555 0 87 82 88 83 ?1 29 86 588 0 88 0 83 -262288383944921e-29 .011175
25956276094 .01087392680078736 18 88 552 0 89 85 0 86 ?1 17 89 0 90 89 89 88 0 0
 0 0 ?15 255 90 567 0 89 91 0 14 255 91 563 92 ?93 94 95 5 22 -0 0 93 94 28 81 1
 92 965 96 91 0 0 97 98 99 14 93 757 98 ?100 91 101 5 102 -0 0 100 91 28 14 94 5
56 97 ?91 103 104 5 105 +0 0 91 103 28 15 95 635 0 106 91 107 68 255 22 576 0 91
 105 108 109 +110 -262359989902149e-29 .0134336522758567 .00641302304107273 -143
2119144564872e-31 .451678542619148 -.892180751942925 -262288383944921e-29 .01117
525956276094 .01087392680078736 ?0 ?1374751982952074e-31 .892180751942924 .45167
8542619148 0 13 28 34 0 0 0 0 0 0 9 16 14 16 453 111 ?112 0 113 5 19 -0 0 112 0
 28 81 1 111 954 96 16 0 0 0 114 115 14 112 447 114 ?116 16 117 5 118 -0 0 116 1
6 28 15 113 451 0 119 16 0 50 19 93 0 16 118 6 0 +.00599999999999738 .0101338884
0255796 -.00613136049820382 -1 573164522616775e-31 196804401949721e-30 986365413
967338e-31 .975090602921086 .221806934280677 50 118 92 0 112 120 19 0 +.00599999
999999738 .01013388840255796 -.00613136049820382 170916686229101e-30 .9750906029
21086 .221806934280677 1 -1277961422654936e-31 -212836639284352e-30 50 120 91 0
 116 121 118 0 +-.00600000000000263 .01013388840255796 -.00613136049820381 1 -57
3164522616775e-31 -196804401949721e-30 -986365413967338e-31 -.975090602921086 -.
221806934280677 14 116 438 122 ?123 112 124 5 120 -0 0 123 112 28 50 121 3 0 123
 125 120 0 +-262558110289719e-29 .0159844320200845 -.00480051889251975 -17227859
7886938e-30 .2218069342806775 -.975090602921086 -1 573164522616775e-31 196804401
949721e-30 14 123 150 126 ?18 116 43 5 121 +0 0 18 116 28 50 125 213 0 127 128 1
21 0 +-.00500000000000263 .0208598850346899 -.003691484221116365 -98636541396733
8e-31 -.975090602921086 -.221806934280677 -1 573164522616775e-31 196804401949721
e-30 14 127 189 129 ?130 18 131 5 125 +0 0 130 18 28 50 128 214 0 130 132 125 0
 +.00499999999999738 .01110897900547904 -.00590955356392314 -1 573164522616775e-
31 196804401949721e-30 986365413967338e-31 .975090602921086 .221806934280677 14
 130 193 133 ?134 127 135 5 128 +0 0 134 127 28 50 132 215 0 134 136 128 0 +-.00
500000000000263 .01110897900547904 -.00590955356392313 986365413967338e-31 .9750
90602921086 .221806934280677 1 -573164522616775e-31 -196804401949721e-30 14 134
 197 137 ?138 130 139 5 132 +0 0 138 130 28 50 136 216 0 138 108 132 0 +-.005000
00000000263 .01110897900547904 -.00590955356392313 1 -573164522616775e-31 -19680
4401949721e-30 -986365413967338e-31 -.975090602921086 -.221806934280677 14 138 2
01 140 ?103 134 35 5 136 +0 0 103 134 28 50 108 360 0 103 22 136 0 +-.0060000000
0000263 .00791581905975119 .003619545531007045 -172278597886938e-30 .22180693428
06775 -.975090602921086 -1 573164522616775e-31 196804401949721e-30 14 103 337 14
1 ?94 138 142 5 108 +0 0 94 138 28 81 1 141 963 96 103 0 0 140 97 143 15 142 340
 0 144 103 0 17 144 0 142 145 146 67 37 147 0 0 +17 145 0 142 148 144 64 149 150
 0 0 +17 146 0 142 144 148 58 151 152 0 0 +17 37 0 35 33 75 58 144 147 0 146 -16
 147 165 153 ?144 154 152 155 0 0 1 81 1 153 993 96 147 0 0 156 157 158 16 154 1
69 156 ?73 159 147 160 0 0 1 16 152 161 157 ?146 147 161 162 0 0 1 30 255 155 22
3 0 147 162 163 0 +-.00500000000000263 .00889090966267227 .00384135246528772 986
365413967338e-31 .975090602921086 .221806934280677 30 162 224 0 152 164 155 0 +-
.00500000000000263 .00889090966267227 .00384135246528772 -1 573164522616775e-31
 196804401949721e-30 30 163 222 0 165 155 166 0 +-.00500000000000263 .0208598850
346899 -.003691484221116365 172278597886938e-30 -.2218069342806775 .975090602921
086 16 165 156 167 ?75 39 168 163 0 0 1 30 166 221 0 39 163 169 0 +-.00500000000
000263 .01110897900547904 -.00590955356392313 172278597886938e-30 -.221806934280
6775 .975090602921086 16 39 168 170 ?38 171 165 166 0 0 1 30 169 220 0 171 166 1
72 0 +.00499999999999738 .01110897900547904 -.00590955356392314 172278597886938e
-30 -.2218069342806775 .975090602921086 16 171 164 173 ?63 174 39 169 0 0 1 30 1
72 219 0 174 169 175 0 +.00499999999999738 .0208598850346899 -.00369148422111637
 172278597886938e-30 -.2218069342806775 .975090602921086 16 174 160 176 ?177 178
 171 172 0 0 1 30 175 7 0 178 172 179 0 +.00599999999999738 .021834975637611 -.0
0346967728683569 1 -19827583226931e-29 -2288688766189825e-31 16 178 5 180 ?44 18
1 174 175 0 0 1 30 179 11 0 181 175 182 0 +.00599999999999738 .01013388840255796
 -.00613136049820382 -986365413967338e-31 -.975090602921086 -.221806934280677 16
 181 9 183 ?53 184 178 179 0 0 1 30 182 15 0 184 179 185 0 +.00599999999999738 .
01013388840255796 -.00613136049820382 -1 1277961422654936e-31 212836639284352e-3
0 16 184 13 186 ?45 47 181 182 0 0 1 30 185 19 0 47 182 187 0 +-.006000000000002
63 .01013388840255796 -.00613136049820381 986365413967338e-31 .975090602921086 .
221806934280677 16 47 17 188 ?41 189 184 185 0 0 1 30 187 95 0 189 185 190 0 +-.
00600000000000263 .021834975637611 -.003469677286835685 172278597886938e-30 -.22
18069342806775 .975090602921086 16 189 79 191 ?192 193 47 187 0 0 1 30 190 96 0
 193 187 194 0 +-.00600000000000263 .01013388840255796 -.00613136049820381 17227
8597886938e-30 -.2218069342806775 .975090602921086 16 193 80 195 ?196 31 189 190
 0 0 1 30 194 97 0 31 190 32 0 +.00599999999999738 .01013388840255796 -.00613136
049820382 172278597886938e-30 -.2218069342806775 .975090602921086 16 31 81 197 ?
198 10 193 194 0 0 1 30 32 98 0 10 194 199 0 +.00599999999999738 .02183497563761
1 -.00346967728683569 172278597886938e-30 -.2218069342806775 .975090602921086 38
 199 616 0 200 32 201 0 +22 102 202 203 203 204 16 200 750 205 ?206 207 208 199
 0 0 1 38 201 623 0 207 199 21 0 +22 209 210 211 211 212 51 255 102 781 0 93 23
 105 213 +.00499999999999738 .00192887361885492 .00619281916812143 -143211914456
4872e-31 .451678542619148 -.892180751942925 .0015 -1374751982952074e-31 -.892180
751942924 -.451678542619148 40 255 20 202 0 1 20 .0001210783316122568 .394746200
992838 ??.00499999999999738 .00189880837040811 .002931259839907915 .004431713387
95836 .001920189713249575 .00313658638610751 .004023369826152165 .00205596088073
669 .003421180418443455 .0036918230229182 .002311527167610295 .00381205611338272
 .00351503867322463 .002668410083716555 .00426296776904093 .003540592125759635 .
00307186198266012 .0047024751673047 .003759573878922705 .003448685124955605 .005
05808511139458 .00411500084645937 .003743812407088905 .00528919429268912 .004543
60901932005 .00393627177820412 .00539118982475457 .0050015620160807 .00402482454
0194645 .00537372362245011 .00545868919779978 .004010147179078055 .0052436373024
9407 .00588342271439522 .00388979804125914 .00500338221353897 .00623299526657108
 .00366304279061972 .00465864336665569 .00645279636966976 .003340837126966575 .0
0423039092737575 .00648934960508462 .00295678969560081 .003767381151945615 .0063
2014287407695 .002570631050574925 .003348408241386005 .00598578788148999 .002250
569105326225 .003054314006950375 .00557211404455753 .002034058172009845 .0029151
49642039115 .00513683016270072 .00191683373471989 .002909500969248365 .004999999
99999738 .00189880837040809 .002931259839907905 41 3 CI8 term_use0 0 1 cCZ1 203
 H?.00499999999999738 .00189880837040809 .002931259839907905 204 2 17 INTERSECTI
ON_DATA17 Intersection data7 uv_type0 0 1 u6 values0 1 1 fT80 204 4 .70825919179
4688 2.742732723534485 0 .00289632062635006 .683720314160835 2.78097921444196 .3
88561716994278 .002722789727741735 .656123198936286 2.805106681191895 .709015413
807986 .002530205333034065 .622051557002263 2.82044444565117 1.059514403069732 .
002296907369604595 .585910425886588 2.82070923560036 1.429074205702946 .00205580
9025032175 .553476399196495 2.801846754432685 1.80396733304241 .0018459195496964
8 .530090157154808 2.76549316932871 2.16792986617833 .00169885413011718 .5182651
65993516 2.719076157510695 2.51053451172877 .00162596562765003 .517600129064648
 2.671150218859495 2.832430464744 .001621896945415775 .526639199876373 2.6278610
78856155 3.142633997833545 .001677477337402135 .544164123275438 2.59320538733565
 3.45236365742504 .001786908399079365 .569207539437452 2.570233138694305 3.77134
97604976 .001946900241825925 .600465519882938 2.561399316620065 4.10650121163801
5 .002152049124322125 .635535718389772 2.568108192560935 4.46085156094372 .00238
859432303781 .670220962851334 2.589812428031615 4.83162556462176 .00262821674854
2075 .698573995034901 2.623059272225365 5.20712253332248 .00282759674092379 .715
154132123115 2.661477350254775 5.56609823601232 .002945416843166865 .71884916253
9251 2.69879250257116 5.89186487497509 .0029717832680756 .712131249955612 2.7327
87165423285 6.1918382139073 .002923875142219055 .708259191794688 2.7427327235344
85 6.28318530717958 .002896320626350065 51 23 784 0 214 215 102 216 +-.005000000
00000263 .00192887361885492 .00619281916812144 -1432119144564872e-31 .4516785426
19148 -.892180751942925 .0015 -1374751982952074e-31 -.892180751942924 -.45167854
2619148 50 105 577 0 94 102 22 0 +-262364991297121e-29 .0131090738513799 .006248
70083459828 -1432119144564872e-31 .451678542619148 -.892180751942925 -1374751982
952074e-31 -.892180751942924 -.451678542619148 141 255 213 199 213 213 102 14 21
4 685 217 ?0 218 219 5 23 -0 0 0 218 28 51 215 787 0 218 209 23 220 +-.010000000
00000262 .01798812715382755 .0143230329352661 -1432119144564872e-31 .45167854261
9148 -.892180751942925 .0015 -1374751982952074e-31 -.892180751942924 -.451678542
619148 141 216 7 216 216 23 14 218 709 221 ?214 100 222 5 215 -0 0 214 100 28 51
 209 790 0 100 0 215 223 +.00999999999999738 .01798812715382755 .014323032935266
1 -1432119144564872e-31 .451678542619148 -.892180751942925 .0015 -13747519829520
74e-31 -.892180751942924 -.451678542619148 141 220 21 220 220 215 38 21 630 0 22
4 201 7 0 +22 215 225 226 226 227 16 224 702 228 ?229 20 207 21 0 0 1 40 20 225
 0 1 20 .000119864690545316 .380142744490503 ??-.01000000000000262 .017694945298
30775 .01158119626420124 -.0105321167826843 .0178916841702382 .011408570073746 -
.0109812824872962 .0182554650257238 .01128323555893146 -.01132709909253442 .0187
8309098362405 .0112048872928845 -.01149366485430012 .0194182141224672 .011193349
97596198 -.01146081867137764 .01992706122651875 .01124721934619572 -.01130657189
233426 .0203194116678904 .01134939129445056 -.01104010100321722 .020625343722048
85 .0115067700410642 -.01071985257197352 .0207982700020642 .01168582115719904 -.
0103353675170929 .0208606403322827 .01188596337974844 -.00987401332931991 .02078
890701088665 .0120999870547395 -.00936805629928601 .0205398250688231 .0122946194
7838206 -.00890605861219627 .020101304048565 .0124211593638991 -.008596076246863
27 .0195302206866185 .01244642516059194 -.00850036126812168 .0189375535649778 .0
1237479079376132 -.00860462546116152 .0184260501656194 .01223947777541476 -.0088
5272667735461 .01804318269114935 .01207489846871068 -.0091965689805997 .01779463
27294284 .01190083232525276 -.00960806174313359 .01767984608036575 .011726391547
53488 -.01000000000000262 .01769494529830775 .01158119626420124 41 1 226 H?-.010
00000000000262 .01769494529830775 .01158119626420124 204 80 227 4 .6245442638117
34 5.26276279081891 0 .002313789949671755 .659940776151119 5.24681666510487 .362
6408036386625 .00255666644102724 .699308660287466 5.24695794205465 .713108948221
088 .002832799489337355 .742449898619514 5.26189765328454 1.08592027575626 .0031
4101762796496 .783514676263321 5.29045043953997 1.478857143469604 .0034381824937
8869 .808482160026145 5.32042929651565 1.7998613889223 .003619956596920835 .8202
81479369722 5.34980956702325 2.084260938908305 .00370601702685408 .8199762037440
29 5.38074288381337 2.37539472110091 .003703789682723265 .808783122073746 5.4081
7068139936 2.64104997341022 .00362215081343175 .788132852205286 5.43421295798677
 2.916108439779695 .00347175911467787 .757337060025069 5.45870573524814 3.225682
834846865 .00324841090932536 .717514977111736 5.47756217889745 3.57646628760653
 .00296225863866344 .673523662341662 5.48392452539921 3.958882552481725 .0026512
9165311405 .632929360994268 5.47203718414308 4.35253760158105 .00237080389498415
 .602713604421622 5.44213775356283 4.73433687691612 .002167019676487075 .5860472
76664392 5.4012886969738 5.08809255230311 .00205670823697626 .582068505166941 5.
35807966656501 5.4123785886766 .002030609703700825 .588621548685664 5.3181286334
9341 5.71794272831241 .00207364348198077 .604274381276597 5.28458731538688 6.018
82466911936 .00217742951985385 .624544263811734 5.26276279081891 6.2831853071795
9 .002313789949671755 81 1 228 1003 96 224 0 0 230 231 232 17 229 0 107 229 229
 0 233 224 0 0 +16 20 678 230 ?106 234 224 7 0 0 1 16 207 726 231 ?235 224 200 2
01 0 0 1 81 1 231 1004 96 207 0 0 228 205 236 17 235 0 237 235 235 0 238 207 0 0
 +15 237 621 0 235 91 239 17 238 0 240 238 238 0 235 207 0 0 -15 240 737 0 238 1
00 0 14 100 733 241 ?218 93 242 5 209 -0 0 218 93 28 81 1 241 967 96 100 0 0 98
 221 243 15 242 736 0 244 100 240 17 244 0 242 244 244 0 245 246 0 0 +17 245 0 2
47 245 245 0 244 246 0 0 -16 246 730 248 ?244 208 249 250 0 0 1 81 1 248 1007 96
 246 0 0 251 252 253 16 208 754 251 ?254 200 246 255 0 0 1 16 249 706 252 ?256 2
46 257 258 0 0 1 31 255 250 799 0 246 0 258 0 +.00999999999999738 .0202465198669
233 .00986212917555147 -1432119144564872e-31 .451678542619148 -.892180751942925
 -1374751982952074e-31 -.892180751942924 -.451678542619148 .0015 31 258 797 0 24
9 250 259 0 +-.01000000000000262 .0202465198669233 .00986212917555147 -143211914
4564872e-31 .451678542619148 -.892180751942925 -1374751982952074e-31 -.892180751
942924 -.451678542619148 .0015 31 259 795 0 257 258 255 0 +-.00500000000000263 .
004187266331950655 .001731915408406815 -1432119144564872e-31 .451678542619148 -.
892180751942925 -1374751982952074e-31 -.892180751942924 -.451678542619148 .0015
 16 257 682 260 ?261 249 0 259 0 0 1 31 255 793 0 208 259 110 0 +.00499999999999
738 .004187266331950655 .00173191540840681 -1432119144564872e-31 .45167854261914
8 -.892180751942925 -1374751982952074e-31 -.892180751942924 -.451678542619148 .0
015 134 255 110 583 0 1 255 262 263 +264 265 31 262 582 0 234 110 266 0 +-262359
989902149e-29 .0134336522758567 .00641302304107273 -1432119144564872e-31 .451678
542619148 -.892180751942925 -1374751982952074e-31 -.892180751942924 -.4516785426
19148 .015 141 263 22 263 263 110 136 255 264 3 4 3 2 5 FFF1 267 268 269 135 255
 265 2 0 45 255 12 267 -262288383944921e-29 .01117525956276094 .0108739268007873
6 -262196782587062e-29 .01670597382448205 .01400990863324548 -2621263876425885e-
30 .02538182686176185 .01506874480972075 -2621537771047065e-30 .0268163635550005
5 .01318820118035994 127 255 2 268 4 4 128 255 2 269 0 1 16 234 546 270 ?271 272
 20 262 0 0 1 30 266 525 0 273 262 274 0 +.00599999999999738 .0131090738513799 .
00624870083459828 1374751982952074e-31 .892180751942924 .451678542619148 16 273
 471 275 ?78 276 272 266 0 0 1 30 274 522 0 272 266 277 0 +-.00600000000000263 .
0131090738513799 .00624870083459829 1374751982952074e-31 .892180751942924 .45167
8542619148 16 272 457 278 ?279 273 234 274 0 0 1 30 277 517 0 276 274 280 0 +.00
599999999999738 .00791581905975119 .003619545531007045 -1 573164522616775e-31 19
6804401949721e-30 16 276 460 281 ?282 283 273 277 0 0 1 30 280 369 0 283 277 160
 0 +.00599999999999738 .0189514854919622 .00920650055113843 1 -19827583226931e-2
9 -2288688766189825e-31 16 283 307 284 ?285 150 276 280 0 0 1 30 160 230 0 154 2
80 286 0 +-.00500000000000263 .0208598850346899 -.003691484221116365 1 -57316452
2616775e-31 -196804401949721e-30 30 286 229 0 159 160 287 0 +.00499999999999738
 .01110897900547904 -.00590955356392314 -986365413967338e-31 -.975090602921086 -
.221806934280677 16 159 172 288 ?71 289 154 286 0 0 1 30 287 228 0 289 286 290 0
 +-.00500000000000263 .01110897900547904 -.00590955356392313 -1 573164522616775e
-31 196804401949721e-30 16 289 175 291 ?40 168 159 287 0 0 1 30 290 227 0 168 28
7 292 0 +-.00500000000000263 .01110897900547904 -.00590955356392313 986365413967
338e-31 .975090602921086 .221806934280677 16 168 178 293 ?36 165 289 290 0 0 1 3
0 292 226 0 150 290 164 0 +-.00500000000000263 .01864181569188315 .0060594218080
9449 1 -573164522616775e-31 -196804401949721e-30 16 150 153 294 ?145 161 283 292
 0 0 1 30 164 225 0 161 292 162 0 +.00499999999999738 .00889090966267227 .003841
35246528772 -986365413967338e-31 -.975090602921086 -.221806934280677 16 161 157
 295 ?148 152 150 164 0 0 1 81 1 295 995 96 161 0 0 157 294 296 17 148 0 142 146
 145 61 66 161 0 0 +17 66 0 135 297 63 64 148 161 0 177 -15 135 196 0 66 130 0 1
7 297 0 135 71 66 60 177 174 0 298 -17 63 0 135 66 71 61 299 171 0 151 +17 177 0
 131 149 73 64 297 174 0 145 +15 131 192 0 149 127 0 17 149 0 131 300 177 67 145
 150 0 144 -17 73 0 131 177 300 60 301 154 0 297 +17 300 0 131 73 149 57 75 165
 0 301 -17 301 0 302 303 298 57 73 154 0 0 -15 302 133 0 298 123 0 17 303 0 302
 304 301 11 36 168 0 0 -17 298 0 302 301 304 60 71 159 0 0 -17 304 0 302 298 303
 69 40 289 0 0 -17 71 0 135 63 297 69 298 159 0 299 +17 299 0 139 40 151 69 63 1
71 0 304 -15 139 200 0 151 134 0 17 40 0 139 38 299 11 304 289 0 303 +17 151 0 1
39 299 38 61 146 152 0 148 -17 38 0 139 151 40 58 33 39 0 37 +17 36 0 35 75 33 5
7 303 168 0 300 +15 35 204 0 37 138 0 17 75 0 35 37 36 67 300 165 0 149 +80 255
 1 96 0 305 8001 0 0 0 0 3 5 0 0 0 FFFFTFTFFFFFFF2 81 1 157 994 96 152 0 0 153 2
95 306 81 1 294 996 96 150 0 0 295 284 307 83 255 3 296 .988235294117647 .984313
725490196 1 81 1 284 997 96 283 0 0 294 281 308 83 3 307 .988235294117647 .98431
3725490196 1 81 1 281 998 96 276 0 0 284 275 309 83 3 308 .988235294117647 .9843
13725490196 1 81 1 275 999 96 273 0 0 281 278 310 83 3 309 .988235294117647 .984
313725490196 1 81 1 278 1000 96 272 0 0 275 270 311 83 3 310 .988235294117647 .9
84313725490196 1 81 1 270 1001 96 234 0 0 278 230 312 83 3 311 .988235294117647
 .984313725490196 1 81 1 230 1002 96 20 0 0 270 228 313 83 3 312 .98823529411764
7 .984313725490196 1 83 3 313 .988235294117647 .984313725490196 1 83 3 306 .9882
35294117647 .984313725490196 1 79 255 15 305 SDL/TYSA_COLOUR81 1 293 989 96 168
 0 0 167 291 314 81 1 167 988 96 165 0 0 170 293 315 81 1 291 990 96 289 0 0 293
 288 316 83 3 314 .988235294117647 .984313725490196 1 81 1 288 991 96 159 0 0 29
1 156 317 83 3 316 .988235294117647 .984313725490196 1 81 1 156 992 96 154 0 0 2
88 153 318 83 3 317 .988235294117647 .984313725490196 1 83 3 318 .98823529411764
7 .984313725490196 1 81 1 170 987 96 39 0 0 173 167 319 83 3 315 .98823529411764
7 .984313725490196 1 81 1 173 986 96 171 0 0 176 170 320 83 3 319 .9882352941176
47 .984313725490196 1 81 1 176 985 96 174 0 0 180 173 321 83 3 320 .988235294117
647 .984313725490196 1 81 1 180 984 96 178 0 0 183 176 322 83 3 321 .98823529411
7647 .984313725490196 1 81 1 183 983 96 181 0 0 186 180 323 83 3 322 .9882352941
17647 .984313725490196 1 81 1 186 982 96 184 0 0 188 183 324 83 3 323 .988235294
117647 .984313725490196 1 81 1 188 981 96 47 0 0 191 186 325 83 3 324 .988235294
117647 .984313725490196 1 81 1 191 980 96 189 0 0 195 188 326 83 3 325 .98823529
4117647 .984313725490196 1 81 1 195 979 96 193 0 0 197 191 327 83 3 326 .9882352
94117647 .984313725490196 1 81 1 197 978 96 31 0 0 29 195 328 83 3 327 .98823529
4117647 .984313725490196 1 81 1 29 977 96 10 0 0 217 197 329 83 3 328 .988235294
117647 .984313725490196 1 81 1 217 969 96 214 0 0 221 29 330 83 3 329 .988235294
117647 .984313725490196 1 81 1 221 968 96 218 0 0 241 217 331 83 3 330 .98823529
4117647 .984313725490196 1 83 3 331 .988235294117647 .984313725490196 1 17 285 0
 332 333 192 76 87 283 0 0 +15 332 89 0 192 18 0 17 333 0 332 334 285 54 30 10 0
 0 -17 192 0 332 285 334 85 48 189 0 0 +17 87 0 335 84 78 85 285 283 0 279 -15 3
35 562 0 78 94 0 17 84 0 335 81 87 82 279 272 0 282 -17 78 0 335 87 81 76 119 27
3 0 30 +17 279 0 124 48 196 85 84 272 0 192 +15 124 436 0 279 116 0 17 48 0 124
 46 279 34 192 189 0 334 -17 196 0 124 279 46 82 336 193 0 0 +17 46 0 124 196 48
 42 41 47 0 0 -17 336 0 117 337 282 42 196 193 0 46 -15 117 445 0 282 112 0 17 3
37 0 117 198 336 49 45 184 0 0 -17 282 0 117 336 198 82 81 276 0 196 +17 198 0 1
17 282 337 79 338 31 0 0 +17 81 0 335 78 84 79 282 276 0 119 -17 119 0 113 338 3
0 79 78 273 0 198 -17 338 0 113 56 119 49 198 31 0 337 -17 30 0 113 119 56 76 33
3 10 0 285 +17 56 0 113 30 338 54 53 181 0 44 -17 53 0 43 45 44 49 56 181 0 338
 +17 44 0 43 53 41 54 334 178 0 333 +15 43 4 0 44 123 302 17 334 0 332 192 333 3
4 44 178 0 0 -17 45 0 43 41 53 42 337 184 0 336 +14 18 90 339 ?127 123 332 5 6 -
0 0 127 123 28 81 1 339 958 96 18 0 0 126 129 340 81 1 126 957 96 123 0 0 122 33
9 341 81 1 129 959 96 127 0 0 339 133 342 83 3 340 .988235294117647 .98431372549
0196 1 81 1 133 960 96 130 0 0 129 137 343 83 3 342 .988235294117647 .9843137254
90196 1 81 1 137 961 96 134 0 0 133 140 344 83 3 343 .988235294117647 .984313725
490196 1 81 1 140 962 96 138 0 0 137 141 345 83 3 344 .988235294117647 .98431372
5490196 1 83 3 345 .988235294117647 .984313725490196 1 81 1 122 956 96 116 0 0 1
14 126 346 83 3 341 .988235294117647 .984313725490196 1 81 1 114 955 96 112 0 0
 111 122 347 83 3 346 .988235294117647 .984313725490196 1 83 3 347 .988235294117
647 .984313725490196 1 17 271 0 348 271 271 0 349 234 0 0 +15 348 561 0 271 94 3
35 17 349 0 350 349 349 0 271 234 0 0 -15 350 566 0 349 91 90 81 1 260 1009 96 2
57 0 0 252 0 351 17 261 0 219 261 261 0 352 257 0 0 +15 219 688 0 261 214 353 17
 352 0 104 352 352 0 261 257 0 0 -15 104 670 0 352 94 354 15 354 661 0 355 94 24
7 17 355 0 354 355 355 0 256 249 0 0 -15 247 652 0 245 94 356 15 356 643 0 357 9
4 348 17 357 0 356 357 357 0 254 208 0 0 -17 254 0 101 254 254 0 357 208 0 0 +15
 101 760 0 254 93 358 15 358 761 0 359 93 0 17 359 0 358 359 359 0 206 200 0 0 -
17 206 0 239 206 206 0 359 200 0 0 +15 239 614 0 206 91 350 17 256 0 222 256 256
 0 355 249 0 0 +15 222 712 0 256 218 360 15 360 713 0 233 218 0 17 233 0 360 233
 233 0 229 224 0 0 -15 353 689 0 361 214 0 17 361 0 353 361 361 0 106 20 0 0 -17
 106 0 95 106 106 0 361 20 0 0 +81 1 252 1008 96 249 0 0 248 260 362 83 3 351 .9
88235294117647 .984313725490196 1 83 3 362 .988235294117647 .984313725490196 1 8
1 1 251 1006 96 208 0 0 205 248 363 81 1 205 1005 96 200 0 0 231 251 364 83 3 36
3 .988235294117647 .984313725490196 1 83 3 364 .988235294117647 .984313725490196
 1 83 3 253 .988235294117647 .984313725490196 1 81 1 98 966 96 93 0 0 92 241 365
 83 3 243 .988235294117647 .984313725490196 1 83 3 365 .988235294117647 .9843137
25490196 1 83 3 236 .988235294117647 .984313725490196 1 15 107 628 0 229 91 237
 83 3 232 .988235294117647 .984313725490196 1 141 223 201 223 223 209 40 20 210
 0 1 20 .0001210566386741244 .3993458604480025 ??.00999999999999738 .01769494529
830775 .01158119626420124 .00951927987462351 .0176921735102573 .0117618337030205
 .00907462211486071 .0178619405446265 .01195860980695432 .00874854703066975 .018
16788882563125 .012137094492621 .00855804623928068 .0185583069731005 .0122818778
690631 .00850036055382255 .0190049562605234 .01238734498765724 .0085815007887303
2 .01948597647489455 .01244416702382714 .00881290491326524 .01997064273846665 .0
124371609527383 .00919905273965798 .0204095453987516 .01234799395673274 .0097188
9704711384 .0207323671832713 .01216456607183046 .01030593200951374 .020860489409
3391 .0119005228644323 .01074816676746152 .02078826506407595 .0116704067119406 .
01113391659752658 .0205420376215936 .01145241611824318 .01136568455442544 .02020
764092600585 .0113124852755078 .01148037693648448 .01982469297950855 .0112307590
4362896 .01148906153653902 .01937086049412185 .01119145245758266 .01135608180094
952 .0188506740984906 .01119985275823264 .0110423414941524 .01832582249931965 .0
1126786659251512 .0105571247065879 .01790639495731255 .01140108836228952 .009999
99999999738 .01769494529830775 .01158119626420124 41 1 211 H?.00999999999999738
 .01769494529830775 .01158119626420124 204 80 212 4 .624544263811734 1.020422516
360676 0 .002313789949671755 .600364452883493 .992372190704551 .3262362593063455
 .00215137674648987 .585406228951863 .95246246076983 .664821413394165 .002052497
02078646 .58219632771646 .909410713086284 .986865451959495 .002031446693399135 .
589376486439089 .869798422936864 1.29169174595264 .002078617251597145 .605597320
826744 .836763328080477 1.592722514195185 .00218626341762963 .630291959100752 .8
12783364644816 1.90195533140083 .002352834400070155 .663012083568677 .8003546191
59696 2.228502191335445 .002577998433429275 .702552823649053 .801669602780451 2.
57830968746768 .00285579442492317 .745815469179188 .817746061031478 2.9530760678
92885 .003165256926360165 .786337255121887 .847206397154381 3.34698847067262 .00
345870125402949 .810049514756335 .877185513242774 3.663780780099625 .00363138426
898369 .821465429775891 .912083298167911 3.99868820559219 .003714655628411865 .8
1787494166856 .942538203342935 4.285978773405105 .00368845942078379 .80415355187
7097 .969380619313743 4.55045896110204 .003588404621422025 .780804078056311 .995
187131641285 4.8332292816876 .003418486805324405 .747310942461884 1.018712702879
52 5.15402283217438 .00317603518570494 .705722125364588 1.034908862535964 5.5149
1236274682 .002878290346487415 .661859133227067 1.036723410238236 5.902651148164
 .002569986026846825 .624544263811734 1.020422516360676 0 .002313789949671755 83
 3 158 .988235294117647 .984313725490196 1 81 1 97 964 96 94 0 0 141 92 366 83 3
 143 .988235294117647 .984313725490196 1 83 3 366 .988235294117647 .984313725490
196 1 83 3 115 .988235294117647 .984313725490196 1 141 109 199 367 368 22 141 36
7 7 369 109 22 141 368 201 109 369 22 141 369 21 368 367 22 83 3 99 .98823529411
7647 .984313725490196 1 19 17 100 0 1 0 9 5 S0 40 20 24 0 1 20 .0001096899594903
11 .367725318652249 ??-.00500000000000263 .00189880837040811 .002931259839907915
 -.0054510586787476 .001991778537668035 .002901323446991395 -.00586519970659526
 .00217374560922057 .002996301622047 -.00618507806368344 .00241486132097726 .003
19699710924772 -.00640385758289874 .002705606811259095 .00348876122970857 -.0064
9875441683324 .00303960183506515 .00386353738391131 -.00643130033962235 .0033922
33157644075 .004295832615559745 -.00617581911951716 .00371321531312356 .00473030
630432779 -.00575279063379812 .003940169947714245 .00509244159148803 -.005235942
4406544 .00403036376678235 .00532144379290063 -.00471670435558027 .0039822223654
8286 .00539810955375655 -.00425971761372506 .00382327078787412 .0053392378336120
3 -.00389506925666397 .003583528795380145 .00517042831222158 -.00363897065691680
5 .00328491148032277 .00491032242436932 -.003510389316669995 .002946652329925985
 .0045726313629209 -.003533953857140925 .002594550899074185 .004175342750196865
 -.003731540069795965 .002267770945008115 .00375084285741001 -.00410401155425351
5 .00201824361161915 .003352895901409575 -.00460837495638189 .001895907538548875
 .003052172556065375 -.00500000000000263 .00189880837040809 .002931259839907905
 41 1 25 H?-.00500000000000263 .00189880837040809 .002931259839907905 204 80 26
 4 .708259191794688 3.540452583645105 0 .002896320626350065 .717902122216031 3.5
7452447300489 .3054326047611135 .002965021929547805 .717545271259008 3.610104233
19997 .614805690304927 .002962474851592055 .707697194964546 3.64302140011188 .91
089388522253 .002892324994198605 .689480159585483 3.67309104012199 1.21081969450
3576 .00276334216113946 .66327588540938 3.699030872279225 1.530040867545795 .002
579832475667355 .630378424985084 3.717011364613515 1.874617690412715 .0023534229
92698225 .59424553340044 3.721294856206995 2.24070332869249 .00211077468254746 .
56040439849791 3.707007822279405 2.61584431157658 .001890195088336355 .534552502
767321 3.6742326368782 2.983641739105115 .001726622344833415 .519980988962316 3.
62935341868817 3.33159761077214 .001636478190686105 .516832938462806 3.581124601
452105 3.65772682234155 .00161720738931148 .523731008901754 3.5363390494973 3.96
9652315342485 .001659529681266455 .539362618201577 3.499372354093385 4.278536199
263275 .001756712114209295 .562742719398811 3.47342716087788 4.59462462829107 .0
01905209179257945 .592711069718573 3.461114599952 4.92556412613571 .002100625771
35518 .627192110736561 3.46415412170729 5.27542230879372 .00233175691149173 .662
449973021668 3.48254569772948 5.6430229861552 .002574091383640825 .6928519627875
98 3.513579640734865 6.01904098676716 .00278713438482268 .708259191794688 3.5404
52583645105 578241158658935e-30 .002896320626350065 74 4 CI16 index_map_offset0
 0 1 dCCZ20 15 7 0 0 370 260 371 372 373 13 2 0 0 0 0 0 0 0 0 0 0 0 0 0 81 2 370
 843 374 1 0 371 0 0 375 0 81 1 371 970 376 1 370 372 0 0 377 81 1 372 973 378 1
 371 373 0 0 379 81 1 373 974 380 1 372 13 0 0 381 81 1 13 975 382 1 373 2 0 0 3
83 80 1 382 378 384 9000 0 0 0 0 3 5 0 0 0 FFTFFFFFFFFFFF3 84 255 17 383 _06_bar
_bottom_1279 13 384 AdamsPartName80 1 380 382 385 9000 0 0 0 0 3 5 0 0 0 FFTFFFF
FFFFFFF3 84 6 381 PSMAR179 12 385 AdamsRFMName80 1 378 386 387 9000 0 0 0 0 3 5
 0 0 0 FFTFFFFFFFFFFF1 82 255 1 379 61 79 12 387 UG2/ADAMS_ID80 1 376 388 389 80
17 0 0 0 0 0 0 0 0 0 TTTTTTTTTTTTTF3 84 13 377 02_foot_stand79 13 389 SDL/TYSA_N
AME80 2 374 390 391 8004 0 0 0 0 3 5 0 0 0 FFTFFFFFFFFFFF2 3 83 1 375 23e2 79 16
 391 SDL/TYSA_DENSITY80 1 12 380 392 9000 0 0 0 0 3 5 0 0 0 FFTFFFFFFFFFFF3 84 7
 14 SOLID6179 15 392 AdamsObjectName1 0 
