**ABCDEFGHIJKLMNOPQRSTUVWXYZabcdefghijklmnopqrstuvwxyz**************************
**PARASOLID !"#$%&'()*+,-./:;<=>?@[\]^_`{|}~0123456789**************************
**PART1;
MC=unknown;
MC_MODEL=unknown;
MC_ID=unknown;
OS=unknown;
OS_RELEASE=unknown;
FRU=sdl_parasolid_customer_support;
APPL=parasolid_acceptance_tests;
SITE=unknown;
USER=unknown;
FORMAT=text;
GUISE=transmit;
KEY=Controls_Plant_9_Tensegrity__06_bar_bottom_8_SOLID39;
FILE=Controls_Plant_9_Tensegrity__06_bar_bottom_8_SOLID39.xmt_txt;
DATE=unknown;
**PART2;
SCH=SCH_3101206_31100;
USFLD_SIZE=1;
**PART3;
**END_OF_HEADER*****************************************************************
T51 : TRANSMIT FILE created by modeller version 310120623 SCH_3101206_31100_1300
6222 0 12 34 CCCCCCI4 mesh1006 0 I8 polyline1008 0 CCCCCCCDI5 owner1040 0 CCCCCC
I13 boundary_mesh1006 0 I17 boundary_polyline1008 0 CCCA16 index_map_offset0 0 1
 dA9 index_map82 0 A17 node_id_index_map82 0 A20 schema_embedding_map82 0 A5 chi
ld12 0 A14 lowest_node_id0 0 1 dA16 mesh_offset_data206 0 Z1 1009 2 3 0 0 0 0 0
 0 1e3 1e-8 0 4 0 1 0 1 1 5 6 7 8 0 0 9 10 11 0 0 0 0 0 0 0 81 255 1 2 976 12 1
 13 0 0 0 14 70 11 CI9 list_type0 0 1 uI10 notransmit0 0 1 lCCCDCCDI12 finger_in
dex0 0 1 dI12 finger_block1012 0 CZ3 0 4 T1 0 0 7 20 1 15 15 13 255 5 99 0 1 0 1
6 0 0 17 0 50 255 6 94 0 18 19 0 0 +.141940452167774 .185565724828697 -.17544121
91226535 .167776209783753 .376841358359113 -.910956494054824 -520561642958279e-3
1 -.924054872131514 -.382259850481333 38 12 CCCCCCCCCCCA17 intersection_data204
 0 Z7 637 0 20 21 0 0 +22 23 24 25 25 26 29 255 8 137 0 11 27 0 .143785990475395
2 .1795463761772005 -.189666598912551 19 8 CCCCCCCA5 owner12 0 Z9 33 0 1 17 0 28
 V0 16 255 10 82 29 ?30 0 31 32 0 0 1 18 255 11 135 0 33 0 34 8 ?1 17 255 33 0 3
5 36 37 11 38 39 0 40 -18 34 30 0 41 11 42 27 ?1 17 41 0 43 44 45 34 46 47 0 48
 +18 42 27 0 45 34 49 50 ?1 29 27 32 0 34 50 8 .141940452167774 .174477066363119
 -.1800283373284295 29 50 29 0 42 51 27 .143953766685179 .178999162663428 -.1909
59815257087 29 51 26 0 49 52 50 .143953766685179 .1900878211290065 -.18637269705
1311 18 49 24 0 53 42 54 51 ?1 29 52 23 0 54 55 51 .141940452167774 .18556572482
8697 -.1754412191226535 18 54 21 0 56 49 57 52 ?1 29 55 232 0 58 59 52 .15364424
15547225 .178905035088538 -.1881162546717665 18 58 183 0 38 60 61 55 ?1 29 59 23
3 0 61 62 55 .1536442415547225 .188145583809853 -.1842936561669535 18 61 181 0 6
3 58 64 59 ?1 29 62 234 0 64 65 59 .151966479456885 .184377170226262 -.175184091
226405 18 64 188 0 66 61 67 62 ?1 29 65 235 0 57 68 62 .1421082283775578 .175777
9625936095 -.180557033972003 18 57 187 0 36 54 69 65 ?1 29 68 237 0 69 70 65 .14
37859904753952 .188786924898516 -.185844000407738 18 69 185 0 71 57 60 68 ?1 29
 70 238 0 60 72 68 .1421082283775578 .1850185113149245 -.1767344354671895 18 60
 182 0 73 69 58 70 ?1 29 72 377 0 67 74 70 .151966479456885 .175136621504947 -.1
790066897312185 18 67 318 0 75 64 76 72 ?1 29 74 381 0 76 77 72 .154756178570899
5 .1847319814134355 -.1734257716096335 18 76 327 0 78 67 79 74 ?1 29 77 584 0 79
 80 74 .1538120177645065 .189446480040344 -.184822352810527 18 79 553 0 81 76 82
 77 ?1 29 80 585 0 82 83 77 .1538120177645065 .1783578215747655 -.18940947101630
3 18 82 554 0 84 79 85 80 ?1 29 83 587 0 85 86 80 .1547561785708995 .17364332294
78575 -.1780128898154095 18 85 555 0 87 82 88 83 ?1 29 86 588 0 88 0 83 .1592695
10881813 .181690792642446 -.1817702909073805 18 88 552 0 89 85 0 86 ?1 17 89 0 9
0 89 89 88 0 0 0 0 ?15 255 90 567 0 89 91 0 14 255 91 563 92 ?93 94 95 5 22 -0 0
 93 94 28 81 1 92 965 96 91 0 0 97 98 99 14 93 757 98 ?100 91 101 5 102 -0 0 100
 91 28 14 94 556 97 ?91 103 104 5 105 +0 0 91 103 28 15 95 635 0 106 91 107 68 2
55 22 576 0 91 105 108 109 +110 .154284098167703 .1815449014941005 -.18141762131
29685 -.997082542822039 -.02917822966905975 .0705339188824478 .159269510881813 .
181690792642446 -.1817702909073805 ?0 ?.0763308771044596 -.3811446237367 .921358
981611985 0 13 28 34 0 0 0 0 0 0 9 16 14 16 453 111 ?112 0 113 5 19 -0 0 112 0 2
8 81 1 111 954 96 16 0 0 0 114 115 14 112 447 114 ?116 16 117 5 118 -0 0 116 16
 28 15 113 451 0 119 16 0 50 19 93 0 16 118 6 0 +.143953766685179 .1900878211290
065 -.186372697051311 -278023868106374e-31 -.924054872131514 -.382259850481333 -
.167776209783753 -.376841358359113 .910956494054824 50 118 92 0 112 120 19 0 +.1
43953766685179 .1900878211290065 -.186372697051311 -.167776209783753 -.376841358
359113 .910956494054824 3992927555323265e-32 .924054872131514 .382259850481333 5
0 120 91 0 116 121 118 0 +.143953766685179 .178999162663428 -.190959815257087 27
8023868106374e-31 .924054872131514 .382259850481333 .167776209783753 .3768413583
59113 -.910956494054824 14 116 438 122 ?123 112 124 5 120 -0 0 123 112 28 50 121
 3 0 123 125 120 0 +.1429471094264764 .1822824437460625 -.1832005171898705 -.985
82510793274 .0641341088662622 -.155034424078436 -278023868106374e-31 -.924054872
131514 -.382259850481333 14 123 150 126 ?18 116 43 5 121 +0 0 18 116 28 50 125 2
13 0 127 128 121 0 +.1421082283775578 .1757779625936095 -.180557033972003 .16777
6209783753 .376841358359113 -.910956494054824 -278023868106374e-31 -.92405487213
1514 -.382259850481333 14 127 189 129 ?130 18 131 5 125 +0 0 130 18 28 50 128 21
4 0 130 132 125 0 +.1437859904753952 .188786924898516 -.185844000407738 -2780238
68106374e-31 -.924054872131514 -.382259850481333 -.167776209783753 -.37684135835
9113 .910956494054824 14 130 193 133 ?134 127 135 5 128 +0 0 134 127 28 50 132 2
15 0 134 136 128 0 +.1437859904753952 .1795463761772005 -.189666598912551 -.1677
76209783753 -.376841358359113 .910956494054824 278023868106374e-31 .924054872131
514 .382259850481333 14 134 197 137 ?138 130 139 5 132 +0 0 138 130 28 50 136 21
6 0 138 108 132 0 +.1437859904753952 .1795463761772005 -.189666598912551 2780238
68106374e-31 .924054872131514 .382259850481333 .167776209783753 .376841358359113
 -.910956494054824 14 138 201 140 ?103 134 35 5 136 +0 0 103 134 28 50 108 360 0
 103 22 136 0 +.1538120177645065 .1783578215747655 -.189409471016303 -.985825107
93274 .0641341088662622 -.155034424078436 -278023868106374e-31 -.924054872131514
 -.382259850481333 14 103 337 141 ?94 138 142 5 108 +0 0 94 138 28 81 1 141 963
 96 103 0 0 140 97 143 15 142 340 0 144 103 0 17 144 0 142 145 146 67 37 147 0 0
 +17 145 0 142 148 144 64 149 150 0 0 +17 146 0 142 144 148 58 151 152 0 0 +17 3
7 0 35 33 75 58 144 147 0 146 -16 147 165 153 ?144 154 152 155 0 0 1 81 1 153 99
3 96 147 0 0 156 157 158 16 154 169 156 ?73 159 147 160 0 0 1 16 152 161 157 ?14
6 147 161 162 0 0 1 30 255 155 223 0 147 162 163 0 +.1536442415547225 .178905035
088538 -.1881162546717665 -.167776209783753 -.376841358359113 .910956494054824 3
0 162 224 0 152 164 155 0 +.1536442415547225 .178905035088538 -.1881162546717665
 -278023868106374e-31 -.924054872131514 -.382259850481333 30 163 222 0 165 155 1
66 0 +.1421082283775578 .1757779625936095 -.180557033972003 .98582510793274 -.06
41341088662622 .155034424078436 16 165 156 167 ?75 39 168 163 0 0 1 30 166 221 0
 39 163 169 0 +.1437859904753952 .1795463761772005 -.189666598912551 .9858251079
3274 -.0641341088662622 .155034424078436 16 39 168 170 ?38 171 165 166 0 0 1 30
 169 220 0 171 166 172 0 +.1437859904753952 .188786924898516 -.185844000407738 .
98582510793274 -.0641341088662622 .155034424078436 16 171 164 173 ?63 174 39 169
 0 0 1 30 172 219 0 174 169 175 0 +.1421082283775578 .1850185113149245 -.1767344
354671895 .98582510793274 -.0641341088662622 .155034424078436 16 174 160 176 ?17
7 178 171 172 0 0 1 30 175 7 0 178 172 179 0 +.141940452167774 .185565724828697
 -.1754412191226535 520561642958279e-31 .924054872131514 .382259850481333 16 178
 5 180 ?44 181 174 175 0 0 1 30 179 11 0 181 175 182 0 +.143953766685179 .190087
8211290065 -.186372697051311 .167776209783753 .376841358359113 -.910956494054824
 16 181 9 183 ?53 184 178 179 0 0 1 30 182 15 0 184 179 185 0 +.143953766685179
 .1900878211290065 -.186372697051311 -3992927555323265e-32 -.924054872131514 -.3
82259850481333 16 184 13 186 ?45 47 181 182 0 0 1 30 185 19 0 47 182 187 0 +.143
953766685179 .178999162663428 -.190959815257087 -.167776209783753 -.376841358359
113 .910956494054824 16 47 17 188 ?41 189 184 185 0 0 1 30 187 95 0 189 185 190
 0 +.141940452167774 .174477066363119 -.1800283373284295 .98582510793274 -.06413
41088662622 .155034424078436 16 189 79 191 ?192 193 47 187 0 0 1 30 190 96 0 193
 187 194 0 +.143953766685179 .178999162663428 -.190959815257087 .98582510793274
 -.0641341088662622 .155034424078436 16 193 80 195 ?196 31 189 190 0 0 1 30 194
 97 0 31 190 32 0 +.143953766685179 .1900878211290065 -.186372697051311 .9858251
0793274 -.0641341088662622 .155034424078436 16 31 81 197 ?198 10 193 194 0 0 1 3
0 32 98 0 10 194 199 0 +.141940452167774 .185565724828697 -.1754412191226535 .98
582510793274 -.0641341088662622 .155034424078436 38 199 616 0 200 32 201 0 +22 1
02 202 203 203 204 16 200 750 205 ?206 207 208 199 0 0 1 38 201 623 0 207 199 21
 0 +22 209 210 211 211 212 51 255 102 781 0 93 23 105 213 +.1584784326752865 .19
02611749647915 -.189407775035826 -.997082542822039 -.02917822966905975 .07053391
88824478 .0015 -.0763308771044596 .3811446237367 -.921358981611985 40 255 20 202
 0 1 20 .0001210783316122568 .394746200992838 ??.155476065624681 .19074838239196
55 -.1905855246641275 .155657625391157 .1901856990199395 -.190711973467448 .1558
68706027133 .1897188232198995 -.190651607996494 .156132203886831 .18926506656714
25 -.190422054088602 .156412448988993 .1889097583238765 -.1900256222807265 .1566
6435447913 .1887266382134055 -.1895161089678425 .1568489132225125 .1887439218312
51 -.188985028495674 .156949655476741 .188934338041845 -.1885155260350345 .15697
03354546555 .1892475094144945 -.188151321842581 .15692034555976 .189641955908727
5 -.1879068211662695 .156805749227873 .190088559529326 -.1877905627359445 .15662
9744985798 .190558654116243 -.1878158326584745 .1563978668029275 .19101214901850
6 -.187997598077101 .156125304338721 .191391647064994 -.1883399722907625 .155844
263813582 .19162873716918 -.1888174773969425 .155604722800198 .1916700047350615
 -.1893598838936245 .1554553104213375 .191517071372933 -.18986487068195 .1554094
78348911 .191231627063528 -.1902570322754735 .155449068861169 .190871633350271 -
.1905255144010625 .155476065624681 .1907483823919655 -.1905855246641275 41 3 CI8
 term_use0 0 1 cCZ1 203 H?.155476065624681 .1907483823919655 -.1905855246641275
 204 2 17 INTERSECTION_DATA17 Intersection data7 uv_type0 0 1 u6 values0 1 1 fT8
0 204 4 .708259191794688 2.742732723534485 0 .00289632062635006 .683720314160835
 2.78097921444196 .388561716994278 .002722789727741735 .656123198936286 2.805106
681191895 .709015413807986 .002530205333034065 .622051557002263 2.82044444565117
 1.059514403069732 .002296907369604595 .585910425886588 2.82070923560036 1.42907
4205702946 .002055809025032175 .553476399196495 2.801846754432685 1.803967333042
41 .00184591954969648 .530090157154808 2.76549316932871 2.16792986617833 .001698
85413011718 .518265165993516 2.719076157510695 2.51053451172877 .001625965627650
03 .517600129064648 2.671150218859495 2.832430464744 .001621896945415775 .526639
199876373 2.627861078856155 3.142633997833545 .001677477337402135 .5441641232754
38 2.59320538733565 3.45236365742504 .001786908399079365 .569207539437452 2.5702
33138694305 3.7713497604976 .001946900241825925 .600465519882938 2.5613993166200
65 4.106501211638015 .002152049124322125 .635535718389772 2.568108192560935 4.46
085156094372 .00238859432303781 .670220962851334 2.589812428031615 4.83162556462
176 .002628216748542075 .698573995034901 2.623059272225365 5.20712253332248 .002
82759674092379 .715154132123115 2.661477350254775 5.56609823601232 .002945416843
166865 .718849162539251 2.69879250257116 5.89186487497509 .0029717832680756 .712
131249955612 2.732787165423285 6.1918382139073 .002923875142219055 .708259191794
688 2.742732723534485 6.28318530717958 .002896320626350065 51 23 784 0 214 215 1
02 216 +.1584784326752865 .181020626243476 -.193230373540639 -.997082542822039 -
.02917822966905975 .0705339188824478 .0015 -.0763308771044596 .3811446237367 -.9
21358981611985 50 105 577 0 94 102 22 0 +.154256328732221 .1816835632184215 -.18
17528148777005 -.997082542822039 -.02917822966905975 .0705339188824478 -.0763308
771044596 .3811446237367 -.921358981611985 141 255 213 199 213 213 102 14 214 68
5 217 ?0 218 219 5 23 -0 0 0 218 28 51 215 787 0 218 209 23 220 +.15985238846316
7 .169539748655558 -.17855721112403 -.997082542822039 -.02917822966905975 .07053
39188824478 .0015 -.0763308771044596 .3811446237367 -.921358981611985 141 216 7
 216 216 23 14 218 709 221 ?214 100 222 5 215 -0 0 214 100 28 51 209 790 0 100 0
 215 223 +.159852388463167 .1880208460981885 -.1709120141144035 -.99708254282203
9 -.02917822966905975 .0705339188824478 .0015 -.0763308771044596 .3811446237367
 -.921358981611985 141 220 21 220 220 215 38 21 630 0 224 201 7 0 +22 215 225 22
6 226 227 16 224 702 228 ?229 20 207 21 0 0 1 40 20 225 0 1 20 .0001198646905453
16 .380142744490503 ??.1574308525809355 .1700439532966055 -.179776048923827 .157
1961311368195 .169507978887452 -.1798724415178155 .156941256352333 .168982741358
1375 -.1797777870744255 .1566671680355925 .1684882634607715 -.1794871258793135 .
1564137248455875 .168111689459471 -.179012555299575 .156268991281698 .1679544300
09725 -.1785464782490425 .156213423947223 .167943443283003 -.1781164066179445 .1
56241905003521 .168058616318595 -.1776977262772325 .156341255285803 .16826729743
80335 -.1773644042557225 .1565023560085655 .1685713064114805 -.1770934783877175
 .1567275463969035 .1689916875969805 -.1769027732821005 .157002611462176 .169518
7624457485 -.17685330183479 .157287170239544 .1700820816985345 -.177006444292568
5 .1575288194626265 .1705665537587385 -.1773666610460065 .157689178222248 .17087
48143111285 -.1778614414587085 .1577596687813415 .1709789186384775 -.17838585516
23295 .1577539433346745 .170908948180689 -.1788657503789925 .157688107337944 .17
07044490950475 -.1792709039064075 .157570792814703 .170390242923927 -.1795878323
49464 .1574308525809355 .1700439532966055 -.179776048923827 41 1 226 H?.15743085
25809355 .1700439532966055 -.179776048923827 204 80 227 4 .624544263811734 5.262
76279081891 0 .002313789949671755 .659940776151119 5.24681666510487 .36264080363
86625 .00255666644102724 .699308660287466 5.24695794205465 .713108948221088 .002
832799489337355 .742449898619514 5.26189765328454 1.08592027575626 .003141017627
96496 .783514676263321 5.29045043953997 1.478857143469604 .00343818249378869 .80
8482160026145 5.32042929651565 1.7998613889223 .003619956596920835 .820281479369
722 5.34980956702325 2.084260938908305 .00370601702685408 .819976203744029 5.380
74288381337 2.37539472110091 .003703789682723265 .808783122073746 5.408170681399
36 2.64104997341022 .00362215081343175 .788132852205286 5.43421295798677 2.91610
8439779695 .00347175911467787 .757337060025069 5.45870573524814 3.22568283484686
5 .00324841090932536 .717514977111736 5.47756217889745 3.57646628760653 .0029622
5863866344 .673523662341662 5.48392452539921 3.958882552481725 .0026512916531140
5 .632929360994268 5.47203718414308 4.35253760158105 .00237080389498415 .6027136
04421622 5.44213775356283 4.73433687691612 .002167019676487075 .586047276664392
 5.4012886969738 5.08809255230311 .00205670823697626 .582068505166941 5.35807966
656501 5.4123785886766 .002030609703700825 .588621548685664 5.31812863349341 5.7
1794272831241 .00207364348198077 .604274381276597 5.28458731538688 6.01882466911
936 .00217742951985385 .624544263811734 5.26276279081891 6.28318530717959 .00231
3789949671755 81 1 228 1003 96 224 0 0 230 231 232 17 229 0 107 229 229 0 233 22
4 0 0 +16 20 678 230 ?106 234 224 7 0 0 1 16 207 726 231 ?235 224 200 201 0 0 1
 81 1 231 1004 96 207 0 0 228 205 236 17 235 0 237 235 235 0 238 207 0 0 +15 237
 621 0 235 91 239 17 238 0 240 238 238 0 235 207 0 0 -15 240 737 0 238 100 0 14
 100 733 241 ?218 93 242 5 209 -0 0 218 93 28 81 1 241 967 96 100 0 0 98 221 243
 15 242 736 0 244 100 240 17 244 0 242 244 244 0 245 246 0 0 +17 245 0 247 245 2
45 0 244 246 0 0 -16 246 730 248 ?244 208 249 250 0 0 1 81 1 248 1007 96 246 0 0
 251 252 253 16 208 754 251 ?254 200 246 255 0 0 1 16 249 706 252 ?256 246 257 2
58 0 0 1 31 255 250 799 0 246 0 258 0 +.1548669757490565 .187874954949843 -.1705
59344519991 -.997082542822039 -.02917822966905975 .0705339188824478 -.0763308771
044596 .3811446237367 -.921358981611985 .0015 31 258 797 0 249 250 259 0 +.15486
69757490565 .1693938575072125 -.178204541529618 -.997082542822039 -.029178229669
05975 .0705339188824478 -.0763308771044596 .3811446237367 -.921358981611985 .001
5 31 259 795 0 257 258 255 0 +.1534930199611765 .180874735095131 -.1928777039462
27 -.997082542822039 -.02917822966905975 .0705339188824478 -.0763308771044596 .3
811446237367 -.921358981611985 .0015 16 257 682 260 ?261 249 0 259 0 0 1 31 255
 793 0 208 259 110 0 +.1534930199611765 .190115283816446 -.1890551054414135 -.99
7082542822039 -.02917822966905975 .0705339188824478 -.0763308771044596 .38114462
37367 -.921358981611985 .0015 134 255 110 583 0 1 255 262 263 +264 265 31 262 58
2 0 234 110 266 0 +.154284098167703 .1815449014941005 -.1814176213129685 -.99708
2542822039 -.02917822966905975 .0705339188824478 -.0763308771044596 .38114462373
67 -.921358981611985 .015 141 263 22 263 263 110 136 255 264 3 4 3 2 5 FFF1 267
 268 269 135 255 265 2 0 45 255 12 267 .159269510881813 .181690792642446 -.18177
02909073805 .1600531601662715 .179278945749334 -.1759400189873525 .1577151526091
04 .1760596622985775 -.1681578923693 .15542906132427 .17582773213805 -.167597236
5887885 127 255 2 268 4 4 128 255 2 269 0 1 16 234 546 270 ?271 272 20 262 0 0 1
 30 266 525 0 273 262 274 0 +.154256328732221 .1872278924512105 -.17945925577481
25 .0763308771044596 -.3811446237367 .921358981611985 16 273 471 275 ?78 276 272
 266 0 0 1 30 274 522 0 272 266 277 0 +.154256328732221 .1761392339856325 -.1840
463739805885 .0763308771044596 -.3811446237367 .921358981611985 16 272 457 278 ?
279 273 234 274 0 0 1 30 277 517 0 276 274 280 0 +.1538120177645065 .18944648004
0344 -.184822352810527 -278023868106374e-31 -.924054872131514 -.382259850481333
 16 276 460 281 ?282 283 273 277 0 0 1 30 280 369 0 283 277 160 0 +.154756178570
8995 .1847319814134355 -.1734257716096335 520561642958279e-31 .924054872131514 .
382259850481333 16 283 307 284 ?285 150 276 280 0 0 1 30 160 230 0 154 280 286 0
 +.1421082283775578 .1757779625936095 -.180557033972003 278023868106374e-31 .924
054872131514 .382259850481333 30 286 229 0 159 160 287 0 +.1437859904753952 .188
786924898516 -.185844000407738 .167776209783753 .376841358359113 -.9109564940548
24 16 159 172 288 ?71 289 154 286 0 0 1 30 287 228 0 289 286 290 0 +.14378599047
53952 .1795463761772005 -.189666598912551 -278023868106374e-31 -.924054872131514
 -.382259850481333 16 289 175 291 ?40 168 159 287 0 0 1 30 290 227 0 168 287 292
 0 +.1437859904753952 .1795463761772005 -.189666598912551 -.167776209783753 -.37
6841358359113 .910956494054824 16 168 178 293 ?36 165 289 290 0 0 1 30 292 226 0
 150 290 164 0 +.151966479456885 .175136621504947 -.1790066897312185 27802386810
6374e-31 .924054872131514 .382259850481333 16 150 153 294 ?145 161 283 292 0 0 1
 30 164 225 0 161 292 162 0 +.1536442415547225 .188145583809853 -.18429365616695
35 .167776209783753 .376841358359113 -.910956494054824 16 161 157 295 ?148 152 1
50 164 0 0 1 81 1 295 995 96 161 0 0 157 294 296 17 148 0 142 146 145 61 66 161
 0 0 +17 66 0 135 297 63 64 148 161 0 177 -15 135 196 0 66 130 0 17 297 0 135 71
 66 60 177 174 0 298 -17 63 0 135 66 71 61 299 171 0 151 +17 177 0 131 149 73 64
 297 174 0 145 +15 131 192 0 149 127 0 17 149 0 131 300 177 67 145 150 0 144 -17
 73 0 131 177 300 60 301 154 0 297 +17 300 0 131 73 149 57 75 165 0 301 -17 301
 0 302 303 298 57 73 154 0 0 -15 302 133 0 298 123 0 17 303 0 302 304 301 11 36
 168 0 0 -17 298 0 302 301 304 60 71 159 0 0 -17 304 0 302 298 303 69 40 289 0 0
 -17 71 0 135 63 297 69 298 159 0 299 +17 299 0 139 40 151 69 63 171 0 304 -15 1
39 200 0 151 134 0 17 40 0 139 38 299 11 304 289 0 303 +17 151 0 139 299 38 61 1
46 152 0 148 -17 38 0 139 151 40 58 33 39 0 37 +17 36 0 35 75 33 57 303 168 0 30
0 +15 35 204 0 37 138 0 17 75 0 35 37 36 67 300 165 0 149 +80 255 1 96 0 305 800
1 0 0 0 0 3 5 0 0 0 FFFFTFTFFFFFFF2 81 1 157 994 96 152 0 0 153 295 306 81 1 294
 996 96 150 0 0 295 284 307 83 255 3 296 .988235294117647 .984313725490196 1 81
 1 284 997 96 283 0 0 294 281 308 83 3 307 .988235294117647 .984313725490196 1 8
1 1 281 998 96 276 0 0 284 275 309 83 3 308 .988235294117647 .984313725490196 1
 81 1 275 999 96 273 0 0 281 278 310 83 3 309 .988235294117647 .984313725490196
 1 81 1 278 1000 96 272 0 0 275 270 311 83 3 310 .988235294117647 .9843137254901
96 1 81 1 270 1001 96 234 0 0 278 230 312 83 3 311 .988235294117647 .98431372549
0196 1 81 1 230 1002 96 20 0 0 270 228 313 83 3 312 .988235294117647 .9843137254
90196 1 83 3 313 .988235294117647 .984313725490196 1 83 3 306 .988235294117647 .
984313725490196 1 79 255 15 305 SDL/TYSA_COLOUR81 1 293 989 96 168 0 0 167 291 3
14 81 1 167 988 96 165 0 0 170 293 315 81 1 291 990 96 289 0 0 293 288 316 83 3
 314 .988235294117647 .984313725490196 1 81 1 288 991 96 159 0 0 291 156 317 83
 3 316 .988235294117647 .984313725490196 1 81 1 156 992 96 154 0 0 288 153 318 8
3 3 317 .988235294117647 .984313725490196 1 83 3 318 .988235294117647 .984313725
490196 1 81 1 170 987 96 39 0 0 173 167 319 83 3 315 .988235294117647 .984313725
490196 1 81 1 173 986 96 171 0 0 176 170 320 83 3 319 .988235294117647 .98431372
5490196 1 81 1 176 985 96 174 0 0 180 173 321 83 3 320 .988235294117647 .9843137
25490196 1 81 1 180 984 96 178 0 0 183 176 322 83 3 321 .988235294117647 .984313
725490196 1 81 1 183 983 96 181 0 0 186 180 323 83 3 322 .988235294117647 .98431
3725490196 1 81 1 186 982 96 184 0 0 188 183 324 83 3 323 .988235294117647 .9843
13725490196 1 81 1 188 981 96 47 0 0 191 186 325 83 3 324 .988235294117647 .9843
13725490196 1 81 1 191 980 96 189 0 0 195 188 326 83 3 325 .988235294117647 .984
313725490196 1 81 1 195 979 96 193 0 0 197 191 327 83 3 326 .988235294117647 .98
4313725490196 1 81 1 197 978 96 31 0 0 29 195 328 83 3 327 .988235294117647 .984
313725490196 1 81 1 29 977 96 10 0 0 217 197 329 83 3 328 .988235294117647 .9843
13725490196 1 81 1 217 969 96 214 0 0 221 29 330 83 3 329 .988235294117647 .9843
13725490196 1 81 1 221 968 96 218 0 0 241 217 331 83 3 330 .988235294117647 .984
313725490196 1 83 3 331 .988235294117647 .984313725490196 1 17 285 0 332 333 192
 76 87 283 0 0 +15 332 89 0 192 18 0 17 333 0 332 334 285 54 30 10 0 0 -17 192 0
 332 285 334 85 48 189 0 0 +17 87 0 335 84 78 85 285 283 0 279 -15 335 562 0 78
 94 0 17 84 0 335 81 87 82 279 272 0 282 -17 78 0 335 87 81 76 119 273 0 30 +17
 279 0 124 48 196 85 84 272 0 192 +15 124 436 0 279 116 0 17 48 0 124 46 279 34
 192 189 0 334 -17 196 0 124 279 46 82 336 193 0 0 +17 46 0 124 196 48 42 41 47
 0 0 -17 336 0 117 337 282 42 196 193 0 46 -15 117 445 0 282 112 0 17 337 0 117
 198 336 49 45 184 0 0 -17 282 0 117 336 198 82 81 276 0 196 +17 198 0 117 282 3
37 79 338 31 0 0 +17 81 0 335 78 84 79 282 276 0 119 -17 119 0 113 338 30 79 78
 273 0 198 -17 338 0 113 56 119 49 198 31 0 337 -17 30 0 113 119 56 76 333 10 0
 285 +17 56 0 113 30 338 54 53 181 0 44 -17 53 0 43 45 44 49 56 181 0 338 +17 44
 0 43 53 41 54 334 178 0 333 +15 43 4 0 44 123 302 17 334 0 332 192 333 34 44 17
8 0 0 -17 45 0 43 41 53 42 337 184 0 336 +14 18 90 339 ?127 123 332 5 6 -0 0 127
 123 28 81 1 339 958 96 18 0 0 126 129 340 81 1 126 957 96 123 0 0 122 339 341 8
1 1 129 959 96 127 0 0 339 133 342 83 3 340 .988235294117647 .984313725490196 1
 81 1 133 960 96 130 0 0 129 137 343 83 3 342 .988235294117647 .984313725490196
 1 81 1 137 961 96 134 0 0 133 140 344 83 3 343 .988235294117647 .98431372549019
6 1 81 1 140 962 96 138 0 0 137 141 345 83 3 344 .988235294117647 .9843137254901
96 1 83 3 345 .988235294117647 .984313725490196 1 81 1 122 956 96 116 0 0 114 12
6 346 83 3 341 .988235294117647 .984313725490196 1 81 1 114 955 96 112 0 0 111 1
22 347 83 3 346 .988235294117647 .984313725490196 1 83 3 347 .988235294117647 .9
84313725490196 1 17 271 0 348 271 271 0 349 234 0 0 +15 348 561 0 271 94 335 17
 349 0 350 349 349 0 271 234 0 0 -15 350 566 0 349 91 90 81 1 260 1009 96 257 0
 0 252 0 351 17 261 0 219 261 261 0 352 257 0 0 +15 219 688 0 261 214 353 17 352
 0 104 352 352 0 261 257 0 0 -15 104 670 0 352 94 354 15 354 661 0 355 94 247 17
 355 0 354 355 355 0 256 249 0 0 -15 247 652 0 245 94 356 15 356 643 0 357 94 34
8 17 357 0 356 357 357 0 254 208 0 0 -17 254 0 101 254 254 0 357 208 0 0 +15 101
 760 0 254 93 358 15 358 761 0 359 93 0 17 359 0 358 359 359 0 206 200 0 0 -17 2
06 0 239 206 206 0 359 200 0 0 +15 239 614 0 206 91 350 17 256 0 222 256 256 0 3
55 249 0 0 +15 222 712 0 256 218 360 15 360 713 0 233 218 0 17 233 0 360 233 233
 0 229 224 0 0 -15 353 689 0 361 214 0 17 361 0 353 361 361 0 106 20 0 0 -17 106
 0 95 106 106 0 361 20 0 0 +81 1 252 1008 96 249 0 0 248 260 362 83 3 351 .98823
5294117647 .984313725490196 1 83 3 362 .988235294117647 .984313725490196 1 81 1
 251 1006 96 208 0 0 205 248 363 81 1 205 1005 96 200 0 0 231 251 364 83 3 363 .
988235294117647 .984313725490196 1 83 3 364 .988235294117647 .984313725490196 1
 83 3 253 .988235294117647 .984313725490196 1 81 1 98 966 96 93 0 0 92 241 365 8
3 3 243 .988235294117647 .984313725490196 1 83 3 365 .988235294117647 .984313725
490196 1 83 3 236 .988235294117647 .984313725490196 1 15 107 628 0 229 91 237 83
 3 232 .988235294117647 .984313725490196 1 141 223 201 223 223 209 40 20 210 0 1
 20 .0001210566386741244 .3993458604480025 ??.1574308525809355 .188525050739236
 -.1721308519142005 .1575988310296515 .1880554228303825 -.172253172288809 .15771
5767826036 .187555814573539 -.1722086798209005 .157763745725275 .187120352829192
 -.172009036928235 .157748292327003 .1867852564803575 -.1716973467985115 .157675
013641962 .186558771097128 -.171300759931774 .157543645606105 .1864555358167745
 -.1708389397890835 .1573519031585345 .186499191453699 -.170339112458805 .157101
733096146 .1867140093650345 -.169848230958783 .1568088338583345 .187107146947248
 -.1694386571858735 .156515867463105 .1876429256468805 -.169198124353288 .156330
8359786605 .188110711737381 -.1691720302136785 .156223523573823 .188585993790444
 -.169311822207625 .156222046227689 .1889387257940625 -.1695581880487745 .156292
9123297105 .1891919182472215 -.169870204436892 .156430072825375 .189365993704543
5 -.1702682861977955 .1566366815379345 .1894256306187925 -.170760327191699 .1569
001597466995 .18931117184794 -.1713043919729485 .157183594281629 .18899149220450
85 -.171800952768678 .1574308525809355 .188525050739236 -.1721308519142005 41 1
 211 H?.1574308525809355 .188525050739236 -.1721308519142005 204 80 212 4 .62454
4263811734 1.020422516360676 0 .002313789949671755 .600364452883493 .99237219070
4551 .3262362593063455 .00215137674648987 .585406228951863 .95246246076983 .6648
21413394165 .00205249702078646 .58219632771646 .909410713086284 .986865451959495
 .002031446693399135 .589376486439089 .869798422936864 1.29169174595264 .0020786
17251597145 .605597320826744 .836763328080477 1.592722514195185 .002186263417629
63 .630291959100752 .812783364644816 1.90195533140083 .002352834400070155 .66301
2083568677 .800354619159696 2.228502191335445 .002577998433429275 .7025528236490
53 .801669602780451 2.57830968746768 .00285579442492317 .745815469179188 .817746
061031478 2.953076067892885 .003165256926360165 .786337255121887 .84720639715438
1 3.34698847067262 .00345870125402949 .810049514756335 .877185513242774 3.663780
780099625 .00363138426898369 .821465429775891 .912083298167911 3.99868820559219
 .003714655628411865 .81787494166856 .942538203342935 4.285978773405105 .0036884
5942078379 .804153551877097 .969380619313743 4.55045896110204 .00358840462142202
5 .780804078056311 .995187131641285 4.8332292816876 .003418486805324405 .7473109
42461884 1.01871270287952 5.15402283217438 .00317603518570494 .705722125364588 1
.034908862535964 5.51491236274682 .002878290346487415 .661859133227067 1.0367234
10238236 5.902651148164 .002569986026846825 .624544263811734 1.020422516360676 0
 .002313789949671755 83 3 158 .988235294117647 .984313725490196 1 81 1 97 964 96
 94 0 0 141 92 366 83 3 143 .988235294117647 .984313725490196 1 83 3 366 .988235
294117647 .984313725490196 1 83 3 115 .988235294117647 .984313725490196 1 141 10
9 199 367 368 22 141 367 7 369 109 22 141 368 201 109 369 22 141 369 21 368 367
 22 83 3 99 .988235294117647 .984313725490196 1 19 17 100 0 1 0 9 5 S0 40 20 24
 0 1 20 .000109689959490311 .367725318652249 ??.155476065624681 .181507833670650
5 -.1944081231689405 .155412863992716 .181062565317912 -.194511734071161 .155431
0703325585 .180601721765359 -.194481116934246 .155524355119396 .1801916413855745
 -.194326618846773 .155682820848778 .1798441440137615 -.194058928896775 .1559014
61692166 .1795837141143915 -.193677631506417 .156166129410526 .179458317646081 -
.193198043355922 .156444908348684 .179517529659542 -.1926728349922265 .156692785
5804705 .179775348069384 -.192189420038375 .1568699187046235 .1801876226853875 -
.19183394502472 .156959164599331 .1806732295106625 -.191649487430888 .1569655247
05791 .1811602591434795 -.191631320111539 .156901179183293 .181606564962263 -.19
17562683873935 .156774976480558 .181986701786619 -.192005231716281 .156592234302
206 .1822743452617375 -.192364194380554 .1563597120642875 .1824349956392025 -.19
2814187505023 .15609236572652 .182429872343559 -.1933186925062975 .1558200251841
3 .182231977604542 -.1938147055886575 .1555889044807015 .181853073278771 -.19421
81877059495 .155476065624681 .1815078336706505 -.1944081231689405 41 1 25 H?.155
476065624681 .1815078336706505 -.1944081231689405 204 80 26 4 .708259191794688 3
.540452583645105 0 .002896320626350065 .717902122216031 3.57452447300489 .305432
6047611135 .002965021929547805 .717545271259008 3.61010423319997 .61480569030492
7 .002962474851592055 .707697194964546 3.64302140011188 .91089388522253 .0028923
24994198605 .689480159585483 3.67309104012199 1.210819694503576 .002763342161139
46 .66327588540938 3.699030872279225 1.530040867545795 .002579832475667355 .6303
78424985084 3.717011364613515 1.874617690412715 .002353422992698225 .59424553340
044 3.721294856206995 2.24070332869249 .00211077468254746 .56040439849791 3.7070
07822279405 2.61584431157658 .001890195088336355 .534552502767321 3.674232636878
2 2.983641739105115 .001726622344833415 .519980988962316 3.62935341868817 3.3315
9761077214 .001636478190686105 .516832938462806 3.581124601452105 3.657726822341
55 .00161720738931148 .523731008901754 3.5363390494973 3.969652315342485 .001659
529681266455 .539362618201577 3.499372354093385 4.278536199263275 .0017567121142
09295 .562742719398811 3.47342716087788 4.59462462829107 .001905209179257945 .59
2711069718573 3.461114599952 4.92556412613571 .00210062577135518 .62719211073656
1 3.46415412170729 5.27542230879372 .00233175691149173 .662449973021668 3.482545
69772948 5.6430229861552 .002574091383640825 .692851962787598 3.513579640734865
 6.01904098676716 .00278713438482268 .708259191794688 3.540452583645105 57824115
8658935e-30 .002896320626350065 74 4 CI16 index_map_offset0 0 1 dCCZ20 15 7 0 0
 370 260 371 372 373 13 2 0 0 0 0 0 0 0 0 0 0 0 0 0 81 2 370 843 374 1 0 371 0 0
 375 0 81 1 371 970 376 1 370 372 0 0 377 81 1 372 973 378 1 371 373 0 0 379 81
 1 373 974 380 1 372 13 0 0 381 81 1 13 975 382 1 373 2 0 0 383 80 1 382 378 384
 9000 0 0 0 0 3 5 0 0 0 FFTFFFFFFFFFFF3 84 255 16 383 _06_bar_bottom_879 13 384
 AdamsPartName80 1 380 382 385 9000 0 0 0 0 3 5 0 0 0 FFTFFFFFFFFFFF3 84 6 381 P
SMAR179 12 385 AdamsRFMName80 1 378 386 387 9000 0 0 0 0 3 5 0 0 0 FFTFFFFFFFFFF
F1 82 255 1 379 39 79 12 387 UG2/ADAMS_ID80 1 376 388 389 8017 0 0 0 0 0 0 0 0 0
 TTTTTTTTTTTTTF3 84 13 377 02_foot_stand79 13 389 SDL/TYSA_NAME80 2 374 390 391
 8004 0 0 0 0 3 5 0 0 0 FFTFFFFFFFFFFF2 3 83 1 375 23e2 79 16 391 SDL/TYSA_DENSI
TY80 1 12 380 392 9000 0 0 0 0 3 5 0 0 0 FFTFFFFFFFFFFF3 84 7 14 SOLID3979 15 39
2 AdamsObjectName1 0 
