**ABCDEFGHIJKLMNOPQRSTUVWXYZabcdefghijklmnopqrstuvwxyz**************************
**PARASOLID !"#$%&'()*+,-./:;<=>?@[\]^_`{|}~0123456789**************************
**PART1;
MC=unknown;
MC_MODEL=unknown;
MC_ID=unknown;
OS=unknown;
OS_RELEASE=unknown;
FRU=sdl_parasolid_customer_support;
APPL=parasolid_acceptance_tests;
SITE=unknown;
USER=unknown;
FORMAT=text;
GUISE=transmit;
KEY=Controls_Plant_1_Tensegrity__06_bar_bottom_4_SOLID12;
FILE=Controls_Plant_1_Tensegrity__06_bar_bottom_4_SOLID12.xmt_txt;
DATE=unknown;
**PART2;
SCH=SCH_3101206_31100;
USFLD_SIZE=1;
**PART3;
**END_OF_HEADER*****************************************************************
T51 : TRANSMIT FILE created by modeller version 310120623 SCH_3101206_31100_1300
6222 0 12 34 CCCCCCI4 mesh1006 0 I8 polyline1008 0 CCCCCCCDI5 owner1040 0 CCCCCC
I13 boundary_mesh1006 0 I17 boundary_polyline1008 0 CCCA16 index_map_offset0 0 1
 dA9 index_map82 0 A17 node_id_index_map82 0 A20 schema_embedding_map82 0 A5 chi
ld12 0 A14 lowest_node_id0 0 1 dA16 mesh_offset_data206 0 Z1 944 2 3 0 0 0 0 0 0
 1e3 1e-8 0 4 0 1 0 1 1 5 6 7 8 0 0 9 10 11 0 0 0 0 0 0 0 81 255 1 2 893 12 1 13
 0 0 0 14 70 11 CI9 list_type0 0 1 uI10 notransmit0 0 1 lCCCDCCDI12 finger_index
0 0 1 dI12 finger_block1012 0 CZ3 0 4 T1 0 0 6 20 1 15 15 13 255 5 111 0 1 0 16
 0 0 17 0 50 255 6 105 0 18 19 0 0 +.115715832352401 .1520709481395745 -.1075289
400988764 -.98582510793274 -.155034424078435 -.0641341088662619 .167776209783752
 -.910956494054824 -.376841358359114 30 255 7 110 0 20 21 0 0 +.115715832352401
 .1520709481395745 -.1075289400988764 -74674157294001e-30 .382259850481334 -.924
054872131514 29 255 8 682 0 11 22 0 .1054414007103326 .1734353504290205 -.082458
1851865107 19 8 CCCCCCCA5 owner12 0 Z9 40 0 1 17 0 23 V0 16 255 10 626 24 ?25 0
 20 26 0 0 1 18 255 11 680 0 27 0 28 8 ?1 17 255 27 0 29 30 31 11 32 33 0 34 +18
 28 390 0 35 11 36 22 ?1 17 35 0 37 38 39 28 40 41 0 42 -18 36 374 0 43 28 44 45
 ?1 29 22 392 0 28 45 8 .0989995888227095 .182631306617112 -.0959690226259678 29
 45 376 0 36 46 22 .100677350920547 .1696991431717505 -.0904968874882438 29 46 8
7 0 47 48 45 .103885931057208 .150975054751596 -.1101466591495346 18 47 78 0 49
 44 50 46 ?1 29 48 34 0 44 51 46 .0996915258126143 .172984447402004 -.0988775154
462937 18 44 32 0 52 36 47 48 ?1 29 51 209 0 50 53 48 .103885931057208 .15021053
50506335 -.1082985494052716 18 50 173 0 54 47 55 51 ?1 29 53 210 0 55 56 51 .115
715832352401 .1520709481395745 -.1075289400988764 18 55 170 0 57 50 58 53 ?1 29
 56 211 0 58 59 53 .115715832352401 .152835467840537 -.1093770498431394 18 58 17
2 0 60 55 61 56 ?1 29 59 327 0 61 62 56 .1115214271078072 .174844860490945 -.098
1079061398986 18 61 281 0 63 58 64 59 ?1 29 62 331 0 65 66 59 .1115214271078072
 .1710222619861315 -.0888673574185834 18 65 274 0 67 68 69 62 ?1 29 66 332 0 69
 70 62 .0996915258126143 .1691618488971905 -.0896369667249786 18 69 273 0 71 65
 72 66 ?1 29 70 333 0 64 73 66 .0980137637147768 .182858532043515 -.096957211606
9656 18 64 280 0 74 61 75 70 ?1 29 73 334 0 75 76 70 .1098436650099696 .18471894
5132456 -.0961876023005705 18 75 279 0 77 64 78 73 ?1 29 76 335 0 78 79 73 .1098
436650099696 .18013182692668 -.0850989438349923 18 78 278 0 80 75 68 76 ?1 29 79
 336 0 68 81 76 .0980137637147768 .1782714138377385 -.0858685531413874 18 68 275
 0 82 78 65 79 ?1 29 81 502 0 72 83 79 .1105356019998744 .1746898260668665 -.098
1720402487648 18 72 443 0 84 69 85 81 ?1 29 83 503 0 85 86 81 .100677350920547 .
1731394818260825 -.0988133813374275 18 85 451 0 87 72 88 83 ?1 29 86 504 0 89 90
 83 .108857839902037 .184181650857896 -.0953276815373052 18 89 446 0 39 91 92 86
 ?1 29 90 505 0 92 93 86 .108857839902037 .180359052353083 -.0860871328159901 18
 92 448 0 94 89 95 90 ?1 29 93 506 0 95 96 90 .0989995888227095 .178808708112298
5 -.0867284739046527 18 95 450 0 97 92 98 93 ?1 29 96 508 0 88 99 93 .1105356019
998744 .175072085917348 -.0990960951208963 18 88 445 0 100 85 101 96 ?1 29 99 50
9 0 101 102 96 .1105356019998744 .1712494874125345 -.0898555463995812 18 101 444
 0 103 88 91 99 ?1 29 102 511 0 91 104 99 .100677350920547 .1735217416765635 -.0
99737436209559 18 91 452 0 105 101 89 102 ?1 29 104 777 0 106 107 102 .103875399
9345822 .1731890754798215 -.0825600633629017 18 106 730 0 30 108 109 104 ?1 29 1
07 779 0 109 110 104 .1054940579083772 .17314944328772 -.0825764582722126 18 109
 727 0 111 106 112 107 ?1 29 110 780 0 112 113 107 .103928057132627 .17290316833
85215 -.0826783364486036 18 112 734 0 114 109 0 110 ?1 29 113 781 0 98 115 110 .
1038753999345822 .1728068156293405 -.0816360084907702 18 98 733 0 116 95 117 113
 ?1 29 115 782 0 117 118 113 .1054414007103326 .173053090578539 -.08153413031437
92 18 117 732 0 119 98 120 115 ?1 29 118 783 0 120 121 115 .1054940579083772 .17
2767183437239 -.0816524034000811 18 120 731 0 122 117 108 118 ?1 29 121 784 0 10
8 0 118 .103928057132627 .1725209084880405 -.0817542815764721 18 108 728 0 123 1
20 106 121 ?1 17 123 0 124 114 125 108 122 126 0 127 -15 255 124 742 0 111 128 0
 17 114 0 124 111 123 112 129 130 0 131 +17 125 0 124 123 111 120 132 133 0 134
 -17 122 0 135 119 127 120 123 126 0 125 +16 126 718 136 ?122 137 138 139 0 0 1
 17 127 0 135 122 116 108 140 138 0 129 +15 135 753 0 127 141 0 17 116 0 135 127
 119 98 31 142 0 143 +17 140 0 144 145 129 98 127 138 0 0 -16 138 715 146 ?127 1
26 147 148 0 0 1 17 129 0 144 140 131 108 114 130 0 0 -15 144 738 0 131 149 0 17
 131 0 144 129 145 112 150 151 0 152 +16 130 706 153 ?114 154 133 155 0 0 1 81 1
 153 933 156 130 0 0 157 158 159 16 154 636 157 ?160 41 130 161 0 0 1 16 133 710
 158 ?132 130 33 162 0 0 1 30 155 765 0 130 162 161 0 +.103928057132627 .1725209
084880405 -.0817542815764721 -74674157294001e-30 .382259850481334 -.924054872131
514 30 162 766 0 133 163 155 0 +.1054940579083772 .172767183437239 -.08165240340
00811 -74674157294001e-30 .382259850481334 -.924054872131514 31 255 161 658 0 15
4 155 26 0 +.104767595411292 .1727355386595285 -.0827476809193279 74674157294001
e-30 -.382259850481334 .924054872131514 .98582510793274 .155034424078435 .064134
1088662618 .002 31 26 657 0 10 161 164 0 +.104767595411292 .174646837911935 -.08
73679552799854 74674157294001e-30 -.382259850481334 .924054872131514 .9858251079
3274 .155034424078435 .0641341088662618 .002 30 164 501 0 165 26 166 0 +.1056064
764602106 .174296913796956 -.0994167656652277 .98582510793274 .155034424078435 .
0641341088662618 16 165 434 167 ?168 169 170 164 0 0 1 30 166 500 0 171 164 172
 0 +.100677350920547 .173904001527045 -.1006614910816904 -74674157294001e-30 .38
2259850481334 -.924054872131514 16 171 408 173 ?174 175 169 166 169 169 1 30 172
 499 0 175 166 176 0 +.1056064764602106 .1704743152921425 -.0901762169439125 .98
582510793274 .155034424078435 .0641341088662618 16 175 422 177 ?178 179 171 172
 0 0 1 30 176 498 0 180 172 181 0 +.1105356019998744 .1754543457678295 -.1000201
49993028 -74674157294001e-30 .382259850481334 -.924054872131514 16 180 415 182 ?
183 184 179 176 179 179 1 30 181 497 0 41 176 185 0 +.1039287143623732 .18340647
8737504 -.0956483520816365 .98582510793274 .155034424078435 .0641341088662618 16
 41 411 186 ?40 187 154 181 0 0 1 30 185 496 0 187 181 188 0 +.0989995888227095
 .183013566467593 -.0968930774980993 -74674157294001e-30 .382259850481334 -.9240
54872131514 16 187 426 189 ?190 191 41 185 0 0 1 30 188 495 0 191 185 192 0 +.10
39287143623732 .1795838802326905 -.0864078033603214 .98582510793274 .15503442407
8435 .0641341088662618 16 191 437 193 ?194 170 187 188 0 0 1 30 192 494 0 170 18
8 195 0 +.108857839902037 .1845639107083775 -.0962517364094367 -74674157294001e-
30 .382259850481334 -.924054872131514 16 170 440 196 ?197 165 191 192 0 0 1 30 1
95 493 0 198 192 199 0 +.1105356019998744 .175072085917348 -.0990960951208963 -.
167776209783752 .910956494054824 .376841358359114 16 198 421 200 ?39 201 202 195
 0 0 1 30 199 492 0 202 195 203 0 +.1105356019998744 .1712494874125345 -.0898555
463995812 -.167776209783752 .910956494054824 .376841358359114 16 202 425 204 ?94
 198 205 199 0 0 1 30 203 491 0 205 199 206 0 +.100677350920547 .169699143171750
5 -.0904968874882438 -.167776209783752 .910956494054824 .376841358359114 16 205
 429 207 ?97 202 184 203 0 0 1 30 206 490 0 184 203 208 0 +.100677350920547 .173
5217416765635 -.099737436209559 -.167776209783752 .910956494054824 .376841358359
114 16 184 414 209 ?42 205 180 206 0 0 1 30 208 326 0 210 206 211 0 +.0980137637
147768 .182858532043515 -.0969572116069656 74674157294001e-30 -.382259850481334
 .924054872131514 16 210 260 212 ?213 214 215 208 0 0 1 30 211 325 0 214 208 216
 0 +.0980137637147768 .1782714138377385 -.0858685531413874 .98582510793274 .1550
34424078435 .0641341088662618 16 214 263 217 ?80 218 210 211 0 0 1 30 216 324 0
 218 211 219 0 +.1098436650099696 .184718945132456 -.0961876023005705 -746741572
94001e-30 .382259850481334 -.924054872131514 16 218 266 220 ?221 222 214 216 0 0
 1 30 219 323 0 222 216 223 0 +.0980137637147768 .182858532043515 -.096957211606
9656 -.98582510793274 -.155034424078435 -.0641341088662618 16 222 269 224 ?225 2
26 218 219 0 0 1 30 223 322 0 201 219 227 0 +.0996915258126143 .1737489671029665
 -.1007256251905568 74674157294001e-30 -.382259850481334 .924054872131514 16 201
 241 228 ?71 229 198 223 0 0 1 30 227 321 0 229 223 230 0 +.0996915258126143 .16
91618488971905 -.0896369667249786 .98582510793274 .155034424078435 .064134108866
2618 16 229 245 231 ?67 215 201 227 0 0 1 30 230 320 0 215 227 232 0 +.111521427
1078072 .1756093801919075 -.0999560158841616 -74674157294001e-30 .38225985048133
4 -.924054872131514 16 215 249 233 ?234 210 229 230 0 0 1 30 232 316 0 226 230 2
35 0 +.1098436650099696 .18013182692668 -.0850989438349923 .167776209783752 -.91
0956494054824 -.376841358359114 16 226 255 236 ?237 238 222 232 0 0 1 30 235 315
 0 238 232 239 0 +.0980137637147768 .1782714138377385 -.0858685531413874 .167776
209783752 -.910956494054824 -.376841358359114 16 238 248 240 ?241 242 226 235 0
 0 1 31 239 208 0 243 235 244 0 +.1098008817048044 .1496117021931784 -.104217525
263548 -74674157294001e-30 .382259850481334 -.924054872131514 -.98582510793274 -
.155034424078435 -.0641341088662618 .005 16 243 158 245 ?246 247 242 239 0 0 1 3
1 244 207 0 242 239 248 0 +.1098008817048044 .1519052612960665 -.109761854496337
 -74674157294001e-30 .382259850481334 -.924054872131514 -.98582510793274 -.15503
4424078435 -.0641341088662618 .005 16 242 167 249 ?250 243 238 244 0 0 1 31 248
 206 0 251 244 252 0 +.1098008817048044 .1496117021931784 -.104217525263548 -746
74157294001e-30 .382259850481334 -.924054872131514 -.98582510793274 -.1550344240
78435 -.0641341088662618 .006 16 251 152 253 ?254 255 247 248 0 0 1 31 252 205 0
 247 248 256 0 +.1098008817048044 .1519052612960665 -.109761854496337 -746741572
94001e-30 .382259850481334 -.924054872131514 -.98582510793274 -.155034424078435
 -.0641341088662618 .006 16 247 164 257 ?49 251 243 252 0 0 1 31 256 8 0 258 252
 259 0 +.1098008817048044 .151140741595104 -.107913744752074 74674157294001e-30
 -.382259850481334 .924054872131514 .98582510793274 .155034424078435 .0641341088
662618 .006 16 258 6 260 ?54 261 262 256 0 0 1 30 259 13 0 261 256 263 0 +.11571
5832352401 .1520709481395745 -.1075289400988764 -.167776209783752 .9109564940548
24 .376841358359114 16 261 11 264 ?265 266 258 259 0 0 1 30 263 18 0 267 259 268
 0 +.1056064764602106 .1739146539464745 -.0984927107930961 -.98582510793274 -.15
5034424078435 -.0641341088662618 16 267 16 269 ?270 271 272 263 266 272 1 30 268
 23 0 271 263 273 0 +.103885931057208 .1502105350506335 -.1082985494052716 .1677
76209783752 -.910956494054824 -.376841358359114 16 271 21 274 ?275 276 267 268 0
 0 1 30 273 85 0 255 268 277 0 +.115715832352401 .152835467840537 -.109377049843
1394 -.167776209783752 .910956494054824 .376841358359114 16 255 68 278 ?77 262 2
51 273 0 0 1 30 277 83 0 262 273 21 0 +.103885931057208 .150975054751596 -.11014
66591495346 .167776209783752 -.910956494054824 -.376841358359114 16 262 58 279 ?
280 258 255 277 0 0 1 30 21 107 0 276 277 7 0 +.103885931057208 .150210535050633
5 -.1082985494052716 -74674157294001e-30 .382259850481334 -.924054872131514 16 2
76 91 281 ?282 20 271 21 0 0 1 81 1 281 896 156 276 0 0 283 274 284 17 282 0 285
 60 54 47 286 276 0 280 +16 20 94 283 ?287 10 276 7 0 0 1 81 1 283 895 156 20 0
 0 24 281 288 17 287 0 289 77 290 58 57 20 0 291 +15 289 99 0 77 18 0 17 77 0 28
9 292 287 75 291 255 0 221 +17 290 0 289 287 234 55 265 261 0 293 -17 57 0 285 5
4 60 55 287 20 0 290 -17 291 0 294 49 295 58 77 255 0 0 -15 294 57 0 291 296 297
 17 49 0 294 74 291 47 60 247 0 282 +17 295 0 294 291 74 75 225 222 0 0 -17 74 0
 294 295 49 64 280 262 0 225 -17 225 0 298 213 221 64 295 222 0 299 +15 298 303
 0 213 300 301 17 213 0 298 80 225 68 299 210 0 302 +17 221 0 298 225 80 75 292
 218 0 295 +17 299 0 303 280 302 64 213 210 0 0 -15 303 95 0 280 304 0 17 280 0
 303 286 299 47 74 262 0 0 +17 302 0 303 299 71 68 241 238 0 0 -17 71 0 303 302
 305 69 306 201 0 307 +17 241 0 308 67 82 69 302 238 0 0 +15 308 292 0 67 309 0
 17 67 0 308 310 241 65 307 229 0 237 +17 82 0 308 241 310 68 80 214 0 213 -17 3
10 0 308 82 67 78 237 226 0 292 -17 80 0 298 221 213 78 82 214 0 310 +17 237 0 2
89 234 292 65 310 226 0 311 +17 292 0 289 237 77 78 221 218 0 0 -17 234 0 289 29
0 237 61 311 215 0 265 +17 311 0 312 307 63 65 234 215 0 0 -15 312 306 0 178 313
 0 17 307 0 312 306 311 69 67 229 0 241 -17 63 0 312 311 183 61 270 267 0 234 -1
7 183 0 312 63 178 72 314 180 0 270 +17 270 0 315 316 265 72 63 267 0 0 +15 315
 5 0 293 317 0 17 316 0 315 52 270 85 84 272 0 0 +17 265 0 315 270 293 61 290 26
1 0 0 +17 293 0 315 265 275 55 54 258 0 0 -17 275 0 315 293 52 50 305 271 0 286
 +17 54 0 285 282 57 50 293 258 0 275 +15 285 178 0 57 318 0 14 255 318 174 319
 ?320 296 321 5 322 +0 0 320 296 23 81 1 319 871 156 318 0 0 323 324 325 14 320
 183 324 ?326 318 327 5 328 -0 0 326 318 23 14 296 55 323 ?318 317 294 5 329 -0
 0 318 317 23 15 321 177 0 254 318 285 51 255 322 198 0 318 328 330 0 +.10980088
17048044 .1496117021931784 -.104217525263548 -74674157294001e-30 .38225985048133
4 -.924054872131514 .006 -.98582510793274 -.155034424078435 -.0641341088662618 1
3 23 41 0 0 0 0 0 0 9 16 14 16 695 331 ?300 0 332 5 333 +0 0 300 0 23 81 1 331 8
65 156 16 0 0 0 334 335 14 300 405 334 ?18 16 298 5 336 +0 0 18 16 23 15 332 647
 0 160 16 337 50 333 656 0 16 338 339 0 +.1098008817048044 .145406843837884 -.09
40529216701013 74674157294001e-30 -.382259850481334 .924054872131514 .9858251079
3274 .155034424078435 .0641341088662618 50 338 759 0 149 340 333 0 +.10387539993
45822 .1728068156293405 -.0816360084907702 .98582510793274 .155034424078435 .064
1341088662618 -74674157294001e-30 .382259850481334 -.924054872131514 51 339 654
 0 341 333 342 0 -.104767595411292 .1727355386595285 -.0827476809193279 -7467415
7294001e-30 .382259850481334 -.924054872131514 .002 -.98582510793274 -.155034424
078435 -.0641341088662618 14 341 639 343 ?149 344 345 5 339 -0 0 149 344 23 50 3
42 488 0 344 339 346 0 +.1056064764602106 .174679173647437 -.1003408205373592 -.
167776209783752 .910956494054824 .376841358359114 74674157294001e-30 -.382259850
481334 .924054872131514 14 344 473 347 ?341 348 349 5 342 +0 0 341 348 23 50 346
 486 0 350 342 351 0 +.1105356019998744 .1754543457678295 -.100020149993028 .985
82510793274 .155034424078435 .0641341088662618 -74674157294001e-30 .382259850481
334 -.924054872131514 14 350 461 352 ?353 354 355 5 346 -0 0 353 354 23 50 351 4
85 0 353 346 356 0 +.1056064764602106 .1704743152921425 -.0901762169439125 74674
157294001e-30 -.382259850481334 .924054872131514 .98582510793274 .15503442407843
5 .0641341088662618 14 353 465 357 ?348 350 358 5 351 -0 0 348 350 23 50 356 484
 0 348 351 359 0 +.100677350920547 .173904001527045 -.1006614910816904 .98582510
793274 .155034424078435 .0641341088662618 -74674157294001e-30 .382259850481334 -
.924054872131514 14 348 469 360 ?344 353 361 5 356 +0 0 344 353 23 50 359 483 0
 354 356 336 0 +.1056064764602106 .174296913796956 -.0994167656652277 7467415729
4001e-30 -.382259850481334 .924054872131514 .98582510793274 .155034424078435 .06
41341088662618 14 354 457 362 ?350 313 37 5 359 +0 0 350 313 23 50 336 314 0 300
 359 363 0 +.1039287143623732 .1837887385879855 -.096572406953768 -.167776209783
752 .910956494054824 .376841358359114 74674157294001e-30 -.382259850481334 .9240
54872131514 50 363 313 0 313 336 364 0 +.1056064764602106 .174679173647437 -.100
3408205373592 -.167776209783752 .910956494054824 .376841358359114 74674157294001
e-30 -.382259850481334 .924054872131514 14 313 304 365 ?354 309 312 5 363 -0 0 3
54 309 23 50 364 310 0 309 363 366 0 +.0980137637147768 .1782714138377385 -.0858
685531413874 -74674157294001e-30 .382259850481334 -.924054872131514 -.9858251079
3274 -.155034424078435 -.0641341088662618 14 309 289 367 ?313 326 368 5 364 -0 0
 313 326 23 51 366 201 0 326 364 328 0 +.1098008817048044 .1496117021931784 -.10
4217525263548 -74674157294001e-30 .382259850481334 -.924054872131514 .005 -.9858
2510793274 -.155034424078435 -.0641341088662618 14 326 191 369 ?309 320 370 5 36
6 -0 0 309 320 23 50 328 200 0 320 366 322 0 +.1098008817048044 .149611702193178
4 -.104217525263548 -74674157294001e-30 .382259850481334 -.924054872131514 -.985
82510793274 -.155034424078435 -.0641341088662618 81 1 369 873 156 326 0 0 324 36
7 371 15 370 194 0 372 326 373 17 372 0 370 372 372 0 246 243 0 0 -15 373 195 0
 250 326 0 17 250 0 373 250 250 0 374 242 0 0 +17 374 0 297 374 374 0 250 242 0
 0 -15 297 189 0 374 296 0 17 246 0 327 246 246 0 372 243 0 0 +15 327 185 0 246
 320 375 15 375 186 0 376 320 0 17 376 0 375 376 376 0 254 251 0 0 -17 254 0 321
 254 254 0 376 251 0 0 +80 255 1 156 0 377 8001 0 0 0 0 3 5 0 0 0 FFFFTFTFFFFFFF
2 81 1 324 872 156 320 0 0 319 369 378 81 1 367 874 156 309 0 0 369 365 379 83 2
55 3 371 1 1 1 81 1 365 875 156 313 0 0 367 362 380 83 3 379 1 1 1 81 1 362 876
 156 354 0 0 365 352 381 83 3 380 1 1 1 81 1 352 877 156 350 0 0 362 357 382 83
 3 381 1 1 1 81 1 357 878 156 353 0 0 352 360 383 83 3 382 1 1 1 81 1 360 879 15
6 348 0 0 357 347 384 83 3 383 1 1 1 81 1 347 880 156 344 0 0 360 343 385 83 3 3
84 1 1 1 81 1 343 881 156 341 0 0 347 386 387 83 3 385 1 1 1 81 1 386 882 156 14
9 0 0 343 388 389 83 3 387 1 1 1 14 149 735 386 ?128 341 144 5 338 -0 0 128 341
 23 81 1 388 883 156 128 0 0 386 390 391 83 3 389 1 1 1 14 128 739 388 ?392 149
 124 5 340 -0 0 392 149 23 81 1 390 884 156 392 0 0 388 393 394 83 3 391 1 1 1 1
4 392 743 390 ?395 128 396 5 397 -0 0 395 128 23 81 1 393 885 156 395 0 0 390 39
8 399 83 3 394 1 1 1 14 395 747 393 ?141 392 29 5 400 -0 0 141 392 23 81 1 398 8
86 156 141 0 0 393 24 401 83 3 399 1 1 1 14 141 751 398 ?0 395 135 5 402 +0 0 0
 395 23 81 1 24 894 156 10 0 0 398 283 403 83 3 401 1 1 1 83 3 403 1 1 1 50 402
 764 0 141 0 400 0 +.1098008817048044 .1450245839874024 -.0931288667979698 74674
157294001e-30 -.382259850481334 .924054872131514 .98582510793274 .15503442407843
5 .0641341088662618 50 400 762 0 395 402 397 0 +.1038753999345822 .1728068156293
405 -.0816360084907702 .167776209783752 -.910956494054824 -.376841358359114 -746
74157294001e-30 .382259850481334 -.924054872131514 50 397 761 0 392 400 340 0 +.
1054940579083772 .172767183437239 -.0816524034000811 -.98582510793274 -.15503442
4078435 -.0641341088662618 74674157294001e-30 -.382259850481334 .924054872131514
 50 340 760 0 128 397 338 0 +.103928057132627 .1725209084880405 -.08175428157647
21 -.167776209783752 .910956494054824 .376841358359114 74674157294001e-30 -.3822
59850481334 .924054872131514 15 29 750 0 30 395 0 17 30 0 29 143 27 106 404 147
 0 145 +17 143 0 29 31 30 98 145 405 0 140 -17 404 0 337 406 150 11 30 147 0 0 -
16 147 711 407 ?30 138 408 409 0 0 1 17 145 0 144 131 140 106 143 405 0 150 +16
 405 702 410 ?145 33 142 411 0 0 1 17 150 0 337 404 152 106 131 151 0 0 -15 337
 678 0 152 16 0 17 152 0 337 150 406 112 111 412 0 0 -16 151 699 413 ?131 412 0
 414 0 0 1 81 1 413 944 156 151 0 0 415 0 416 16 412 703 415 ?111 408 151 417 0
 0 1 30 414 772 0 151 418 417 0 +.1038753999345822 .1731890754798215 -.082560063
3629017 .167776209783752 -.910956494054824 -.376841358359114 30 418 773 0 142 41
9 414 0 +.1038753999345822 .1728068156293405 -.0816360084907702 -.98582510793274
 -.155034424078435 -.0641341088662618 30 417 771 0 412 414 420 0 +.1039280571326
27 .1729031683385215 -.0826783364486036 .98582510793274 .155034424078435 .064134
1088662618 30 420 770 0 408 417 409 0 +.1054940579083772 .17314944328772 -.08257
64582722126 -.167776209783752 .910956494054824 .376841358359114 16 408 707 421 ?
34 147 412 420 0 0 1 30 409 769 0 147 420 411 0 +.1038753999345822 .173189075479
8215 -.0825600633629017 -.98582510793274 -.155034424078435 -.0641341088662618 30
 411 768 0 405 409 163 0 +.1038753999345822 .1728068156293405 -.0816360084907702
 -74674157294001e-30 .382259850481334 -.924054872131514 30 163 767 0 33 411 162
 0 +.1054414007103326 .173053090578539 -.0815341303143792 -74674157294001e-30 .3
82259850481334 -.924054872131514 16 33 714 422 ?27 133 405 163 0 0 1 81 1 422 93
5 156 33 0 0 158 410 423 81 1 158 934 156 133 0 0 153 422 424 81 1 410 936 156 4
05 0 0 422 425 426 83 3 423 1 1 1 81 1 425 937 156 142 0 0 410 427 428 83 3 426
 1 1 1 16 142 724 425 ?116 405 137 418 0 0 1 81 1 427 938 156 137 0 0 425 136 42
9 83 3 428 1 1 1 16 137 721 427 ?119 142 126 419 0 0 1 81 1 136 939 156 126 0 0
 427 146 430 83 3 429 1 1 1 81 1 146 940 156 138 0 0 136 407 431 83 3 430 1 1 1
 81 1 407 941 156 147 0 0 146 421 432 83 3 431 1 1 1 81 1 421 942 156 408 0 0 40
7 415 433 83 3 432 1 1 1 81 1 415 943 156 412 0 0 421 413 434 83 3 433 1 1 1 83
 3 434 1 1 1 17 119 0 135 116 122 117 134 137 0 32 +30 419 774 0 137 139 418 0 +
.1054940579083772 .172767183437239 -.0816524034000811 -.167776209783752 .9109564
94054824 .376841358359114 30 139 775 0 126 148 419 0 +.103928057132627 .17252090
84880405 -.0817542815764721 .98582510793274 .155034424078435 .0641341088662618 3
0 148 776 0 138 0 139 0 +.1038753999345822 .1728068156293405 -.0816360084907702
 .167776209783752 -.910956494054824 -.376841358359114 17 134 0 396 132 32 120 11
9 137 0 0 -17 32 0 396 134 34 117 27 33 0 31 -15 396 746 0 34 392 0 17 34 0 396
 32 132 11 406 408 0 404 +17 31 0 29 27 143 117 116 142 0 0 -17 132 0 396 34 134
 109 125 133 0 406 +17 406 0 337 152 404 109 34 408 0 0 -83 3 424 1 1 1 17 111 0
 124 125 114 109 152 412 0 132 +83 3 416 1 1 1 83 3 378 1 1 1 79 255 15 377 SDL/
TYSA_COLOUR15 368 628 0 435 309 308 17 435 0 368 435 435 0 25 10 0 0 -17 25 0 43
6 25 25 0 435 10 0 0 +15 436 643 0 25 341 0 15 37 460 0 35 354 0 15 361 472 0 43
7 348 0 17 437 0 361 438 42 95 190 187 0 439 -17 438 0 361 174 437 36 97 205 0 4
40 -17 42 0 361 437 105 28 38 184 0 190 +17 190 0 301 40 439 28 437 187 0 0 +17
 439 0 301 190 441 95 194 191 0 0 -15 301 388 0 190 300 0 17 441 0 301 439 40 92
 197 170 0 0 -17 194 0 358 103 97 92 439 191 0 441 +15 358 468 0 194 353 0 17 10
3 0 358 43 194 101 94 202 0 314 -17 97 0 358 194 43 95 438 205 0 437 +17 43 0 35
8 97 103 36 178 175 0 438 -17 178 0 312 183 440 101 43 175 0 0 +17 440 0 312 178
 442 36 174 171 0 0 -17 442 0 312 440 306 85 52 266 0 316 -17 174 0 361 105 438
 85 440 171 0 442 +17 105 0 361 42 174 91 87 169 0 38 +17 87 0 349 84 443 85 105
 169 0 174 -16 169 431 444 ?105 171 165 166 171 171 1 17 38 0 37 168 35 91 42 18
4 0 443 -17 168 0 37 39 38 88 443 165 0 445 +17 443 0 349 87 100 91 168 165 0 0
 -15 349 476 0 100 344 0 17 100 0 349 443 84 88 446 179 0 168 +17 84 0 349 100 8
7 72 316 272 0 446 -17 446 0 355 314 445 72 100 179 0 183 -16 179 418 447 ?100 1
80 175 176 180 180 1 81 1 447 923 156 179 0 0 182 177 448 81 1 182 922 156 180 0
 0 209 447 449 81 1 177 924 156 175 0 0 447 173 450 83 3 448 1 1 1 81 1 173 925
 156 171 0 0 177 444 451 83 3 450 1 1 1 81 1 444 926 156 169 0 0 173 167 452 83
 3 451 1 1 1 81 1 167 927 156 165 0 0 444 196 453 83 3 452 1 1 1 81 1 196 928 15
6 170 0 0 167 193 454 83 3 453 1 1 1 81 1 193 929 156 191 0 0 196 189 455 83 3 4
54 1 1 1 81 1 189 930 156 187 0 0 193 186 456 83 3 455 1 1 1 81 1 186 931 156 41
 0 0 189 157 457 83 3 456 1 1 1 81 1 157 932 156 154 0 0 186 153 458 83 3 457 1
 1 1 83 3 458 1 1 1 81 1 209 921 156 184 0 0 207 182 459 83 3 449 1 1 1 81 1 207
 920 156 205 0 0 204 209 460 83 3 459 1 1 1 81 1 204 919 156 202 0 0 200 207 461
 83 3 460 1 1 1 81 1 200 918 156 198 0 0 228 204 462 83 3 461 1 1 1 81 1 228 917
 156 201 0 0 231 200 463 83 3 462 1 1 1 81 1 231 916 156 229 0 0 233 228 464 83
 3 463 1 1 1 81 1 233 915 156 215 0 0 212 231 465 83 3 464 1 1 1 81 1 212 914 15
6 210 0 0 217 233 466 83 3 465 1 1 1 81 1 217 913 156 214 0 0 220 212 467 83 3 4
66 1 1 1 81 1 220 912 156 218 0 0 224 217 468 83 3 467 1 1 1 81 1 224 911 156 22
2 0 0 236 220 469 83 3 468 1 1 1 81 1 236 910 156 226 0 0 240 224 470 83 3 469 1
 1 1 81 1 240 909 156 238 0 0 249 236 471 83 3 470 1 1 1 81 1 249 908 156 242 0
 0 245 240 472 83 3 471 1 1 1 81 1 245 907 156 243 0 0 257 249 473 83 3 472 1 1
 1 81 1 257 906 156 247 0 0 253 245 474 83 3 473 1 1 1 81 1 253 905 156 251 0 0
 278 257 475 83 3 474 1 1 1 81 1 278 904 156 255 0 0 279 253 476 83 3 475 1 1 1
 81 1 279 903 156 262 0 0 260 278 477 83 3 476 1 1 1 81 1 260 902 156 258 0 0 26
4 279 478 83 3 477 1 1 1 81 1 264 901 156 261 0 0 479 260 480 83 3 478 1 1 1 81
 1 479 900 156 266 0 0 481 264 482 83 3 480 1 1 1 16 266 372 479 ?52 272 261 263
 272 267 1 81 1 481 899 156 272 0 0 269 479 483 83 3 482 1 1 1 16 272 369 481 ?3
16 267 266 263 267 266 1 81 1 269 898 156 267 0 0 274 481 484 83 3 483 1 1 1 81
 1 274 897 156 271 0 0 281 269 485 83 3 484 1 1 1 83 3 485 1 1 1 17 52 0 315 275
 316 44 442 266 0 306 +17 306 0 312 442 307 44 71 201 0 305 -17 305 0 303 71 286
 44 275 271 0 0 -17 286 0 303 305 280 50 282 276 0 0 -15 355 464 0 197 350 0 17
 314 0 355 94 446 101 183 180 0 178 -17 445 0 355 446 197 88 39 198 0 0 -17 197
 0 355 445 94 89 441 170 0 40 +17 39 0 37 35 168 89 445 198 0 197 +17 94 0 355 1
97 314 92 103 202 0 194 +17 40 0 301 441 190 89 35 41 0 0 +15 345 642 0 486 341
 436 17 486 0 345 486 486 0 160 154 0 0 -17 160 0 332 160 160 0 486 154 0 0 +81
 1 334 866 156 300 0 0 331 487 488 14 18 100 487 ?304 300 289 5 6 -0 0 304 300 2
3 81 1 487 867 156 18 0 0 334 489 490 14 304 96 489 ?317 18 303 5 19 -0 0 317 18
 23 81 1 489 868 156 304 0 0 487 491 492 14 317 1 491 ?296 304 315 5 330 +0 0 29
6 304 23 50 19 103 0 304 329 6 0 +.103885931057208 .1502105350506335 -.108298549
4052716 .98582510793274 .155034424078435 .0641341088662618 -.167776209783752 .91
0956494054824 .376841358359114 50 329 82 0 296 330 19 0 +.1098008817048044 .1519
052612960665 -.109761854496337 74674157294001e-30 -.382259850481334 .92405487213
1514 .98582510793274 .155034424078435 .0641341088662618 50 330 3 0 317 322 329 0
 +.1098008817048044 .151140741595104 -.107913744752074 74674157294001e-30 -.3822
59850481334 .924054872131514 .98582510793274 .155034424078435 .0641341088662618
 81 1 491 869 156 317 0 0 489 323 493 81 1 323 870 156 296 0 0 491 319 494 83 3
 493 1 1 1 83 3 494 1 1 1 83 3 492 1 1 1 83 3 490 1 1 1 83 3 488 1 1 1 83 3 335
 1 1 1 83 3 325 1 1 1 17 60 0 285 57 282 58 49 247 0 287 -83 3 288 1 1 1 83 3 28
4 1 1 1 83 3 159 1 1 1 19 17 112 0 1 0 9 5 S0 74 4 CI16 index_map_offset0 0 1 dC
CZ20 15 6 0 0 413 495 496 497 13 2 0 0 0 0 0 0 0 0 0 0 0 0 0 0 81 1 495 887 498
 1 0 496 0 0 499 81 1 496 890 500 1 495 497 0 0 501 81 1 497 891 502 1 496 13 0
 0 503 81 1 13 892 504 1 497 2 0 0 505 80 1 504 500 506 9000 0 0 0 0 3 5 0 0 0 F
FTFFFFFFFFFFF3 84 255 16 505 _06_bar_bottom_479 13 506 AdamsPartName80 1 502 504
 507 9000 0 0 0 0 3 5 0 0 0 FFTFFFFFFFFFFF3 84 6 503 PSMAR379 12 507 AdamsRFMNam
e80 1 500 508 509 9000 0 0 0 0 3 5 0 0 0 FFTFFFFFFFFFFF1 82 255 1 501 17 79 12 5
09 UG2/ADAMS_ID80 1 498 510 511 8017 0 0 0 0 0 0 0 0 0 TTTTTTTTTTTTTF3 84 15 499
 01_bar_joint_up79 13 511 SDL/TYSA_NAME80 1 12 502 512 9000 0 0 0 0 3 5 0 0 0 FF
TFFFFFFFFFFF3 84 7 14 SOLID1279 15 512 AdamsObjectName1 0 
