**ABCDEFGHIJKLMNOPQRSTUVWXYZabcdefghijklmnopqrstuvwxyz**************************
**PARASOLID !"#$%&'()*+,-./:;<=>?@[\]^_`{|}~0123456789**************************
**PART1;
MC=unknown;
MC_MODEL=unknown;
MC_ID=unknown;
OS=unknown;
OS_RELEASE=unknown;
FRU=sdl_parasolid_customer_support;
APPL=parasolid_acceptance_tests;
SITE=unknown;
USER=unknown;
FORMAT=text;
GUISE=transmit;
KEY=Controls_Plant_1_Tensegrity__06_bar_bottom_10_SOLID50;
FILE=Controls_Plant_1_Tensegrity__06_bar_bottom_10_SOLID50.xmt_txt;
DATE=unknown;
**PART2;
SCH=SCH_3101206_31100;
USFLD_SIZE=1;
**PART3;
**END_OF_HEADER*****************************************************************
T51 : TRANSMIT FILE created by modeller version 310120623 SCH_3101206_31100_1300
6222 0 12 34 CCCCCCI4 mesh1006 0 I8 polyline1008 0 CCCCCCCDI5 owner1040 0 CCCCCC
I13 boundary_mesh1006 0 I17 boundary_polyline1008 0 CCCA16 index_map_offset0 0 1
 dA9 index_map82 0 A17 node_id_index_map82 0 A20 schema_embedding_map82 0 A5 chi
ld12 0 A14 lowest_node_id0 0 1 dA16 mesh_offset_data206 0 Z1 1009 2 3 0 0 0 0 0
 0 1e3 1e-8 0 4 0 1 0 1 1 5 6 7 8 0 0 9 10 11 0 0 0 0 0 0 0 81 255 1 2 976 12 1
 13 0 0 0 14 70 11 CI9 list_type0 0 1 uI10 notransmit0 0 1 lCCCDCCDI12 finger_in
dex0 0 1 dI12 finger_block1012 0 CZ3 0 4 T1 0 0 7 20 1 15 15 13 255 5 99 0 1 0 1
6 0 0 17 0 50 255 6 94 0 18 19 0 0 +-.00600000000000259 .1688689260960675 .05735
21514130138 152730663557187e-30 .846822385188561 .53187578243755 1 -581537480965
741e-31 -200468907829434e-30 38 12 CCCCCCCCCCCA17 intersection_data204 0 Z7 637
 0 20 21 0 0 +22 23 24 25 25 26 29 255 8 137 0 11 27 0 .00499999999999741 .17818
3972333142 .0632027850198269 19 8 CCCCCCCA5 owner12 0 Z9 33 0 1 17 0 28 V0 16 25
5 10 82 29 ?30 0 31 32 0 0 1 18 255 11 135 0 33 0 34 8 ?1 17 255 33 0 35 36 37 1
1 38 39 0 40 -18 34 30 0 41 11 42 27 ?1 17 41 0 43 44 45 34 46 47 0 48 +18 42 27
 0 45 34 49 50 ?1 29 27 32 0 34 50 8 .00599999999999741 .1688689260960675 .05735
21514130138 29 50 29 0 42 51 27 .00599999999999741 .1790307947183305 .0637346608
022644 29 51 26 0 49 52 50 -.00600000000000259 .1790307947183305 .06373466080226
44 18 49 24 0 53 42 54 51 ?1 29 52 23 0 54 55 51 -.00600000000000259 .1688689260
960675 .0573521514130138 18 54 21 0 56 49 57 52 ?1 29 55 232 0 58 59 52 .0049999
9999999741 .1728652145087665 .0716710088717125 18 58 183 0 38 60 61 55 ?1 29 59
 233 0 61 62 55 -.00500000000000259 .1728652145087665 .0716710088717125 18 61 18
1 0 63 58 64 59 ?1 29 62 234 0 64 65 59 -.00500000000000259 .1643969906568805 .0
66352251047337 18 64 188 0 66 61 67 62 ?1 29 65 235 0 57 68 62 .0049999999999974
1 .169715748481256 .0578840271954514 18 57 187 0 36 54 69 65 ?1 29 68 237 0 69 7
0 65 -.00500000000000259 .178183972333142 .0632027850198269 18 69 185 0 71 57 60
 68 ?1 29 70 238 0 60 72 68 -.00500000000000259 .169715748481256 .05788402719545
14 18 60 182 0 73 69 58 70 ?1 29 72 377 0 67 74 70 .00499999999999741 .164396990
6568805 .066352251047337 18 67 318 0 75 64 76 72 ?1 29 74 381 0 76 77 72 -.00600
000000000259 .1619545409243795 .0683608424204651 18 76 327 0 78 67 79 74 ?1 29 7
7 584 0 79 80 74 -.00600000000000259 .173712036893955 .07220288465415 18 79 553
 0 81 76 82 77 ?1 29 80 585 0 82 83 77 .00599999999999741 .173712036893955 .0722
0288465415 18 82 554 0 84 79 85 80 ?1 29 83 587 0 85 86 80 .00599999999999741 .1
619545409243795 .0683608424204651 18 85 555 0 87 82 88 83 ?1 29 86 588 0 88 0 83
 -258926012081856e-29 .166280235384896 .0750345495937128 18 88 552 0 89 85 0 86
 ?1 17 89 0 90 89 89 88 0 0 0 0 ?15 255 90 567 0 89 91 0 14 255 91 563 92 ?93 94
 95 5 22 -0 0 93 94 28 81 1 92 965 96 91 0 0 97 98 99 14 93 757 98 ?100 91 101 5
 102 -0 0 100 91 28 14 94 556 97 ?91 103 104 5 105 +0 0 91 103 28 15 95 635 0 10
6 91 107 68 255 22 576 0 91 105 108 109 +110 -258991327654071e-29 .1678332889091
67 .0702818635373076 -1306311444308506e-31 .3106107048542535 -.950537211281044 -
258926012081856e-29 .166280235384896 .0750345495937128 ?0 ?242359574678694e-31 -
.950537211281044 -.310610704854253 0 13 28 34 0 0 0 0 0 0 9 16 14 16 453 111 ?11
2 0 113 5 19 -0 0 112 0 28 81 1 111 954 96 16 0 0 0 114 115 14 112 447 114 ?116
 16 117 5 118 -0 0 116 16 28 15 113 451 0 119 16 0 50 19 93 0 16 118 6 0 +-.0060
0000000000259 .1790307947183305 .0637346608022644 1 642631412008652e-31 -1235807
906546046e-31 -817037389245309e-32 -.846822385188561 -.53187578243755 50 118 92
 0 112 120 19 0 +-.00600000000000259 .1790307947183305 .0637346608022644 -804505
187248201e-31 -.846822385188561 -.53187578243755 -1 -3054696552145525e-33 162024
8492420195e-31 50 120 91 0 116 121 118 0 +.00599999999999741 .1790307947183305 .
0637346608022644 -1 -642631412008652e-31 1235807906546046e-31 817037389245309e-3
2 .846822385188561 .53187578243755 14 116 438 122 ?123 112 124 5 120 -0 0 123 11
2 28 50 121 3 0 123 125 120 0 +-259143827898441e-29 .173949860407199 .0605434061
076391 -132608908147815e-30 .53187578243755 -.846822385188561 1 642631412008652e
-31 -1235807906546046e-31 14 123 150 126 ?18 116 43 5 121 +0 0 18 116 28 50 125
 213 0 127 128 121 0 +.00499999999999741 .169715748481256 .0578840271954514 8170
37389245309e-32 .846822385188561 .53187578243755 1 642631412008652e-31 -12358079
06546046e-31 14 127 189 129 ?130 18 131 5 125 +0 0 130 18 28 50 128 214 0 130 13
2 125 0 +-.00500000000000259 .178183972333142 .0632027850198269 1 64263141200865
2e-31 -1235807906546046e-31 -817037389245309e-32 -.846822385188561 -.53187578243
755 14 130 193 133 ?134 127 135 5 128 +0 0 134 127 28 50 132 215 0 134 136 128 0
 +.00499999999999741 .178183972333142 .0632027850198269 -817037389245309e-32 -.8
46822385188561 -.53187578243755 -1 -642631412008652e-31 1235807906546046e-31 14
 134 197 137 ?138 130 139 5 132 +0 0 138 130 28 50 136 216 0 138 108 132 0 +.004
99999999999741 .178183972333142 .0632027850198269 -1 -642631412008652e-31 123580
7906546046e-31 817037389245309e-32 .846822385188561 .53187578243755 14 138 201 1
40 ?103 134 35 5 136 +0 0 103 134 28 50 108 360 0 103 22 136 0 +.005999999999997
41 .173712036893955 .07220288465415 -132608908147815e-30 .53187578243755 -.84682
2385188561 1 642631412008652e-31 -1235807906546046e-31 14 103 337 141 ?94 138 14
2 5 108 +0 0 94 138 28 81 1 141 963 96 103 0 0 140 97 143 15 142 340 0 144 103 0
 17 144 0 142 145 146 67 37 147 0 0 +17 145 0 142 148 144 64 149 150 0 0 +17 146
 0 142 144 148 58 151 152 0 0 +17 37 0 35 33 75 58 144 147 0 146 -16 147 165 153
 ?144 154 152 155 0 0 1 81 1 153 993 96 147 0 0 156 157 158 16 154 169 156 ?73 1
59 147 160 0 0 1 16 152 161 157 ?146 147 161 162 0 0 1 30 255 155 223 0 147 162
 163 0 +.00499999999999741 .1728652145087665 .0716710088717125 -817037389245309e
-32 -.846822385188561 -.53187578243755 30 162 224 0 152 164 155 0 +.004999999999
99741 .1728652145087665 .0716710088717125 1 642631412008652e-31 -123580790654604
6e-31 30 163 222 0 165 155 166 0 +.00499999999999741 .169715748481256 .057884027
1954514 132608908147815e-30 -.53187578243755 .846822385188561 16 165 156 167 ?75
 39 168 163 0 0 1 30 166 221 0 39 163 169 0 +.00499999999999741 .178183972333142
 .0632027850198269 132608908147815e-30 -.53187578243755 .846822385188561 16 39 1
68 170 ?38 171 165 166 0 0 1 30 169 220 0 171 166 172 0 +-.00500000000000259 .17
8183972333142 .0632027850198269 132608908147815e-30 -.53187578243755 .8468223851
88561 16 171 164 173 ?63 174 39 169 0 0 1 30 172 219 0 174 169 175 0 +-.00500000
000000259 .169715748481256 .0578840271954514 132608908147815e-30 -.5318757824375
5 .846822385188561 16 174 160 176 ?177 178 171 172 0 0 1 30 175 7 0 178 172 179
 0 +-.00600000000000259 .1688689260960675 .0573521514130138 -1 581537480965741e-
31 200468907829434e-30 16 178 5 180 ?44 181 174 175 0 0 1 30 179 11 0 181 175 18
2 0 +-.00600000000000259 .1790307947183305 .0637346608022644 817037389245309e-32
 .846822385188561 .53187578243755 16 181 9 183 ?53 184 178 179 0 0 1 30 182 15 0
 184 179 185 0 +-.00600000000000259 .1790307947183305 .0637346608022644 1 305469
6552145525e-33 -1620248492420195e-31 16 184 13 186 ?45 47 181 182 0 0 1 30 185 1
9 0 47 182 187 0 +.00599999999999741 .1790307947183305 .0637346608022644 -817037
389245309e-32 -.846822385188561 -.53187578243755 16 47 17 188 ?41 189 184 185 0
 0 1 30 187 95 0 189 185 190 0 +.00599999999999741 .1688689260960675 .0573521514
130138 132608908147815e-30 -.53187578243755 .846822385188561 16 189 79 191 ?192
 193 47 187 0 0 1 30 190 96 0 193 187 194 0 +.00599999999999741 .179030794718330
5 .0637346608022644 132608908147815e-30 -.53187578243755 .846822385188561 16 193
 80 195 ?196 31 189 190 0 0 1 30 194 97 0 31 190 32 0 +-.00600000000000259 .1790
307947183305 .0637346608022644 132608908147815e-30 -.53187578243755 .84682238518
8561 16 31 81 197 ?198 10 193 194 0 0 1 30 32 98 0 10 194 199 0 +-.0060000000000
0259 .1688689260960675 .0573521514130138 132608908147815e-30 -.53187578243755 .8
46822385188561 38 199 616 0 200 32 201 0 +22 102 202 203 203 204 16 200 750 205
 ?206 207 208 199 0 0 1 38 201 623 0 207 199 21 0 +22 209 210 211 211 212 51 255
 102 781 0 93 23 105 213 +-.00500000000000259 .176131416202694 .0782536578844225
 -1306311444308506e-31 .3106107048542535 -.950537211281044 .0015 -24235957467869
4e-31 .950537211281044 .310610704854253 40 255 20 202 0 1 20 .000121078331612256
8 .394746200992838 ??-.00500000000000259 .17845685021085 .0759665134105573 -.004
431713387963575 .1782966628496355 .0760967292379482 -.00402336982615738 .1779995
163774525 .0762022353857852 -.003691823022923415 .1775425007856785 .076298332652
9464 -.00351503867322984 .176971364967871 .0763653447013752 -.00354059212576485
 .1763753263589375 .0763913862940669 -.003759573878927915 .1758574044213405 .076
3768611620118 -.004115000846464585 .1754852577011305 .0763319347224157 -.0045436
0901932526 .175276988079484 .0762681580590451 -.00500156201608591 .1752266535769
9 .0761932374494789 -.00545868919780499 .1753289420914925 .0761115371718175 -.00
588342271440043 .175583849939831 .0760265171059619 -.00623299526657629 .17598788
0629498 .0759427196236008 -.00645279636967497 .17651846566678 .0758672467168603
 -.00648934960508983 .1771173741163835 .075810862759248 -.00632014287408216 .177
68666658533 .0757871375888219 -.0059857878814952 .178120957237785 .0758051013499
719 -.00557211404456274 .1783725076934075 .0758595630152325 -.00513683016270593
 .178459464404105 .0759383792995073 -.00500000000000259 .17845685021085 .0759665
134105573 41 3 CI8 term_use0 0 1 cCZ1 203 H?-.00500000000000259 .17845685021085
 .0759665134105573 204 2 17 INTERSECTION_DATA17 Intersection data7 uv_type0 0 1
 u6 values0 1 1 fT80 204 4 .708259191794688 2.742732723534485 0 .002896320626350
06 .683720314160835 2.78097921444196 .388561716994278 .002722789727741735 .65612
3198936286 2.805106681191895 .709015413807986 .002530205333034065 .6220515570022
63 2.82044444565117 1.059514403069732 .002296907369604595 .585910425886588 2.820
70923560036 1.429074205702946 .002055809025032175 .553476399196495 2.80184675443
2685 1.80396733304241 .00184591954969648 .530090157154808 2.76549316932871 2.167
92986617833 .00169885413011718 .518265165993516 2.719076157510695 2.510534511728
77 .00162596562765003 .517600129064648 2.671150218859495 2.832430464744 .0016218
96945415775 .526639199876373 2.627861078856155 3.142633997833545 .00167747733740
2135 .544164123275438 2.59320538733565 3.45236365742504 .001786908399079365 .569
207539437452 2.570233138694305 3.7713497604976 .001946900241825925 .600465519882
938 2.561399316620065 4.106501211638015 .002152049124322125 .635535718389772 2.5
68108192560935 4.46085156094372 .00238859432303781 .670220962851334 2.5898124280
31615 4.83162556462176 .002628216748542075 .698573995034901 2.623059272225365 5.
20712253332248 .00282759674092379 .715154132123115 2.661477350254775 5.566098236
01232 .002945416843166865 .718849162539251 2.69879250257116 5.89186487497509 .00
29717832680756 .712131249955612 2.732787165423285 6.1918382139073 .0029238751422
19055 .708259191794688 2.742732723534485 6.28318530717958 .002896320626350065 51
 23 784 0 214 215 102 216 +.00499999999999741 .176131416202694 .0782536578844225
 -1306311444308506e-31 .3106107048542535 -.950537211281044 .0015 -24235957467869
4e-31 .950537211281044 .310610704854253 50 105 577 0 94 102 22 0 +-2589922093665
35e-29 .1681790976141545 .0703948647794748 -1306311444308506e-31 .31061070485425
35 -.950537211281044 -242359574678694e-31 .950537211281044 .310610704854253 141
 255 213 199 213 213 102 14 214 685 217 ?0 218 219 5 23 -0 0 0 218 28 51 215 787
 0 218 209 23 220 +.00999999999999741 .159021746399635 .072662665197046 -1306311
444308506e-31 .3106107048542535 -.950537211281044 .0015 -242359574678694e-31 .95
0537211281044 .310610704854253 141 216 7 216 216 23 14 218 709 221 ?214 100 222
 5 215 -0 0 214 100 28 51 209 790 0 100 0 215 223 +-.0100000000000026 .159021746
399635 .072662665197046 -1306311444308506e-31 .3106107048542535 -.95053721128104
4 .0015 -242359574678694e-31 .950537211281044 .310610704854253 141 220 21 220 22
0 215 38 21 630 0 224 201 7 0 +22 215 225 226 226 227 16 224 702 228 ?229 20 207
 21 0 0 1 40 20 225 0 1 20 .000119864690545316 .380142744490503 ??.0099999999999
9741 .161166240143709 .0709292378080762 .01053211678267906 .161148950440043 .070
6680730104738 .010981282487291 .160980026378576 .0703223709525119 .0113270990925
292 .160661946338628 .0698941739296016 .0114936648542949 .1602205855116185 .0694
373204174588 .01146081867137242 .159822390068551 .069115967537479 .0113065718923
2904 .1594725219491155 .0689111010569183 .011040101003212 .1591448155663125 .068
8063584279763 .0107198525719683 .1588959340381965 .0688109175366221 .01033536751
70877 .158710399031587 .0689085071296174 .00987401332931469 .158609969864631 .06
91106600056288 .00936805629928079 .158648759145247 .0694243780094227 .0089060586
1219105 .1588697293741255 .0698237339731746 .00859607624685805 .1592560671443035
 .0702450624603538 .00850036126811646 .1597261368349915 .0706130574134193 .00860
46254611563 .160183748813191 .070878644720905 .00885272667734939 .16057099350443
45 .0710326427738338 .00919656898059448 .160869876382689 .0710850367702102 .0096
0806174312837 .161074352295978 .0710426674343834 .00999999999999741 .16116624014
3709 .0709292378080762 41 1 226 H?.00999999999999741 .161166240143709 .070929237
8080762 204 80 227 4 .624544263811734 5.26276279081891 0 .002313789949671755 .65
9940776151119 5.24681666510487 .3626408036386625 .00255666644102724 .69930866028
7466 5.24695794205465 .713108948221088 .002832799489337355 .742449898619514 5.26
189765328454 1.08592027575626 .00314101762796496 .783514676263321 5.290450439539
97 1.478857143469604 .00343818249378869 .808482160026145 5.32042929651565 1.7998
613889223 .003619956596920835 .820281479369722 5.34980956702325 2.08426093890830
5 .00370601702685408 .819976203744029 5.38074288381337 2.37539472110091 .0037037
89682723265 .808783122073746 5.40817068139936 2.64104997341022 .0036221508134317
5 .788132852205286 5.43421295798677 2.916108439779695 .00347175911467787 .757337
060025069 5.45870573524814 3.225682834846865 .00324841090932536 .717514977111736
 5.47756217889745 3.57646628760653 .00296225863866344 .673523662341662 5.4839245
2539921 3.958882552481725 .00265129165311405 .632929360994268 5.47203718414308 4
.35253760158105 .00237080389498415 .602713604421622 5.44213775356283 4.734336876
91612 .002167019676487075 .586047276664392 5.4012886969738 5.08809255230311 .002
05670823697626 .582068505166941 5.35807966656501 5.4123785886766 .00203060970370
0825 .588621548685664 5.31812863349341 5.71794272831241 .00207364348198077 .6042
74381276597 5.28458731538688 6.01882466911936 .00217742951985385 .62454426381173
4 5.26276279081891 6.28318530717959 .002313789949671755 81 1 228 1003 96 224 0 0
 230 231 232 17 229 0 107 229 229 0 233 224 0 0 +16 20 678 230 ?106 234 224 7 0
 0 1 16 207 726 231 ?235 224 200 201 0 0 1 81 1 231 1004 96 207 0 0 228 205 236
 17 235 0 237 235 235 0 238 207 0 0 +15 237 621 0 235 91 239 17 238 0 240 238 23
8 0 235 207 0 0 -15 240 737 0 238 100 0 14 100 733 241 ?218 93 242 5 209 -0 0 21
8 93 28 81 1 241 967 96 100 0 0 98 221 243 15 242 736 0 244 100 240 17 244 0 242
 244 244 0 245 246 0 0 +17 245 0 247 245 245 0 244 246 0 0 -16 246 730 248 ?244
 208 249 250 0 0 1 81 1 248 1007 96 246 0 0 251 252 253 16 208 754 251 ?254 200
 246 255 0 0 1 16 249 706 252 ?256 246 257 258 0 0 1 31 255 250 799 0 246 0 258
 0 +-.0100000000000026 .1605747999239065 .0679099791406407 -1306311444308506e-31
 .3106107048542535 -.950537211281044 -242359574678694e-31 .950537211281044 .3106
10704854253 .0015 31 258 797 0 249 250 259 0 +.00999999999999741 .16057479992390
65 .0679099791406407 -1306311444308506e-31 .3106107048542535 -.950537211281044 -
242359574678694e-31 .950537211281044 .310610704854253 .0015 31 259 795 0 257 258
 255 0 +.00499999999999741 .177684469726965 .0735009718280173 -1306311444308506e
-31 .3106107048542535 -.950537211281044 -242359574678694e-31 .950537211281044 .3
10610704854253 .0015 16 257 682 260 ?261 249 0 259 0 0 1 31 255 793 0 208 259 11
0 0 +-.00500000000000259 .177684469726965 .0735009718280173 -1306311444308506e-3
1 .3106107048542535 -.950537211281044 -242359574678694e-31 .950537211281044 .310
610704854253 .0015 134 255 110 583 0 1 255 262 263 +264 265 31 262 582 0 234 110
 266 0 +-258991327654071e-29 .167833288909167 .0702818635373076 -130631144430850
6e-31 .3106107048542535 -.950537211281044 -242359574678694e-31 .950537211281044
 .310610704854253 .015 141 263 22 263 263 110 136 255 264 3 4 3 2 5 FFF1 267 268
 269 135 255 265 2 0 45 255 12 267 -258926012081856e-29 .166280235384896 .075034
5495937128 -2589067044139435e-30 .160150405806561 .0733468376399469 -25892563565
76135e-30 .1532620056077355 .0679671069149097 -2589549737178695e-30 .15357523073
99515 .0656227029644938 127 255 2 268 4 4 128 255 2 269 0 1 16 234 546 270 ?271
 272 20 262 0 0 1 30 266 525 0 273 262 274 0 +-.00600000000000259 .1681790976141
545 .0703948647794748 242359574678694e-31 -.950537211281044 -.310610704854253 16
 273 471 275 ?78 276 272 266 0 0 1 30 274 522 0 272 266 277 0 +.0059999999999974
1 .1681790976141545 .0703948647794748 242359574678694e-31 -.950537211281044 -.31
0610704854253 16 272 457 278 ?279 273 234 274 0 0 1 30 277 517 0 276 274 280 0 +
-.00600000000000259 .173712036893955 .07220288465415 1 642631412008652e-31 -1235
807906546046e-31 16 276 460 281 ?282 283 273 277 0 0 1 30 280 369 0 283 277 160
 0 +-.00600000000000259 .1619545409243795 .0683608424204651 -1 581537480965741e-
31 200468907829434e-30 16 283 307 284 ?285 150 276 280 0 0 1 30 160 230 0 154 28
0 286 0 +.00499999999999741 .169715748481256 .0578840271954514 -1 -6426314120086
52e-31 1235807906546046e-31 30 286 229 0 159 160 287 0 +-.00500000000000259 .178
183972333142 .0632027850198269 817037389245309e-32 .846822385188561 .53187578243
755 16 159 172 288 ?71 289 154 286 0 0 1 30 287 228 0 289 286 290 0 +.0049999999
9999741 .178183972333142 .0632027850198269 1 642631412008652e-31 -12358079065460
46e-31 16 289 175 291 ?40 168 159 287 0 0 1 30 290 227 0 168 287 292 0 +.0049999
9999999741 .178183972333142 .0632027850198269 -817037389245309e-32 -.84682238518
8561 -.53187578243755 16 168 178 293 ?36 165 289 290 0 0 1 30 292 226 0 150 290
 164 0 +.00499999999999741 .1643969906568805 .066352251047337 -1 -64263141200865
2e-31 1235807906546046e-31 16 150 153 294 ?145 161 283 292 0 0 1 30 164 225 0 16
1 292 162 0 +-.00500000000000259 .1728652145087665 .0716710088717125 81703738924
5309e-32 .846822385188561 .53187578243755 16 161 157 295 ?148 152 150 164 0 0 1
 81 1 295 995 96 161 0 0 157 294 296 17 148 0 142 146 145 61 66 161 0 0 +17 66 0
 135 297 63 64 148 161 0 177 -15 135 196 0 66 130 0 17 297 0 135 71 66 60 177 17
4 0 298 -17 63 0 135 66 71 61 299 171 0 151 +17 177 0 131 149 73 64 297 174 0 14
5 +15 131 192 0 149 127 0 17 149 0 131 300 177 67 145 150 0 144 -17 73 0 131 177
 300 60 301 154 0 297 +17 300 0 131 73 149 57 75 165 0 301 -17 301 0 302 303 298
 57 73 154 0 0 -15 302 133 0 298 123 0 17 303 0 302 304 301 11 36 168 0 0 -17 29
8 0 302 301 304 60 71 159 0 0 -17 304 0 302 298 303 69 40 289 0 0 -17 71 0 135 6
3 297 69 298 159 0 299 +17 299 0 139 40 151 69 63 171 0 304 -15 139 200 0 151 13
4 0 17 40 0 139 38 299 11 304 289 0 303 +17 151 0 139 299 38 61 146 152 0 148 -1
7 38 0 139 151 40 58 33 39 0 37 +17 36 0 35 75 33 57 303 168 0 300 +15 35 204 0
 37 138 0 17 75 0 35 37 36 67 300 165 0 149 +80 255 1 96 0 305 8001 0 0 0 0 3 5
 0 0 0 FFFFTFTFFFFFFF2 81 1 157 994 96 152 0 0 153 295 306 81 1 294 996 96 150 0
 0 295 284 307 83 255 3 296 .988235294117647 .984313725490196 1 81 1 284 997 96
 283 0 0 294 281 308 83 3 307 .988235294117647 .984313725490196 1 81 1 281 998 9
6 276 0 0 284 275 309 83 3 308 .988235294117647 .984313725490196 1 81 1 275 999
 96 273 0 0 281 278 310 83 3 309 .988235294117647 .984313725490196 1 81 1 278 10
00 96 272 0 0 275 270 311 83 3 310 .988235294117647 .984313725490196 1 81 1 270
 1001 96 234 0 0 278 230 312 83 3 311 .988235294117647 .984313725490196 1 81 1 2
30 1002 96 20 0 0 270 228 313 83 3 312 .988235294117647 .984313725490196 1 83 3
 313 .988235294117647 .984313725490196 1 83 3 306 .988235294117647 .984313725490
196 1 79 255 15 305 SDL/TYSA_COLOUR81 1 293 989 96 168 0 0 167 291 314 81 1 167
 988 96 165 0 0 170 293 315 81 1 291 990 96 289 0 0 293 288 316 83 3 314 .988235
294117647 .984313725490196 1 81 1 288 991 96 159 0 0 291 156 317 83 3 316 .98823
5294117647 .984313725490196 1 81 1 156 992 96 154 0 0 288 153 318 83 3 317 .9882
35294117647 .984313725490196 1 83 3 318 .988235294117647 .984313725490196 1 81 1
 170 987 96 39 0 0 173 167 319 83 3 315 .988235294117647 .984313725490196 1 81 1
 173 986 96 171 0 0 176 170 320 83 3 319 .988235294117647 .984313725490196 1 81
 1 176 985 96 174 0 0 180 173 321 83 3 320 .988235294117647 .984313725490196 1 8
1 1 180 984 96 178 0 0 183 176 322 83 3 321 .988235294117647 .984313725490196 1
 81 1 183 983 96 181 0 0 186 180 323 83 3 322 .988235294117647 .984313725490196
 1 81 1 186 982 96 184 0 0 188 183 324 83 3 323 .988235294117647 .98431372549019
6 1 81 1 188 981 96 47 0 0 191 186 325 83 3 324 .988235294117647 .98431372549019
6 1 81 1 191 980 96 189 0 0 195 188 326 83 3 325 .988235294117647 .9843137254901
96 1 81 1 195 979 96 193 0 0 197 191 327 83 3 326 .988235294117647 .984313725490
196 1 81 1 197 978 96 31 0 0 29 195 328 83 3 327 .988235294117647 .9843137254901
96 1 81 1 29 977 96 10 0 0 217 197 329 83 3 328 .988235294117647 .98431372549019
6 1 81 1 217 969 96 214 0 0 221 29 330 83 3 329 .988235294117647 .98431372549019
6 1 81 1 221 968 96 218 0 0 241 217 331 83 3 330 .988235294117647 .9843137254901
96 1 83 3 331 .988235294117647 .984313725490196 1 17 285 0 332 333 192 76 87 283
 0 0 +15 332 89 0 192 18 0 17 333 0 332 334 285 54 30 10 0 0 -17 192 0 332 285 3
34 85 48 189 0 0 +17 87 0 335 84 78 85 285 283 0 279 -15 335 562 0 78 94 0 17 84
 0 335 81 87 82 279 272 0 282 -17 78 0 335 87 81 76 119 273 0 30 +17 279 0 124 4
8 196 85 84 272 0 192 +15 124 436 0 279 116 0 17 48 0 124 46 279 34 192 189 0 33
4 -17 196 0 124 279 46 82 336 193 0 0 +17 46 0 124 196 48 42 41 47 0 0 -17 336 0
 117 337 282 42 196 193 0 46 -15 117 445 0 282 112 0 17 337 0 117 198 336 49 45
 184 0 0 -17 282 0 117 336 198 82 81 276 0 196 +17 198 0 117 282 337 79 338 31 0
 0 +17 81 0 335 78 84 79 282 276 0 119 -17 119 0 113 338 30 79 78 273 0 198 -17
 338 0 113 56 119 49 198 31 0 337 -17 30 0 113 119 56 76 333 10 0 285 +17 56 0 1
13 30 338 54 53 181 0 44 -17 53 0 43 45 44 49 56 181 0 338 +17 44 0 43 53 41 54
 334 178 0 333 +15 43 4 0 44 123 302 17 334 0 332 192 333 34 44 178 0 0 -17 45 0
 43 41 53 42 337 184 0 336 +14 18 90 339 ?127 123 332 5 6 -0 0 127 123 28 81 1 3
39 958 96 18 0 0 126 129 340 81 1 126 957 96 123 0 0 122 339 341 81 1 129 959 96
 127 0 0 339 133 342 83 3 340 .988235294117647 .984313725490196 1 81 1 133 960 9
6 130 0 0 129 137 343 83 3 342 .988235294117647 .984313725490196 1 81 1 137 961
 96 134 0 0 133 140 344 83 3 343 .988235294117647 .984313725490196 1 81 1 140 96
2 96 138 0 0 137 141 345 83 3 344 .988235294117647 .984313725490196 1 83 3 345 .
988235294117647 .984313725490196 1 81 1 122 956 96 116 0 0 114 126 346 83 3 341
 .988235294117647 .984313725490196 1 81 1 114 955 96 112 0 0 111 122 347 83 3 34
6 .988235294117647 .984313725490196 1 83 3 347 .988235294117647 .984313725490196
 1 17 271 0 348 271 271 0 349 234 0 0 +15 348 561 0 271 94 335 17 349 0 350 349
 349 0 271 234 0 0 -15 350 566 0 349 91 90 81 1 260 1009 96 257 0 0 252 0 351 17
 261 0 219 261 261 0 352 257 0 0 +15 219 688 0 261 214 353 17 352 0 104 352 352
 0 261 257 0 0 -15 104 670 0 352 94 354 15 354 661 0 355 94 247 17 355 0 354 355
 355 0 256 249 0 0 -15 247 652 0 245 94 356 15 356 643 0 357 94 348 17 357 0 356
 357 357 0 254 208 0 0 -17 254 0 101 254 254 0 357 208 0 0 +15 101 760 0 254 93
 358 15 358 761 0 359 93 0 17 359 0 358 359 359 0 206 200 0 0 -17 206 0 239 206
 206 0 359 200 0 0 +15 239 614 0 206 91 350 17 256 0 222 256 256 0 355 249 0 0 +
15 222 712 0 256 218 360 15 360 713 0 233 218 0 17 233 0 360 233 233 0 229 224 0
 0 -15 353 689 0 361 214 0 17 361 0 353 361 361 0 106 20 0 0 -17 106 0 95 106 10
6 0 361 20 0 0 +81 1 252 1008 96 249 0 0 248 260 362 83 3 351 .988235294117647 .
984313725490196 1 83 3 362 .988235294117647 .984313725490196 1 81 1 251 1006 96
 208 0 0 205 248 363 81 1 205 1005 96 200 0 0 231 251 364 83 3 363 .988235294117
647 .984313725490196 1 83 3 364 .988235294117647 .984313725490196 1 83 3 253 .98
8235294117647 .984313725490196 1 81 1 98 966 96 93 0 0 92 241 365 83 3 243 .9882
35294117647 .984313725490196 1 83 3 365 .988235294117647 .984313725490196 1 83 3
 236 .988235294117647 .984313725490196 1 15 107 628 0 229 91 237 83 3 232 .98823
5294117647 .984313725490196 1 141 223 201 223 223 209 40 20 210 0 1 20 .00012105
66386741244 .3993458604480025 ??-.0100000000000026 .161166240143709 .07092923780
80762 -.00951927987462872 .1610405890983785 .0710590429771553 -.0090746221148659
2 .160781421579406 .0710783789060825 -.00874854703067496 .160438793249222 .07098
85626435091 -.00855804623928589 .1600601895291785 .0708152196911389 -.0085003605
5382776 .1596695632401305 .0705743255206732 -.00858150078873553 .159288976477248
5 .0702747209373517 -.00881290491327045 .158950901092355 .0699273659226965 -.009
19905273966319 .158703258373357 .0695541911886787 -.00971889704711905 .158604363
826541 .0691963091380946 -.01030593200951894 .1587002201813465 .0689189182957275
 -.01074816676746672 .158913904741766 .0688070759588215 -.0111339165975318 .1592
42174631904 .0688267414514589 -.01136568455443064 .1595777007877165 .06896394199
64079 -.0114803769364897 .159906470203088 .0691766365619708 -.01148906153654422
 .160255440787345 .0694694307965827 -.01135608180095472 .160617670751834 .069842
8660708634 -.0110423414941576 .16094108806963 .0702617888816006 -.01055712470659
31 .1611438243257505 .0706523852376899 -.0100000000000026 .161166240143709 .0709
292378080762 41 1 211 H?-.0100000000000026 .161166240143709 .0709292378080762 20
4 80 212 4 .624544263811734 1.020422516360676 0 .002313789949671755 .60036445288
3493 .992372190704551 .3262362593063455 .00215137674648987 .585406228951863 .952
46246076983 .664821413394165 .00205249702078646 .58219632771646 .909410713086284
 .986865451959495 .002031446693399135 .589376486439089 .869798422936864 1.291691
74595264 .002078617251597145 .605597320826744 .836763328080477 1.592722514195185
 .00218626341762963 .630291959100752 .812783364644816 1.90195533140083 .00235283
4400070155 .663012083568677 .800354619159696 2.228502191335445 .0025779984334292
75 .702552823649053 .801669602780451 2.57830968746768 .00285579442492317 .745815
469179188 .817746061031478 2.953076067892885 .003165256926360165 .78633725512188
7 .847206397154381 3.34698847067262 .00345870125402949 .810049514756335 .8771855
13242774 3.663780780099625 .00363138426898369 .821465429775891 .912083298167911
 3.99868820559219 .003714655628411865 .81787494166856 .942538203342935 4.2859787
73405105 .00368845942078379 .804153551877097 .969380619313743 4.55045896110204 .
003588404621422025 .780804078056311 .995187131641285 4.8332292816876 .0034184868
05324405 .747310942461884 1.01871270287952 5.15402283217438 .00317603518570494 .
705722125364588 1.034908862535964 5.51491236274682 .002878290346487415 .66185913
3227067 1.036723410238236 5.902651148164 .002569986026846825 .624544263811734 1.
020422516360676 0 .002313789949671755 83 3 158 .988235294117647 .984313725490196
 1 81 1 97 964 96 94 0 0 141 92 366 83 3 143 .988235294117647 .984313725490196 1
 83 3 366 .988235294117647 .984313725490196 1 83 3 115 .988235294117647 .9843137
25490196 1 141 109 199 367 368 22 141 367 7 369 109 22 141 368 201 109 369 22 14
1 369 21 368 367 22 83 3 99 .988235294117647 .984313725490196 1 19 17 100 0 1 0
 9 5 S0 40 20 24 0 1 20 .000109689959490311 .367725318652249 ??.0049999999999974
1 .17845685021085 .0759665134105573 .00545105867874238 .17841219893636 .07587964
62515868 .00586519970659004 .1782163127593155 .0758183153906008 .006185078063678
22 .1779038789902215 .0757900204269465 .00640385758289352 .1774919833278995 .075
7911183650878 .00649875441682802 .1769908330718885 .0758204144840446 .0064313003
3961713 .1764358580644145 .075877254241689 .00617581911951194 .1759017439184995
 .0759579946250266 .0057527906337929 .175485282256788 .0760539636653119 .0052359
4244064918 .175259666674612 .0761523229166779 .00471670435557505 .17523957783117
75 .076240593363466 .004259717613719845 .1753936669820975 .0763112192583341 .003
895069256658755 .17568260239421 .076361111192596 .00363897065691159 .17607770416
1823 .0763879806357714 .00351038931666478 .1765556733077665 .0763879440967195 .0
0353395385713571 .177085542570419 .0763555060957888 .00373154006979075 .17761671
40666885 .0762859206166547 .0041040115542483 .1780744511101055 .0761805523625066
 .00460837495637667 .178373483514247 .0760541392837433 .00499999999999741 .17845
685021085 .0759665134105573 41 1 25 H?.00499999999999741 .17845685021085 .075966
5134105573 204 80 26 4 .708259191794688 3.540452583645105 0 .002896320626350065
 .717902122216031 3.57452447300489 .3054326047611135 .002965021929547805 .717545
271259008 3.61010423319997 .614805690304927 .002962474851592055 .707697194964546
 3.64302140011188 .91089388522253 .002892324994198605 .689480159585483 3.6730910
4012199 1.210819694503576 .00276334216113946 .66327588540938 3.699030872279225 1
.530040867545795 .002579832475667355 .630378424985084 3.717011364613515 1.874617
690412715 .002353422992698225 .59424553340044 3.721294856206995 2.24070332869249
 .00211077468254746 .56040439849791 3.707007822279405 2.61584431157658 .00189019
5088336355 .534552502767321 3.6742326368782 2.983641739105115 .00172662234483341
5 .519980988962316 3.62935341868817 3.33159761077214 .001636478190686105 .516832
938462806 3.581124601452105 3.65772682234155 .00161720738931148 .523731008901754
 3.5363390494973 3.969652315342485 .001659529681266455 .539362618201577 3.499372
354093385 4.278536199263275 .001756712114209295 .562742719398811 3.4734271608778
8 4.59462462829107 .001905209179257945 .592711069718573 3.461114599952 4.9255641
2613571 .00210062577135518 .627192110736561 3.46415412170729 5.27542230879372 .0
0233175691149173 .662449973021668 3.48254569772948 5.6430229861552 .002574091383
640825 .692851962787598 3.513579640734865 6.01904098676716 .00278713438482268 .7
08259191794688 3.540452583645105 578241158658935e-30 .002896320626350065 74 4 CI
16 index_map_offset0 0 1 dCCZ20 15 7 0 0 370 260 371 372 373 13 2 0 0 0 0 0 0 0
 0 0 0 0 0 0 81 2 370 843 374 1 0 371 0 0 375 0 81 1 371 970 376 1 370 372 0 0 3
77 81 1 372 973 378 1 371 373 0 0 379 81 1 373 974 380 1 372 13 0 0 381 81 1 13
 975 382 1 373 2 0 0 383 80 1 382 378 384 9000 0 0 0 0 3 5 0 0 0 FFTFFFFFFFFFFF3
 84 255 17 383 _06_bar_bottom_1079 13 384 AdamsPartName80 1 380 382 385 9000 0 0
 0 0 3 5 0 0 0 FFTFFFFFFFFFFF3 84 6 381 PSMAR279 12 385 AdamsRFMName80 1 378 386
 387 9000 0 0 0 0 3 5 0 0 0 FFTFFFFFFFFFFF1 82 255 1 379 50 79 12 387 UG2/ADAMS_
ID80 1 376 388 389 8017 0 0 0 0 0 0 0 0 0 TTTTTTTTTTTTTF3 84 13 377 02_foot_stan
d79 13 389 SDL/TYSA_NAME80 2 374 390 391 8004 0 0 0 0 3 5 0 0 0 FFTFFFFFFFFFFF2
 3 83 1 375 23e2 79 16 391 SDL/TYSA_DENSITY80 1 12 380 392 9000 0 0 0 0 3 5 0 0
 0 FFTFFFFFFFFFFF3 84 7 14 SOLID5079 15 392 AdamsObjectName1 0 
