**ABCDEFGHIJKLMNOPQRSTUVWXYZabcdefghijklmnopqrstuvwxyz**************************
**PARASOLID !"#$%&'()*+,-./:;<=>?@[\]^_`{|}~0123456789**************************
**PART1;
MC=unknown;
MC_MODEL=unknown;
MC_ID=unknown;
OS=unknown;
OS_RELEASE=unknown;
FRU=sdl_parasolid_customer_support;
APPL=parasolid_acceptance_tests;
SITE=unknown;
USER=unknown;
FORMAT=text;
GUISE=transmit;
KEY=Controls_Plant_1_Tensegrity__06_bar_bottom_9_SOLID47;
FILE=Controls_Plant_1_Tensegrity__06_bar_bottom_9_SOLID47.xmt_txt;
DATE=unknown;
**PART2;
SCH=SCH_3101206_31100;
USFLD_SIZE=1;
**PART3;
**END_OF_HEADER*****************************************************************
T51 : TRANSMIT FILE created by modeller version 310120623 SCH_3101206_31100_1300
6222 0 12 34 CCCCCCI4 mesh1006 0 I8 polyline1008 0 CCCCCCCDI5 owner1040 0 CCCCCC
I13 boundary_mesh1006 0 I17 boundary_polyline1008 0 CCCA16 index_map_offset0 0 1
 dA9 index_map82 0 A17 node_id_index_map82 0 A20 schema_embedding_map82 0 A5 chi
ld12 0 A14 lowest_node_id0 0 1 dA16 mesh_offset_data206 0 Z1 1009 2 3 0 0 0 0 0
 0 1e3 1e-8 0 4 0 1 0 1 1 5 6 7 8 0 0 9 10 11 0 0 0 0 0 0 0 81 255 1 2 976 12 1
 13 0 0 0 14 70 11 CI9 list_type0 0 1 uI10 notransmit0 0 1 lCCCDCCDI12 finger_in
dex0 0 1 dI12 finger_block1012 0 CZ3 0 4 T1 0 0 7 20 1 15 15 13 255 5 99 0 1 0 1
6 0 0 17 0 50 255 6 94 0 18 19 0 0 +.00599999999999738 .2773833107138155 -.20496
4818773944 -33215970994388e-29 .975090602921086 .2218069342806775 -1 -3444124576
470215e-31 206415013478472e-31 38 12 CCCCCCCCCCCA17 intersection_data204 0 Z7 63
7 0 20 21 0 0 +22 23 24 25 25 26 29 255 8 137 0 11 27 0 -.00500000000000262 .288
1093073459475 -.2025249424968565 19 8 CCCCCCCA5 owner12 0 Z9 33 0 1 17 0 28 V0 1
6 255 10 82 29 ?30 0 31 32 0 0 1 18 255 11 135 0 33 0 34 8 ?1 17 255 33 0 35 36
 37 11 38 39 0 40 -18 34 30 0 41 11 42 27 ?1 17 41 0 43 44 45 34 46 47 0 48 +18
 42 27 0 45 34 49 50 ?1 29 27 32 0 34 50 8 -.00600000000000262 .2773833107138155
 -.204964818773944 29 50 29 0 42 51 27 -.00600000000000262 .2890843979488685 -.2
023031355625755 29 51 26 0 49 52 50 .00599999999999738 .2890843979488685 -.20230
31355625755 18 49 24 0 53 42 54 51 ?1 29 52 23 0 54 55 51 .00599999999999738 .27
73833107138155 -.204964818773944 18 54 21 0 56 49 57 52 ?1 29 55 232 0 58 59 52
 -.00500000000000262 .290327376688754 -.212275848526067 18 58 183 0 38 60 61 55
 ?1 29 59 233 0 61 62 55 .00499999999999738 .290327376688754 -.212275848526067 1
8 61 181 0 63 58 64 59 ?1 29 62 234 0 64 65 59 .00499999999999738 .2805764706595
435 -.214493917868874 18 64 188 0 66 61 67 62 ?1 29 65 235 0 57 68 62 -.00500000
000000262 .2783584013167365 -.204743011839663 18 57 187 0 36 54 69 65 ?1 29 68 2
37 0 69 70 65 .00499999999999738 .2881093073459475 -.2025249424968565 18 69 185
 0 71 57 60 68 ?1 29 70 238 0 60 72 68 .00499999999999738 .2783584013167365 -.20
4743011839663 18 60 182 0 73 69 58 70 ?1 29 72 377 0 67 74 70 -.0050000000000026
2 .280576470659543 -.214493917868874 18 67 318 0 75 64 76 72 ?1 29 74 381 0 76 7
7 72 .00599999999999738 .280266800859464 -.217640996611918 18 76 327 0 78 67 79
 74 ?1 29 77 584 0 79 80 74 .00599999999999738 .291302467291675 -.21205404159178
65 18 79 553 0 81 76 82 77 ?1 29 80 585 0 82 83 77 -.00600000000000262 .29130246
7291675 -.2120540415917865 18 82 554 0 84 79 85 80 ?1 29 83 587 0 85 86 80 -.006
00000000000262 .280266800859464 -.217640996611918 18 85 555 0 87 82 88 83 ?1 29
 86 588 0 88 0 83 -261856688081846e-29 .2880430267886655 -.219308422861567 18 88
 552 0 89 85 0 86 ?1 17 89 0 90 89 89 88 0 0 0 0 ?15 255 90 567 0 89 91 0 14 255
 91 563 92 ?93 94 95 5 22 -0 0 93 94 28 81 1 92 965 96 91 0 0 97 98 99 14 93 757
 98 ?100 91 101 5 102 -0 0 100 91 28 14 94 556 97 ?91 103 104 5 105 +0 0 91 103
 28 15 95 635 0 106 91 107 68 255 22 576 0 91 105 108 109 +110 -26179047108345e-
28 .2857846340755695 -.214847519101852 1324339967914524e-31 -.451678542619149 .8
92180751942925 -261856688081846e-29 .2880430267886655 -.219308422861567 ?0 ?1602
645570810265e-31 -.892180751942924 -.451678542619148 0 13 28 34 0 0 0 0 0 0 9 16
 14 16 453 111 ?112 0 113 5 19 -0 0 112 0 28 81 1 111 954 96 16 0 0 0 114 115 14
 112 447 114 ?116 16 117 5 118 -0 0 116 16 28 15 113 451 0 119 16 0 50 19 93 0 1
6 118 6 0 +.00599999999999738 .2890843979488685 -.2023031355625755 -1 -203453077
639389e-30 527059760171086e-31 187599420279146e-30 -.975090602921086 -.221806934
2806775 50 118 92 0 112 120 19 0 +.00599999999999738 .2890843979488685 -.2023031
355625755 259879565111513e-30 -.975090602921086 -.2218069342806775 1 27393276764
3205e-30 -366737386824779e-31 50 120 91 0 116 121 118 0 +-.00600000000000262 .28
90843979488685 -.2023031355625755 1 203453077639389e-30 -527059760171086e-31 -18
7599420279146e-30 .975090602921086 .2218069342806775 14 116 438 122 ?123 112 124
 5 120 -0 0 123 112 28 50 121 3 0 123 125 120 0 +-261687419601587e-29 .283233854
331342 -.2036339771682595 896099842286807e-31 -.221806934280678 .975090602921086
 -1 -203453077639389e-30 527059760171086e-31 14 123 150 126 ?18 116 43 5 121 +0
 0 18 116 28 50 125 213 0 127 128 121 0 +-.00500000000000262 .2783584013167365 -
.204743011839663 -187599420279146e-30 .975090602921086 .2218069342806775 -1 -203
453077639389e-30 527059760171086e-31 14 127 189 129 ?130 18 131 5 125 +0 0 130 1
8 28 50 128 214 0 130 132 125 0 +.00499999999999738 .2881093073459475 -.20252494
24968565 -1 -203453077639389e-30 527059760171086e-31 187599420279146e-30 -.97509
0602921086 -.2218069342806775 14 130 193 133 ?134 127 135 5 128 +0 0 134 127 28
 50 132 215 0 134 136 128 0 +-.00500000000000262 .2881093073459475 -.20252494249
68565 187599420279146e-30 -.975090602921086 -.2218069342806775 1 203453077639389
e-30 -527059760171086e-31 14 134 197 137 ?138 130 139 5 132 +0 0 138 130 28 50 1
36 216 0 138 108 132 0 +-.00500000000000262 .2881093073459475 -.2025249424968565
 1 203453077639389e-30 -527059760171086e-31 -187599420279146e-30 .97509060292108
6 .2218069342806775 14 138 201 140 ?103 134 35 5 136 +0 0 103 134 28 50 108 360
 0 103 22 136 0 +-.00600000000000262 .291302467291675 -.2120540415917865 8960998
42286807e-31 -.221806934280678 .975090602921086 -1 -203453077639389e-30 52705976
0171086e-31 14 103 337 141 ?94 138 142 5 108 +0 0 94 138 28 81 1 141 963 96 103
 0 0 140 97 143 15 142 340 0 144 103 0 17 144 0 142 145 146 67 37 147 0 0 +17 14
5 0 142 148 144 64 149 150 0 0 +17 146 0 142 144 148 58 151 152 0 0 +17 37 0 35
 33 75 58 144 147 0 146 -16 147 165 153 ?144 154 152 155 0 0 1 81 1 153 993 96 1
47 0 0 156 157 158 16 154 169 156 ?73 159 147 160 0 0 1 16 152 161 157 ?146 147
 161 162 0 0 1 30 255 155 223 0 147 162 163 0 +-.00500000000000262 .290327376688
754 -.212275848526067 187599420279146e-30 -.975090602921086 -.2218069342806775 3
0 162 224 0 152 164 155 0 +-.00500000000000262 .290327376688754 -.21227584852606
7 -1 -203453077639389e-30 527059760171086e-31 30 163 222 0 165 155 166 0 +-.0050
0000000000262 .2783584013167365 -.204743011839663 -896099842286807e-31 .22180693
4280678 -.975090602921086 16 165 156 167 ?75 39 168 163 0 0 1 30 166 221 0 39 16
3 169 0 +-.00500000000000262 .2881093073459475 -.2025249424968565 -8960998422868
07e-31 .221806934280678 -.975090602921086 16 39 168 170 ?38 171 165 166 0 0 1 30
 169 220 0 171 166 172 0 +.00499999999999738 .2881093073459475 -.202524942496856
5 -896099842286807e-31 .221806934280678 -.975090602921086 16 171 164 173 ?63 174
 39 169 0 0 1 30 172 219 0 174 169 175 0 +.00499999999999738 .2783584013167365 -
.204743011839663 -896099842286807e-31 .221806934280678 -.975090602921086 16 174
 160 176 ?177 178 171 172 0 0 1 30 175 7 0 178 172 179 0 +.00599999999999738 .27
73833107138155 -.204964818773944 1 3444124576470215e-31 -206415013478472e-31 16
 178 5 180 ?44 181 174 175 0 0 1 30 179 11 0 181 175 182 0 +.00599999999999738 .
2890843979488685 -.2023031355625755 -187599420279146e-30 .975090602921086 .22180
69342806775 16 181 9 183 ?53 184 178 179 0 0 1 30 182 15 0 184 179 185 0 +.00599
999999999738 .2890843979488685 -.2023031355625755 -1 -273932767643205e-30 366737
386824779e-31 16 184 13 186 ?45 47 181 182 0 0 1 30 185 19 0 47 182 187 0 +-.006
00000000000262 .2890843979488685 -.2023031355625755 187599420279146e-30 -.975090
602921086 -.2218069342806775 16 47 17 188 ?41 189 184 185 0 0 1 30 187 95 0 189
 185 190 0 +-.00600000000000262 .2773833107138155 -.204964818773944 -89609984228
6807e-31 .221806934280678 -.975090602921086 16 189 79 191 ?192 193 47 187 0 0 1
 30 190 96 0 193 187 194 0 +-.00600000000000262 .2890843979488685 -.202303135562
5755 -896099842286807e-31 .221806934280678 -.975090602921086 16 193 80 195 ?196
 31 189 190 0 0 1 30 194 97 0 31 190 32 0 +.00599999999999738 .2890843979488685
 -.2023031355625755 -896099842286807e-31 .221806934280678 -.975090602921086 16 3
1 81 197 ?198 10 193 194 0 0 1 30 32 98 0 10 194 199 0 +.00599999999999738 .2773
833107138155 -.204964818773944 -896099842286807e-31 .221806934280678 -.975090602
921086 38 199 616 0 200 32 201 0 +22 102 202 203 203 204 16 200 750 205 ?206 207
 208 199 0 0 1 38 201 623 0 207 199 21 0 +22 209 210 211 211 212 51 255 102 781
 0 93 23 105 213 +.00499999999999738 .2972894127325715 -.214627315228901 1324339
967914524e-31 -.451678542619149 .892180751942925 .0015 -1602645570810265e-31 .89
2180751942924 .451678542619148 40 255 20 202 0 1 20 .0001210783316122568 .394746
200992838 ??.00499999999999738 .2973194779810185 -.2113657559006875 .00443171338
7958365 .297298096638177 -.211571082446887 .00402336982615217 .2971623254706895
 -.211855676479223 .003691823022918205 .296906759183816 -.212246552174162 .00351
503867322463 .29654987626771 -.2126974638298205 .00354059212575964 .296146424368
7665 -.213136971228084 .003759573878922705 .295769601226471 -.213492581172174 .0
04115000846459375 .2954744739443375 -.2137236903534685 .00454360901932005 .29528
20145732225 -.213825685885534 .0050015620160807 .295193461811232 -.2138082196832
295 .00545868919779978 .2952081391723485 -.2136781333632735 .00588342271439522 .
2953284883101675 -.2134378782743185 .00623299526657108 .2955552435608065 -.21309
3139427435 .00645279636966976 .29587744922446 -.212664886988155 .006489349605084
62 .2962614966558255 -.212201877212725 .00632014287407695 .2966476553008515 -.21
17829043021655 .00598578788148999 .2969677172461 -.21148881006773 .0055721140445
5753 .2971842281794165 -.2113496457028185 .00513683016270072 .2973014526167065 -
.211343997030028 .00499999999999738 .2973194779810185 -.2113657559006875 41 3 CI
8 term_use0 0 1 cCZ1 203 H?.00499999999999738 .2973194779810185 -.21136575590068
75 204 2 17 INTERSECTION_DATA17 Intersection data7 uv_type0 0 1 u6 values0 1 1 f
T80 204 4 .708259191794688 2.742732723534485 0 .00289632062635006 .6837203141608
35 2.78097921444196 .388561716994278 .002722789727741735 .656123198936286 2.8051
06681191895 .709015413807986 .002530205333034065 .622051557002263 2.820444445651
17 1.059514403069732 .002296907369604595 .585910425886588 2.82070923560036 1.429
074205702946 .002055809025032175 .553476399196495 2.801846754432685 1.8039673330
4241 .00184591954969648 .530090157154808 2.76549316932871 2.16792986617833 .0016
9885413011718 .518265165993516 2.719076157510695 2.51053451172877 .0016259656276
5003 .517600129064648 2.671150218859495 2.832430464744 .001621896945415775 .5266
39199876373 2.627861078856155 3.142633997833545 .001677477337402135 .54416412327
5438 2.59320538733565 3.45236365742504 .001786908399079365 .569207539437452 2.57
0233138694305 3.7713497604976 .001946900241825925 .600465519882938 2.56139931662
0065 4.106501211638015 .002152049124322125 .635535718389772 2.568108192560935 4.
46085156094372 .00238859432303781 .670220962851334 2.589812428031615 4.831625564
62176 .002628216748542075 .698573995034901 2.623059272225365 5.20712253332248 .0
0282759674092379 .715154132123115 2.661477350254775 5.56609823601232 .0029454168
43166865 .718849162539251 2.69879250257116 5.89186487497509 .0029717832680756 .7
12131249955612 2.732787165423285 6.1918382139073 .002923875142219055 .7082591917
94688 2.742732723534485 6.28318530717958 .002896320626350065 51 23 784 0 214 215
 102 216 +-.00500000000000262 .2972894127325715 -.214627315228901 13243399679145
24e-31 -.451678542619149 .892180751942925 .0015 -1602645570810265e-31 .892180751
942924 .451678542619148 50 105 577 0 94 102 22 0 +-2617963015631285e-30 .2861092
125000465 -.2146831968953775 1324339967914524e-31 -.451678542619149 .89218075194
2925 -1602645570810265e-31 .892180751942924 .451678542619148 141 255 213 199 213
 213 102 14 214 685 217 ?0 218 219 5 23 -0 0 0 218 28 51 215 787 0 218 209 23 22
0 +-.01000000000000262 .281230159197599 -.2227575289960455 1324339967914524e-31
 -.451678542619149 .892180751942925 .0015 -1602645570810265e-31 .892180751942924
 .451678542619148 141 216 7 216 216 23 14 218 709 221 ?214 100 222 5 215 -0 0 21
4 100 28 51 209 790 0 100 0 215 223 +.00999999999999738 .281230159197599 -.22275
75289960455 1324339967914524e-31 -.451678542619149 .892180751942925 .0015 -16026
45570810265e-31 .892180751942924 .451678542619148 141 220 21 220 220 215 38 21 6
30 0 224 201 7 0 +22 215 225 226 226 227 16 224 702 228 ?229 20 207 21 0 0 1 40
 20 225 0 1 20 .000119864690545316 .380142744490503 ??-.01000000000000262 .28152
33410531185 -.2200156923249805 -.01053211678268428 .281326602181188 -.2198430661
345255 -.0109812824872962 .2809628213257025 -.219717731619711 -.0113270990925344
2 .2804351953678025 -.219639383353664 -.01149366485430012 .279800072228959 -.219
6278460367415 -.01146081867137764 .2792912251249075 -.219681715406975 -.01130657
189233426 .278898874683536 -.21978388735523 -.01104010100321722 .278592942629377
5 -.2199412661018435 -.01071985257197352 .278420016349362 -.2201203172179785 -.0
103353675170929 .2783576460191435 -.220320459440528 -.0098740133293199 .27842937
934054 -.220534483115519 -.00936805629928599 .2786784612826035 -.220729115539161
5 -.00890605861219626 .2791169823028615 -.2208556554246785 -.00859607624686326 .
279688065664808 -.2208809212213715 -.00850036126812167 .2802807327864485 -.22080
9286854541 -.00860462546116151 .280792236185807 -.220673973836194 -.008852726677
3546 .281175103660277 -.22050939452949 -.00919656898059969 .281423653621998 -.22
0335328386032 -.00960806174313358 .2815384402710605 -.2201608876083145 -.0100000
0000000262 .2815233410531185 -.2200156923249805 41 1 226 H?-.01000000000000262 .
2815233410531185 -.2200156923249805 204 80 227 4 .624544263811734 5.262762790818
91 0 .002313789949671755 .659940776151119 5.24681666510487 .3626408036386625 .00
255666644102724 .699308660287466 5.24695794205465 .713108948221088 .002832799489
337355 .742449898619514 5.26189765328454 1.08592027575626 .00314101762796496 .78
3514676263321 5.29045043953997 1.478857143469604 .00343818249378869 .80848216002
6145 5.32042929651565 1.7998613889223 .003619956596920835 .820281479369722 5.349
80956702325 2.084260938908305 .00370601702685408 .819976203744029 5.380742883813
37 2.37539472110091 .003703789682723265 .808783122073746 5.40817068139936 2.6410
4997341022 .00362215081343175 .788132852205286 5.43421295798677 2.91610843977969
5 .00347175911467787 .757337060025069 5.45870573524814 3.225682834846865 .003248
41090932536 .717514977111736 5.47756217889745 3.57646628760653 .0029622586386634
4 .673523662341662 5.48392452539921 3.958882552481725 .00265129165311405 .632929
360994268 5.47203718414308 4.35253760158105 .00237080389498415 .602713604421622
 5.44213775356283 4.73433687691612 .002167019676487075 .586047276664392 5.401288
6969738 5.08809255230311 .00205670823697626 .582068505166941 5.35807966656501 5.
4123785886766 .002030609703700825 .588621548685664 5.31812863349341 5.7179427283
1241 .00207364348198077 .604274381276597 5.28458731538688 6.01882466911936 .0021
7742951985385 .624544263811734 5.26276279081891 6.28318530717959 .00231378994967
1755 81 1 228 1003 96 224 0 0 230 231 232 17 229 0 107 229 229 0 233 224 0 0 +16
 20 678 230 ?106 234 224 7 0 0 1 16 207 726 231 ?235 224 200 201 0 0 1 81 1 231
 1004 96 207 0 0 228 205 236 17 235 0 237 235 235 0 238 207 0 0 +15 237 621 0 23
5 91 239 17 238 0 240 238 238 0 235 207 0 0 -15 240 737 0 238 100 0 14 100 733 2
41 ?218 93 242 5 209 -0 0 218 93 28 81 1 241 967 96 100 0 0 98 221 243 15 242 73
6 0 244 100 240 17 244 0 242 244 244 0 245 246 0 0 +17 245 0 247 245 245 0 244 2
46 0 0 -16 246 730 248 ?244 208 249 250 0 0 1 81 1 248 1007 96 246 0 0 251 252 2
53 16 208 754 251 ?254 200 246 255 0 0 1 16 249 706 252 ?256 246 257 258 0 0 1 3
1 255 250 799 0 246 0 258 0 +.00999999999999738 .278971766484503 -.2182966252363
31 1324339967914524e-31 -.451678542619149 .892180751942925 -1602645570810265e-31
 .892180751942924 .451678542619148 .0015 31 258 797 0 249 250 259 0 +-.010000000
00000262 .278971766484503 -.218296625236331 1324339967914524e-31 -.4516785426191
49 .892180751942925 -1602645570810265e-31 .892180751942924 .451678542619148 .001
5 31 259 795 0 257 258 255 0 +-.00500000000000262 .295031020019476 -.21016641146
91865 1324339967914524e-31 -.451678542619149 .892180751942925 -1602645570810265e
-31 .892180751942924 .451678542619148 .0015 16 257 682 260 ?261 249 0 259 0 0 1
 31 255 793 0 208 259 110 0 +.00499999999999738 .295031020019476 -.2101664114691
865 1324339967914524e-31 -.451678542619149 .892180751942925 -1602645570810265e-3
1 .892180751942924 .451678542619148 .0015 134 255 110 583 0 1 255 262 263 +264 2
65 31 262 582 0 234 110 266 0 +-26179047108345e-28 .2857846340755695 -.214847519
101852 1324339967914524e-31 -.451678542619149 .892180751942925 -1602645570810265
e-31 .892180751942924 .451678542619148 .015 141 263 22 263 263 110 136 255 264 3
 4 3 2 5 FFF1 267 268 269 135 255 265 2 0 45 255 12 267 -261856688081846e-29 .28
80430267886655 -.219308422861567 -2617588762360015e-30 .2825123125269445 -.22244
4404694025 -261587773701712e-29 .2738364594896645 -.2235032408705 -2615500742478
285e-30 .272401922796426 -.2216226972411395 127 255 2 268 4 4 128 255 2 269 0 1
 16 234 546 270 ?271 272 20 262 0 0 1 30 266 525 0 273 262 274 0 +.0059999999999
9738 .2861092125000465 -.2146831968953775 1602645570810265e-31 -.892180751942924
 -.451678542619148 16 273 471 275 ?78 276 272 266 0 0 1 30 274 522 0 272 266 277
 0 +-.00600000000000262 .2861092125000465 -.2146831968953775 1602645570810265e-3
1 -.892180751942924 -.451678542619148 16 272 457 278 ?279 273 234 274 0 0 1 30 2
77 517 0 276 274 280 0 +.00599999999999738 .291302467291675 -.2120540415917865 -
1 -203453077639389e-30 527059760171086e-31 16 276 460 281 ?282 283 273 277 0 0 1
 30 280 369 0 283 277 160 0 +.00599999999999738 .280266800859464 -.2176409966119
18 1 3444124576470215e-31 -206415013478472e-31 16 283 307 284 ?285 150 276 280 0
 0 1 30 160 230 0 154 280 286 0 +-.00500000000000262 .2783584013167365 -.2047430
11839663 1 203453077639389e-30 -527059760171086e-31 30 286 229 0 159 160 287 0 +
.00499999999999738 .2881093073459475 -.2025249424968565 -187599420279146e-30 .97
5090602921086 .2218069342806775 16 159 172 288 ?71 289 154 286 0 0 1 30 287 228
 0 289 286 290 0 +-.00500000000000262 .2881093073459475 -.2025249424968565 -1 -2
03453077639389e-30 527059760171086e-31 16 289 175 291 ?40 168 159 287 0 0 1 30 2
90 227 0 168 287 292 0 +-.00500000000000262 .2881093073459475 -.2025249424968565
 187599420279146e-30 -.975090602921086 -.2218069342806775 16 168 178 293 ?36 165
 289 290 0 0 1 30 292 226 0 150 290 164 0 +-.00500000000000262 .280576470659543
 -.214493917868874 1 203453077639389e-30 -527059760171086e-31 16 150 153 294 ?14
5 161 283 292 0 0 1 30 164 225 0 161 292 162 0 +.00499999999999738 .290327376688
754 -.212275848526067 -187599420279146e-30 .975090602921086 .2218069342806775 16
 161 157 295 ?148 152 150 164 0 0 1 81 1 295 995 96 161 0 0 157 294 296 17 148 0
 142 146 145 61 66 161 0 0 +17 66 0 135 297 63 64 148 161 0 177 -15 135 196 0 66
 130 0 17 297 0 135 71 66 60 177 174 0 298 -17 63 0 135 66 71 61 299 171 0 151 +
17 177 0 131 149 73 64 297 174 0 145 +15 131 192 0 149 127 0 17 149 0 131 300 17
7 67 145 150 0 144 -17 73 0 131 177 300 60 301 154 0 297 +17 300 0 131 73 149 57
 75 165 0 301 -17 301 0 302 303 298 57 73 154 0 0 -15 302 133 0 298 123 0 17 303
 0 302 304 301 11 36 168 0 0 -17 298 0 302 301 304 60 71 159 0 0 -17 304 0 302 2
98 303 69 40 289 0 0 -17 71 0 135 63 297 69 298 159 0 299 +17 299 0 139 40 151 6
9 63 171 0 304 -15 139 200 0 151 134 0 17 40 0 139 38 299 11 304 289 0 303 +17 1
51 0 139 299 38 61 146 152 0 148 -17 38 0 139 151 40 58 33 39 0 37 +17 36 0 35 7
5 33 57 303 168 0 300 +15 35 204 0 37 138 0 17 75 0 35 37 36 67 300 165 0 149 +8
0 255 1 96 0 305 8001 0 0 0 0 3 5 0 0 0 FFFFTFTFFFFFFF2 81 1 157 994 96 152 0 0
 153 295 306 81 1 294 996 96 150 0 0 295 284 307 83 255 3 296 .988235294117647 .
984313725490196 1 81 1 284 997 96 283 0 0 294 281 308 83 3 307 .988235294117647
 .984313725490196 1 81 1 281 998 96 276 0 0 284 275 309 83 3 308 .98823529411764
7 .984313725490196 1 81 1 275 999 96 273 0 0 281 278 310 83 3 309 .9882352941176
47 .984313725490196 1 81 1 278 1000 96 272 0 0 275 270 311 83 3 310 .98823529411
7647 .984313725490196 1 81 1 270 1001 96 234 0 0 278 230 312 83 3 311 .988235294
117647 .984313725490196 1 81 1 230 1002 96 20 0 0 270 228 313 83 3 312 .98823529
4117647 .984313725490196 1 83 3 313 .988235294117647 .984313725490196 1 83 3 306
 .988235294117647 .984313725490196 1 79 255 15 305 SDL/TYSA_COLOUR81 1 293 989 9
6 168 0 0 167 291 314 81 1 167 988 96 165 0 0 170 293 315 81 1 291 990 96 289 0
 0 293 288 316 83 3 314 .988235294117647 .984313725490196 1 81 1 288 991 96 159
 0 0 291 156 317 83 3 316 .988235294117647 .984313725490196 1 81 1 156 992 96 15
4 0 0 288 153 318 83 3 317 .988235294117647 .984313725490196 1 83 3 318 .9882352
94117647 .984313725490196 1 81 1 170 987 96 39 0 0 173 167 319 83 3 315 .9882352
94117647 .984313725490196 1 81 1 173 986 96 171 0 0 176 170 320 83 3 319 .988235
294117647 .984313725490196 1 81 1 176 985 96 174 0 0 180 173 321 83 3 320 .98823
5294117647 .984313725490196 1 81 1 180 984 96 178 0 0 183 176 322 83 3 321 .9882
35294117647 .984313725490196 1 81 1 183 983 96 181 0 0 186 180 323 83 3 322 .988
235294117647 .984313725490196 1 81 1 186 982 96 184 0 0 188 183 324 83 3 323 .98
8235294117647 .984313725490196 1 81 1 188 981 96 47 0 0 191 186 325 83 3 324 .98
8235294117647 .984313725490196 1 81 1 191 980 96 189 0 0 195 188 326 83 3 325 .9
88235294117647 .984313725490196 1 81 1 195 979 96 193 0 0 197 191 327 83 3 326 .
988235294117647 .984313725490196 1 81 1 197 978 96 31 0 0 29 195 328 83 3 327 .9
88235294117647 .984313725490196 1 81 1 29 977 96 10 0 0 217 197 329 83 3 328 .98
8235294117647 .984313725490196 1 81 1 217 969 96 214 0 0 221 29 330 83 3 329 .98
8235294117647 .984313725490196 1 81 1 221 968 96 218 0 0 241 217 331 83 3 330 .9
88235294117647 .984313725490196 1 83 3 331 .988235294117647 .984313725490196 1 1
7 285 0 332 333 192 76 87 283 0 0 +15 332 89 0 192 18 0 17 333 0 332 334 285 54
 30 10 0 0 -17 192 0 332 285 334 85 48 189 0 0 +17 87 0 335 84 78 85 285 283 0 2
79 -15 335 562 0 78 94 0 17 84 0 335 81 87 82 279 272 0 282 -17 78 0 335 87 81 7
6 119 273 0 30 +17 279 0 124 48 196 85 84 272 0 192 +15 124 436 0 279 116 0 17 4
8 0 124 46 279 34 192 189 0 334 -17 196 0 124 279 46 82 336 193 0 0 +17 46 0 124
 196 48 42 41 47 0 0 -17 336 0 117 337 282 42 196 193 0 46 -15 117 445 0 282 112
 0 17 337 0 117 198 336 49 45 184 0 0 -17 282 0 117 336 198 82 81 276 0 196 +17
 198 0 117 282 337 79 338 31 0 0 +17 81 0 335 78 84 79 282 276 0 119 -17 119 0 1
13 338 30 79 78 273 0 198 -17 338 0 113 56 119 49 198 31 0 337 -17 30 0 113 119
 56 76 333 10 0 285 +17 56 0 113 30 338 54 53 181 0 44 -17 53 0 43 45 44 49 56 1
81 0 338 +17 44 0 43 53 41 54 334 178 0 333 +15 43 4 0 44 123 302 17 334 0 332 1
92 333 34 44 178 0 0 -17 45 0 43 41 53 42 337 184 0 336 +14 18 90 339 ?127 123 3
32 5 6 -0 0 127 123 28 81 1 339 958 96 18 0 0 126 129 340 81 1 126 957 96 123 0
 0 122 339 341 81 1 129 959 96 127 0 0 339 133 342 83 3 340 .988235294117647 .98
4313725490196 1 81 1 133 960 96 130 0 0 129 137 343 83 3 342 .988235294117647 .9
84313725490196 1 81 1 137 961 96 134 0 0 133 140 344 83 3 343 .988235294117647 .
984313725490196 1 81 1 140 962 96 138 0 0 137 141 345 83 3 344 .988235294117647
 .984313725490196 1 83 3 345 .988235294117647 .984313725490196 1 81 1 122 956 96
 116 0 0 114 126 346 83 3 341 .988235294117647 .984313725490196 1 81 1 114 955 9
6 112 0 0 111 122 347 83 3 346 .988235294117647 .984313725490196 1 83 3 347 .988
235294117647 .984313725490196 1 17 271 0 348 271 271 0 349 234 0 0 +15 348 561 0
 271 94 335 17 349 0 350 349 349 0 271 234 0 0 -15 350 566 0 349 91 90 81 1 260
 1009 96 257 0 0 252 0 351 17 261 0 219 261 261 0 352 257 0 0 +15 219 688 0 261
 214 353 17 352 0 104 352 352 0 261 257 0 0 -15 104 670 0 352 94 354 15 354 661
 0 355 94 247 17 355 0 354 355 355 0 256 249 0 0 -15 247 652 0 245 94 356 15 356
 643 0 357 94 348 17 357 0 356 357 357 0 254 208 0 0 -17 254 0 101 254 254 0 357
 208 0 0 +15 101 760 0 254 93 358 15 358 761 0 359 93 0 17 359 0 358 359 359 0 2
06 200 0 0 -17 206 0 239 206 206 0 359 200 0 0 +15 239 614 0 206 91 350 17 256 0
 222 256 256 0 355 249 0 0 +15 222 712 0 256 218 360 15 360 713 0 233 218 0 17 2
33 0 360 233 233 0 229 224 0 0 -15 353 689 0 361 214 0 17 361 0 353 361 361 0 10
6 20 0 0 -17 106 0 95 106 106 0 361 20 0 0 +81 1 252 1008 96 249 0 0 248 260 362
 83 3 351 .988235294117647 .984313725490196 1 83 3 362 .988235294117647 .9843137
25490196 1 81 1 251 1006 96 208 0 0 205 248 363 81 1 205 1005 96 200 0 0 231 251
 364 83 3 363 .988235294117647 .984313725490196 1 83 3 364 .988235294117647 .984
313725490196 1 83 3 253 .988235294117647 .984313725490196 1 81 1 98 966 96 93 0
 0 92 241 365 83 3 243 .988235294117647 .984313725490196 1 83 3 365 .98823529411
7647 .984313725490196 1 83 3 236 .988235294117647 .984313725490196 1 15 107 628
 0 229 91 237 83 3 232 .988235294117647 .984313725490196 1 141 223 201 223 223 2
09 40 20 210 0 1 20 .0001210566386741244 .3993458604480025 ??.00999999999999738
 .2815233410531185 -.2200156923249805 .00951927987462351 .281526112841169 -.2201
963297638 .00907462211486071 .2813563458068 -.220393105867734 .00874854703066975
 .281050397525795 -.2205715905534005 .00855804623928068 .280659979378326 -.22071
63739298425 .00850036055382255 .280213330090903 -.2208218410484365 .008581500788
73032 .279732309876532 -.2208786630846065 .00881290491326525 .27924764361296 -.2
20871657013518 .00919905273965799 .278808740952675 -.220782490017512 .0097188970
4711384 .278485919168155 -.22059906213261 .01030593200951374 .2783577969420875 -
.220335018925212 .01074816676746152 .2784300212873505 -.22010490277272 .01113391
659752658 .278676248729833 -.2198869121790225 .01136568455442544 .27901064542542
05 -.2197469813362875 .0114803769364845 .279393593371918 -.2196652551044085 .011
48906153653902 .2798474258573045 -.219625948518362 .01135608180094952 .280367612
252936 -.219634348819012 .0110423414941524 .2808924638521065 -.2197023626532945
 .0105571247065879 .281311891394114 -.219835584423069 .00999999999999738 .281523
3410531185 -.2200156923249805 41 1 211 H?.00999999999999738 .2815233410531185 -.
2200156923249805 204 80 212 4 .624544263811734 1.020422516360676 0 .002313789949
671755 .600364452883493 .992372190704551 .3262362593063455 .00215137674648987 .5
85406228951863 .95246246076983 .664821413394165 .00205249702078646 .582196327716
46 .909410713086284 .986865451959495 .002031446693399135 .589376486439089 .86979
8422936864 1.29169174595264 .002078617251597145 .605597320826744 .83676332808047
7 1.592722514195185 .00218626341762963 .630291959100752 .812783364644816 1.90195
533140083 .002352834400070155 .663012083568677 .800354619159696 2.22850219133544
5 .002577998433429275 .702552823649053 .801669602780451 2.57830968746768 .002855
79442492317 .745815469179188 .817746061031478 2.953076067892885 .003165256926360
165 .786337255121887 .847206397154381 3.34698847067262 .00345870125402949 .81004
9514756335 .877185513242774 3.663780780099625 .00363138426898369 .82146542977589
1 .912083298167911 3.99868820559219 .003714655628411865 .81787494166856 .9425382
03342935 4.285978773405105 .00368845942078379 .804153551877097 .969380619313743
 4.55045896110204 .003588404621422025 .780804078056311 .995187131641285 4.833229
2816876 .003418486805324405 .747310942461884 1.01871270287952 5.15402283217438 .
00317603518570494 .705722125364588 1.034908862535964 5.51491236274682 .002878290
346487415 .661859133227067 1.036723410238236 5.902651148164 .002569986026846825
 .624544263811734 1.020422516360676 0 .002313789949671755 83 3 158 .988235294117
647 .984313725490196 1 81 1 97 964 96 94 0 0 141 92 366 83 3 143 .98823529411764
7 .984313725490196 1 83 3 366 .988235294117647 .984313725490196 1 83 3 115 .9882
35294117647 .984313725490196 1 141 109 199 367 368 22 141 367 7 369 109 22 141 3
68 201 109 369 22 141 369 21 368 367 22 83 3 99 .988235294117647 .98431372549019
6 1 19 17 100 0 1 0 9 5 S0 40 20 24 0 1 20 .000109689959490311 .367725318652249
 ??-.00500000000000262 .2973194779810185 -.2113657559006875 -.00545105867874759
 .2972265078137585 -.211335819507771 -.00586519970659525 .297044540742206 -.2114
307976828265 -.00618507806368343 .296803425030449 -.211631493170027 -.0064038575
8289873 .2965126795401675 -.211923257290488 -.00649875441683323 .296178684516361
5 -.212298033444691 -.00643130033962234 .2958260531937825 -.212730328676339 -.00
617581911951715 .295505071038303 -.213164802365107 -.00575279063379811 .29527811
6403712 -.2135269376522675 -.00523594244065439 .295187922584644 -.21375593985368
 -.00471670435558026 .2952360639859435 -.213832605614536 -.004259717613725055 .2
953950155635525 -.2137737338943915 -.003895069256663965 .2956347575560465 -.2136
04924373001 -.0036389706569168 .2959333748711035 -.213344818485149 -.00351038931
666999 .2962716340215005 -.2130071274237005 -.00353395385714092 .296623735452352
 -.2126098388109765 -.00373154006979596 .2969505154064185 -.2121853389181895 -.0
0410401155425351 .297200042739807 -.211787391962189 -.00460837495638188 .2973223
788128775 -.211486668616845 -.00500000000000262 .2973194779810185 -.211365755900
6875 41 1 25 H?-.00500000000000262 .2973194779810185 -.2113657559006875 204 80 2
6 4 .708259191794688 3.540452583645105 0 .002896320626350065 .717902122216031 3.
57452447300489 .3054326047611135 .002965021929547805 .717545271259008 3.61010423
319997 .614805690304927 .002962474851592055 .707697194964546 3.64302140011188 .9
1089388522253 .002892324994198605 .689480159585483 3.67309104012199 1.2108196945
03576 .00276334216113946 .66327588540938 3.699030872279225 1.530040867545795 .00
2579832475667355 .630378424985084 3.717011364613515 1.874617690412715 .002353422
992698225 .59424553340044 3.721294856206995 2.24070332869249 .00211077468254746
 .56040439849791 3.707007822279405 2.61584431157658 .001890195088336355 .5345525
02767321 3.6742326368782 2.983641739105115 .001726622344833415 .519980988962316
 3.62935341868817 3.33159761077214 .001636478190686105 .516832938462806 3.581124
601452105 3.65772682234155 .00161720738931148 .523731008901754 3.5363390494973 3
.969652315342485 .001659529681266455 .539362618201577 3.499372354093385 4.278536
199263275 .001756712114209295 .562742719398811 3.47342716087788 4.59462462829107
 .001905209179257945 .592711069718573 3.461114599952 4.92556412613571 .002100625
77135518 .627192110736561 3.46415412170729 5.27542230879372 .00233175691149173 .
662449973021668 3.48254569772948 5.6430229861552 .002574091383640825 .6928519627
87598 3.513579640734865 6.01904098676716 .00278713438482268 .708259191794688 3.5
40452583645105 578241158658935e-30 .002896320626350065 74 4 CI16 index_map_offse
t0 0 1 dCCZ20 15 7 0 0 370 260 371 372 373 13 2 0 0 0 0 0 0 0 0 0 0 0 0 0 81 2 3
70 843 374 1 0 371 0 0 375 0 81 1 371 970 376 1 370 372 0 0 377 81 1 372 973 378
 1 371 373 0 0 379 81 1 373 974 380 1 372 13 0 0 381 81 1 13 975 382 1 373 2 0 0
 383 80 1 382 378 384 9000 0 0 0 0 3 5 0 0 0 FFTFFFFFFFFFFF3 84 255 16 383 _06_b
ar_bottom_979 13 384 AdamsPartName80 1 380 382 385 9000 0 0 0 0 3 5 0 0 0 FFTFFF
FFFFFFFF3 84 6 381 PSMAR379 12 385 AdamsRFMName80 1 378 386 387 9000 0 0 0 0 3 5
 0 0 0 FFTFFFFFFFFFFF1 82 255 1 379 47 79 12 387 UG2/ADAMS_ID80 1 376 388 389 80
17 0 0 0 0 0 0 0 0 0 TTTTTTTTTTTTTF3 84 13 377 02_foot_stand79 13 389 SDL/TYSA_N
AME80 2 374 390 391 8004 0 0 0 0 3 5 0 0 0 FFTFFFFFFFFFFF2 3 83 1 375 23e2 79 16
 391 SDL/TYSA_DENSITY80 1 12 380 392 9000 0 0 0 0 3 5 0 0 0 FFTFFFFFFFFFFF3 84 7
 14 SOLID4779 15 392 AdamsObjectName1 0 
