**ABCDEFGHIJKLMNOPQRSTUVWXYZabcdefghijklmnopqrstuvwxyz**************************
**PARASOLID !"#$%&'()*+,-./:;<=>?@[\]^_`{|}~0123456789**************************
**PART1;
MC=unknown;
MC_MODEL=unknown;
MC_ID=unknown;
OS=unknown;
OS_RELEASE=unknown;
FRU=sdl_parasolid_customer_support;
APPL=parasolid_acceptance_tests;
SITE=unknown;
USER=unknown;
FORMAT=text;
GUISE=transmit;
KEY=Controls_Plant_1_Tensegrity__06_bar_bottom_5_SOLID32;
FILE=Controls_Plant_1_Tensegrity__06_bar_bottom_5_SOLID32.xmt_txt;
DATE=unknown;
**PART2;
SCH=SCH_3101206_31100;
USFLD_SIZE=1;
**PART3;
**END_OF_HEADER*****************************************************************
T51 : TRANSMIT FILE created by modeller version 310120623 SCH_3101206_31100_1300
6222 0 12 34 CCCCCCI4 mesh1006 0 I8 polyline1008 0 CCCCCCCDI5 owner1040 0 CCCCCC
I13 boundary_mesh1006 0 I17 boundary_polyline1008 0 CCCA16 index_map_offset0 0 1
 dA9 index_map82 0 A17 node_id_index_map82 0 A20 schema_embedding_map82 0 A5 chi
ld12 0 A14 lowest_node_id0 0 1 dA16 mesh_offset_data206 0 Z1 879 2 3 0 0 0 0 0 0
 1e3 1e-8 0 4 0 1 0 1 1 5 6 7 8 0 0 9 10 11 0 0 0 0 0 0 0 81 255 1 2 837 12 1 13
 0 0 0 14 70 11 CI9 list_type0 0 1 uI10 notransmit0 0 1 lCCCDCCDI12 finger_index
0 0 1 dI12 finger_block1012 0 CZ3 0 4 T1 0 0 6 20 1 15 15 13 255 5 99 0 1 0 16 0
 0 17 0 50 255 6 94 0 18 19 0 0 +-.1143348803690838 .1127812562027606 -.02827210
68591956 1923371233850315e-32 .924054872131514 .382259850481333 -.16777620978375
3 -.3768413583591135 .910956494054824 30 255 7 98 0 10 20 0 0 +-.114334880369083
8 .1127812562027606 -.0282721068591956 -.167776209783753 -.3768413583591135 .910
956494054824 29 255 8 276 0 11 21 0 -.110391579937353 .1208412136164792 -.024211
63050854985 19 8 CCCCCCCA5 owner12 0 Z9 33 0 1 17 0 22 V0 16 255 10 82 23 ?24 0
 25 7 0 0 1 18 255 11 274 0 26 0 27 8 ?1 17 255 26 0 28 29 30 11 31 32 0 33 +18
 27 271 0 34 11 35 21 ?1 17 34 0 36 37 33 27 38 39 0 40 +18 35 265 0 41 27 42 43
 ?1 29 21 273 0 27 43 8 -.1084199297214874 .1207129453987466 -.023901561660393 2
9 43 267 0 35 44 21 -.110391579937353 .1217652684886106 -.0238293706580685 29 44
 146 0 42 45 43 -.110391579937353 .1125247197672956 -.02765196916288185 18 42 14
4 0 46 35 47 44 ?1 29 45 75 0 48 49 44 -.1046444054995402 .111763073755739 -.025
8108061243564 18 48 66 0 50 51 52 45 ?1 29 49 76 0 52 53 45 -.1046444054995402 .
121003622477054 -.02198820761954305 18 52 67 0 54 48 55 49 ?1 29 53 77 0 55 56 4
9 -.1145026565788676 .1216449635657166 -.02353855186032745 18 55 68 0 57 52 58 5
3 ?1 29 56 78 0 58 59 53 -.1145026565788676 .1124044148444014 -.0273611503651407
5 18 58 69 0 60 55 61 56 ?1 29 59 32 0 47 62 56 -.1044766292897564 .112139915114
098 -.02672176261841125 18 47 30 0 63 42 64 59 ?1 29 62 29 0 64 65 59 -.10447662
92897564 .1213804638354132 -.0228991641135979 18 64 27 0 66 47 67 62 ?1 29 65 26
 0 67 68 62 -.1143348803690838 .1220218049240758 -.02444950835438225 18 67 24 0
 69 64 51 65 ?1 29 68 23 0 51 70 65 -.1143348803690838 .1127812562027606 -.02827
21068591956 18 51 21 0 71 67 48 68 ?1 29 70 236 0 72 73 68 -.1084199297214874 .1
12396451549563 -.02734190031472495 18 72 189 0 74 75 76 70 ?1 29 73 237 0 76 77
 70 -.1042255244768936 .121817485508541 -.0501158126660956 18 76 191 0 78 72 79
 73 ?1 29 77 238 0 79 80 73 -.106197174692759 .1219457537262734 -.05042588151425
25 18 79 193 0 81 76 82 77 ?1 29 80 240 0 61 83 77 -.1084199297214874 .113320506
4216946 -.02695964046424365 18 61 186 0 84 58 85 80 ?1 29 83 241 0 85 86 80 -.10
42255244768936 .1227415403806724 -.0497335528156142 18 85 188 0 87 61 88 83 ?1 2
9 86 242 0 88 89 83 -.106197174692759 .122869808598405 -.0500436216637711 18 88
 190 0 90 85 75 86 ?1 29 89 243 0 75 91 86 -.110391579937353 .113448774639427 -.
0272697093124005 18 75 192 0 92 88 72 89 ?1 29 91 365 0 93 94 89 -.1061971746927
59 .1311863024475886 -.0466032830094391 18 93 319 0 95 96 97 91 ?1 29 94 366 0 9
7 98 91 -.1042255244768936 .131058034229856 -.0462932141612822 18 97 321 0 99 93
 100 94 ?1 29 98 367 0 100 101 94 -.1084199297214874 .1216370002708782 -.0235193
0180991165 18 100 315 0 102 97 0 98 ?1 29 101 369 0 82 103 98 -.106197174692759
 .130262247575457 -.0469855428599205 18 82 316 0 30 79 96 101 ?1 29 103 370 0 96
 0 101 -.1042255244768936 .1301339793577244 -.0466754740117636 18 96 318 0 104 8
2 93 103 ?1 17 104 0 105 99 40 96 106 107 0 108 +15 255 105 337 0 109 110 0 17 9
9 0 105 109 104 97 108 111 0 112 +17 40 0 105 104 109 27 37 113 0 106 -17 106 0
 114 38 115 27 104 107 0 0 -16 107 298 116 ?104 117 39 118 0 0 1 17 108 0 119 12
0 112 96 99 111 0 115 -15 119 333 0 112 121 0 17 120 0 119 95 108 82 115 117 0 3
1 +17 112 0 119 108 95 97 122 123 0 124 -16 111 301 125 ?99 126 113 127 0 0 1 17
 115 0 114 106 31 96 120 117 0 0 -15 114 407 0 38 128 129 17 31 0 114 115 38 82
 26 32 0 0 -16 117 294 130 ?120 32 107 131 0 0 1 81 1 130 868 132 117 0 0 133 11
6 134 16 32 290 133 ?26 113 117 135 0 0 1 30 131 361 0 117 118 135 0 +-.10422552
44768936 .1301339793577244 -.0466754740117636 -.98582510793274 .0641341088662623
 -.155034424078436 30 118 362 0 107 136 131 0 +-.1084199297214874 .1207129453987
466 -.023901561660393 .167776209783753 .3768413583591135 -.910956494054824 30 13
5 360 0 32 131 137 0 +-.106197174692759 .130262247575457 -.0469855428599205 -.16
7776209783753 -.3768413583591135 .910956494054824 30 137 358 0 138 135 139 0 +-.
1084199297214874 .1216370002708782 -.02351930180991165 .167776209783753 .3768413
583591135 -.910956494054824 16 138 305 140 ?124 123 141 137 0 0 1 30 139 357 0 1
23 137 142 0 +-.1042255244768936 .131058034229856 -.0462932141612822 -.985825107
93274 .0641341088662623 -.155034424078436 16 123 308 143 ?122 144 138 139 0 0 1
 30 142 356 0 144 139 145 0 +-.106197174692759 .1311863024475886 -.0466032830094
391 -.167776209783753 -.3768413583591135 .910956494054824 16 144 311 146 ?147 39
 123 142 0 0 1 30 145 355 0 148 142 149 0 +-.110391579937353 .1208412136164792 -
.02421163050854985 1923371233850315e-32 .924054872131514 .382259850481333 16 148
 293 150 ?29 151 126 145 0 0 1 30 149 354 0 126 145 127 0 +-.106197174692759 .13
0262247575457 -.0469855428599205 1923371233850315e-32 .924054872131514 .38225985
0481333 16 126 297 152 ?95 148 111 149 0 0 1 30 127 353 0 111 149 153 0 +-.10422
55244768936 .1301339793577244 -.0466754740117636 1923371233850315e-32 .924054872
131514 .382259850481333 30 153 352 0 113 127 154 0 +-.1084199297214874 .12071294
53987466 -.023901561660393 1923371233850315e-32 .924054872131514 .38225985048133
3 16 113 289 155 ?37 111 32 153 0 0 1 30 154 235 0 156 153 157 0 +-.110391579937
353 .113448774639427 -.0272697093124005 -.98582510793274 .0641341088662623 -.155
034424078436 16 156 158 158 ?159 160 161 154 0 0 1 30 157 234 0 160 154 162 0 +-
.106197174692759 .122869808598405 -.0500436216637711 .167776209783753 .376841358
3591135 -.910956494054824 16 160 170 163 ?90 164 156 157 0 0 1 30 162 233 0 164
 157 165 0 +-.1042255244768936 .1227415403806724 -.0497335528156142 .98582510793
274 -.0641341088662623 .155034424078436 16 164 166 166 ?167 168 160 162 0 0 1 30
 165 232 0 168 162 169 0 +-.1084199297214874 .1133205064216946 -.026959640464243
65 -.167776209783753 -.3768413583591135 .910956494054824 16 168 162 170 ?84 171
 164 165 0 0 1 30 169 230 0 151 165 172 0 +-.106197174692759 .1219457537262734 -
.0504258815142525 .167776209783753 .3768413583591135 -.910956494054824 16 151 17
7 173 ?174 175 148 169 0 0 1 30 172 229 0 175 169 176 0 +-.1042255244768936 .121
817485508541 -.0501158126660956 .98582510793274 -.0641341088662623 .155034424078
436 16 175 180 177 ?178 161 151 172 0 0 1 30 176 228 0 161 172 179 0 +-.10841992
97214874 .112396451549563 -.02734190031472495 -.167776209783753 -.37684135835911
35 .910956494054824 16 161 183 180 ?181 156 175 176 0 0 1 30 179 227 0 182 176 1
83 0 +-.1084199297214874 .1133205064216946 -.02695964046424365 -1923371233850315
e-32 -.924054872131514 -.382259850481333 16 182 165 184 ?74 185 186 179 0 0 1 30
 183 226 0 186 179 187 0 +-.1042255244768936 .1227415403806724 -.049733552815614
2 -1923371233850315e-32 -.924054872131514 -.382259850481333 16 186 169 188 ?78 1
82 189 183 0 0 1 30 187 225 0 189 183 190 0 +-.106197174692759 .122869808598405
 -.0500436216637711 -1923371233850315e-32 -.924054872131514 -.382259850481333 16
 189 173 191 ?81 186 171 187 0 0 1 30 190 224 0 171 187 192 0 +-.110391579937353
 .113448774639427 -.0272697093124005 -1923371233850315e-32 -.924054872131514 -.3
82259850481333 16 171 161 193 ?194 189 168 190 0 0 1 30 192 7 0 195 190 196 0 +-
.1143348803690838 .1127812562027606 -.0282721068591956 -.98582510793274 .0641341
088662623 -.155034424078436 16 195 5 197 ?198 199 200 192 200 200 1 30 196 11 0
 199 192 201 0 +-.1143348803690838 .1127812562027606 -.0282721068591956 19233712
33850315e-32 .924054872131514 .382259850481333 16 199 9 202 ?69 203 195 196 0 0
 1 30 201 15 0 204 196 205 0 +-.1143348803690838 .1220218049240758 -.02444950835
438225 .98582510793274 -.0641341088662623 .155034424078436 16 204 13 206 ?41 207
 203 201 203 203 1 30 205 19 0 207 201 208 0 +-.1044766292897564 .11213991511409
8 -.02672176261841125 -1923371233850315e-32 -.924054872131514 -.382259850481333
 16 207 17 209 ?63 210 204 205 0 0 1 30 208 74 0 185 205 211 0 +-.11450265657886
76 .1124044148444014 -.02736115036514075 -.98582510793274 .0641341088662623 -.15
5034424078436 16 185 62 212 ?213 214 182 208 0 0 1 30 211 73 0 214 208 215 0 +-.
1145026565788676 .1124044148444014 -.02736115036514075 1923371233850315e-32 .924
054872131514 .382259850481333 16 214 58 216 ?57 217 185 211 0 0 1 30 215 72 0 21
7 211 218 0 +-.1145026565788676 .1216449635657166 -.02353855186032745 .985825107
93274 -.0641341088662623 .155034424078436 16 217 54 219 ?54 220 214 215 0 0 1 30
 218 71 0 220 215 221 0 +-.1046444054995402 .111763073755739 -.0258108061243564
 -1923371233850315e-32 -.924054872131514 -.382259850481333 16 220 50 222 ?50 200
 217 218 0 0 1 30 221 95 0 210 218 223 0 +-.1044766292897564 .112139915114098 -.
02672176261841125 -.167776209783753 -.3768413583591135 .910956494054824 16 210 7
9 224 ?225 226 207 221 0 0 1 30 223 96 0 226 221 20 0 +-.1044766292897564 .12138
04638354132 -.0228991641135979 -.167776209783753 -.3768413583591135 .91095649405
4824 16 226 80 227 ?228 25 210 223 0 0 1 30 20 97 0 25 223 7 0 +-.11433488036908
38 .1220218049240758 -.02444950835438225 -.167776209783753 -.3768413583591135 .9
10956494054824 16 25 81 229 ?230 10 226 20 0 0 1 81 1 229 839 132 25 0 0 23 227
 231 17 230 0 232 54 233 55 234 25 0 235 +15 232 85 0 54 236 0 17 54 0 232 237 2
30 52 235 217 0 228 +17 233 0 232 230 147 67 41 204 0 0 -17 234 0 238 239 57 67
 230 25 0 233 -17 235 0 240 60 241 55 54 217 0 0 -15 240 49 0 242 243 0 17 60 0
 240 242 235 58 57 214 0 24 -17 241 0 240 235 242 52 50 220 0 0 -17 242 0 240 24
1 60 48 213 185 0 0 -17 50 0 244 245 228 48 241 220 0 225 +15 244 83 0 50 246 0
 17 245 0 244 247 50 47 225 210 0 248 -17 228 0 244 50 247 52 237 226 0 241 +17
 225 0 249 213 248 48 245 210 0 242 +15 249 89 0 213 18 0 17 213 0 249 250 225 5
8 242 185 0 0 +17 248 0 249 225 181 47 198 195 0 0 -17 181 0 249 248 178 72 251
 161 0 198 +17 198 0 36 252 63 72 248 195 0 0 +15 36 272 0 41 253 0 17 252 0 36
 159 198 61 74 182 0 0 -17 63 0 36 198 66 47 247 207 0 245 +17 66 0 36 63 37 64
 102 203 0 237 +17 247 0 244 228 245 64 63 207 0 0 -17 37 0 36 66 34 100 40 113
 0 109 +17 102 0 232 124 237 100 66 203 0 37 -16 203 269 254 ?66 204 199 201 204
 204 1 17 237 0 232 102 54 64 228 226 0 247 -81 1 254 844 132 203 0 0 206 202 25
5 80 255 1 132 0 256 8001 0 0 0 0 3 5 0 0 0 FFFFTFTFFFFFFF2 81 1 206 843 132 204
 0 0 209 254 257 81 1 202 845 132 199 0 0 254 197 258 83 255 3 255 .647058823529
412 .619607843137255 .588235294117647 81 1 197 846 132 195 0 0 202 259 260 83 3
 258 .647058823529412 .619607843137255 .588235294117647 81 1 259 847 132 200 0 0
 197 222 261 83 3 260 .647058823529412 .619607843137255 .588235294117647 16 200
 145 259 ?71 195 220 192 195 195 1 81 1 222 848 132 220 0 0 259 219 262 83 3 261
 .647058823529412 .619607843137255 .588235294117647 81 1 219 849 132 217 0 0 222
 216 263 83 3 262 .647058823529412 .619607843137255 .588235294117647 81 1 216 85
0 132 214 0 0 219 212 264 83 3 263 .647058823529412 .619607843137255 .5882352941
17647 81 1 212 851 132 185 0 0 216 184 265 83 3 264 .647058823529412 .6196078431
37255 .588235294117647 81 1 184 852 132 182 0 0 212 188 266 83 3 265 .6470588235
29412 .619607843137255 .588235294117647 81 1 188 853 132 186 0 0 184 191 267 83
 3 266 .647058823529412 .619607843137255 .588235294117647 81 1 191 854 132 189 0
 0 188 193 268 83 3 267 .647058823529412 .619607843137255 .588235294117647 81 1
 193 855 132 171 0 0 191 170 269 83 3 268 .647058823529412 .619607843137255 .588
235294117647 81 1 170 856 132 168 0 0 193 166 270 83 3 269 .647058823529412 .619
607843137255 .588235294117647 81 1 166 857 132 164 0 0 170 163 271 83 3 270 .647
058823529412 .619607843137255 .588235294117647 81 1 163 858 132 160 0 0 166 158
 272 83 3 271 .647058823529412 .619607843137255 .588235294117647 81 1 158 859 13
2 156 0 0 163 180 273 83 3 272 .647058823529412 .619607843137255 .58823529411764
7 81 1 180 860 132 161 0 0 158 177 274 83 3 273 .647058823529412 .61960784313725
5 .588235294117647 81 1 177 861 132 175 0 0 180 173 275 83 3 274 .64705882352941
2 .619607843137255 .588235294117647 81 1 173 862 132 151 0 0 177 150 276 83 3 27
5 .647058823529412 .619607843137255 .588235294117647 81 1 150 863 132 148 0 0 17
3 152 277 83 3 276 .647058823529412 .619607843137255 .588235294117647 81 1 152 8
64 132 126 0 0 150 125 278 83 3 277 .647058823529412 .619607843137255 .588235294
117647 81 1 125 865 132 111 0 0 152 155 279 83 3 278 .647058823529412 .619607843
137255 .588235294117647 81 1 155 866 132 113 0 0 125 133 280 83 3 279 .647058823
529412 .619607843137255 .588235294117647 81 1 133 867 132 32 0 0 155 130 281 83
 3 280 .647058823529412 .619607843137255 .588235294117647 83 3 281 .647058823529
412 .619607843137255 .588235294117647 17 71 0 36 69 194 51 282 200 0 239 +17 69
 0 36 41 71 67 239 199 0 234 +17 194 0 36 71 159 42 92 171 0 282 +17 282 0 249 1
74 250 42 71 200 0 0 -17 239 0 238 24 234 51 69 199 0 250 -15 238 87 0 57 283 0
 17 24 0 238 57 239 58 250 10 0 213 +17 250 0 249 282 213 51 24 10 0 0 -17 57 0
 238 234 24 55 60 214 0 230 +14 255 283 88 284 ?236 18 238 5 19 -0 0 236 18 22 8
1 1 284 815 132 283 0 0 285 286 287 14 236 86 286 ?246 283 232 5 288 -0 0 246 28
3 22 14 18 90 285 ?283 253 249 5 6 -0 0 283 253 22 50 19 93 0 283 288 6 0 +-.114
3348803690838 .1127812562027606 -.0282721068591956 .98582510793274 -.06413410886
62623 .155034424078436 -1923371233850315e-32 -.924054872131514 -.382259850481333
 13 22 34 0 0 0 0 0 0 9 16 14 16 651 289 ?253 0 290 5 291 -0 0 253 0 22 81 1 289
 812 132 16 0 0 0 292 293 14 253 155 292 ?18 16 36 5 294 -0 0 18 16 22 15 290 54
8 0 295 16 296 51 255 291 498 0 16 297 298 0 --.1057146782141776 .12906758939151
34 -.04409763895367755 -1923371233850315e-32 -.924054872131514 -.382259850481333
 .0025 .167776209783753 .3768413583591135 -.910956494054824 50 297 608 0 299 300
 291 0 +-.1057146782141776 .1225992052865928 -.0467734579070469 -192337123385031
5e-32 -.924054872131514 -.382259850481333 .167776209783753 .3768413583591135 -.9
10956494054824 50 298 351 0 128 291 301 0 +-.1145026565788676 .120720908693585 -
.02392081171080875 1923371233850315e-32 .924054872131514 .382259850481333 -.1677
76209783753 -.3768413583591135 .910956494054824 14 128 338 302 ?299 110 114 5 29
8 -0 0 299 110 22 50 301 349 0 303 298 304 0 +-.106197174692759 .130262247575457
 -.0469855428599205 -.98582510793274 .0641341088662623 -.155034424078436 .167776
209783753 .3768413583591135 -.910956494054824 14 303 326 305 ?121 306 28 5 301 +
0 0 121 306 22 50 304 348 0 121 301 307 0 +-.1042255244768936 .1301339793577244
 -.0466754740117636 .167776209783753 .3768413583591135 -.910956494054824 1923371
233850315e-32 .924054872131514 .382259850481333 14 121 330 308 ?110 303 119 5 30
4 +0 0 110 303 22 50 307 347 0 110 304 309 0 +-.1084199297214874 .12071294539874
66 -.023901561660393 .98582510793274 -.0641341088662623 .155034424078436 -192337
1233850315e-32 -.924054872131514 -.382259850481333 14 110 334 310 ?128 121 105 5
 307 +0 0 128 121 22 50 309 223 0 306 307 311 0 +-.1145026565788676 .11332846971
6533 -.02697889051465945 1923371233850315e-32 .924054872131514 .382259850481333
 -.167776209783753 -.3768413583591135 .910956494054824 14 306 210 312 ?303 313 3
14 5 309 +0 0 303 313 22 50 311 221 0 315 309 316 0 +-.1084199297214874 .1133205
064216946 -.02695964046424365 .98582510793274 -.0641341088662623 .15503442407843
6 -1923371233850315e-32 -.924054872131514 -.382259850481333 14 315 198 317 ?318
 243 319 5 311 +0 0 318 243 22 50 316 220 0 318 311 320 0 +-.1042255244768936 .1
227415403806724 -.0497335528156142 .167776209783753 .3768413583591135 -.91095649
4054824 1923371233850315e-32 .924054872131514 .382259850481333 14 318 202 321 ?3
13 315 322 5 316 +0 0 313 315 22 50 320 219 0 313 316 294 0 +-.106197174692759 .
122869808598405 -.0500436216637711 -.98582510793274 .0641341088662623 -.15503442
4078436 .167776209783753 .3768413583591135 -.910956494054824 14 313 206 323 ?306
 318 324 5 320 +0 0 306 318 22 50 294 3 0 253 320 325 0 +-.1143348803690838 .112
7812562027606 -.0282721068591956 -.167776209783753 -.3768413583591135 .910956494
054824 -1923371233850315e-32 -.924054872131514 -.382259850481333 50 325 70 0 243
 294 326 0 +-.1145026565788676 .1124044148444014 -.02736115036514075 -.167776209
783753 -.3768413583591135 .910956494054824 -1923371233850315e-32 -.9240548721315
14 -.382259850481333 14 243 48 327 ?315 246 240 5 325 +0 0 315 246 22 50 326 91
 0 246 325 288 0 +-.1044766292897564 .112139915114098 -.02672176261841125 -.9858
2510793274 .0641341088662623 -.155034424078436 1923371233850315e-32 .92405487213
1514 .382259850481333 14 246 84 328 ?243 236 244 5 326 -0 0 243 236 22 50 288 92
 0 236 326 19 0 +-.1143348803690838 .1220218049240758 -.02444950835438225 -19233
71233850315e-32 -.924054872131514 -.382259850481333 .167776209783753 .3768413583
591135 -.910956494054824 81 1 328 817 132 246 0 0 286 327 329 81 1 286 816 132 2
36 0 0 284 328 330 81 1 327 818 132 243 0 0 328 317 331 83 3 329 .64705882352941
2 .619607843137255 .588235294117647 81 1 317 819 132 315 0 0 327 321 332 83 3 33
1 .647058823529412 .619607843137255 .588235294117647 81 1 321 820 132 318 0 0 31
7 323 333 83 3 332 .647058823529412 .619607843137255 .588235294117647 81 1 323 8
21 132 313 0 0 321 312 334 83 3 333 .647058823529412 .619607843137255 .588235294
117647 81 1 312 822 132 306 0 0 323 305 335 83 3 334 .647058823529412 .619607843
137255 .588235294117647 81 1 305 823 132 303 0 0 312 308 336 83 3 335 .647058823
529412 .619607843137255 .588235294117647 81 1 308 824 132 121 0 0 305 310 337 83
 3 336 .647058823529412 .619607843137255 .588235294117647 81 1 310 825 132 110 0
 0 308 302 338 83 3 337 .647058823529412 .619607843137255 .588235294117647 81 1
 302 826 132 128 0 0 310 339 340 83 3 338 .647058823529412 .619607843137255 .588
235294117647 81 1 339 827 132 299 0 0 302 341 342 83 3 340 .647058823529412 .619
607843137255 .588235294117647 14 299 591 339 ?343 128 344 5 297 +0 0 343 128 22
 81 1 341 828 132 343 0 0 339 345 346 83 3 342 .647058823529412 .619607843137255
 .588235294117647 14 343 599 341 ?347 299 348 5 300 +0 0 347 299 22 81 1 345 829
 132 347 0 0 341 349 350 83 3 346 .647058823529412 .619607843137255 .58823529411
7647 14 347 692 345 ?351 343 352 5 353 +0 0 351 343 22 81 1 349 830 132 351 0 0
 345 23 354 83 3 350 .647058823529412 .619607843137255 .588235294117647 14 351 7
00 349 ?0 347 355 5 356 +0 0 0 347 22 81 1 23 838 132 10 0 0 349 229 357 83 3 35
4 .647058823529412 .619607843137255 .588235294117647 83 3 357 .647058823529412 .
619607843137255 .588235294117647 15 355 703 0 358 351 359 51 356 710 0 351 0 353
 0 +-.1057146782141776 .128143534519382 -.0444798988041589 1923371233850315e-32
 .924054872131514 .382259850481333 5e-4 -.167776209783753 -.3768413583591135 .91
0956494054824 50 353 709 0 347 356 300 0 +-.1057146782141776 .128143534519382 -.
0444798988041589 1923371233850315e-32 .924054872131514 .382259850481333 -.167776
209783753 -.3768413583591135 .910956494054824 51 300 609 0 343 353 297 0 +-.1057
146782141776 .1225992052865928 -.0467734579070469 -1923371233850315e-32 -.924054
872131514 -.382259850481333 5e-4 .167776209783753 .3768413583591135 -.9109564940
54824 17 358 0 355 358 358 0 360 361 0 0 +15 359 704 0 362 351 0 17 362 0 359 36
2 362 0 363 364 0 0 -17 363 0 129 363 363 0 362 364 0 0 +16 364 674 365 ?363 361
 0 366 0 0 1 81 1 365 879 132 364 0 0 367 0 368 16 361 665 367 ?358 369 364 370
 0 0 1 31 255 366 715 0 364 370 371 0 +-.1057146782141776 .1290675893915134 -.04
409763895367755 1923371233850315e-32 .924054872131514 .382259850481333 -.1677762
09783753 -.3768413583591135 .910956494054824 5e-4 31 370 716 0 361 0 366 0 +-.10
57146782141776 .128143534519382 -.0444798988041589 1923371233850315e-32 .9240548
72131514 .382259850481333 -.167776209783753 -.3768413583591135 .910956494054824
 5e-4 31 371 714 0 369 366 372 0 +-.1057146782141776 .128143534519382 -.04447989
88041589 1923371233850315e-32 .924054872131514 .382259850481333 -.16777620978375
3 -.3768413583591135 .910956494054824 .0025 16 369 662 373 ?374 375 361 371 0 0
 1 31 372 615 0 376 371 377 0 +-.1057146782141776 .1225992052865928 -.0467734579
070469 -1923371233850315e-32 -.924054872131514 -.382259850481333 .16777620978375
3 .3768413583591135 -.910956494054824 5e-4 16 376 564 378 ?379 141 375 372 0 0 1
 31 377 614 0 375 372 380 0 +-.1057146782141776 .1216751504144612 -.047155717757
5282 -1923371233850315e-32 -.924054872131514 -.382259850481333 .167776209783753
 .3768413583591135 -.910956494054824 5e-4 16 375 573 381 ?382 376 369 377 0 0 1
 31 380 613 0 141 377 136 0 +-.1057146782141776 .1225992052865928 -.046773457907
0469 -1923371233850315e-32 -.924054872131514 -.382259850481333 .167776209783753
 .3768413583591135 -.910956494054824 .0025 16 141 561 383 ?384 138 376 380 0 0 1
 30 136 363 0 39 380 118 0 +-.110391579937353 .1208412136164792 -.02421163050854
985 .98582510793274 -.0641341088662623 .155034424078436 16 39 286 385 ?34 107 14
4 136 0 0 1 81 1 385 870 132 39 0 0 116 146 386 81 1 116 869 132 107 0 0 130 385
 387 81 1 146 871 132 144 0 0 385 143 388 83 3 386 .647058823529412 .61960784313
7255 .588235294117647 81 1 143 872 132 123 0 0 146 140 389 83 3 388 .64705882352
9412 .619607843137255 .588235294117647 81 1 140 873 132 138 0 0 143 383 390 83 3
 389 .647058823529412 .619607843137255 .588235294117647 81 1 383 874 132 141 0 0
 140 378 391 83 3 390 .647058823529412 .619607843137255 .588235294117647 81 1 37
8 875 132 376 0 0 383 381 392 83 3 391 .647058823529412 .619607843137255 .588235
294117647 81 1 381 876 132 375 0 0 378 373 393 83 3 392 .647058823529412 .619607
843137255 .588235294117647 81 1 373 877 132 369 0 0 381 367 394 83 3 393 .647058
823529412 .619607843137255 .588235294117647 81 1 367 878 132 361 0 0 373 365 395
 83 3 394 .647058823529412 .619607843137255 .588235294117647 83 3 395 .647058823
529412 .619607843137255 .588235294117647 83 3 387 .647058823529412 .619607843137
255 .588235294117647 17 384 0 396 384 384 0 295 141 0 0 +15 396 594 0 384 299 0
 17 295 0 290 295 295 0 384 141 0 0 -17 382 0 397 382 382 0 398 375 0 0 +15 397
 598 0 382 306 0 17 398 0 399 398 398 0 382 375 0 0 -15 399 603 0 398 343 0 17 3
79 0 348 379 379 0 400 376 0 0 +15 348 602 0 379 343 399 17 400 0 344 400 400 0
 379 376 0 0 -15 344 593 0 400 299 396 17 374 0 401 374 374 0 402 369 0 0 +15 40
1 695 0 374 347 0 17 402 0 296 402 402 0 374 369 0 0 -15 296 649 0 402 16 0 83 3
 368 .647058823529412 .619607843137255 .588235294117647 15 129 699 0 363 128 0 1
7 360 0 352 360 360 0 358 361 0 0 -15 352 694 0 360 347 401 83 3 330 .6470588235
29412 .619607843137255 .588235294117647 15 324 209 0 46 313 0 17 46 0 324 92 81
 42 174 151 0 194 -17 92 0 324 90 46 75 194 171 0 403 -17 81 0 324 46 90 79 404
 189 0 405 +17 174 0 249 178 282 79 46 151 0 0 +17 178 0 249 181 174 76 405 175
 0 251 +17 405 0 322 404 78 79 178 175 0 174 -17 251 0 319 87 74 76 181 161 0 0
 -15 319 201 0 251 315 0 17 87 0 319 84 251 85 78 186 0 167 -17 74 0 319 251 84
 72 252 182 0 181 +17 84 0 319 74 87 61 406 168 0 407 +17 406 0 314 408 407 85 8
4 168 0 0 -17 407 0 314 406 403 61 159 156 0 252 -15 314 212 0 407 306 397 17 40
3 0 314 407 408 75 90 160 0 159 -17 159 0 36 194 252 75 407 156 0 0 +17 408 0 31
4 403 406 88 167 164 0 0 -17 90 0 324 81 92 88 403 160 0 404 +17 404 0 322 167 4
05 88 81 189 0 408 -15 322 205 0 405 318 0 17 167 0 322 78 404 85 408 164 0 406
 +17 78 0 322 405 167 76 87 186 0 178 +15 28 329 0 409 303 0 17 409 0 28 30 29 9
3 147 144 0 0 -17 30 0 28 26 409 82 95 126 0 120 -17 29 0 28 409 26 35 33 148 0
 147 +17 147 0 232 233 122 35 409 144 0 0 +17 122 0 232 147 124 93 112 123 0 409
 +17 124 0 232 122 102 97 109 138 0 0 +17 109 0 105 40 99 100 124 138 0 0 -17 33
 0 36 34 41 11 29 148 0 38 -17 41 0 36 33 69 35 233 204 0 29 +17 38 0 114 31 106
 11 34 39 0 0 -17 95 0 119 112 120 93 30 126 0 122 +81 1 292 813 132 253 0 0 289
 285 410 81 1 285 814 132 18 0 0 292 284 411 83 3 410 .647058823529412 .61960784
3137255 .588235294117647 83 3 411 .647058823529412 .619607843137255 .58823529411
7647 83 3 293 .647058823529412 .619607843137255 .588235294117647 83 3 287 .64705
8823529412 .619607843137255 .588235294117647 81 1 209 842 132 207 0 0 224 206 41
2 83 3 257 .647058823529412 .619607843137255 .588235294117647 81 1 224 841 132 2
10 0 0 227 209 413 83 3 412 .647058823529412 .619607843137255 .588235294117647 8
1 1 227 840 132 226 0 0 229 224 414 83 3 413 .647058823529412 .619607843137255 .
588235294117647 83 3 414 .647058823529412 .619607843137255 .588235294117647 79 2
55 15 256 SDL/TYSA_COLOUR83 3 231 .647058823529412 .619607843137255 .58823529411
7647 83 3 134 .647058823529412 .619607843137255 .588235294117647 19 17 100 0 1 0
 9 5 S0 74 4 CI16 index_map_offset0 0 1 dCCZ20 15 6 0 0 365 415 416 417 13 2 0 0
 0 0 0 0 0 0 0 0 0 0 0 0 81 1 415 831 418 1 0 416 0 0 419 81 1 416 834 420 1 415
 417 0 0 421 81 1 417 835 422 1 416 13 0 0 423 81 1 13 836 424 1 417 2 0 0 425 8
0 1 424 420 426 9000 0 0 0 0 3 5 0 0 0 FFTFFFFFFFFFFF3 84 255 16 425 _06_bar_bot
tom_579 13 426 AdamsPartName80 1 422 424 427 9000 0 0 0 0 3 5 0 0 0 FFTFFFFFFFFF
FF3 84 6 423 PSMAR379 12 427 AdamsRFMName80 1 420 428 429 9000 0 0 0 0 3 5 0 0 0
 FFTFFFFFFFFFFF1 82 255 1 421 25 79 12 429 UG2/ADAMS_ID80 1 418 430 431 8017 0 0
 0 0 0 0 0 0 0 TTTTTTTTTTTTTF3 84 10 419 09_bearing79 13 431 SDL/TYSA_NAME80 1 1
2 422 432 9000 0 0 0 0 3 5 0 0 0 FFTFFFFFFFFFFF3 84 7 14 SOLID3279 15 432 AdamsO
bjectName1 0 
